<?xml version="1.0" encoding="utf-8"?>
<!-- Generator: Adobe Illustrator 14.0.0, SVG Export Plug-In . SVG Version: 6.00 Build 43363)  -->
<!DOCTYPE svg PUBLIC "-//W3C//DTD SVG 1.1//EN" "http://www.w3.org/Graphics/SVG/1.1/DTD/svg11.dtd">
<svg version="1.1" id="Layer_1" xmlns="http://www.w3.org/2000/svg" xmlns:xlink="http://www.w3.org/1999/xlink" x="0px" y="0px"
	 width="36px" height="36px" viewBox="0 0 36 36" enable-background="new 0 0 36 36" xml:space="preserve">
<g>
	<path fill="#B16161" stroke="#652B35" stroke-width="0.2453" stroke-linecap="round" d="M35.294,9.072
		c0.726,0.332-0.619,6.201-1.398,7.325c-1.233,1.782-18.078,13.242-18.938,13.889l-14.083-2.43c0,0,0.35-5.534,1.917-6.646
		C4.366,20.096,20.36,10.064,20.36,10.064S35.281,9.077,35.294,9.072z"/>
	
		<linearGradient id="SVGID_1_" gradientUnits="userSpaceOnUse" x1="44.6904" y1="-8.7197" x2="37.2122" y2="16.4071" gradientTransform="matrix(1.0582 -0.1642 0.2026 0.9485 -25.7077 17.3013)">
		<stop  offset="0" style="stop-color:#FFFFFF"/>
		<stop  offset="0.0029" style="stop-color:#FEF2F2"/>
		<stop  offset="0.0083" style="stop-color:#FBD0D0"/>
		<stop  offset="0.0156" style="stop-color:#F69A98"/>
		<stop  offset="0.0169" style="stop-color:#F5908E"/>
		<stop  offset="0.3549" style="stop-color:#F59290"/>
		<stop  offset="0.4767" style="stop-color:#F69997"/>
		<stop  offset="0.5634" style="stop-color:#F7A4A3"/>
		<stop  offset="0.6336" style="stop-color:#F8B5B4"/>
		<stop  offset="0.6937" style="stop-color:#FACBCA"/>
		<stop  offset="0.746" style="stop-color:#FDE5E4"/>
		<stop  offset="0.7865" style="stop-color:#FFFFFF"/>
		<stop  offset="0.8708" style="stop-color:#BD7188"/>
	</linearGradient>
	<path fill="url(#SVGID_1_)" stroke="#652B35" stroke-width="0.26" stroke-linecap="round" d="M18.547,22.144
		c2.139-1.988,16.868-12.145,16.862-12.818c-0.01-2.42-5.25-3.442-7.972-3.475c-1.016-0.013-2.914-0.11-6.576,1.682
		C19.264,8.315,4.537,19.039,2.93,20.641c-0.619,0.61-2.882,5.44-2.301,7.075c0.7,1.975,13.599,2.94,14.056,2.709
		C17.272,29.104,17.161,23.427,18.547,22.144z"/>
</g>
</svg>
