<?xml version="1.0" encoding="utf-8"?>
<!-- Generator: Adobe Illustrator 14.0.0, SVG Export Plug-In . SVG Version: 6.00 Build 43363)  -->
<!DOCTYPE svg PUBLIC "-//W3C//DTD SVG 1.1//EN" "http://www.w3.org/Graphics/SVG/1.1/DTD/svg11.dtd">
<svg version="1.1" id="Layer_1" xmlns="http://www.w3.org/2000/svg" xmlns:xlink="http://www.w3.org/1999/xlink" x="0px" y="0px"
	 width="36px" height="36px" viewBox="0 0 36 36" enable-background="new 0 0 36 36" xml:space="preserve">
<g>
	<g>
		<path fill="none" stroke="#F8B3B6" stroke-linecap="round" d="M0.689,14.475C0.534,13.166,23.02,0.18,24.652,0.83
			c1.63,0.654,8.878,26.114,7.636,27.223c-1.24,1.114-26.309,2.223-27.354,1.178C3.889,28.186,7.872,2.201,9.308,1.484
			c1.437-0.718,25.79,9.922,25.985,11.229c0.195,1.306-15.475,22.459-16.715,22.459C17.337,35.172,0.822,15.585,0.689,14.475z"/>
	</g>
	<path fill="none" stroke="#B5B3CF" stroke-width="0.95" stroke-linecap="round" d="M29.3,26.079
		c-0.474,0.548-6.531,0.431-13.844-2.791c-7.31-3.223-11.791-7.512-11.713-8.38c0.079-0.864,9.041-3.884,13.679-3.964
		c4.639-0.078,14.174,0.951,14.333,2.444s-6.236,6.834-10.402,9.111c-4.164,2.279-12.981,5.438-13.925,4.339
		c-0.944-1.102-0.226-5.595,5.2-13.22c5.424-7.625,9.625-10.214,10.649-9.82c1.021,0.391,3.03,8.482,0.593,15.948
		c-2.437,7.473-4.482,11.908-5.506,11.831c-1.021-0.083-4.713-4.752-6.68-12.77C9.717,10.788,9.346,5.322,10.76,4.617
		c1.415-0.708,8.234,4.126,11.3,8.452c3.064,4.323,8.81,10.732,7.316,12.774"/>
	<path fill="none" stroke="#8CD1C6" stroke-width="0.5544" stroke-linecap="round" d="M22.723,21.228
		c-0.208,0.245-2.784,0.383-6.017-1.042c-3.232-1.427-5.007-3.269-4.974-3.653c0.035-0.382,3.791-1.773,5.845-1.807
		c2.05-0.037,6.015,0.417,6.086,1.076c0.07,0.661-2.507,3.026-4.346,4.035c-1.845,1.01-5.566,2.227-5.984,1.739
		c-0.417-0.488-0.278-2.295,2.121-5.669c2.4-3.373,4-4.278,4.451-4.105c0.454,0.176,1.601,3.517,0.524,6.818
		c-1.081,3.306-2.019,5.078-2.471,5.042c-0.452-0.032-2.055-1.91-2.923-5.459c-0.869-3.546-0.974-5.74-0.347-6.053
		c0.626-0.311,3.583,1.601,4.938,3.515c1.357,1.911,3.792,4.553,3.131,5.458"/>
</g>
</svg>
