<?xml version="1.0" encoding="utf-8"?>
<!-- Generator: Adobe Illustrator 14.0.0, SVG Export Plug-In . SVG Version: 6.00 Build 43363)  -->
<!DOCTYPE svg PUBLIC "-//W3C//DTD SVG 1.1//EN" "http://www.w3.org/Graphics/SVG/1.1/DTD/svg11.dtd">
<svg version="1.1" id="Layer_1" xmlns="http://www.w3.org/2000/svg" xmlns:xlink="http://www.w3.org/1999/xlink" x="0px" y="0px"
	 width="36px" height="36px" viewBox="0 0 36 36" enable-background="new 0 0 36 36" xml:space="preserve">
<g>
	<g>
		<g>
			
				<linearGradient id="SVGID_1_" gradientUnits="userSpaceOnUse" x1="72.0176" y1="200.5244" x2="88.6563" y2="228.1991" gradientTransform="matrix(0.7071 0.7071 -0.7071 0.7071 108.9278 -189.3345)">
				<stop  offset="0" style="stop-color:#FFFFFF"/>
				<stop  offset="0.3456" style="stop-color:#FFFAA6"/>
				<stop  offset="1" style="stop-color:#FFF100"/>
			</linearGradient>
			<path fill="url(#SVGID_1_)" d="M5.662,27.981c-0.576,0.548-1.575,1.106-2.062,0.641l0.96,0.556
				c-0.869-0.832,0.235-3.783,0.03-4.094L22.217,8.271c0.858-0.289,1.726-0.354,2.217,0.112l0,0c0.484,0.468,0.414,1.292-0.162,1.84
				L5.662,27.981z"/>
			
				<linearGradient id="SVGID_2_" gradientUnits="userSpaceOnUse" x1="92.0693" y1="230.5645" x2="73.4356" y2="195.0837" gradientTransform="matrix(0.7071 0.7071 -0.7071 0.7071 108.9278 -189.3345)">
				<stop  offset="0" style="stop-color:#EC1C24"/>
				<stop  offset="0.2176" style="stop-color:#F04B1C"/>
				<stop  offset="1" style="stop-color:#FFF100"/>
			</linearGradient>
			<path fill="url(#SVGID_2_)" d="M8.914,30.021c-0.178-0.232-2.483,0.12-2.483,0.12c-0.488-0.47-0.417-1.288,0.158-1.838
				L25.018,10.72c0.571-0.549,1.432-0.611,1.917-0.146l0,0c0.489,0.468,0.423,1.287,0.034,2.175L8.914,30.021z"/>
			
				<linearGradient id="SVGID_3_" gradientUnits="userSpaceOnUse" x1="53.6553" y1="188.4385" x2="83.5625" y2="217.2063" gradientTransform="matrix(0.7071 0.7071 -0.7071 0.7071 108.9278 -189.3345)">
				<stop  offset="0" style="stop-color:#977348"/>
				<stop  offset="1" style="stop-color:#EFCA75"/>
			</linearGradient>
			<path fill="url(#SVGID_3_)" d="M4.969,31.021c-0.641,0.613-1.541,0.743-2.012,0.287l0,0c-0.471-0.446-0.336-1.305,0.304-1.915
				l20.516-19.58c0.635-0.608,1.537-0.736,2.008-0.289l0,0c0.475,0.455,0.34,1.313-0.298,1.92L4.969,31.021z"/>
		</g>
		<line fill="none" stroke="#FFFFFF" stroke-width="0.1121" x1="22.746" y1="10.703" x2="4.142" y2="28.455"/>
	</g>
	
		<linearGradient id="SVGID_4_" gradientUnits="userSpaceOnUse" x1="-10.4082" y1="117.2373" x2="-5.3922" y2="117.2373" gradientTransform="matrix(0.9614 0.9614 -0.8112 0.8112 132.9459 -83.7227)">
		<stop  offset="0" style="stop-color:#FFFFFF"/>
		<stop  offset="0.0022" style="stop-color:#FEF3F2"/>
		<stop  offset="0.0064" style="stop-color:#FBD5CF"/>
		<stop  offset="0.012" style="stop-color:#F7A398"/>
		<stop  offset="0.0169" style="stop-color:#F37362"/>
		<stop  offset="0.3612" style="stop-color:#F17262"/>
		<stop  offset="0.4853" style="stop-color:#EA7061"/>
		<stop  offset="0.5736" style="stop-color:#DE6B5F"/>
		<stop  offset="0.6451" style="stop-color:#CE655D"/>
		<stop  offset="0.7064" style="stop-color:#B85D5A"/>
		<stop  offset="0.7605" style="stop-color:#9C5356"/>
		<stop  offset="0.8084" style="stop-color:#7D4751"/>
		<stop  offset="0.8371" style="stop-color:#663F4E"/>
	</linearGradient>
	<path fill="url(#SVGID_4_)" stroke="#F16522" stroke-width="0.4338" stroke-linecap="round" d="M31.535,7.869
		c-0.892,0.854-2.542,0.657-3.696-0.438l0,0C26.69,6.33,26.479,4.755,27.378,3.9l2.958-2.822c0.892-0.851,2.543-0.655,3.698,0.44
		l0,0c1.146,1.102,1.355,2.678,0.463,3.529L31.535,7.869z"/>
	<g>
		
			<linearGradient id="SVGID_5_" gradientUnits="userSpaceOnUse" x1="-46.9302" y1="117.5391" x2="-44.3039" y2="120.9056" gradientTransform="matrix(1.0367 -0.0493 -0.0493 1.0367 56.8632 -95.7978)">
			<stop  offset="0" style="stop-color:#E4C3A7"/>
			<stop  offset="0.1462" style="stop-color:#DCBC9F"/>
			<stop  offset="0.3747" style="stop-color:#C6A88A"/>
			<stop  offset="0.6569" style="stop-color:#A18768"/>
			<stop  offset="0.9791" style="stop-color:#705A38"/>
			<stop  offset="1" style="stop-color:#6C5735"/>
		</linearGradient>
		<path fill="url(#SVGID_5_)" d="M0.674,33.078c-0.101,0.229,0.289-0.028,0.213,0.152l0.332,0.104l7.768-3.378
			c-0.128-0.024-0.354-0.962-1.232-0.979c-0.724-0.006-1.652,0.623-2.327,0.389c-0.005-0.314,0.162-0.639,0.353-0.927
			c0.252-0.424,0.371-0.438,0.407-1.016c-0.309-0.056-0.527,0.209-0.822,0.292c-0.238,0.062-0.5,0.189-0.691,0.165
			c0.172-0.377-0.04-0.422,0.133-0.787c0.866-1.841,0.32-1.749,0.015-2.178C4.604,24.608,1.881,30.383,0.674,33.078z"/>
		<linearGradient id="SVGID_6_" gradientUnits="userSpaceOnUse" x1="3.9194" y1="32.8965" x2="0.505" y2="30.4911">
			<stop  offset="0" style="stop-color:#626366"/>
			<stop  offset="0.0924" style="stop-color:#5A5B5E"/>
			<stop  offset="0.3814" style="stop-color:#474749"/>
			<stop  offset="0.5714" style="stop-color:#404041"/>
			<stop  offset="0.6958" style="stop-color:#5E5F61"/>
			<stop  offset="0.8984" style="stop-color:#8B8C8F"/>
			<stop  offset="1" style="stop-color:#9C9EA1"/>
		</linearGradient>
		<path fill="url(#SVGID_6_)" d="M5.75,31.367c0,0-2.459,0.495-3.098-0.121c-0.646-0.606-0.114-2.21-0.114-2.21l-2.127,4.277
			l0.682,0.253L5.75,31.367z"/>
	</g>
	
		<linearGradient id="SVGID_7_" gradientUnits="userSpaceOnUse" x1="-25.1797" y1="98.4814" x2="-21.9236" y2="101.8375" gradientTransform="matrix(1.0367 -0.0493 -0.0493 1.0367 56.8632 -95.7978)">
		<stop  offset="0" style="stop-color:#FFFFFF"/>
		<stop  offset="1" style="stop-color:#000000"/>
	</linearGradient>
	<path fill="url(#SVGID_7_)" stroke="#626366" stroke-width="0.0894" stroke-linecap="round" d="M21.475,9.045l6.192-5.892
		c0,0,0.883,1.256,1.962,2.281c1.132,1.087,2.681,2.191,2.681,2.191l-6.309,6.018c0,0-1.48-1.082-2.496-2.054
		C22.489,10.619,21.475,9.045,21.475,9.045z"/>
	<g>
		<g>
			
				<linearGradient id="SVGID_8_" gradientUnits="userSpaceOnUse" x1="78.8457" y1="201.1133" x2="84.9646" y2="201.1133" gradientTransform="matrix(0.7071 0.7071 -0.7071 0.7071 108.9278 -189.3345)">
				<stop  offset="0" style="stop-color:#FFFFFF"/>
				<stop  offset="1" style="stop-color:#000000"/>
			</linearGradient>
			<path fill="url(#SVGID_8_)" stroke="#FFFFFF" stroke-width="0.0437" stroke-miterlimit="20" d="M22.134,7.995
				c-0.124,0.07-0.162,0.23-0.089,0.346c0.037,0.065,0.953,1.546,2.214,2.765c1.256,1.215,2.478,1.827,2.529,1.853
				c0.131,0.057,0.289,0.013,0.358-0.109c0.065-0.124,0.021-0.279-0.113-0.338c-0.007-0.008-1.205-0.602-2.401-1.759
				c-1.212-1.176-2.127-2.655-2.141-2.67C22.427,7.963,22.262,7.929,22.134,7.995z"/>
		</g>
		<g>
			
				<linearGradient id="SVGID_9_" gradientUnits="userSpaceOnUse" x1="78.876" y1="199.877" x2="84.994" y2="199.877" gradientTransform="matrix(0.7071 0.7071 -0.7071 0.7071 108.9278 -189.3345)">
				<stop  offset="0" style="stop-color:#FFFFFF"/>
				<stop  offset="1" style="stop-color:#000000"/>
			</linearGradient>
			<path fill="url(#SVGID_9_)" stroke="#FFFFFF" stroke-width="0.0437" stroke-miterlimit="20" d="M23.029,7.142
				c-0.122,0.07-0.166,0.229-0.09,0.346c0.039,0.059,0.955,1.544,2.209,2.761c1.264,1.221,2.488,1.829,2.537,1.857
				c0.122,0.057,0.287,0.009,0.357-0.109c0.064-0.126,0.014-0.278-0.114-0.341c-0.009-0.005-1.203-0.604-2.4-1.76
				c-1.214-1.174-2.127-2.65-2.134-2.667C23.317,7.11,23.157,7.072,23.029,7.142z"/>
		</g>
		<g>
			
				<linearGradient id="SVGID_10_" gradientUnits="userSpaceOnUse" x1="78.9688" y1="195.9961" x2="85.0834" y2="195.9961" gradientTransform="matrix(0.7071 0.7071 -0.7071 0.7071 108.9278 -189.3345)">
				<stop  offset="0" style="stop-color:#FFFFFF"/>
				<stop  offset="1" style="stop-color:#000000"/>
			</linearGradient>
			<path fill="url(#SVGID_10_)" stroke="#FFFFFF" stroke-width="0.0437" stroke-miterlimit="20" d="M25.844,4.46
				c-0.13,0.072-0.168,0.229-0.099,0.344c0.039,0.065,0.958,1.548,2.217,2.765c1.26,1.219,2.478,1.827,2.529,1.854
				c0.128,0.064,0.288,0.014,0.357-0.109c0.065-0.123,0.02-0.276-0.114-0.339c-0.01-0.005-1.197-0.601-2.396-1.758
				c-1.218-1.176-2.127-2.65-2.133-2.669C26.129,4.427,25.969,4.39,25.844,4.46z"/>
		</g>
		<g>
			
				<linearGradient id="SVGID_11_" gradientUnits="userSpaceOnUse" x1="78.9824" y1="194.7422" x2="85.115" y2="194.7422" gradientTransform="matrix(0.7071 0.7071 -0.7071 0.7071 108.9278 -189.3345)">
				<stop  offset="0" style="stop-color:#FFFFFF"/>
				<stop  offset="1" style="stop-color:#000000"/>
			</linearGradient>
			<path fill="url(#SVGID_11_)" stroke="#FFFFFF" stroke-width="0.0437" stroke-miterlimit="20" d="M26.736,3.582
				c-0.127,0.076-0.166,0.231-0.091,0.352c0.036,0.057,0.957,1.544,2.22,2.765c1.261,1.225,2.482,1.834,2.534,1.86
				c0.13,0.058,0.289,0.017,0.357-0.109c0.067-0.122,0.015-0.276-0.112-0.338c-0.014-0.009-1.205-0.604-2.402-1.763
				c-1.217-1.18-2.134-2.658-2.146-2.676C27.026,3.555,26.864,3.512,26.736,3.582z"/>
		</g>
	</g>
	<g>
		<g>
			
				<linearGradient id="SVGID_12_" gradientUnits="userSpaceOnUse" x1="78.2627" y1="197.7998" x2="78.73" y2="197.7791" gradientTransform="matrix(0.7071 0.7071 -0.7071 0.7071 108.9278 -189.3345)">
				<stop  offset="0" style="stop-color:#FFFFFF"/>
				<stop  offset="0.0919" style="stop-color:#F9F9F9"/>
				<stop  offset="0.2174" style="stop-color:#E7E7E7"/>
				<stop  offset="0.3626" style="stop-color:#CACACA"/>
				<stop  offset="0.5223" style="stop-color:#A2A2A2"/>
				<stop  offset="0.694" style="stop-color:#6F6F6F"/>
				<stop  offset="0.8729" style="stop-color:#313131"/>
				<stop  offset="1" style="stop-color:#000000"/>
			</linearGradient>
			<path fill="url(#SVGID_12_)" d="M25.097,5.293L23.81,6.521c-0.072,0.066-0.077,0.174-0.005,0.244
				c0.072,0.065,0.185,0.065,0.258-0.006l1.282-1.224c0.067-0.066,0.072-0.174,0.002-0.242C25.277,5.224,25.163,5.226,25.097,5.293z
				"/>
		</g>
		<g>
			
				<linearGradient id="SVGID_13_" gradientUnits="userSpaceOnUse" x1="81.2393" y1="198.1729" x2="81.7095" y2="198.152" gradientTransform="matrix(0.7071 0.7071 -0.7071 0.7071 108.9278 -189.3345)">
				<stop  offset="0" style="stop-color:#FFFFFF"/>
				<stop  offset="0.0919" style="stop-color:#F9F9F9"/>
				<stop  offset="0.2174" style="stop-color:#E7E7E7"/>
				<stop  offset="0.3626" style="stop-color:#CACACA"/>
				<stop  offset="0.5223" style="stop-color:#A2A2A2"/>
				<stop  offset="0.694" style="stop-color:#6F6F6F"/>
				<stop  offset="0.8729" style="stop-color:#313131"/>
				<stop  offset="1" style="stop-color:#000000"/>
			</linearGradient>
			<path fill="url(#SVGID_13_)" d="M26.935,7.662L25.649,8.89c-0.071,0.068-0.071,0.177,0,0.244c0.07,0.065,0.187,0.065,0.254-0.002
				l1.282-1.228c0.077-0.063,0.077-0.174,0-0.243C27.12,7.597,27.006,7.597,26.935,7.662z"/>
		</g>
		<g>
			
				<linearGradient id="SVGID_14_" gradientUnits="userSpaceOnUse" x1="79.6787" y1="198.0195" x2="80.1489" y2="197.9987" gradientTransform="matrix(0.7071 0.7071 -0.7071 0.7071 108.9278 -189.3345)">
				<stop  offset="0" style="stop-color:#FFFFFF"/>
				<stop  offset="0.0919" style="stop-color:#F9F9F9"/>
				<stop  offset="0.2174" style="stop-color:#E7E7E7"/>
				<stop  offset="0.3626" style="stop-color:#CACACA"/>
				<stop  offset="0.5223" style="stop-color:#A2A2A2"/>
				<stop  offset="0.694" style="stop-color:#6F6F6F"/>
				<stop  offset="0.8729" style="stop-color:#313131"/>
				<stop  offset="1" style="stop-color:#000000"/>
			</linearGradient>
			<path fill="url(#SVGID_14_)" d="M25.935,6.45l-1.28,1.229c-0.076,0.064-0.076,0.175-0.005,0.238
				c0.07,0.07,0.187,0.072,0.257,0.006l1.284-1.228c0.073-0.07,0.071-0.18,0-0.245C26.124,6.385,26.006,6.382,25.935,6.45z"/>
		</g>
		<g>
			
				<linearGradient id="SVGID_15_" gradientUnits="userSpaceOnUse" x1="80.6934" y1="198.1309" x2="81.168" y2="198.1098" gradientTransform="matrix(0.7071 0.7071 -0.7071 0.7071 108.9278 -189.3345)">
				<stop  offset="0" style="stop-color:#FFFFFF"/>
				<stop  offset="0.0919" style="stop-color:#F9F9F9"/>
				<stop  offset="0.2174" style="stop-color:#E7E7E7"/>
				<stop  offset="0.3626" style="stop-color:#CACACA"/>
				<stop  offset="0.5223" style="stop-color:#A2A2A2"/>
				<stop  offset="0.694" style="stop-color:#6F6F6F"/>
				<stop  offset="0.8729" style="stop-color:#313131"/>
				<stop  offset="1" style="stop-color:#000000"/>
			</linearGradient>
			<path fill="url(#SVGID_15_)" d="M26.578,7.251l-1.287,1.225c-0.069,0.068-0.069,0.179,0,0.242c0.07,0.065,0.188,0.067,0.256,0
				l1.286-1.225c0.07-0.07,0.063-0.179,0-0.248C26.764,7.181,26.649,7.181,26.578,7.251z"/>
		</g>
		<g>
			
				<linearGradient id="SVGID_16_" gradientUnits="userSpaceOnUse" x1="80.2051" y1="198.0869" x2="80.6782" y2="198.0659" gradientTransform="matrix(0.7071 0.7071 -0.7071 0.7071 108.9278 -189.3345)">
				<stop  offset="0" style="stop-color:#FFFFFF"/>
				<stop  offset="0.0919" style="stop-color:#F9F9F9"/>
				<stop  offset="0.2174" style="stop-color:#E7E7E7"/>
				<stop  offset="0.3626" style="stop-color:#CACACA"/>
				<stop  offset="0.5223" style="stop-color:#A2A2A2"/>
				<stop  offset="0.694" style="stop-color:#6F6F6F"/>
				<stop  offset="0.8729" style="stop-color:#313131"/>
				<stop  offset="1" style="stop-color:#000000"/>
			</linearGradient>
			<path fill="url(#SVGID_16_)" d="M26.264,6.874l-1.286,1.225c-0.071,0.068-0.071,0.177,0,0.242c0.071,0.069,0.186,0.069,0.252,0
				l1.285-1.222c0.069-0.067,0.069-0.181,0.005-0.244C26.449,6.809,26.334,6.809,26.264,6.874z"/>
		</g>
		<g>
			
				<linearGradient id="SVGID_17_" gradientUnits="userSpaceOnUse" x1="79.2041" y1="197.9629" x2="79.6797" y2="197.9418" gradientTransform="matrix(0.7071 0.7071 -0.7071 0.7071 108.9278 -189.3345)">
				<stop  offset="0" style="stop-color:#FFFFFF"/>
				<stop  offset="0.0919" style="stop-color:#F9F9F9"/>
				<stop  offset="0.2174" style="stop-color:#E7E7E7"/>
				<stop  offset="0.3626" style="stop-color:#CACACA"/>
				<stop  offset="0.5223" style="stop-color:#A2A2A2"/>
				<stop  offset="0.694" style="stop-color:#6F6F6F"/>
				<stop  offset="0.8729" style="stop-color:#313131"/>
				<stop  offset="1" style="stop-color:#000000"/>
			</linearGradient>
			<path fill="url(#SVGID_17_)" d="M25.642,6.079l-1.285,1.225c-0.071,0.07-0.071,0.179,0,0.242c0.075,0.07,0.186,0.07,0.255,0
				l1.287-1.223c0.069-0.069,0.069-0.179,0-0.246C25.828,6.01,25.714,6.014,25.642,6.079z"/>
		</g>
		<g>
			
				<linearGradient id="SVGID_18_" gradientUnits="userSpaceOnUse" x1="78.7188" y1="197.8945" x2="79.188" y2="197.8737" gradientTransform="matrix(0.7071 0.7071 -0.7071 0.7071 108.9278 -189.3345)">
				<stop  offset="0" style="stop-color:#FFFFFF"/>
				<stop  offset="0.0919" style="stop-color:#F9F9F9"/>
				<stop  offset="0.2174" style="stop-color:#E7E7E7"/>
				<stop  offset="0.3626" style="stop-color:#CACACA"/>
				<stop  offset="0.5223" style="stop-color:#A2A2A2"/>
				<stop  offset="0.694" style="stop-color:#6F6F6F"/>
				<stop  offset="0.8729" style="stop-color:#313131"/>
				<stop  offset="1" style="stop-color:#000000"/>
			</linearGradient>
			<path fill="url(#SVGID_18_)" d="M25.347,5.687l-1.284,1.227c-0.073,0.064-0.073,0.172-0.007,0.236
				c0.076,0.075,0.19,0.071,0.259,0l1.287-1.224c0.068-0.065,0.068-0.174,0.002-0.243C25.528,5.618,25.419,5.618,25.347,5.687z"/>
		</g>
		<g>
			
				<linearGradient id="SVGID_19_" gradientUnits="userSpaceOnUse" x1="84.79" y1="197.6465" x2="85.2647" y2="197.6254" gradientTransform="matrix(0.7071 0.7071 -0.7071 0.7071 108.9278 -189.3345)">
				<stop  offset="0" style="stop-color:#9C9EA1"/>
				<stop  offset="0.1234" style="stop-color:#96989B"/>
				<stop  offset="0.2921" style="stop-color:#858789"/>
				<stop  offset="0.4868" style="stop-color:#696A6C"/>
				<stop  offset="0.7011" style="stop-color:#424344"/>
				<stop  offset="0.9289" style="stop-color:#111111"/>
				<stop  offset="1" style="stop-color:#000000"/>
			</linearGradient>
			<path fill="url(#SVGID_19_)" d="M29.819,9.806l-1.288,1.222c-0.063,0.066-0.065,0.181,0,0.244c0.07,0.07,0.185,0.07,0.258,0.001
				l1.285-1.228c0.071-0.066,0.071-0.176-0.002-0.244C30.007,9.737,29.889,9.737,29.819,9.806z"/>
		</g>
		<g>
			
				<linearGradient id="SVGID_20_" gradientUnits="userSpaceOnUse" x1="81.7891" y1="198.1592" x2="82.2647" y2="198.1381" gradientTransform="matrix(0.7071 0.7071 -0.7071 0.7071 108.9278 -189.3345)">
				<stop  offset="0" style="stop-color:#FFFFFF"/>
				<stop  offset="0.0919" style="stop-color:#F9F9F9"/>
				<stop  offset="0.2174" style="stop-color:#E7E7E7"/>
				<stop  offset="0.3626" style="stop-color:#CACACA"/>
				<stop  offset="0.5223" style="stop-color:#A2A2A2"/>
				<stop  offset="0.694" style="stop-color:#6F6F6F"/>
				<stop  offset="0.8729" style="stop-color:#313131"/>
				<stop  offset="1" style="stop-color:#000000"/>
			</linearGradient>
			<path fill="url(#SVGID_20_)" d="M27.335,8.044l-1.288,1.225c-0.063,0.07-0.066,0.179,0,0.246
				c0.075,0.068,0.186,0.066,0.256-0.002l1.288-1.227c0.071-0.068,0.063-0.175,0-0.242C27.518,7.98,27.403,7.978,27.335,8.044z"/>
		</g>
		<g>
			
				<linearGradient id="SVGID_21_" gradientUnits="userSpaceOnUse" x1="83.3652" y1="197.9326" x2="83.8399" y2="197.9116" gradientTransform="matrix(0.7071 0.7071 -0.7071 0.7071 108.9278 -189.3345)">
				<stop  offset="0" style="stop-color:#D0D2D3"/>
				<stop  offset="0.1037" style="stop-color:#CACCCD"/>
				<stop  offset="0.2455" style="stop-color:#B9BABB"/>
				<stop  offset="0.4093" style="stop-color:#9C9E9E"/>
				<stop  offset="0.5896" style="stop-color:#757676"/>
				<stop  offset="0.7834" style="stop-color:#424243"/>
				<stop  offset="0.9856" style="stop-color:#050505"/>
				<stop  offset="1" style="stop-color:#000000"/>
			</linearGradient>
			<path fill="url(#SVGID_21_)" d="M28.602,8.999l-1.28,1.224c-0.07,0.07-0.07,0.174-0.002,0.244
				c0.07,0.064,0.187,0.063,0.256-0.002l1.288-1.222c0.064-0.068,0.064-0.182,0.002-0.246C28.789,8.928,28.678,8.928,28.602,8.999z"
				/>
		</g>
		<g>
			
				<linearGradient id="SVGID_22_" gradientUnits="userSpaceOnUse" x1="82.3418" y1="198.0918" x2="82.8155" y2="198.0708" gradientTransform="matrix(0.7071 0.7071 -0.7071 0.7071 108.9278 -189.3345)">
				<stop  offset="0" style="stop-color:#D0D2D3"/>
				<stop  offset="0.1037" style="stop-color:#CACCCD"/>
				<stop  offset="0.2455" style="stop-color:#B9BABB"/>
				<stop  offset="0.4093" style="stop-color:#9C9E9E"/>
				<stop  offset="0.5896" style="stop-color:#757676"/>
				<stop  offset="0.7834" style="stop-color:#424243"/>
				<stop  offset="0.9856" style="stop-color:#050505"/>
				<stop  offset="1" style="stop-color:#000000"/>
			</linearGradient>
			<path fill="url(#SVGID_22_)" d="M27.768,8.387l-1.285,1.228c-0.064,0.063-0.07,0.172,0.005,0.242
				c0.066,0.065,0.186,0.065,0.249-0.005l1.289-1.222c0.069-0.067,0.067-0.178,0.004-0.241C27.955,8.322,27.84,8.322,27.768,8.387z"
				/>
		</g>
		<g>
			
				<linearGradient id="SVGID_23_" gradientUnits="userSpaceOnUse" x1="82.834" y1="198.0264" x2="83.3028" y2="198.0056" gradientTransform="matrix(0.7071 0.7071 -0.7071 0.7071 108.9278 -189.3345)">
				<stop  offset="0" style="stop-color:#D0D2D3"/>
				<stop  offset="0.1037" style="stop-color:#CACCCD"/>
				<stop  offset="0.2455" style="stop-color:#B9BABB"/>
				<stop  offset="0.4093" style="stop-color:#9C9E9E"/>
				<stop  offset="0.5896" style="stop-color:#757676"/>
				<stop  offset="0.7834" style="stop-color:#424243"/>
				<stop  offset="0.9856" style="stop-color:#050505"/>
				<stop  offset="1" style="stop-color:#000000"/>
			</linearGradient>
			<path fill="url(#SVGID_23_)" d="M28.159,8.686L26.88,9.913c-0.071,0.066-0.071,0.178-0.002,0.244
				c0.063,0.064,0.186,0.064,0.251,0l1.288-1.229c0.068-0.068,0.068-0.177,0-0.242C28.344,8.622,28.229,8.622,28.159,8.686z"/>
		</g>
		<g>
			
				<linearGradient id="SVGID_24_" gradientUnits="userSpaceOnUse" x1="83.8418" y1="197.8574" x2="84.312" y2="197.8366" gradientTransform="matrix(0.7071 0.7071 -0.7071 0.7071 108.9278 -189.3345)">
				<stop  offset="0" style="stop-color:#9C9EA1"/>
				<stop  offset="0.1234" style="stop-color:#96989B"/>
				<stop  offset="0.2921" style="stop-color:#858789"/>
				<stop  offset="0.4868" style="stop-color:#696A6C"/>
				<stop  offset="0.7011" style="stop-color:#424344"/>
				<stop  offset="0.9289" style="stop-color:#111111"/>
				<stop  offset="1" style="stop-color:#000000"/>
			</linearGradient>
			<path fill="url(#SVGID_24_)" d="M28.997,9.282l-1.284,1.224c-0.072,0.068-0.072,0.178-0.002,0.246
				c0.071,0.061,0.183,0.061,0.256-0.003l1.287-1.23c0.066-0.064,0.066-0.168,0.002-0.236C29.178,9.212,29.067,9.212,28.997,9.282z"
				/>
		</g>
		<g>
			
				<linearGradient id="SVGID_25_" gradientUnits="userSpaceOnUse" x1="84.335" y1="197.7637" x2="84.8028" y2="197.7429" gradientTransform="matrix(0.7071 0.7071 -0.7071 0.7071 108.9278 -189.3345)">
				<stop  offset="0" style="stop-color:#9C9EA1"/>
				<stop  offset="0.1234" style="stop-color:#96989B"/>
				<stop  offset="0.2921" style="stop-color:#858789"/>
				<stop  offset="0.4868" style="stop-color:#696A6C"/>
				<stop  offset="0.7011" style="stop-color:#424344"/>
				<stop  offset="0.9289" style="stop-color:#111111"/>
				<stop  offset="1" style="stop-color:#000000"/>
			</linearGradient>
			<path fill="url(#SVGID_25_)" d="M29.409,9.561l-1.282,1.229c-0.072,0.066-0.075,0.175-0.005,0.238
				c0.069,0.066,0.185,0.066,0.257-0.002l1.285-1.224c0.071-0.065,0.071-0.174,0-0.241C29.593,9.493,29.477,9.493,29.409,9.561z"/>
		</g>
	</g>
	
		<radialGradient id="SVGID_26_" cx="80.0547" cy="182.2441" r="0.6134" gradientTransform="matrix(0.719 0.6861 -0.7586 0.7238 105.5323 -176.1955)" gradientUnits="userSpaceOnUse">
		<stop  offset="0" style="stop-color:#FFFFFF"/>
		<stop  offset="1" style="stop-color:#000000"/>
	</radialGradient>
	<path fill="url(#SVGID_26_)" stroke="#FFFFFF" stroke-width="0.1202" d="M24.728,10.686c-0.207,0.197-0.54,0.205-0.744,0.017
		C23.79,10.517,23.799,10.201,24.01,10c0.205-0.198,0.542-0.211,0.736-0.021C24.945,10.169,24.938,10.486,24.728,10.686z"/>
	
		<radialGradient id="SVGID_27_" cx="-3.2373" cy="142.8506" r="0.6085" gradientTransform="matrix(0.8951 0.353 -0.443 1.009 93.9219 -137.9109)" gradientUnits="userSpaceOnUse">
		<stop  offset="0" style="stop-color:#FFFFFF"/>
		<stop  offset="1" style="stop-color:#000000"/>
	</radialGradient>
	<path fill="url(#SVGID_27_)" stroke="#FFFFFF" stroke-width="0.1212" d="M27.654,5.176c-0.13,0.276-0.43,0.424-0.673,0.326
		C26.73,5.407,26.637,5.1,26.75,4.817c0.128-0.273,0.43-0.421,0.672-0.321C27.674,4.593,27.773,4.895,27.654,5.176z"/>
	
		<radialGradient id="SVGID_28_" cx="83.2393" cy="196.7715" r="0.6095" gradientTransform="matrix(0.7534 0.7189 -0.6889 0.6573 103.0382 -180.7106)" gradientUnits="userSpaceOnUse">
		<stop  offset="0" style="stop-color:#FFFFFF"/>
		<stop  offset="1" style="stop-color:#000000"/>
	</radialGradient>
	<path fill="url(#SVGID_28_)" stroke="#9C9EA1" stroke-width="0.1172" d="M30.087,8.507c-0.193,0.179-0.512,0.168-0.721-0.031
		c-0.207-0.2-0.228-0.507-0.035-0.69c0.192-0.179,0.513-0.165,0.723,0.033C30.258,8.019,30.278,8.328,30.087,8.507z"/>
</g>
</svg>
