<?xml version="1.0" encoding="utf-8"?>
<!-- Generator: Adobe Illustrator 14.0.0, SVG Export Plug-In . SVG Version: 6.00 Build 43363)  -->
<!DOCTYPE svg PUBLIC "-//W3C//DTD SVG 1.1//EN" "http://www.w3.org/Graphics/SVG/1.1/DTD/svg11.dtd">
<svg version="1.1" id="Layer_1" xmlns="http://www.w3.org/2000/svg" xmlns:xlink="http://www.w3.org/1999/xlink" x="0px" y="0px"
	 width="36px" height="36px" viewBox="0 0 36 36" enable-background="new 0 0 36 36" xml:space="preserve">
<g>
	<path fill="#929497" d="M35.041,25.864l-1.634-1.629c0,0-2.09,0-3.756,0l1.065-17.285l-1.611-1.627H10.939
		c0.153-1.779,0.253-2.938,0.253-2.938L9.494,0.622H5.076v4.702H0.609v4.683c0,0.001,1.611,1.627,1.611,1.627
		s1.385-0.076,2.856-0.196V28.92l1.613,1.627l17.997-1.14c0,2.234,0,4.418,0,4.418l1.614,1.629l2.806-2.31l0.248-4.032l3.489-0.192
		L35.041,25.864z M9.494,24.235c0-1.341,0.506-7.711,0.963-13.228c5.792-0.459,12.91-1,14.229-1.001c0,1.622,0,8.419,0,14.229
		C18.682,24.235,11.106,24.235,9.494,24.235z"/>
	<linearGradient id="SVGID_1_" gradientUnits="userSpaceOnUse" x1="7.9731" y1="8.019" x2="36.031" y2="36.0776">
		<stop  offset="0" style="stop-color:#FFFFFF"/>
		<stop  offset="1" style="stop-color:#231F20"/>
	</linearGradient>
	<path fill="url(#SVGID_1_)" d="M35.041,25.864c0,0-2.344,0-4.324,0V6.951H11.106c0-2.767,0-4.703,0-4.703H6.689v4.703H2.22v4.683
		c0,0,2.077,0,4.469,0v18.913H26.3c0,2.504,0,4.959,0,4.959h4.417v-4.959h4.324V25.864z M11.106,25.864c0-1.601,0-8.352,0-14.23
		c6.129,0,13.62,0,15.194,0c0,1.622,0,8.419,0,14.23C20.298,25.864,12.717,25.864,11.106,25.864z"/>
</g>
</svg>
