<?xml version="1.0" encoding="utf-8"?>
<!-- Generator: Adobe Illustrator 14.0.0, SVG Export Plug-In . SVG Version: 6.00 Build 43363)  -->
<!DOCTYPE svg PUBLIC "-//W3C//DTD SVG 1.1//EN" "http://www.w3.org/Graphics/SVG/1.1/DTD/svg11.dtd">
<svg version="1.1" id="Layer_1" xmlns="http://www.w3.org/2000/svg" xmlns:xlink="http://www.w3.org/1999/xlink" x="0px" y="0px"
	 width="36px" height="36px" viewBox="0 0 36 36" enable-background="new 0 0 36 36" xml:space="preserve">
<g>
	<radialGradient id="SVGID_1_" cx="19.1523" cy="19.3994" r="13.8578" gradientUnits="userSpaceOnUse">
		<stop  offset="0" style="stop-color:#FFFFFF"/>
		<stop  offset="0.7218" style="stop-color:#FFFFFF"/>
		<stop  offset="0.8407" style="stop-color:#FFFFFF"/>
		<stop  offset="1" style="stop-color:#91867D"/>
	</radialGradient>
	<path fill="url(#SVGID_1_)" d="M18.187,12.287c4.675-0.362,8.814,1.377,12.34,4.363c1.28,1.084,2.089,2.18,3.676,2.762
		c0.025,0.208,0.644,0.418,0.765,0.552c0.098,0.107-0.099-0.132,0,0c0.446,0.593,0.555,1.075,0.058,1.73
		c-0.398,0.526-0.46,0.49-1.079,0.731c-0.6,0.234-1.181,0.534-1.809,0.681c-1.475,0.347-5.812,4.278-13.209,4.678
		c-7.463,0.398-15.035-5.698-15.099-6.875C3.602,16.817,16.593,12.408,18.187,12.287z"/>
	<g>
		<g>
			
				<radialGradient id="SVGID_2_" cx="36.5381" cy="19.4004" r="7.0716" gradientTransform="matrix(1.0771 0 0 1 -20.2031 0)" gradientUnits="userSpaceOnUse">
				<stop  offset="0" style="stop-color:#FFFFFF"/>
				<stop  offset="0.0945" style="stop-color:#F8F9F8"/>
				<stop  offset="0.2319" style="stop-color:#E5E9E5"/>
				<stop  offset="0.3958" style="stop-color:#C5CEC7"/>
				<stop  offset="0.5798" style="stop-color:#98A89C"/>
				<stop  offset="0.7808" style="stop-color:#607864"/>
				<stop  offset="0.993" style="stop-color:#1B3E22"/>
				<stop  offset="1" style="stop-color:#193C20"/>
			</radialGradient>
			<path fill="url(#SVGID_2_)" d="M26.953,18.795c-0.308-4.01-4.092-6.555-8.424-6.237c-4.337,0.311-7.488,2.958-7.185,6.973
				c0.31,4.019,3.95,7.031,8.286,6.718C24.393,25.9,27.286,23.219,26.953,18.795z"/>
		</g>
	</g>
	<g>
		<g>
			<path fill="#231F20" d="M23.771,19.027c-0.18-2.388-2.421-4.178-5.001-3.993c-2.589,0.189-4.535,2.285-4.351,4.67
				c0.172,2.275,2.551,4.177,5.009,3.995C22.017,23.513,23.954,21.428,23.771,19.027z"/>
		</g>
	</g>
	<polygon fill="#FFFFFF" points="17.413,15.783 18.642,14.648 18.639,16.189 20.429,16.299 19.019,17.272 20.021,18.536 
		18.277,18.201 17.731,19.68 16.963,18.292 15.281,18.855 16.064,17.472 14.513,16.694 16.269,16.352 16.013,14.821 	"/>
	<path fill="#A28A7F" d="M19.417,27.498c-4.136,0.187-8.676-1.496-10.702-2.523c-1.072-0.541-2.14-1.141-3.072-1.904
		c-0.318-0.264-1.213-0.926-1.192-1.394c0.496-0.089,0.98,0.592,1.34,0.849c0.465,0.328,0.94,0.64,1.426,0.932
		c3.729,2.245,8.084,3.383,12.437,3.179c4.258-0.202,7.409-1.704,12.913-4.736C32.526,21.918,26.862,27.162,19.417,27.498z"/>
	<g>
		<g>
			<path fill="#808080" d="M19.84,28.172c3.464-0.217,6.988-1.719,10.102-3.855c1.17-0.804,2.553-0.932,3.753-1.696
				c1.166-0.746,2.244-1.397,1.44-2.979c-0.278-0.548-1.525-1.219-2.158-1.148c-0.036-0.795-3.327-3.24-3.912-4.149
				c-0.575-0.898-0.543-1.809-0.809-2.794c-0.641,0.045-0.106,2.332-1.186,1.845c-1.192-0.538-1.576-1.125-1.979-3.9
				c-1.404,1.884,0.815,2.999-1.383,2.745c-2.105-0.245-2.237-1.697-2.508-3.813c-1.524,2.017,1.199,3.352-1.191,3.352
				c-2.132,0-2.577-1.205-3.266-3.271c-1.524,2.111,2.052,3.568-0.608,3.848c-1.709,0.178-3.067-1.073-3.849-2.78
				c-0.779,2.798,1.88,3.021,0.146,3.934c-1.097,0.578-3.708-0.104-4.281-2.866c-1.687,1.399,2.613,4.672,0.161,4.932
				c-2.147,0.227-3.624-1.125-4.295-2.383c-1.078,2.088,1.931,2.283,1.783,4.027c-0.114,1.317-4.377,2.467-5.107-1.397
				c-1.012,2.224,0.56,3.972,3.147,3.972c1.611,0,7.263-7.47,16.422-7.249c7.781,0.187,11.095,6.316,12.247,6.719
				c1.836,0.244,2.366,0.65,2.294,1.576c-0.038,0.465-1.117,1.135-2.473,1.135c-0.242,0-2.97,1.462-3.991,2.096
				c-2.61,1.623-4.951,2.899-8.077,3.072c-3.584,0.197-7.996-0.596-11.174-2.294c-1.538-0.819-2.174-1.057-3.776-2.442
				c-0.099-0.085-1.253-1.713-1.98-1.442c-2.136,0.791,2.139,3.153,3.659,4.206C9.893,27.07,15.698,28.428,19.84,28.172z"/>
		</g>
	</g>
	<path fill="#928781" d="M32.256,19.055c-1.836-2.021-5.774-5.946-12.897-5.786c-6.449,0.148-12.016,4.617-14.959,6.435
		c1.745-1.935,7.432-6.934,14.642-7.175C27.349,12.25,30.688,16.603,32.256,19.055z"/>
</g>
</svg>
