<?xml version="1.0" encoding="utf-8"?>
<!-- Generator: Adobe Illustrator 14.0.0, SVG Export Plug-In . SVG Version: 6.00 Build 43363)  -->
<!DOCTYPE svg PUBLIC "-//W3C//DTD SVG 1.1//EN" "http://www.w3.org/Graphics/SVG/1.1/DTD/svg11.dtd">
<svg version="1.1" id="Layer_1" xmlns="http://www.w3.org/2000/svg" xmlns:xlink="http://www.w3.org/1999/xlink" x="0px" y="0px"
	 width="36px" height="36px" viewBox="0 0 36 36" enable-background="new 0 0 36 36" xml:space="preserve">
<g>
	<path fill="#999999" d="M30.78,14.89c-0.473,0.356,0.76,0.621,4.8,4.792c0.626,0.651-4.636-2.002-6.026-2.281
		c-2.146-0.429,1.104,4.793,0.794,5.134c-0.763,0.841-4.607-3.557-6.049-3.241c-1.366,0.294,0.858,5.533,0.398,5.67
		c-1.128,0.33-2.652-5.069-4.432-4.977c-2.499,0.135-0.29,7.33-2.044,6.891c-0.483-0.12-0.495-5.992-1.953-6.108
		c-2.299-0.187-3.732,4.886-4.781,4.229c-0.482-0.304,1.196-5.362-0.257-5.659c-1.691-0.34-5.704,4.402-5.139,3.315
		c0.793-1.527,1.542-5.73,0.312-5.134c-1.803,0.871-6.617,2.395-6.037,1.955c1.469-1.121,3.814-1.881,5.274-4.605
		c2.049,0.529,2.058,4.646,13.379,4.308C30.372,18.841,30.78,14.89,30.78,14.89z"/>
</g>
</svg>
