<?xml version="1.0" encoding="utf-8"?>
<!-- Generator: Adobe Illustrator 14.0.0, SVG Export Plug-In . SVG Version: 6.00 Build 43363)  -->
<!DOCTYPE svg PUBLIC "-//W3C//DTD SVG 1.1//EN" "http://www.w3.org/Graphics/SVG/1.1/DTD/svg11.dtd">
<svg version="1.1" id="Layer_1" xmlns="http://www.w3.org/2000/svg" xmlns:xlink="http://www.w3.org/1999/xlink" x="0px" y="0px"
	 width="36px" height="36px" viewBox="0 0 36 36" enable-background="new 0 0 36 36" xml:space="preserve">
<g>
	<g>
		
			<linearGradient id="SVGID_1_" gradientUnits="userSpaceOnUse" x1="319.6973" y1="68.0342" x2="314.7439" y2="68.0342" gradientTransform="matrix(-0.7704 -0.771 -0.7074 0.7068 304.7008 219.6875)">
			<stop  offset="0" style="stop-color:#FFFFFF"/>
			<stop  offset="1" style="stop-color:#4D4E50"/>
		</linearGradient>
		<path fill="url(#SVGID_1_)" stroke="#4D4E50" stroke-width="0.2313" d="M5.616,24.637c-0.883,0.88-0.992,2.96-1.598,4.027
			c-0.513,0.905-2.614,3.082-3.347,3.898c-0.588,0.654,1.576,2.894,2.341,2.258c0.755-0.644,2.404-2.432,2.811-2.777
			C6.299,31.654,6.664,31.5,7.198,31.2c1.048-0.584,2.694-0.58,3.543-1.426c0.072-0.068,12.896-12.883,12.896-12.883
			c1.127-1.125,0.895-3.189-0.523-4.6c-1.414-1.417-3.481-1.659-4.607-0.534C18.506,11.757,5.622,24.629,5.616,24.637z"/>
		<path fill="#FFFFFF" d="M12.04,21.689c-0.634,0.634-1.271,1.268-1.914,1.896c-1.773,1.764-2.118,1.892-3.707,3.822
			c0.141-0.731,0.623-1.139,1.097-1.664c1.859-2.049,2.214-2.509,4.171-4.46c4.478-4.475,6.521-6.783,6.746-6.633
			C18.953,14.991,16.639,17.091,12.04,21.689z"/>
		<path fill="#FFFFFF" d="M7.725,30.096c0,0-1.07,0-2.145,1.072c-1.074,1.076-3.188,3.189-3.188,3.189l-0.241-0.177
			c0,0,2.282-2.325,3.188-3.186C6.915,29.512,7.725,30.096,7.725,30.096z"/>
	</g>
	<g>
		<g>
			<g>
				
					<linearGradient id="SVGID_2_" gradientUnits="userSpaceOnUse" x1="16.6484" y1="-4.918" x2="27.0607" y2="6.3525" gradientTransform="matrix(1 4.000000e-04 -4.000000e-04 1 -0.4128 9.4277)">
					<stop  offset="0" style="stop-color:#FFFFFF"/>
					<stop  offset="1" style="stop-color:#961B1E"/>
				</linearGradient>
				<path fill="url(#SVGID_2_)" stroke="#961B1E" stroke-width="0.2458" d="M16.12,7.354c-0.885,0.886,0.942,4.147,4.081,7.287l0,0
					c3.133,3.141,6.395,4.975,7.286,4.088l3.803-3.774c-0.067,0.059-3.603-1.545-6.744-4.683C20.705,6.58,19.955,3.697,20,3.66
					L16.12,7.354z"/>
				
					<linearGradient id="SVGID_3_" gradientUnits="userSpaceOnUse" x1="-26.7285" y1="171.791" x2="-10.8105" y2="171.791" gradientTransform="matrix(0.7068 0.7074 -0.7074 0.7068 160.4352 -98.7846)">
					<stop  offset="0" style="stop-color:#FFFFFF"/>
					<stop  offset="0.0022" style="stop-color:#FEF3F2"/>
					<stop  offset="0.0064" style="stop-color:#FBD5CF"/>
					<stop  offset="0.012" style="stop-color:#F7A398"/>
					<stop  offset="0.0169" style="stop-color:#F37362"/>
					<stop  offset="0.3027" style="stop-color:#F17061"/>
					<stop  offset="0.4595" style="stop-color:#EC685B"/>
					<stop  offset="0.585" style="stop-color:#E35B51"/>
					<stop  offset="0.694" style="stop-color:#D64744"/>
					<stop  offset="0.7912" style="stop-color:#C52E32"/>
					<stop  offset="0.8146" style="stop-color:#C0272D"/>
					<stop  offset="0.9888" style="stop-color:#961B1E"/>
				</linearGradient>
				<path fill="url(#SVGID_3_)" stroke="#961B1E" stroke-width="0.2458" d="M20.046,3.702C20.787,2.968,23.898,4.895,27.004,8
					c3.109,3.114,5.027,6.226,4.294,6.959c-0.731,0.737-3.913-1.135-7.017-4.246C21.17,7.608,19.319,4.437,20.046,3.702z"/>
			</g>
			
				<linearGradient id="SVGID_4_" gradientUnits="userSpaceOnUse" x1="193.7705" y1="166.3779" x2="189.1956" y2="166.3779" gradientTransform="matrix(-0.7068 -0.7074 -0.7074 0.7068 282.775 23.5552)">
				<stop  offset="0.0056" style="stop-color:#F16522"/>
				<stop  offset="0.3596" style="stop-color:#ED2024"/>
				<stop  offset="0.4268" style="stop-color:#E02426"/>
				<stop  offset="0.5515" style="stop-color:#BE2D2A"/>
				<stop  offset="0.7191" style="stop-color:#863C32"/>
				<stop  offset="0.9888" style="stop-color:#863C32"/>
			</linearGradient>
			<path fill="url(#SVGID_4_)" stroke="#961B1E" stroke-width="0.2458" d="M25.643,9.726c-1.64-1.729-2.117-2.96-2.117-2.96
				s0.427-0.187,1.087-0.848c0.666-0.668,3.903-4.38,4.568-4.926c0.668-0.543,2.905-1.088,4.595,0.605l0.039,0.04
				c1.692,1.692,1.146,3.932,0.6,4.597c-0.542,0.665-4.262,3.894-4.927,4.56c-0.665,0.665-0.852,1.092-0.852,1.092
				s-1.235-0.46-2.962-2.118L25.643,9.726z"/>
		</g>
		<g>
			<g>
				
					<linearGradient id="SVGID_5_" gradientUnits="userSpaceOnUse" x1="143.5547" y1="276.9912" x2="144.5952" y2="276.9451" gradientTransform="matrix(0.699 0.6996 -0.6364 0.6358 93.4695 -270.6134)">
					<stop  offset="0" style="stop-color:#652B35"/>
					<stop  offset="0.2472" style="stop-color:#652B35"/>
					<stop  offset="0.9944" style="stop-color:#F16522"/>
				</linearGradient>
				<path fill="url(#SVGID_5_)" d="M19.367,4.267l-3.458,3.456c-0.192,0.19-0.222,0.47-0.068,0.628
					c0.155,0.154,0.443,0.128,0.629-0.071l3.457-3.451c0.189-0.189,0.224-0.462,0.069-0.619C19.836,4.048,19.558,4.076,19.367,4.267
					z"/>
			</g>
			<g>
				
					<linearGradient id="SVGID_6_" gradientUnits="userSpaceOnUse" x1="151.0781" y1="278.5127" x2="152.1274" y2="278.4662" gradientTransform="matrix(0.699 0.6996 -0.6364 0.6358 93.4695 -270.6134)">
					<stop  offset="0" style="stop-color:#652B35"/>
					<stop  offset="0.2472" style="stop-color:#652B35"/>
					<stop  offset="0.9944" style="stop-color:#F16522"/>
				</linearGradient>
				<path fill="url(#SVGID_6_)" d="M23.656,10.5L20.2,13.953c-0.191,0.194-0.215,0.481-0.055,0.638
					c0.149,0.145,0.432,0.123,0.619-0.064l3.457-3.461c0.199-0.187,0.213-0.466,0.062-0.621C24.131,10.291,23.847,10.31,23.656,10.5
					z"/>
			</g>
			<g>
				
					<linearGradient id="SVGID_7_" gradientUnits="userSpaceOnUse" x1="146.5332" y1="278.167" x2="147.5883" y2="278.1202" gradientTransform="matrix(0.699 0.6996 -0.6364 0.6358 93.4695 -270.6134)">
					<stop  offset="0" style="stop-color:#652B35"/>
					<stop  offset="0.2472" style="stop-color:#652B35"/>
					<stop  offset="0.9944" style="stop-color:#F16522"/>
				</linearGradient>
				<path fill="url(#SVGID_7_)" d="M20.696,7.107l-3.457,3.453c-0.191,0.189-0.214,0.47-0.06,0.623
					c0.156,0.16,0.433,0.141,0.629-0.053l3.458-3.454c0.187-0.191,0.213-0.475,0.06-0.637C21.165,6.892,20.883,6.917,20.696,7.107z"
					/>
			</g>
			<g>
				
					<linearGradient id="SVGID_8_" gradientUnits="userSpaceOnUse" x1="149.5723" y1="278.4414" x2="150.6249" y2="278.3947" gradientTransform="matrix(0.699 0.6996 -0.6364 0.6358 93.4695 -270.6134)">
					<stop  offset="0" style="stop-color:#652B35"/>
					<stop  offset="0.2472" style="stop-color:#652B35"/>
					<stop  offset="0.9944" style="stop-color:#F16522"/>
				</linearGradient>
				<path fill="url(#SVGID_8_)" d="M22.65,9.408l-3.461,3.451c-0.193,0.191-0.21,0.475-0.06,0.625
					c0.152,0.15,0.432,0.128,0.619-0.06l3.466-3.451c0.191-0.196,0.209-0.479,0.06-0.629C23.114,9.189,22.843,9.215,22.65,9.408z"/>
			</g>
			<g>
				
					<linearGradient id="SVGID_9_" gradientUnits="userSpaceOnUse" x1="148.0684" y1="278.2793" x2="149.1123" y2="278.233" gradientTransform="matrix(0.699 0.6996 -0.6364 0.6358 93.4695 -270.6134)">
					<stop  offset="0" style="stop-color:#652B35"/>
					<stop  offset="0.2472" style="stop-color:#652B35"/>
					<stop  offset="0.9944" style="stop-color:#F16522"/>
				</linearGradient>
				<path fill="url(#SVGID_9_)" d="M21.699,8.251l-3.458,3.452c-0.192,0.196-0.213,0.477-0.059,0.625
					c0.158,0.154,0.433,0.131,0.623-0.057l3.452-3.456c0.193-0.195,0.22-0.475,0.074-0.621C22.171,8.032,21.893,8.058,21.699,8.251z
					"/>
			</g>
			<g>
				
					<linearGradient id="SVGID_10_" gradientUnits="userSpaceOnUse" x1="145.0527" y1="277.8271" x2="146.1069" y2="277.7804" gradientTransform="matrix(0.699 0.6996 -0.6364 0.6358 93.4695 -270.6134)">
					<stop  offset="0" style="stop-color:#652B35"/>
					<stop  offset="0.2472" style="stop-color:#652B35"/>
					<stop  offset="0.9944" style="stop-color:#F16522"/>
				</linearGradient>
				<path fill="url(#SVGID_10_)" d="M19.885,5.856L16.42,9.307c-0.187,0.196-0.214,0.474-0.06,0.63
					c0.159,0.148,0.438,0.131,0.625-0.064l3.465-3.454c0.183-0.189,0.21-0.468,0.063-0.628C20.351,5.637,20.076,5.667,19.885,5.856z
					"/>
			</g>
			<g>
				
					<linearGradient id="SVGID_11_" gradientUnits="userSpaceOnUse" x1="158.6064" y1="277.1533" x2="159.6581" y2="277.1067" gradientTransform="matrix(0.699 0.6996 -0.6364 0.6358 93.4695 -270.6134)">
					<stop  offset="0" style="stop-color:#652B35"/>
					<stop  offset="0.2472" style="stop-color:#652B35"/>
					<stop  offset="0.9944" style="stop-color:#F16522"/>
				</linearGradient>
				<path fill="url(#SVGID_11_)" d="M29.787,14.903l-3.462,3.454c-0.183,0.195-0.215,0.478-0.063,0.629
					c0.159,0.158,0.445,0.135,0.633-0.051l3.457-3.465c0.186-0.184,0.215-0.474,0.055-0.633
					C30.256,14.69,29.978,14.713,29.787,14.903z"/>
			</g>
			<g>
				
					<linearGradient id="SVGID_12_" gradientUnits="userSpaceOnUse" x1="152.585" y1="278.5127" x2="153.6289" y2="278.4664" gradientTransform="matrix(0.699 0.6996 -0.6364 0.6358 93.4695 -270.6134)">
					<stop  offset="0" style="stop-color:#652B35"/>
					<stop  offset="0.2472" style="stop-color:#652B35"/>
					<stop  offset="0.9944" style="stop-color:#F16522"/>
				</linearGradient>
				<path fill="url(#SVGID_12_)" d="M24.713,11.553l-3.462,3.458c-0.187,0.19-0.218,0.473-0.062,0.63
					c0.161,0.147,0.437,0.119,0.628-0.066l3.461-3.466c0.19-0.183,0.208-0.46,0.059-0.615
					C25.187,11.339,24.899,11.361,24.713,11.553z"/>
			</g>
			<g>
				
					<linearGradient id="SVGID_13_" gradientUnits="userSpaceOnUse" x1="154.0938" y1="278.4424" x2="155.1416" y2="278.3959" gradientTransform="matrix(0.699 0.6996 -0.6364 0.6358 93.4695 -270.6134)">
					<stop  offset="0" style="stop-color:#652B35"/>
					<stop  offset="0.2472" style="stop-color:#652B35"/>
					<stop  offset="0.9944" style="stop-color:#F16522"/>
				</linearGradient>
				<path fill="url(#SVGID_13_)" d="M25.807,12.568l-3.457,3.456c-0.192,0.187-0.223,0.469-0.064,0.621
					c0.151,0.154,0.443,0.131,0.62-0.065l3.47-3.451c0.192-0.187,0.205-0.473,0.061-0.621
					C26.279,12.353,25.998,12.375,25.807,12.568z"/>
			</g>
			<g>
				
					<linearGradient id="SVGID_14_" gradientUnits="userSpaceOnUse" x1="155.5938" y1="278.2822" x2="156.6474" y2="278.2355" gradientTransform="matrix(0.699 0.6996 -0.6364 0.6358 93.4695 -270.6134)">
					<stop  offset="0" style="stop-color:#652B35"/>
					<stop  offset="0.2472" style="stop-color:#652B35"/>
					<stop  offset="0.9944" style="stop-color:#F16522"/>
				</linearGradient>
				<path fill="url(#SVGID_14_)" d="M26.963,13.512l-3.461,3.456c-0.188,0.191-0.209,0.483-0.06,0.634
					c0.154,0.155,0.438,0.123,0.629-0.065l3.46-3.457c0.188-0.191,0.21-0.469,0.06-0.624C27.438,13.307,27.154,13.333,26.963,13.512
					z"/>
			</g>
			<g>
				
					<linearGradient id="SVGID_15_" gradientUnits="userSpaceOnUse" x1="157.1035" y1="277.8301" x2="158.1523" y2="277.7836" gradientTransform="matrix(0.699 0.6996 -0.6364 0.6358 93.4695 -270.6134)">
					<stop  offset="0" style="stop-color:#652B35"/>
					<stop  offset="0.2472" style="stop-color:#652B35"/>
					<stop  offset="0.9944" style="stop-color:#F16522"/>
				</linearGradient>
				<path fill="url(#SVGID_15_)" d="M28.302,14.281l-3.457,3.456c-0.191,0.194-0.215,0.466-0.063,0.625
					c0.159,0.159,0.444,0.128,0.625-0.064l3.461-3.448c0.191-0.195,0.222-0.473,0.059-0.627
					C28.77,14.062,28.493,14.086,28.302,14.281z"/>
			</g>
		</g>
	</g>
</g>
</svg>
