<?xml version="1.0" encoding="utf-8"?>
<!-- Generator: Adobe Illustrator 14.0.0, SVG Export Plug-In . SVG Version: 6.00 Build 43363)  -->
<!DOCTYPE svg PUBLIC "-//W3C//DTD SVG 1.1//EN" "http://www.w3.org/Graphics/SVG/1.1/DTD/svg11.dtd">
<svg version="1.1" id="Layer_1" xmlns="http://www.w3.org/2000/svg" xmlns:xlink="http://www.w3.org/1999/xlink" x="0px" y="0px"
	 width="36px" height="36px" viewBox="0 0 36 36" enable-background="new 0 0 36 36" xml:space="preserve">
<g>
	<g>
		<g>
			
				<linearGradient id="SVGID_1_" gradientUnits="userSpaceOnUse" x1="13.3486" y1="20.5137" x2="20.7453" y2="29.5678" gradientTransform="matrix(1 0 0 1 -0.0464 -0.0273)">
				<stop  offset="0" style="stop-color:#FFFFFF"/>
				<stop  offset="1" style="stop-color:#404041"/>
			</linearGradient>
			<path fill="url(#SVGID_1_)" d="M29.924,22.757L18.646,8.265L2.941,20.49c-0.176,0.039-0.338,0.101-0.473,0.205
				c-1.362,1.062,0.075,5.188,3.212,9.213c2.98,3.829,6.415,6.188,7.918,5.506l0.024,0.031L29.924,22.757z"/>
		</g>
		<g>
			<path fill="none" stroke="#231F20" stroke-width="0.5" d="M29.924,22.757L18.646,8.265L2.941,20.49
				c-0.176,0.039-0.338,0.101-0.473,0.205c-1.362,1.062,0.075,5.188,3.212,9.213c2.98,3.829,6.415,6.188,7.918,5.506l0.024,0.031
				L29.924,22.757z"/>
		</g>
	</g>
	<path fill="#626366" stroke="#808284" stroke-width="0.5" d="M29.41,22.509c-1.361,1.06-4.844-1.14-7.777-4.905
		c-2.935-3.771-4.209-7.686-2.849-8.747c1.362-1.059,4.845,1.138,7.778,4.909C29.496,17.534,30.771,21.446,29.41,22.509z"/>
	<path fill="none" stroke="#231F20" stroke-width="0.25" stroke-linecap="round" stroke-linejoin="round" d="M17.175,18.318
		c0.809-0.629,1.973-0.483,2.604,0.325c0.629,0.811,0.482,1.975-0.324,2.604c-0.81,0.629-1.975,0.483-2.603-0.327
		C16.221,20.114,16.366,18.947,17.175,18.318z"/>
	<linearGradient id="SVGID_2_" gradientUnits="userSpaceOnUse" x1="21.5273" y1="24.374" x2="34.0459" y2="24.374">
		<stop  offset="0" style="stop-color:#EC1C24"/>
		<stop  offset="0.2176" style="stop-color:#F04B1C"/>
		<stop  offset="1" style="stop-color:#FFF100"/>
	</linearGradient>
	<path fill="url(#SVGID_2_)" d="M21.527,16.72c5.014-2.668,10.609-1.403,12.109,4.245c0.842,3.165,0.508,4.888-2.17,8.842
		c-1.018,1.503,1.635,1.082,1.658,2.679c0.018,1.256-3.23,1.055-3.443,0.126c-0.576-2.518-0.893-3.568,1.402-6.248
		c1.324-1.544,1.914-2.424,0.766-5.355c-0.945-2.41-4.262,0.746-5.961,0.144c-1.629-0.579-3.451-3.066-4.186-4.186L21.527,16.72z"/>
	<path fill="#E2E3E4" stroke="#231F20" stroke-width="0.5" stroke-linecap="round" d="M13.432,12.141c0,0-1.125-5.976,0.605-9.479
		l0.186-0.44c0.475-0.914,1.312-1.766,2.454-1.758l0,0c0.101,0,0.194,0.007,0.275,0.017l0,0c1.583,0.153,2.752,1.282,3.326,2.686
		l0,0c0.598,1.405,0.779,3.09,0.785,4.866l0,0c-0.01,5.458-1.854,11.906-1.863,11.958l0,0h0.002
		c-0.125,0.438-0.49,0.721-0.886,0.721l0,0c-0.092,0-0.187-0.016-0.28-0.048l0,0c-0.49-0.17-0.76-0.749-0.608-1.288l0,0
		c-0.006-0.009,1.788-6.368,1.78-11.343l0,0c0.002-1.602-0.195-3.04-0.606-3.986l0,0c-0.436-0.944-0.905-1.39-1.846-1.521l0,0
		c-0.031-0.004-0.061-0.006-0.079-0.006l0,0c-0.272,0.006-0.509,0.143-0.855,0.753l0,0C15.5,3.858,15.232,4.8,15.055,5.796l0,0
		c-0.358,2,0.069,4.293,0.118,5.015"/>
</g>
</svg>
