<?xml version="1.0" encoding="utf-8"?>
<!-- Generator: Adobe Illustrator 14.0.0, SVG Export Plug-In . SVG Version: 6.00 Build 43363)  -->
<!DOCTYPE svg PUBLIC "-//W3C//DTD SVG 1.1//EN" "http://www.w3.org/Graphics/SVG/1.1/DTD/svg11.dtd">
<svg version="1.1" id="Layer_1" xmlns="http://www.w3.org/2000/svg" xmlns:xlink="http://www.w3.org/1999/xlink" x="0px" y="0px"
	 width="200px" height="200px" viewBox="0 0 200 200" enable-background="new 0 0 200 200" xml:space="preserve">
<g>
	<g>
		<g>
			<linearGradient id="SVGID_1_" gradientUnits="userSpaceOnUse" x1="22.8203" y1="14.4941" x2="145.3599" y2="93.418">
				<stop  offset="0.011" style="stop-color:#626366"/>
				<stop  offset="0.1813" style="stop-color:#FFFFFF"/>
				<stop  offset="0.5385" style="stop-color:#7F8082"/>
				<stop  offset="1" style="stop-color:#404041"/>
			</linearGradient>
			<path fill="url(#SVGID_1_)" d="M186.962,21.524l-5.663,0.001c8.491,13.123,13.239,28.421,13.239,45.209
				c0,46.374-37.592,83.966-83.966,83.966c-46.372,0-83.963-37.593-83.963-83.966c0-16.661,4.812-32.126,13.182-45.188l-5.281,0.001
				c-7.341,12.84-11.633,27.878-11.633,43.728c0,48.54,39.35,87.886,87.89,87.886c48.537,0,87.887-39.347,87.887-87.886
				C198.654,49.247,194.458,34.461,186.962,21.524z M181.283,21.5H39.819c-0.01,0.015-0.019,0.031-0.028,0.046l141.508-0.021
				C181.293,21.517,181.288,21.508,181.283,21.5z"/>
		</g>
	</g>
	<path opacity="0.2" fill="none" d="M181.103,21.162c8.501,13.125,13.436,28.774,13.436,45.572
		c0,46.374-37.592,83.966-83.966,83.966c-46.369,0-83.963-37.593-83.963-83.966c0-16.68,4.865-32.229,13.255-45.296"/>
	<g>
		<path fill="none" stroke="#FFFFFF" stroke-width="0.5" d="M39.793,21.547C31.419,34.606,26.609,50.07,26.609,66.734
			c0,46.374,37.591,83.966,83.963,83.966c46.374,0,83.966-37.593,83.966-83.966c0-16.789-4.748-32.088-13.239-45.207"/>
		<path fill="#8C8C8C" stroke="#FFFFFF" stroke-width="0.5" d="M181.299,21.527c-0.004-0.008-0.01-0.018-0.016-0.026"/>
		<path fill="#8C8C8C" stroke="#FFFFFF" stroke-width="0.5" d="M39.819,21.5c-0.008,0.018-0.017,0.032-0.026,0.047"/>
		<path fill="none" stroke="#FFFFFF" stroke-width="0.5" d="M181.299,21.527c8.491,13.119,13.239,28.418,13.239,45.207
			c0,46.374-37.592,83.966-83.966,83.966c-46.372,0-83.963-37.593-83.963-83.966c0-16.664,4.81-32.128,13.184-45.187"/>
		<path fill="none" stroke="#FFFFFF" stroke-width="0.5" d="M34.51,21.547c-7.341,12.84-11.633,27.878-11.633,43.728
			c0,48.54,39.35,87.886,87.89,87.886c48.537,0,87.887-39.347,87.887-87.886c0-16.028-4.196-30.813-11.692-43.751"/>
	</g>
	<g>
		
			<linearGradient id="SVGID_2_" gradientUnits="userSpaceOnUse" x1="380.8379" y1="559.1758" x2="380.8379" y2="559.1758" gradientTransform="matrix(0.4683 -0.5928 0.6102 0.4819 -478.082 133.4178)">
			<stop  offset="0" style="stop-color:#939598"/>
			<stop  offset="0.0248" style="stop-color:#7B7C7E"/>
			<stop  offset="0.0628" style="stop-color:#5B5B5D"/>
			<stop  offset="0.0943" style="stop-color:#474748"/>
			<stop  offset="0.1154" style="stop-color:#404041"/>
			<stop  offset="0.1477" style="stop-color:#444445"/>
			<stop  offset="0.1788" style="stop-color:#4F4F50"/>
			<stop  offset="0.2096" style="stop-color:#616264"/>
			<stop  offset="0.2398" style="stop-color:#7B7D7F"/>
			<stop  offset="0.2692" style="stop-color:#9C9EA1"/>
			<stop  offset="0.3285" style="stop-color:#9A9C9F"/>
			<stop  offset="0.3499" style="stop-color:#949598"/>
			<stop  offset="0.3651" style="stop-color:#888A8D"/>
			<stop  offset="0.3774" style="stop-color:#78797C"/>
			<stop  offset="0.3878" style="stop-color:#626466"/>
			<stop  offset="0.3956" style="stop-color:#4D4E50"/>
			<stop  offset="0.5385" style="stop-color:#231F20"/>
			<stop  offset="0.7615" style="stop-color:#252122"/>
			<stop  offset="0.8418" style="stop-color:#2B2729"/>
			<stop  offset="0.899" style="stop-color:#353334"/>
			<stop  offset="0.9453" style="stop-color:#454345"/>
			<stop  offset="0.9845" style="stop-color:#58585B"/>
			<stop  offset="1" style="stop-color:#626366"/>
		</linearGradient>
		<path fill="url(#SVGID_2_)" d="M41.474,177.124"/>
		
			<linearGradient id="SVGID_3_" gradientUnits="userSpaceOnUse" x1="370.9912" y1="522.4131" x2="370.9912" y2="558.7453" gradientTransform="matrix(0.4683 -0.5928 0.6102 0.4819 -478.082 133.4178)">
			<stop  offset="0" style="stop-color:#939598"/>
			<stop  offset="0.0248" style="stop-color:#7B7C7E"/>
			<stop  offset="0.0628" style="stop-color:#5B5B5D"/>
			<stop  offset="0.0943" style="stop-color:#474748"/>
			<stop  offset="0.1154" style="stop-color:#404041"/>
			<stop  offset="0.1477" style="stop-color:#444445"/>
			<stop  offset="0.1788" style="stop-color:#4F4F50"/>
			<stop  offset="0.2096" style="stop-color:#616264"/>
			<stop  offset="0.2398" style="stop-color:#7B7D7F"/>
			<stop  offset="0.2692" style="stop-color:#9C9EA1"/>
			<stop  offset="0.3285" style="stop-color:#9A9C9F"/>
			<stop  offset="0.3499" style="stop-color:#949598"/>
			<stop  offset="0.3651" style="stop-color:#888A8D"/>
			<stop  offset="0.3774" style="stop-color:#78797C"/>
			<stop  offset="0.3878" style="stop-color:#626466"/>
			<stop  offset="0.3956" style="stop-color:#4D4E50"/>
			<stop  offset="0.5385" style="stop-color:#231F20"/>
			<stop  offset="0.7615" style="stop-color:#252122"/>
			<stop  offset="0.8418" style="stop-color:#2B2729"/>
			<stop  offset="0.899" style="stop-color:#353334"/>
			<stop  offset="0.9453" style="stop-color:#454345"/>
			<stop  offset="0.9845" style="stop-color:#58585B"/>
			<stop  offset="1" style="stop-color:#626366"/>
		</linearGradient>
		<path fill="url(#SVGID_3_)" d="M1.626,177.997l18.683-23.89c1.898-2.407,5.451-2.772,7.934-0.815l15.252,12.049
			c2.477,1.956,2.942,5.492,1.043,7.902l-3.56,4.582"/>
		
			<linearGradient id="SVGID_4_" gradientUnits="userSpaceOnUse" x1="65.3657" y1="95.0288" x2="82.079" y2="111.7429" gradientTransform="matrix(0.9779 -0.1287 0.1013 0.9811 -37.4475 54.8572)">
			<stop  offset="0.011" style="stop-color:#626366"/>
			<stop  offset="0.0934" style="stop-color:#EAEBEC"/>
			<stop  offset="0.3077" style="stop-color:#FFFFFF"/>
			<stop  offset="0.3257" style="stop-color:#E0E0E0"/>
			<stop  offset="0.3582" style="stop-color:#AFADAD"/>
			<stop  offset="0.3914" style="stop-color:#848182"/>
			<stop  offset="0.4247" style="stop-color:#615E5F"/>
			<stop  offset="0.4582" style="stop-color:#464243"/>
			<stop  offset="0.4918" style="stop-color:#322F30"/>
			<stop  offset="0.5257" style="stop-color:#272324"/>
			<stop  offset="0.5604" style="stop-color:#231F20"/>
			<stop  offset="0.5773" style="stop-color:#3D3A3B"/>
			<stop  offset="0.6094" style="stop-color:#686667"/>
			<stop  offset="0.6429" style="stop-color:#8E8D8E"/>
			<stop  offset="0.6773" style="stop-color:#ACACAD"/>
			<stop  offset="0.7131" style="stop-color:#C4C4C5"/>
			<stop  offset="0.7507" style="stop-color:#D5D6D7"/>
			<stop  offset="0.7913" style="stop-color:#DFE0E1"/>
			<stop  offset="0.8407" style="stop-color:#E2E3E4"/>
			<stop  offset="0.9023" style="stop-color:#E0E1E2"/>
			<stop  offset="0.9261" style="stop-color:#D9DADB"/>
			<stop  offset="0.9433" style="stop-color:#CDCECF"/>
			<stop  offset="0.9574" style="stop-color:#BCBDBE"/>
			<stop  offset="0.9696" style="stop-color:#A6A6A7"/>
			<stop  offset="0.9804" style="stop-color:#8A8B8C"/>
			<stop  offset="0.9902" style="stop-color:#6A6A6B"/>
			<stop  offset="0.999" style="stop-color:#454546"/>
			<stop  offset="1" style="stop-color:#404041"/>
		</linearGradient>
		<path fill="url(#SVGID_4_)" stroke="#4D4E50" stroke-width="0.5" stroke-linecap="round" d="M26.993,151.209l19.473-24.578
			c0,0,3.412,4.416,7.561,7.705c4.379,3.461,10.353,6.624,10.353,6.624l-19.915,25.19c0,0-5.714-3.139-9.641-6.249
			C30.912,156.812,26.993,151.209,26.993,151.209z"/>
		<g>
			
				<linearGradient id="SVGID_5_" gradientUnits="userSpaceOnUse" x1="62.063" y1="79.022" x2="79.0939" y2="95.8461" gradientTransform="matrix(0.9781 -0.1285 0.1015 0.9813 -27.3654 63.4988)">
				<stop  offset="0.022" style="stop-color:#9C9EA1"/>
				<stop  offset="0.1813" style="stop-color:#FFFFFF"/>
				<stop  offset="0.2063" style="stop-color:#DBDBDB"/>
				<stop  offset="0.2394" style="stop-color:#B2B2B2"/>
				<stop  offset="0.2745" style="stop-color:#8F8F8F"/>
				<stop  offset="0.3114" style="stop-color:#727273"/>
				<stop  offset="0.3507" style="stop-color:#5C5C5D"/>
				<stop  offset="0.3935" style="stop-color:#4C4C4D"/>
				<stop  offset="0.4424" style="stop-color:#434344"/>
				<stop  offset="0.511" style="stop-color:#404041"/>
				<stop  offset="0.5403" style="stop-color:#484849"/>
				<stop  offset="0.5862" style="stop-color:#5E5E5F"/>
				<stop  offset="0.6429" style="stop-color:#828384"/>
				<stop  offset="0.7076" style="stop-color:#B3B5B6"/>
				<stop  offset="0.7418" style="stop-color:#D0D2D3"/>
				<stop  offset="0.801" style="stop-color:#CDCFD0"/>
				<stop  offset="0.8485" style="stop-color:#C3C5C6"/>
				<stop  offset="0.892" style="stop-color:#B2B4B5"/>
				<stop  offset="0.9331" style="stop-color:#9B9C9E"/>
				<stop  offset="0.9722" style="stop-color:#7C7E80"/>
				<stop  offset="1" style="stop-color:#626366"/>
			</linearGradient>
			<path fill="url(#SVGID_5_)" stroke="#4D4E50" stroke-width="0.5" stroke-miterlimit="20" d="M40.583,131.145
				c-0.851,0.87-0.948,1.916-0.744,2.464c0.121,0.29,3.757,4.88,8.812,9.014c5.07,4.14,9.985,6.729,10.234,6.747
				c0.618,0.006,1.738-0.231,2.353-1.25c0.601-1.041,0.491-2.492-0.141-2.504c-0.065,0.014-4.826-2.591-9.643-6.52
				c-4.869-4-8.494-8.558-8.52-8.63C42.703,129.942,41.451,130.295,40.583,131.145z"/>
		</g>
		<g>
			
				<linearGradient id="SVGID_6_" gradientUnits="userSpaceOnUse" x1="66.1675" y1="75.1919" x2="83.199" y2="92.0166" gradientTransform="matrix(0.9781 -0.1285 0.1015 0.9813 -27.3654 63.4988)">
				<stop  offset="0.022" style="stop-color:#9C9EA1"/>
				<stop  offset="0.1813" style="stop-color:#FFFFFF"/>
				<stop  offset="0.2063" style="stop-color:#DBDBDB"/>
				<stop  offset="0.2394" style="stop-color:#B2B2B2"/>
				<stop  offset="0.2745" style="stop-color:#8F8F8F"/>
				<stop  offset="0.3114" style="stop-color:#727273"/>
				<stop  offset="0.3507" style="stop-color:#5C5C5D"/>
				<stop  offset="0.3935" style="stop-color:#4C4C4D"/>
				<stop  offset="0.4424" style="stop-color:#434344"/>
				<stop  offset="0.511" style="stop-color:#404041"/>
				<stop  offset="0.5403" style="stop-color:#484849"/>
				<stop  offset="0.5862" style="stop-color:#5E5E5F"/>
				<stop  offset="0.6429" style="stop-color:#828384"/>
				<stop  offset="0.7076" style="stop-color:#B3B5B6"/>
				<stop  offset="0.7418" style="stop-color:#D0D2D3"/>
				<stop  offset="0.801" style="stop-color:#CDCFD0"/>
				<stop  offset="0.8485" style="stop-color:#C3C5C6"/>
				<stop  offset="0.892" style="stop-color:#B2B4B5"/>
				<stop  offset="0.9331" style="stop-color:#9B9C9E"/>
				<stop  offset="0.9722" style="stop-color:#7C7E80"/>
				<stop  offset="1" style="stop-color:#626366"/>
			</linearGradient>
			<path fill="url(#SVGID_6_)" stroke="#4D4E50" stroke-width="0.5" stroke-miterlimit="20" d="M44.211,126.856
				c-0.85,0.871-0.95,1.919-0.747,2.464c0.12,0.294,3.757,4.88,8.812,9.017c5.071,4.137,9.986,6.729,10.232,6.747
				c0.62,0.005,1.744-0.232,2.361-1.254c0.597-1.038,0.486-2.489-0.146-2.502c-0.065,0.013-4.828-2.59-9.643-6.518
				c-4.866-3.997-8.497-8.562-8.52-8.633C46.328,125.652,45.076,126.005,44.211,126.856z"/>
		</g>
		<g>
			
				<linearGradient id="SVGID_7_" gradientUnits="userSpaceOnUse" x1="45.522" y1="95.3638" x2="62.5523" y2="112.1873" gradientTransform="matrix(0.9781 -0.1285 0.1015 0.9813 -27.3654 63.4988)">
				<stop  offset="0.022" style="stop-color:#9C9EA1"/>
				<stop  offset="0.1813" style="stop-color:#FFFFFF"/>
				<stop  offset="0.2063" style="stop-color:#DBDBDB"/>
				<stop  offset="0.2394" style="stop-color:#B2B2B2"/>
				<stop  offset="0.2745" style="stop-color:#8F8F8F"/>
				<stop  offset="0.3114" style="stop-color:#727273"/>
				<stop  offset="0.3507" style="stop-color:#5C5C5D"/>
				<stop  offset="0.3935" style="stop-color:#4C4C4D"/>
				<stop  offset="0.4424" style="stop-color:#434344"/>
				<stop  offset="0.511" style="stop-color:#404041"/>
				<stop  offset="0.5403" style="stop-color:#484849"/>
				<stop  offset="0.5862" style="stop-color:#5E5E5F"/>
				<stop  offset="0.6429" style="stop-color:#828384"/>
				<stop  offset="0.7076" style="stop-color:#B3B5B6"/>
				<stop  offset="0.7418" style="stop-color:#D0D2D3"/>
				<stop  offset="0.801" style="stop-color:#CDCFD0"/>
				<stop  offset="0.8485" style="stop-color:#C3C5C6"/>
				<stop  offset="0.892" style="stop-color:#B2B4B5"/>
				<stop  offset="0.9331" style="stop-color:#9B9C9E"/>
				<stop  offset="0.9722" style="stop-color:#7C7E80"/>
				<stop  offset="1" style="stop-color:#626366"/>
			</linearGradient>
			<path fill="url(#SVGID_7_)" stroke="#4D4E50" stroke-width="0.5" stroke-miterlimit="20" d="M26.062,149.307
				c-0.847,0.868-0.948,1.913-0.744,2.464c0.121,0.291,3.757,4.881,8.812,9.016c5.07,4.138,9.985,6.727,10.238,6.743
				c0.614,0.006,1.734-0.232,2.353-1.252c0.6-1.04,0.488-2.49-0.147-2.498c-0.062,0.014-4.826-2.592-9.637-6.523
				c-4.868-3.998-8.497-8.556-8.522-8.629C28.185,148.104,26.933,148.454,26.062,149.307z"/>
		</g>
		<g>
			
				<linearGradient id="SVGID_8_" gradientUnits="userSpaceOnUse" x1="49.6245" y1="91.5317" x2="66.6578" y2="108.3582" gradientTransform="matrix(0.9781 -0.1285 0.1015 0.9813 -27.3654 63.4988)">
				<stop  offset="0.022" style="stop-color:#9C9EA1"/>
				<stop  offset="0.1813" style="stop-color:#FFFFFF"/>
				<stop  offset="0.2063" style="stop-color:#DBDBDB"/>
				<stop  offset="0.2394" style="stop-color:#B2B2B2"/>
				<stop  offset="0.2745" style="stop-color:#8F8F8F"/>
				<stop  offset="0.3114" style="stop-color:#727273"/>
				<stop  offset="0.3507" style="stop-color:#5C5C5D"/>
				<stop  offset="0.3935" style="stop-color:#4C4C4D"/>
				<stop  offset="0.4424" style="stop-color:#434344"/>
				<stop  offset="0.511" style="stop-color:#404041"/>
				<stop  offset="0.5403" style="stop-color:#484849"/>
				<stop  offset="0.5862" style="stop-color:#5E5E5F"/>
				<stop  offset="0.6429" style="stop-color:#828384"/>
				<stop  offset="0.7076" style="stop-color:#B3B5B6"/>
				<stop  offset="0.7418" style="stop-color:#D0D2D3"/>
				<stop  offset="0.801" style="stop-color:#CDCFD0"/>
				<stop  offset="0.8485" style="stop-color:#C3C5C6"/>
				<stop  offset="0.892" style="stop-color:#B2B4B5"/>
				<stop  offset="0.9331" style="stop-color:#9B9C9E"/>
				<stop  offset="0.9722" style="stop-color:#7C7E80"/>
				<stop  offset="1" style="stop-color:#626366"/>
			</linearGradient>
			<path fill="url(#SVGID_8_)" stroke="#4D4E50" stroke-width="0.5" stroke-miterlimit="20" d="M29.688,145.018
				c-0.85,0.868-0.948,1.919-0.744,2.465c0.118,0.294,3.756,4.881,8.812,9.016c5.073,4.138,9.985,6.732,10.234,6.746
				c0.615,0.01,1.741-0.232,2.358-1.253c0.598-1.039,0.488-2.489-0.146-2.498c-0.063,0.014-4.829-2.595-9.64-6.523
				c-4.869-3.995-8.5-8.558-8.525-8.629C31.808,143.812,30.555,144.167,29.688,145.018z"/>
		</g>
		<g>
			<path fill="#D0D2D3" d="M41.586,131.336c0.135,0.954,4.492,5.53,9.25,9.32c4.768,3.8,8.212,6.165,8.382,6.264
				c0.595,0.306,1.658,0.988,1.404,0.511c-0.308-0.588-1.396-1.183-2.108-1.668c-1.287-0.891-2.597-1.899-3.812-2.812
				c-1.479-1.113-2.72-2.103-4.131-3.258c-0.648-0.528-4.185-3.497-4.805-4.085C45.432,135.295,41.537,130.999,41.586,131.336z"/>
		</g>
		<g>
			<path fill="#D0D2D3" d="M45.541,126.431c-0.172,0.482,3.75,5.535,8.503,9.327c4.771,3.8,8.212,6.164,8.382,6.259
				c0.598,0.307,1.66,0.991,1.404,0.511c-0.307-0.586-1.402-1.181-2.108-1.665c-1.287-0.887-2.594-1.899-3.812-2.813
				c-1.477-1.111-2.72-2.1-4.13-3.256c-0.65-0.527-1.209-0.948-1.83-1.534c-0.333-0.313-0.894-0.886-1.272-1.101
				c-0.523-0.619-0.945-1.238-1.64-1.79C48.408,129.865,45.702,125.985,45.541,126.431z"/>
		</g>
		<g>
			<path fill="#D0D2D3" d="M29.915,146.13c-0.314,0.009-0.222,0.144,0.33,0.729c0.178,0.193,4.562,4.082,9.364,7.905
				c4.811,3.838,8.281,6.227,8.454,6.325c0.603,0.311,1.672,1.003,1.416,0.518c-0.313-0.592-1.414-1.192-2.132-1.681
				c-1.298-0.902-2.616-1.918-3.84-2.838c-1.494-1.125-2.748-2.125-4.171-3.289c-0.651-0.534-1.22-0.96-1.849-1.546
				c-0.339-0.315-0.902-0.893-1.282-1.112c-0.531-0.627-1.27-0.99-1.97-1.548c-0.629-0.506-1.148-1.048-1.723-1.592
				c-0.212-0.2-1.238-1.017-1.446-1.181C30.446,146.33,30.17,146.124,29.915,146.13z"/>
		</g>
		<g>
			<path fill="#D0D2D3" d="M26.815,150.407c-0.313,0.012-0.227,0.144,0.331,0.734c0.179,0.188,4.562,4.077,9.364,7.903
				c4.812,3.834,8.285,6.228,8.454,6.319c0.604,0.311,1.672,1.005,1.417,0.522c-0.313-0.593-1.41-1.188-2.128-1.683
				c-1.299-0.896-2.62-1.919-3.843-2.84c-1.494-1.125-2.75-2.125-4.169-3.287c-0.657-0.535-1.223-0.956-1.852-1.545
				c-0.337-0.319-0.902-0.894-1.282-1.112c-0.528-0.626-1.27-0.989-1.97-1.549c-0.629-0.503-1.149-1.051-1.724-1.591
				c-0.209-0.201-1.235-1.021-1.442-1.181C27.344,150.611,27.074,150.401,26.815,150.407z"/>
		</g>
		<path fill="#808284" d="M30.825,150.212c0,0,4.318,4.747,5.306,5.179c0.994,0.425,0.379-1.135,0.379-1.135l1.308,0.211
			c0,0-1.207-2.305-2.833-3.744c-1.623-1.441-2.93-2.376-2.93-2.376l-1.336,0.249l0.925,0.616l-0.853,0.732"/>
		<path fill="#FFFFFF" d="M31.285,150.438c0,0,3.74,4.113,4.599,4.483c0.856,0.371,0.327-0.981,0.327-0.981l1.132,0.181
			c0,0-1.048-1.994-2.456-3.239c-1.405-1.249-2.534-2.058-2.534-2.058l-1.16,0.216l0.803,0.528l-0.737,0.638"/>
		<polygon fill="#808284" points="34.614,147.791 34.126,147.386 35.211,146.717 36.059,145.86 36.487,144.662 37.306,143.783 
			38.313,143.053 37.888,143.33 38.5,142.274 39.104,141.224 40.351,140.688 37.306,143.631 38.371,142.938 38.958,141.859 
			39.931,141.089 40.414,139.916 40.979,138.82 41.835,137.952 42.203,138.14 46.489,140.853 46.188,140.604 46.75,140.917 
			45.929,141.766 46.552,141.635 45.466,142.284 47.279,140.483 46.673,141.515 46.041,142.524 46.015,141.874 45.19,142.737 
			44.809,143.959 44.073,144.889 43.158,145.677 42.436,146.625 41.747,147.606 40.899,148.456 40.158,149.403 39.272,150.229 
			38.667,151.28 38.785,151.197 35.694,149.021 		"/>
		<polygon fill="#FFFFFF" points="34.614,147.791 35.048,146.782 36.016,146.188 36.771,145.417 37.15,144.349 37.885,143.569 
			38.782,142.919 38.302,143.307 38.845,142.366 39.383,141.431 40.5,140.945 38.412,142.677 38.368,143.407 38.889,142.445 
			39.761,141.754 40.189,140.713 40.695,139.732 41.459,138.957 42.114,137.964 45.94,140.385 46.357,140.8 45.849,141.605 
			45.116,142.364 45.777,142.1 44.812,142.68 46.684,140.761 46.142,141.687 45.576,142.589 45.662,141.861 44.923,142.632 
			44.584,143.72 43.924,144.553 43.107,145.26 42.465,146.104 41.85,146.979 41.092,147.742 40.431,148.586 39.642,149.324 
			39.102,150.26 38.466,151.197 35.706,149.254 		"/>
		<path fill="#808284" d="M34.341,157.289l-4.484-4.21l0.356-0.136l1.388,0.771l-1.267-1.339l0.951-0.574
			c0,0,2.215,1.503,2.628,1.826c0.408,0.322,1.689,1.75,1.689,1.75l-0.882,0.379l-0.684-0.291l0.425,1.253L34.341,157.289z"/>
		<path fill="#FFFFFF" d="M34.022,156.732l-3.574-3.358l0.285-0.103l1.105,0.611l-1.011-1.068l0.755-0.457
			c0,0,1.772,1.194,2.095,1.454c0.33,0.257,1.35,1.396,1.35,1.396l-0.704,0.304l-0.545-0.23l0.341,0.997L34.022,156.732z"/>
		<line fill="#808284" x1="28.33" y1="154.219" x2="28.886" y2="153.928"/>
		<path fill="#808284" d="M28.447,152.453c0,0,1.215,0.955,2.428,1.915c1.212,0.96,2.473,3.106,2.473,3.106l-0.469,0.696
			l0.931,0.899l-0.522,0.247c0,0-1.997-0.589-3.493-2.436c-1.5-1.845-2.264-2.853-2.264-2.853l0.411-0.419l-0.244-0.523l0.692-0.354
			"/>
		<path fill="#FFFFFF" d="M28.863,153.118c0,0,0.979,0.776,1.957,1.55c0.979,0.771,1.997,2.504,1.997,2.504l-0.377,0.561l0.75,0.729
			l-0.419,0.194c0,0-1.614-0.477-2.821-1.96c-1.212-1.488-1.824-2.303-1.824-2.303l0.333-0.339l-0.197-0.419l0.557-0.287"/>
		<path fill="#808284" d="M43.542,133.951c0,0,5.102,3.892,5.613,4.843c0.511,0.947-1.095,0.474-1.095,0.474l0.322,1.285
			c0,0-2.401-1.003-3.973-2.497c-1.577-1.492-2.62-2.715-2.62-2.715l0.128-1.355l0.695,0.87l0.658-0.913"/>
		<path fill="#FFFFFF" d="M43.806,134.391c0,0,4.421,3.372,4.863,4.194c0.443,0.822-0.948,0.409-0.948,0.409l0.276,1.117
			c0,0-2.08-0.876-3.438-2.165c-1.368-1.294-2.27-2.353-2.27-2.353l0.112-1.172l0.603,0.752l0.566-0.789"/>
		<path fill="#808284" d="M52.852,132.694l-4.154-3.719l-0.095,0.333l0.801,1.198l-1.307-1.046l-0.448,0.905
			c0,0,1.533,1.887,1.858,2.229c0.325,0.348,1.712,1.39,1.712,1.39l0.278-0.824l-0.318-0.598l1.166,0.283L52.852,132.694z"/>
		<path fill="#FFFFFF" d="M52.421,132.686l-3.312-2.961l-0.074,0.262l0.64,0.95l-1.042-0.826l-0.356,0.721
			c0,0,1.224,1.501,1.479,1.778c0.258,0.276,1.367,1.105,1.367,1.105l0.22-0.656l-0.252-0.478l0.928,0.226L52.421,132.686z"/>
		<line fill="#808284" x1="43.267" y1="135.536" x2="43.824" y2="135.246"/>
		<g>
			<path fill="#808284" d="M44.935,130.823c0,0,1.06,1.123,2.117,2.249c1.061,1.125,3.312,2.2,3.312,2.2l0.653-0.529l0.979,0.847
				l0.198-0.54c0,0-0.761-1.938-2.732-3.271c-1.961-1.339-3.036-2.008-3.036-2.008l-0.382,0.445l-0.539-0.201l-0.294,0.722"/>
			<path fill="#FFFFFF" d="M45.636,131.18c0,0,0.856,0.907,1.711,1.812c0.854,0.911,2.669,1.771,2.669,1.771l0.525-0.421l0.79,0.687
				l0.161-0.441c0,0-0.615-1.562-2.203-2.639c-1.583-1.077-2.449-1.617-2.449-1.617l-0.31,0.363l-0.437-0.167l-0.236,0.586"/>
		</g>
		<path fill="#808284" d="M45.426,131.782c0,0,1.121,0.968,2.233,1.844c1.117,0.88,2.472,2.278,2.472,2.278l-1.09,0.864l1.183,1.512
			l-0.609,0.257c0,0-2.016-1.507-3.372-2.907c-1.355-1.401-1.462-2.307-1.462-2.307l-0.184-0.804L45.426,131.782z"/>
		<path fill="#FFFFFF" d="M45.82,132.435c0,0,0.905,0.783,1.804,1.494c0.896,0.706,1.993,1.835,1.993,1.835l-0.882,0.694
			l0.957,1.221l-0.494,0.208c0,0-1.62-1.219-2.717-2.348c-1.095-1.132-1.181-1.861-1.181-1.861l-0.149-0.646L45.82,132.435z"/>
	</g>
	<g>
		
			<line fill="none" stroke="#231F20" stroke-width="0.5" stroke-linecap="round" stroke-miterlimit="20" x1="110.957" y1="69.725" x2="110.957" y2="147.288"/>
		
			<line fill="none" stroke="#231F20" stroke-width="0.5" stroke-linecap="round" stroke-miterlimit="20" x1="30.162" y1="65.264" x2="106.154" y2="65.264"/>
		
			<line fill="none" stroke="#231F20" stroke-width="0.5" stroke-linecap="round" stroke-miterlimit="20" x1="114.959" y1="65.264" x2="190.657" y2="65.264"/>
		
			<line fill="none" stroke="#231F20" stroke-width="0.5" stroke-linecap="round" stroke-miterlimit="20" x1="110.957" y1="22.03" x2="110.957" y2="61.978"/>
	</g>
	<g opacity="0.2">
		<g>
			<radialGradient id="SVGID_9_" cx="110.958" cy="65.5645" r="81.6099" gradientUnits="userSpaceOnUse">
				<stop  offset="0" style="stop-color:#FFFFFF"/>
				<stop  offset="0.4005" style="stop-color:#FDFDFD"/>
				<stop  offset="0.5448" style="stop-color:#F6F6F6"/>
				<stop  offset="0.6477" style="stop-color:#EBEBEB"/>
				<stop  offset="0.7309" style="stop-color:#DADADA"/>
				<stop  offset="0.8021" style="stop-color:#C4C4C5"/>
				<stop  offset="0.8652" style="stop-color:#A8A9AA"/>
				<stop  offset="0.9223" style="stop-color:#88898A"/>
				<stop  offset="0.9729" style="stop-color:#646566"/>
				<stop  offset="1" style="stop-color:#4D4E50"/>
			</radialGradient>
			<path fill="url(#SVGID_9_)" d="M186.871,21.286l-47.018,0.133l24.173-0.029c9.965,11.966,15.96,27.357,15.96,44.146
				c0,38.123-30.905,69.029-69.029,69.029c-38.122,0-69.03-30.906-69.03-69.029c0-16.67,5.914-31.959,15.753-43.886l-23.264,0.065
				c-7.342,12.84-11.537,27.709-11.537,43.559c0,48.54,39.348,87.886,87.888,87.886c48.537,0,87.887-39.347,87.887-87.886
				C198.654,49.247,194.365,34.223,186.871,21.286z"/>
		</g>
	</g>
</g>
</svg>
