<?xml version="1.0" encoding="utf-8"?>
<!-- Generator: Adobe Illustrator 14.0.0, SVG Export Plug-In . SVG Version: 6.00 Build 43363)  -->
<!DOCTYPE svg PUBLIC "-//W3C//DTD SVG 1.1//EN" "http://www.w3.org/Graphics/SVG/1.1/DTD/svg11.dtd">
<svg version="1.1" id="Layer_1" xmlns="http://www.w3.org/2000/svg" xmlns:xlink="http://www.w3.org/1999/xlink" x="0px" y="0px"
	 width="36px" height="36px" viewBox="0 0 36 36" enable-background="new 0 0 36 36" xml:space="preserve">
<g>
	<g>
		<linearGradient id="SVGID_1_" gradientUnits="userSpaceOnUse" x1="7.8589" y1="31.376" x2="5.0087" y2="28.5242">
			<stop  offset="0" style="stop-color:#9C9EA1"/>
			<stop  offset="0.1374" style="stop-color:#7B7D7F"/>
			<stop  offset="0.2748" style="stop-color:#626365"/>
			<stop  offset="0.398" style="stop-color:#525356"/>
			<stop  offset="0.4945" style="stop-color:#4D4E50"/>
			<stop  offset="0.6138" style="stop-color:#5B5C5E"/>
			<stop  offset="0.8384" style="stop-color:#7E8083"/>
			<stop  offset="1" style="stop-color:#9C9EA1"/>
		</linearGradient>
		<path fill="url(#SVGID_1_)" d="M11.909,26.312c0.29,0.293,0.295,0.758,0.015,1.04l-8.111,8.067
			c-0.281,0.279-0.748,0.275-1.038-0.016L0.98,33.611c-0.289-0.292-0.296-0.759-0.014-1.04l8.108-8.067
			c0.282-0.28,0.749-0.274,1.041,0.012L11.909,26.312z"/>
		
			<linearGradient id="SVGID_2_" gradientUnits="userSpaceOnUse" x1="14.4609" y1="25.3408" x2="16.6388" y2="27.5188" gradientTransform="matrix(0.9862 -0.0138 -0.0138 0.9862 -2.2434 -2.2415)">
			<stop  offset="0.011" style="stop-color:#626366"/>
			<stop  offset="0.0934" style="stop-color:#EAEBEC"/>
			<stop  offset="0.3077" style="stop-color:#FFFFFF"/>
			<stop  offset="0.3257" style="stop-color:#E0E0E0"/>
			<stop  offset="0.3582" style="stop-color:#AFADAD"/>
			<stop  offset="0.3914" style="stop-color:#848182"/>
			<stop  offset="0.4247" style="stop-color:#615E5F"/>
			<stop  offset="0.4582" style="stop-color:#464243"/>
			<stop  offset="0.4918" style="stop-color:#322F30"/>
			<stop  offset="0.5257" style="stop-color:#272324"/>
			<stop  offset="0.5604" style="stop-color:#231F20"/>
			<stop  offset="0.5773" style="stop-color:#3D3A3B"/>
			<stop  offset="0.6094" style="stop-color:#686667"/>
			<stop  offset="0.6429" style="stop-color:#8E8D8E"/>
			<stop  offset="0.6773" style="stop-color:#ACACAD"/>
			<stop  offset="0.7131" style="stop-color:#C4C4C5"/>
			<stop  offset="0.7507" style="stop-color:#D5D6D7"/>
			<stop  offset="0.7913" style="stop-color:#DFE0E1"/>
			<stop  offset="0.8407" style="stop-color:#E2E3E4"/>
			<stop  offset="0.9023" style="stop-color:#E0E1E2"/>
			<stop  offset="0.9261" style="stop-color:#D9DADB"/>
			<stop  offset="0.9433" style="stop-color:#CDCECF"/>
			<stop  offset="0.9574" style="stop-color:#BCBDBE"/>
			<stop  offset="0.9696" style="stop-color:#A6A6A7"/>
			<stop  offset="0.9804" style="stop-color:#8A8B8C"/>
			<stop  offset="0.9902" style="stop-color:#6A6A6B"/>
			<stop  offset="0.999" style="stop-color:#454546"/>
			<stop  offset="1" style="stop-color:#404041"/>
		</linearGradient>
		<path fill="url(#SVGID_2_)" stroke="#4D4E50" stroke-width="0.5" stroke-linecap="round" d="M9.988,24.229l3.545-3.542
			c0,0,0.376,0.622,0.86,1.113c0.519,0.516,1.244,1.015,1.244,1.015l-3.616,3.617c0,0-0.692-0.495-1.155-0.957
			C10.407,25.015,9.988,24.229,9.988,24.229z"/>
		<g>
			
				<linearGradient id="SVGID_3_" gradientUnits="userSpaceOnUse" x1="5.8599" y1="14.5273" x2="8.0808" y2="16.7213" gradientTransform="matrix(0.9864 -0.0136 -0.0136 0.9864 7.1932 7.1942)">
				<stop  offset="0.022" style="stop-color:#9C9EA1"/>
				<stop  offset="0.1813" style="stop-color:#FFFFFF"/>
				<stop  offset="0.2063" style="stop-color:#DBDBDB"/>
				<stop  offset="0.2394" style="stop-color:#B2B2B2"/>
				<stop  offset="0.2745" style="stop-color:#8F8F8F"/>
				<stop  offset="0.3114" style="stop-color:#727273"/>
				<stop  offset="0.3507" style="stop-color:#5C5C5D"/>
				<stop  offset="0.3935" style="stop-color:#4C4C4D"/>
				<stop  offset="0.4424" style="stop-color:#434344"/>
				<stop  offset="0.511" style="stop-color:#404041"/>
				<stop  offset="0.5403" style="stop-color:#484849"/>
				<stop  offset="0.5862" style="stop-color:#5E5E5F"/>
				<stop  offset="0.6429" style="stop-color:#828384"/>
				<stop  offset="0.7076" style="stop-color:#B3B5B6"/>
				<stop  offset="0.7418" style="stop-color:#D0D2D3"/>
				<stop  offset="0.801" style="stop-color:#CDCFD0"/>
				<stop  offset="0.8485" style="stop-color:#C3C5C6"/>
				<stop  offset="0.892" style="stop-color:#B2B4B5"/>
				<stop  offset="0.9331" style="stop-color:#9B9C9E"/>
				<stop  offset="0.9722" style="stop-color:#7C7E80"/>
				<stop  offset="1" style="stop-color:#626366"/>
			</linearGradient>
			<path fill="url(#SVGID_3_)" stroke="#4D4E50" stroke-width="0.5" stroke-miterlimit="20" d="M12.704,21.184
				c-0.125,0.101-0.153,0.233-0.135,0.311c0.01,0.039,0.413,0.682,1.006,1.297c0.593,0.613,1.189,1.024,1.223,1.03
				c0.078,0.013,0.227-0.002,0.32-0.124c0.095-0.129,0.104-0.314,0.022-0.326c-0.008,0-0.584-0.412-1.149-0.993
				c-0.571-0.591-0.974-1.24-0.974-1.248C12.993,21.059,12.827,21.083,12.704,21.184z"/>
		</g>
		<g>
			
				<linearGradient id="SVGID_4_" gradientUnits="userSpaceOnUse" x1="6.3931" y1="14.0278" x2="8.6146" y2="16.2224" gradientTransform="matrix(0.9864 -0.0136 -0.0136 0.9864 7.1932 7.1942)">
				<stop  offset="0.022" style="stop-color:#9C9EA1"/>
				<stop  offset="0.1813" style="stop-color:#FFFFFF"/>
				<stop  offset="0.2063" style="stop-color:#DBDBDB"/>
				<stop  offset="0.2394" style="stop-color:#B2B2B2"/>
				<stop  offset="0.2745" style="stop-color:#8F8F8F"/>
				<stop  offset="0.3114" style="stop-color:#727273"/>
				<stop  offset="0.3507" style="stop-color:#5C5C5D"/>
				<stop  offset="0.3935" style="stop-color:#4C4C4D"/>
				<stop  offset="0.4424" style="stop-color:#434344"/>
				<stop  offset="0.511" style="stop-color:#404041"/>
				<stop  offset="0.5403" style="stop-color:#484849"/>
				<stop  offset="0.5862" style="stop-color:#5E5E5F"/>
				<stop  offset="0.6429" style="stop-color:#828384"/>
				<stop  offset="0.7076" style="stop-color:#B3B5B6"/>
				<stop  offset="0.7418" style="stop-color:#D0D2D3"/>
				<stop  offset="0.801" style="stop-color:#CDCFD0"/>
				<stop  offset="0.8485" style="stop-color:#C3C5C6"/>
				<stop  offset="0.892" style="stop-color:#B2B4B5"/>
				<stop  offset="0.9331" style="stop-color:#9B9C9E"/>
				<stop  offset="0.9722" style="stop-color:#7C7E80"/>
				<stop  offset="1" style="stop-color:#626366"/>
			</linearGradient>
			<path fill="url(#SVGID_4_)" stroke="#4D4E50" stroke-width="0.5" stroke-miterlimit="20" d="M13.236,20.683
				c-0.119,0.1-0.148,0.233-0.133,0.309c0.014,0.038,0.412,0.69,1,1.3c0.597,0.613,1.195,1.024,1.23,1.03
				c0.079,0.01,0.228-0.006,0.324-0.127c0.091-0.122,0.097-0.314,0.017-0.326c-0.01,0-0.585-0.405-1.149-0.99
				c-0.57-0.59-0.969-1.236-0.972-1.248C13.53,20.561,13.362,20.586,13.236,20.683z"/>
		</g>
		<g>
			
				<linearGradient id="SVGID_5_" gradientUnits="userSpaceOnUse" x1="3.0488" y1="17.314" x2="5.2715" y2="19.5097" gradientTransform="matrix(0.9864 -0.0136 -0.0136 0.9864 7.1932 7.1942)">
				<stop  offset="0.022" style="stop-color:#9C9EA1"/>
				<stop  offset="0.1813" style="stop-color:#FFFFFF"/>
				<stop  offset="0.2063" style="stop-color:#DBDBDB"/>
				<stop  offset="0.2394" style="stop-color:#B2B2B2"/>
				<stop  offset="0.2745" style="stop-color:#8F8F8F"/>
				<stop  offset="0.3114" style="stop-color:#727273"/>
				<stop  offset="0.3507" style="stop-color:#5C5C5D"/>
				<stop  offset="0.3935" style="stop-color:#4C4C4D"/>
				<stop  offset="0.4424" style="stop-color:#434344"/>
				<stop  offset="0.511" style="stop-color:#404041"/>
				<stop  offset="0.5403" style="stop-color:#484849"/>
				<stop  offset="0.5862" style="stop-color:#5E5E5F"/>
				<stop  offset="0.6429" style="stop-color:#828384"/>
				<stop  offset="0.7076" style="stop-color:#B3B5B6"/>
				<stop  offset="0.7418" style="stop-color:#D0D2D3"/>
				<stop  offset="0.801" style="stop-color:#CDCFD0"/>
				<stop  offset="0.8485" style="stop-color:#C3C5C6"/>
				<stop  offset="0.892" style="stop-color:#B2B4B5"/>
				<stop  offset="0.9331" style="stop-color:#9B9C9E"/>
				<stop  offset="0.9722" style="stop-color:#7C7E80"/>
				<stop  offset="1" style="stop-color:#626366"/>
			</linearGradient>
			<path fill="url(#SVGID_5_)" stroke="#4D4E50" stroke-width="0.5" stroke-miterlimit="20" d="M9.894,23.97
				c-0.125,0.098-0.149,0.233-0.132,0.307c0.007,0.042,0.41,0.692,1.001,1.304c0.595,0.613,1.192,1.024,1.226,1.028
				c0.079,0.01,0.228-0.002,0.324-0.125c0.094-0.128,0.1-0.316,0.018-0.332c-0.007,0-0.586-0.403-1.149-0.986
				c-0.569-0.594-0.966-1.236-0.97-1.248C10.185,23.846,10.02,23.871,9.894,23.97z"/>
		</g>
		<g>
			
				<linearGradient id="SVGID_6_" gradientUnits="userSpaceOnUse" x1="3.5811" y1="16.8125" x2="5.8032" y2="19.0076" gradientTransform="matrix(0.9864 -0.0136 -0.0136 0.9864 7.1932 7.1942)">
				<stop  offset="0.022" style="stop-color:#9C9EA1"/>
				<stop  offset="0.1813" style="stop-color:#FFFFFF"/>
				<stop  offset="0.2063" style="stop-color:#DBDBDB"/>
				<stop  offset="0.2394" style="stop-color:#B2B2B2"/>
				<stop  offset="0.2745" style="stop-color:#8F8F8F"/>
				<stop  offset="0.3114" style="stop-color:#727273"/>
				<stop  offset="0.3507" style="stop-color:#5C5C5D"/>
				<stop  offset="0.3935" style="stop-color:#4C4C4D"/>
				<stop  offset="0.4424" style="stop-color:#434344"/>
				<stop  offset="0.511" style="stop-color:#404041"/>
				<stop  offset="0.5403" style="stop-color:#484849"/>
				<stop  offset="0.5862" style="stop-color:#5E5E5F"/>
				<stop  offset="0.6429" style="stop-color:#828384"/>
				<stop  offset="0.7076" style="stop-color:#B3B5B6"/>
				<stop  offset="0.7418" style="stop-color:#D0D2D3"/>
				<stop  offset="0.801" style="stop-color:#CDCFD0"/>
				<stop  offset="0.8485" style="stop-color:#C3C5C6"/>
				<stop  offset="0.892" style="stop-color:#B2B4B5"/>
				<stop  offset="0.9331" style="stop-color:#9B9C9E"/>
				<stop  offset="0.9722" style="stop-color:#7C7E80"/>
				<stop  offset="1" style="stop-color:#626366"/>
			</linearGradient>
			<path fill="url(#SVGID_6_)" stroke="#4D4E50" stroke-width="0.5" stroke-miterlimit="20" d="M10.428,23.466
				c-0.123,0.103-0.151,0.237-0.134,0.312c0.013,0.037,0.411,0.69,1.005,1.304c0.595,0.608,1.192,1.021,1.222,1.026
				c0.082,0.008,0.228-0.004,0.325-0.127c0.093-0.127,0.104-0.314,0.021-0.324c-0.01,0.002-0.59-0.409-1.153-0.995
				c-0.569-0.593-0.97-1.236-0.973-1.246C10.719,23.345,10.552,23.371,10.428,23.466z"/>
		</g>
		<g>
			<path fill="#D0D2D3" d="M12.845,21.103c0.003,0.124,0.496,0.785,1.054,1.347c0.56,0.567,0.97,0.928,0.991,0.939
				c0.076,0.05,0.2,0.154,0.175,0.091c-0.032-0.083-0.164-0.178-0.249-0.249c-0.151-0.133-0.309-0.285-0.451-0.423
				c-0.174-0.167-0.318-0.312-0.483-0.487c-0.075-0.079-0.49-0.514-0.56-0.599C13.283,21.676,12.844,21.059,12.845,21.103z"/>
		</g>
		<g>
			<path fill="#D0D2D3" d="M13.417,20.574c-0.028,0.058,0.4,0.771,0.958,1.333c0.564,0.567,0.97,0.928,0.989,0.941
				c0.075,0.05,0.205,0.154,0.178,0.087c-0.031-0.079-0.164-0.172-0.249-0.245c-0.153-0.139-0.308-0.287-0.451-0.425
				c-0.174-0.166-0.32-0.312-0.484-0.48c-0.08-0.082-0.145-0.143-0.216-0.231c-0.04-0.042-0.102-0.125-0.151-0.158
				c-0.054-0.092-0.099-0.175-0.182-0.26C13.732,21.062,13.441,20.521,13.417,20.574z"/>
		</g>
		<g>
			<path fill="#D0D2D3" d="M10.441,23.616c-0.04-0.002-0.031,0.016,0.033,0.101c0.021,0.023,0.527,0.596,1.091,1.167
				c0.562,0.567,0.978,0.932,1,0.947c0.068,0.046,0.2,0.154,0.175,0.091c-0.035-0.085-0.168-0.178-0.25-0.255
				c-0.159-0.137-0.311-0.287-0.457-0.425c-0.178-0.169-0.321-0.316-0.493-0.489c-0.073-0.079-0.14-0.144-0.212-0.229
				c-0.037-0.045-0.107-0.126-0.149-0.162c-0.061-0.089-0.15-0.148-0.233-0.228c-0.072-0.074-0.135-0.156-0.199-0.233
				c-0.024-0.029-0.144-0.156-0.166-0.174C10.508,23.647,10.475,23.616,10.441,23.616z"/>
		</g>
		<g>
			<path fill="#D0D2D3" d="M9.974,24.124c-0.041-0.004-0.03,0.017,0.032,0.1c0.019,0.027,0.528,0.599,1.094,1.164
				c0.561,0.574,0.976,0.936,0.999,0.95c0.072,0.051,0.199,0.156,0.175,0.087c-0.032-0.079-0.167-0.177-0.251-0.247
				c-0.155-0.141-0.309-0.289-0.454-0.428c-0.177-0.168-0.322-0.316-0.492-0.488c-0.075-0.083-0.141-0.148-0.213-0.231
				c-0.04-0.044-0.105-0.131-0.148-0.162c-0.061-0.089-0.149-0.148-0.232-0.228c-0.076-0.075-0.135-0.154-0.202-0.235
				c-0.023-0.029-0.141-0.15-0.166-0.174C10.042,24.158,10.007,24.126,9.974,24.124z"/>
		</g>
		<path fill="#808284" d="M10.496,24.16c0,0,0.489,0.682,0.608,0.749c0.121,0.071,0.065-0.138,0.065-0.138l0.168,0.047
			c0,0-0.121-0.318-0.309-0.53c-0.188-0.209-0.345-0.352-0.345-0.352l-0.175,0.01l0.109,0.097l-0.122,0.081"/>
		<path fill="#FFFFFF" d="M10.552,24.195c0,0,0.421,0.59,0.529,0.651c0.106,0.062,0.055-0.123,0.055-0.123l0.145,0.044
			c0,0-0.104-0.279-0.266-0.459c-0.167-0.185-0.301-0.311-0.301-0.311l-0.15,0.014l0.097,0.083l-0.109,0.069"/>
		<polygon fill="#808284" points="11.024,23.905 10.969,23.844 11.116,23.774 11.243,23.676 11.316,23.527 11.434,23.426 
			11.576,23.349 11.666,23.215 11.762,23.086 11.855,22.959 12.027,22.91 12.088,22.752 12.237,22.677 12.33,22.548 12.468,22.463 
			12.549,22.316 12.634,22.179 12.762,22.081 12.808,22.115 13.322,22.528 13.285,22.495 13.353,22.542 13.234,22.641 
			13.168,22.791 13.017,22.862 12.924,22.987 12.832,23.113 12.735,23.236 12.591,23.31 12.469,23.408 12.406,23.561 12.292,23.672 
			12.163,23.761 12.057,23.871 11.952,23.988 11.826,24.085 11.715,24.195 11.594,24.29 11.498,24.415 11.511,24.405 11.144,24.079 
					"/>
		<polygon fill="#FFFFFF" points="11.024,23.905 11.098,23.778 11.231,23.717 11.338,23.628 11.405,23.499 11.511,23.404 
			11.636,23.335 11.721,23.219 11.804,23.104 11.888,22.993 12.041,22.947 12.096,22.808 12.231,22.74 12.312,22.621 12.436,22.544 
			12.507,22.418 12.586,22.297 12.697,22.206 12.797,22.091 13.257,22.463 13.303,22.522 13.228,22.617 13.121,22.704 
			13.062,22.841 12.923,22.902 12.845,23.017 12.762,23.126 12.672,23.236 12.549,23.302 12.44,23.393 12.377,23.529 12.278,23.628 
			12.163,23.703 12.067,23.806 11.974,23.907 11.861,23.996 11.767,24.097 11.653,24.18 11.569,24.29 11.469,24.401 11.144,24.112 
					"/>
		<path fill="#808284" d="M10.847,25.129l-0.518-0.615l0.048-0.008l0.168,0.119l-0.143-0.192l0.132-0.059
			c0,0,0.262,0.227,0.313,0.272c0.046,0.05,0.19,0.253,0.19,0.253l-0.121,0.038l-0.085-0.048l0.04,0.17L10.847,25.129z"/>
		<path fill="#FFFFFF" d="M10.811,25.05l-0.413-0.484l0.041-0.014l0.131,0.097l-0.113-0.15l0.108-0.047c0,0,0.209,0.182,0.247,0.221
			c0.04,0.036,0.152,0.198,0.152,0.198l-0.092,0.029l-0.068-0.037l0.027,0.132L10.811,25.05z"/>
		<line fill="#808284" x1="10.113" y1="24.641" x2="10.189" y2="24.611"/>
		<path fill="#808284" d="M10.156,24.413c0,0,0.141,0.141,0.286,0.285c0.143,0.144,0.273,0.442,0.273,0.442l-0.07,0.081l0.104,0.131
			l-0.069,0.023c0,0-0.251-0.104-0.417-0.369c-0.165-0.264-0.252-0.404-0.252-0.404l0.06-0.049l-0.023-0.067l0.094-0.035"/>
		<path fill="#FFFFFF" d="M10.198,24.508c0,0,0.114,0.115,0.23,0.228c0.117,0.119,0.218,0.354,0.218,0.354l-0.056,0.069l0.088,0.104
			l-0.061,0.02c0,0-0.199-0.087-0.333-0.297c-0.133-0.213-0.202-0.326-0.202-0.326l0.046-0.037l-0.017-0.058l0.076-0.029"/>
		<path fill="#808284" d="M13.042,21.591c0,0,0.603,0.583,0.655,0.712c0.049,0.135-0.149,0.048-0.149,0.048l0.021,0.172
			c0,0-0.296-0.17-0.477-0.384c-0.182-0.222-0.296-0.396-0.296-0.396l0.039-0.17l0.074,0.12l0.1-0.103"/>
		<path fill="#FFFFFF" d="M13.07,21.654c0,0,0.521,0.502,0.567,0.615c0.043,0.112-0.129,0.039-0.129,0.039l0.02,0.148
			c0,0-0.259-0.146-0.411-0.332c-0.161-0.19-0.263-0.34-0.263-0.34l0.035-0.152l0.065,0.108l0.085-0.095"/>
		<path fill="#808284" d="M14.267,21.573l-0.479-0.546l-0.018,0.039l0.086,0.166L13.7,21.083l-0.069,0.106
			c0,0,0.169,0.267,0.207,0.32c0.038,0.046,0.199,0.202,0.199,0.202l0.049-0.104l-0.033-0.079l0.148,0.052L14.267,21.573z"/>
		<path fill="#FFFFFF" d="M14.21,21.565l-0.382-0.438l-0.013,0.036l0.067,0.13L13.76,21.17l-0.057,0.091
			c0,0,0.139,0.212,0.167,0.253c0.029,0.036,0.157,0.166,0.157,0.166l0.042-0.085l-0.026-0.065l0.116,0.044L14.21,21.565z"/>
		<line fill="#808284" x1="12.981" y1="21.793" x2="13.062" y2="21.763"/>
		<g>
			<path fill="#808284" d="M13.27,21.207c0,0,0.122,0.162,0.24,0.326c0.122,0.16,0.396,0.333,0.396,0.333L14,21.809l0.114,0.124
				l0.034-0.066c0,0-0.073-0.264-0.304-0.465c-0.233-0.206-0.364-0.307-0.364-0.307l-0.056,0.051l-0.066-0.035l-0.049,0.091"/>
			<path fill="#FFFFFF" d="M13.357,21.263c0,0,0.098,0.135,0.194,0.263c0.097,0.133,0.318,0.268,0.318,0.268l0.075-0.046
				l0.093,0.103l0.028-0.057c0,0-0.06-0.21-0.249-0.372c-0.187-0.164-0.289-0.249-0.289-0.249l-0.048,0.045l-0.05-0.027
				l-0.041,0.071"/>
		</g>
		<path fill="#808284" d="M13.322,21.34c0,0,0.131,0.141,0.26,0.271c0.131,0.133,0.283,0.335,0.283,0.335l-0.152,0.095l0.13,0.216
			l-0.084,0.025c0,0-0.235-0.229-0.393-0.432c-0.154-0.203-0.154-0.32-0.154-0.32l-0.01-0.106L13.322,21.34z"/>
		<path fill="#FFFFFF" d="M13.362,21.429c0,0,0.109,0.118,0.213,0.222c0.101,0.104,0.228,0.267,0.228,0.267l-0.127,0.079l0.11,0.17
			l-0.07,0.022c0,0-0.188-0.185-0.317-0.347c-0.125-0.16-0.125-0.259-0.125-0.259l-0.006-0.089L13.362,21.429z"/>
	</g>
	<linearGradient id="SVGID_7_" gradientUnits="userSpaceOnUse" x1="23.0312" y1="2.0396" x2="23.0312" y2="23.3108">
		<stop  offset="0" style="stop-color:#808284"/>
		<stop  offset="0.0185" style="stop-color:#7D7F81"/>
		<stop  offset="0.2343" style="stop-color:#5C5D5E"/>
		<stop  offset="0.4116" style="stop-color:#474849"/>
		<stop  offset="0.5275" style="stop-color:#404041"/>
		<stop  offset="0.6473" style="stop-color:#434445"/>
		<stop  offset="0.7562" style="stop-color:#4E4E50"/>
		<stop  offset="0.861" style="stop-color:#606162"/>
		<stop  offset="0.9626" style="stop-color:#787A7C"/>
		<stop  offset="0.989" style="stop-color:#808284"/>
	</linearGradient>
	<path opacity="0.5" fill="url(#SVGID_7_)" stroke="#E2E3E4" stroke-miterlimit="20" d="M11.223,12.62
		c0-6.522,5.287-11.812,11.81-11.812c6.521,0,11.808,5.289,11.808,11.812c0,6.52-5.287,11.807-11.808,11.807
		C16.509,24.427,11.223,19.14,11.223,12.62z"/>
	<path fill="none" stroke="#E2E3E4" stroke-miterlimit="20" d="M11.223,12.62c0-6.522,5.287-11.812,11.81-11.812
		c6.521,0,11.808,5.289,11.808,11.812c0,6.52-5.287,11.807-11.808,11.807C16.509,24.427,11.223,19.14,11.223,12.62z"/>
</g>
</svg>
