<?xml version="1.0" encoding="utf-8"?>
<!-- Generator: Adobe Illustrator 14.0.0, SVG Export Plug-In . SVG Version: 6.00 Build 43363)  -->
<!DOCTYPE svg PUBLIC "-//W3C//DTD SVG 1.1//EN" "http://www.w3.org/Graphics/SVG/1.1/DTD/svg11.dtd">
<svg version="1.1" id="Layer_1" xmlns="http://www.w3.org/2000/svg" xmlns:xlink="http://www.w3.org/1999/xlink" x="0px" y="0px"
	 width="36px" height="36px" viewBox="0 0 36 36" enable-background="new 0 0 36 36" xml:space="preserve">
<g>
	
		<linearGradient id="SVGID_1_" gradientUnits="userSpaceOnUse" x1="12.5312" y1="-255.002" x2="16.748" y2="-255.002" gradientTransform="matrix(0.6455 0.6455 -0.7071 0.7071 -179.3315 195.8413)">
		<stop  offset="0.0055" style="stop-color:#808284"/>
		<stop  offset="0.5714" style="stop-color:#FFFFFF"/>
		<stop  offset="1" style="stop-color:#929497"/>
	</linearGradient>
	<path fill="url(#SVGID_1_)" d="M3.804,34.324c-0.823,0.823-2.099,0.882-2.852,0.129l0,0c-0.75-0.749-0.692-2.028,0.131-2.85
		l15.972-15.97c0.824-0.826,2.1-0.884,2.851-0.132l0,0c0.752,0.752,0.692,2.027-0.13,2.853L3.804,34.324z"/>
	<g>
		
			<line fill="none" stroke="#EFCA75" stroke-width="1.08" stroke-linecap="round" stroke-linejoin="round" stroke-dasharray="0.3,2" x1="12.562" y1="7.582" x2="22.067" y2="11.21"/>
		
			<line fill="none" stroke="#EFCA75" stroke-width="1.08" stroke-linecap="round" stroke-linejoin="round" stroke-dasharray="0.3,2" x1="15.681" y1="19.131" x2="20.08" y2="13.756"/>
		
			<line fill="none" stroke="#EFCA75" stroke-width="1.08" stroke-linecap="round" stroke-linejoin="round" stroke-dasharray="0.3,2" x1="27.627" y1="19.732" x2="24.076" y2="13.984"/>
		
			<line fill="none" stroke="#EFCA75" stroke-width="1.08" stroke-linecap="round" stroke-linejoin="round" stroke-dasharray="0.3,2" x1="31.892" y1="8.556" x2="25.385" y2="10.398"/>
		
			<line fill="none" stroke="#EFCA75" stroke-width="1.08" stroke-linecap="round" stroke-linejoin="round" stroke-dasharray="0.3,2" x1="22.581" y1="1.047" x2="22.253" y2="8.083"/>
	</g>
	
		<path fill="none" stroke="#FFFFFF" stroke-width="1.368" stroke-linecap="round" stroke-linejoin="round" stroke-dasharray="0.3114,2.0759" d="
		M11.326,15.395c0,0,5.488-2.253,6.32-5.27c0.829-3.017-2.682-7.914-2.682-7.914s4.169,4.422,7.055,4.462
		c2.884,0.041,6.649-4.943,6.649-4.943s-3.158,5.367-2.096,8.072c1.063,2.704,6.837,4.762,6.837,4.762s-6.016-1.213-8.267,0.565
		c-2.253,1.777-2.459,7.816-2.459,7.816s-0.524-6.196-2.786-7.817C17.636,13.506,11.326,15.395,11.326,15.395z"/>
</g>
</svg>
