<?xml version="1.0" encoding="utf-8"?>
<!-- Generator: Adobe Illustrator 14.0.0, SVG Export Plug-In . SVG Version: 6.00 Build 43363)  -->
<!DOCTYPE svg PUBLIC "-//W3C//DTD SVG 1.1//EN" "http://www.w3.org/Graphics/SVG/1.1/DTD/svg11.dtd">
<svg version="1.1" id="Layer_1" xmlns="http://www.w3.org/2000/svg" xmlns:xlink="http://www.w3.org/1999/xlink" x="0px" y="0px"
	 width="36px" height="36px" viewBox="0 0 36 36" enable-background="new 0 0 36 36" xml:space="preserve">
<polygon fill="none" stroke="#FFFFFF" stroke-width="1.28" stroke-linecap="round" stroke-dasharray="0.4989,2.4947" points="
	32.315,9.064 28.771,14.312 29.274,16.379 34.622,19.676 33.964,22.896 27.387,23.671 25.969,25.499 27.068,31.44 23.54,33.082 
	19.595,28.668 17.144,28.528 12.868,33.018 9.378,31.263 10.52,25.542 9.042,23.459 2.892,22.931 2.008,19.186 7.402,16.356 
	8.104,13.829 4.442,8.814 7.038,5.784 12.448,8.291 14.698,7.225 16.542,1.459 20.294,1.251 22.024,7.011 24.158,8.356 
	29.989,5.996 "/>
</svg>
