<?xml version="1.0" encoding="utf-8"?>
<!-- Generator: Adobe Illustrator 14.0.0, SVG Export Plug-In . SVG Version: 6.00 Build 43363)  -->
<!DOCTYPE svg PUBLIC "-//W3C//DTD SVG 1.1//EN" "http://www.w3.org/Graphics/SVG/1.1/DTD/svg11.dtd">
<svg version="1.1" id="Layer_1" xmlns="http://www.w3.org/2000/svg" xmlns:xlink="http://www.w3.org/1999/xlink" x="0px" y="0px"
	 width="36px" height="36px" viewBox="0 0 36 36" enable-background="new 0 0 36 36" xml:space="preserve">
<g>
	<g>
		<g>
			<path fill="#6C5735" d="M22.518,1.011C15.347,1.425,6.167,5.876,3.212,12.617C2.6,14.02,2.334,15.408,2.334,16.66
				c0,1.994,0.672,3.646,1.684,4.462c0.344,0.276,0.795,0.513,1.285,0.741c0.176,0.827,0.589,1.628,1.267,2.194
				c0.794,0.658,1.668,0.902,2.557,1.002c-0.115,1.076-0.805,2.162-1.818,3.593c-1.143,1.617-2.435,3.452-2.435,5.707
				c0,0.637,0.507,1.15,1.131,1.15c0.626,0,1.131-0.514,1.131-1.15c0-1.517,0.979-2.9,2.014-4.366
				c1.042-1.478,2.155-3.104,2.248-4.991c0.636-0.107,1.091-0.21,1.722-0.364l1.273-0.285c3.426-0.645,6.518-1.307,9.644-2.891
				c1.703-0.861,3.339-1.886,4.854-3.043c3.302-2.521,5.121-5.737,5.121-8.841c0-0.893-0.15-1.777-0.459-2.633
				C32.149,3.035,27.818,0.707,22.518,1.011z M5.424,19.318c-0.418-0.339-0.822-1.332-0.822-2.666c0-0.909,0.183-1.973,0.68-3.101
				C7.847,7.692,16.292,3.67,22.645,3.307c4.28-0.246,7.73,1.491,8.784,4.427c0.221,0.611,0.329,1.243,0.329,1.886
				c0,2.376-1.486,4.871-4.225,6.961c-1.408,1.073-2.923,2.023-4.504,2.824c-2.869,1.454-5.677,2.054-9.049,2.689L12.598,22.4
				c-0.116,0.029-0.225,0.051-0.341,0.079c-0.373-1.681-1.969-3.022-3.473-3.497c-1.218-0.38-2.291-0.172-2.98,0.548
				C5.678,19.461,5.508,19.386,5.424,19.318z"/>
		</g>
		<g>
			<path fill="#977348" d="M22.585,1.23C15.478,1.638,6.388,6.043,3.465,12.707c-0.59,1.35-0.847,2.701-0.847,3.923
				c0,1.941,0.638,3.556,1.587,4.317c0.347,0.28,0.813,0.521,1.326,0.754c0.142,0.821,0.556,1.625,1.229,2.186
				c0.814,0.677,1.725,0.916,2.651,0.985c-0.051,1.305-0.903,2.537-1.871,3.908c-1.124,1.591-2.397,3.395-2.397,5.579
				c0,0.517,0.413,0.934,0.917,0.934c0.505,0,0.917-0.417,0.917-0.934c0-1.588,0.997-2.999,2.054-4.496
				c1.057-1.498,2.211-3.146,2.234-5.062c0.643-0.104,1.277-0.233,1.864-0.377l1.281-0.287c3.41-0.643,6.484-1.299,9.588-2.871
				c1.691-0.856,3.312-1.874,4.818-3.021c3.282-2.504,5.049-5.582,5.049-8.605c0-0.882-0.146-1.761-0.456-2.619
				C32.035,3.203,27.783,0.933,22.585,1.23z M5.345,19.491c-0.455-0.366-0.896-1.438-0.896-2.861c0-0.937,0.191-2.024,0.69-3.167
				c2.6-5.935,11.133-10.005,17.548-10.375c4.38-0.25,7.91,1.543,9,4.571c0.229,0.639,0.341,1.296,0.341,1.961
				c0,2.446-1.517,5.003-4.312,7.136c-1.418,1.08-2.946,2.04-4.536,2.845c-2.895,1.467-5.715,2.071-9.106,2.706l-1.37,0.307
				c-0.18,0.044-0.352,0.077-0.53,0.119c-0.248-1.682-1.925-3.077-3.399-3.54c-1.169-0.365-2.197-0.171-2.824,0.536
				c-0.022,0.021-0.027,0.055-0.048,0.077C5.699,19.7,5.472,19.592,5.345,19.491z"/>
		</g>
		<g>
			<path fill="#FFF9C1" stroke="#F9AB79" stroke-width="0.3029" d="M22.547,1.616C15.553,2.018,6.61,6.333,3.749,12.864
				c-0.575,1.312-0.82,2.619-0.82,3.792c0,1.805,0.581,3.294,1.452,3.995C4.657,20.875,5,20.98,5.273,21.204
				c0.337,0.273,0.811,0.479,1.221,0.618c0.095,0.033,0.194,0.029,0.289,0.066c0.19,0.07,0.328,0.17,0.549,0.212
				c0.033,0.17-0.184,0.06-0.254,0.023c-0.187-0.094-0.352-0.161-0.557-0.225c-0.171-0.048-0.339-0.104-0.511-0.142
				c-0.079-0.014-0.149-0.028-0.218-0.068c-0.022,0.13,0.083,0.292,0.127,0.42c0.071,0.192,0.153,0.38,0.253,0.559
				c0.196,0.352,0.457,0.667,0.767,0.925c1.022,0.847,2.342,1.067,3.615,0.968c0.015,0.044,0.015,0.124,0,0.167
				c-0.183,0.01-0.53-0.083-0.691,0.01c-0.167,0.097-0.119,0.267-0.134,0.453c-0.041,0.439-0.194,0.874-0.369,1.273
				c-0.4,0.914-1.001,1.729-1.572,2.542c-1.144,1.619-2.328,3.295-2.328,5.356c0,0.304,0.243,0.549,0.542,0.549
				c0.295,0,0.538-0.245,0.538-0.549c0-1.71,1.08-3.24,2.124-4.719c1.073-1.52,2.171-3.078,2.171-4.878
				c0-0.099-0.053-0.203-0.06-0.3c0.747-0.093,1.49-0.239,2.206-0.411l1.297-0.29c3.383-0.636,6.434-1.289,9.491-2.839
				c1.669-0.846,3.271-1.851,4.761-2.984c3.18-2.427,4.897-5.399,4.897-8.304c0-0.839-0.143-1.67-0.435-2.482
				C31.679,3.501,27.579,1.326,22.547,1.616z M5.05,19.794c-0.572-0.461-1.039-1.642-1.039-3.15c0-1.003,0.205-2.151,0.724-3.335
				C7.391,7.244,16.082,3.083,22.604,2.709c4.549-0.263,8.229,1.632,9.378,4.82c0.243,0.685,0.365,1.385,0.365,2.098
				c0,2.564-1.567,5.229-4.465,7.438c-1.438,1.096-2.981,2.062-4.595,2.882c-2.936,1.486-5.785,2.098-9.203,2.74l-1.353,0.303
				c-0.5,0.119-0.989,0.293-1.494,0.378c-0.231,0.041-0.452,0.143-0.68,0.175c-0.048,0.007-0.859,0.045-0.856,0.05
				c-0.026-0.046-0.032-0.068-0.029-0.118c0.46-0.077,0.907-0.164,1.349-0.286c0.134-0.037,0.31-0.128,0.448-0.169
				c0.769-0.222-0.351-1.706-0.643-2.027c-0.594-0.65-1.381-1.166-2.222-1.43c-1.023-0.323-1.913-0.165-2.439,0.425
				c-0.08,0.089-0.067,0.251-0.123,0.363C5.64,20.165,5.282,19.98,5.05,19.794z M7.624,22.747c-0.289-0.242-0.475-0.521-0.599-0.799
				c1.009,0.413,2.242,0.942,2.444,1.435c0.006,0.012,0.004,0.022,0.007,0.034C8.803,23.368,8.168,23.2,7.624,22.747z M7.021,20.689
				c0.083,0.044,0.165,0.086,0.246,0.128c-0.062-0.031,0.039-0.217,0.068-0.25c0.067-0.066,0.131-0.077,0.224-0.086
				c0.247-0.023,0.497,0.054,0.725,0.126c1.046,0.329,2.259,1.325,2.4,2.363c0.023,0.177,0.139,0.296,0.281,0.378
				c-0.142,0.023-0.275,0.026-0.414,0.042c-0.045-0.146-0.026-0.281-0.089-0.434c-0.247-0.594-0.837-0.979-1.379-1.276
				c-0.351-0.19-0.714-0.352-1.08-0.51c-0.186-0.079-0.381-0.187-0.578-0.239c-0.18-0.049-0.348-0.051-0.519-0.135
				c-0.177-0.088-0.33-0.211-0.519-0.268c-0.244-0.074-0.423-0.22-0.666-0.311c0.034-0.31,0.792,0.159,0.949,0.266
				C6.783,20.558,6.902,20.627,7.021,20.689z"/>
		</g>
	</g>
	<g>
		<g>
			<path fill="none" stroke="#492F00" stroke-width="0.4" stroke-linecap="round" stroke-linejoin="round" d="M12.896,22.591
				c0,0,0.666-1.005,1.427-0.457c0.493,0.351,0.437,0.876,0.849,1.477c0.309,0.451,0.357,0.654,0.929,0.572
				c0.575-0.081,0.71-0.49,0.71-0.49"/>
			<path fill="none" stroke="#492F00" stroke-width="0.4" stroke-linecap="round" stroke-linejoin="round" d="M11.59,23.067
				c0,0,0.447-0.853,1.228-0.38c0.5,0.303,0.448,0.758,0.863,1.278c0.317,0.39,0.367,0.566,0.951,0.496
				c0.586-0.071,0.726-0.425,0.726-0.425"/>
			<path fill="none" stroke="#492F00" stroke-width="0.4" stroke-linecap="round" stroke-linejoin="round" d="M10.286,23.386
				c0,0,0.5-0.594,1.209-0.175c0.453,0.266,0.403,0.668,0.781,1.129c0.284,0.347,0.329,0.503,0.859,0.439s0.657-0.376,0.657-0.376"
				/>
			<path fill="none" stroke="#492F00" stroke-width="0.4" stroke-linecap="round" stroke-linejoin="round" d="M14.619,22.22
				c0,0,0.494-0.842,1.164-0.424c0.495,0.309,0.422,0.846,0.816,1.429c0.298,0.438,0.343,0.636,0.9,0.553
				c0.552-0.076,0.684-0.474,0.684-0.474"/>
			<path fill="none" stroke="#492F00" stroke-width="0.4" stroke-linecap="round" stroke-linejoin="round" d="M16.124,21.854
				c0,0,0.478-0.847,1.195-0.319c0.463,0.339,0.385,0.799,0.751,1.354c0.28,0.415,0.317,0.599,0.881,0.56s0.718-0.395,0.718-0.395"
				/>
			<path fill="none" stroke="#492F00" stroke-width="0.4" stroke-linecap="round" stroke-linejoin="round" d="M17.517,21.467
				c0,0,0.508-0.781,1.191-0.243c0.437,0.344,0.34,0.777,0.676,1.327c0.254,0.409,0.283,0.588,0.836,0.578
				c0.56-0.011,0.725-0.342,0.725-0.342"/>
			<path fill="none" stroke="#492F00" stroke-width="0.4" stroke-linecap="round" stroke-linejoin="round" d="M18.757,21.222
				c0,0,0.448-0.819,1.167-0.338c0.464,0.31,0.401,0.751,0.778,1.272c0.287,0.39,0.328,0.564,0.881,0.51
				c0.556-0.053,0.694-0.396,0.694-0.396"/>
			<path fill="none" stroke="#492F00" stroke-width="0.4" stroke-linecap="round" stroke-linejoin="round" d="M20,20.795
				c0,0,0.417-0.835,1.151-0.382c0.477,0.294,0.429,0.737,0.825,1.243c0.303,0.378,0.351,0.553,0.9,0.479
				c0.552-0.075,0.679-0.424,0.679-0.424"/>
			<path fill="none" stroke="#492F00" stroke-width="0.4" stroke-linecap="round" stroke-linejoin="round" d="M21.255,20.354
				c0,0,0.345-0.87,1.116-0.479c0.497,0.254,0.491,0.699,0.93,1.17c0.33,0.354,0.39,0.522,0.933,0.402
				c0.545-0.122,0.642-0.479,0.642-0.479"/>
			<path fill="none" stroke="#492F00" stroke-width="0.4" stroke-linecap="round" stroke-linejoin="round" d="M22.458,19.835
				c0,0,0.288-0.889,1.083-0.547c0.516,0.218,0.535,0.664,1.004,1.105c0.352,0.331,0.403,0.388,0.957,0.342
				c0.258-0.021,0.808-0.146,0.862-0.569"/>
			<path fill="none" stroke="#492F00" stroke-width="0.4" stroke-linecap="round" stroke-linejoin="round" d="M23.709,19.239
				c0,0,0.144-0.857,1.055-0.63c0.585,0.146,0.728,0.653,1.329,1.061c0.451,0.311,0.571,0.482,1.074,0.197
				c0.505-0.287,0.483-0.72,0.483-0.72"/>
			<path fill="none" stroke="#492F00" stroke-width="0.4" stroke-linecap="round" stroke-linejoin="round" d="M24.979,18.491
				c0,0,0.187-0.849,1.067-0.634c0.565,0.14,0.609,0.529,1.191,0.921c0.441,0.297,0.557,0.461,1.039,0.181
				c0.485-0.279,0.459-0.694,0.459-0.694"/>
			<path fill="none" stroke="#492F00" stroke-width="0.4" stroke-linecap="round" stroke-linejoin="round" d="M26.134,17.627
				c0,0,0.355-0.958,1.218-0.733c0.552,0.144,0.649,0.602,1.198,0.98c0.411,0.286,0.513,0.443,1.022,0.198
				c0.509-0.247,0.522-0.631,0.522-0.631"/>
			<path fill="none" stroke="#492F00" stroke-width="0.4" stroke-linecap="round" stroke-linejoin="round" d="M27.491,16.847
				c0,0,0.032-0.867,0.895-0.781c0.556,0.06,0.66,0.613,1.236,0.895c0.439,0.209,0.553,0.345,1.02,0.038
				c0.462-0.31,0.426-0.676,0.426-0.676"/>
			<path fill="none" stroke="#492F00" stroke-width="0.4" stroke-linecap="round" stroke-linejoin="round" d="M28.568,16.067
				c0,0-0.023-0.935,0.84-0.874c0.56,0.039,0.726,0.45,1.312,0.711c0.508,0.224,0.907,0.236,1.202-0.327
				c0.094-0.181,0.135-0.382,0.188-0.576"/>
			<path fill="none" stroke="#492F00" stroke-width="0.4" stroke-linecap="round" stroke-linejoin="round" d="M29.449,15.133
				c0,0-0.133-0.926,0.733-0.965c0.556-0.026,0.769,0.366,1.385,0.557c0.46,0.146,0.595,0.261,1.008-0.112
				c0.416-0.373,0.324-0.732,0.324-0.732"/>
			<path fill="none" stroke="#492F00" stroke-width="0.4" stroke-linecap="round" stroke-linejoin="round" d="M30.241,14.076
				c0,0-0.146-0.879,0.713-1.009c0.55-0.086,0.722,0.254,1.354,0.382c0.474,0.096,0.622,0.196,0.993-0.217
				c0.374-0.411,0.228-1.077,0.228-1.077"/>
			<path fill="none" stroke="#492F00" stroke-width="0.4" stroke-linecap="round" stroke-linejoin="round" d="M31.019,13.086
				c0,0-0.419-0.837,0.389-1.15c0.52-0.207,0.847,0.096,1.49,0.084c0.481-0.014,0.646,0.053,0.919-0.433
				c0.178-0.315,0.298-1.079-0.031-1.337"/>
			<path fill="none" stroke="#492F00" stroke-width="0.4" stroke-linecap="round" stroke-linejoin="round" d="M31.8,11.834
				c0,0-0.804-0.662-0.099-1.232c0.452-0.366,0.927-0.181,1.592-0.408c0.5-0.171,0.706-0.161,0.773-0.716
				c0.073-0.557-0.276-0.786-0.276-0.786"/>
			<path fill="none" stroke="#492F00" stroke-width="0.4" stroke-linecap="round" stroke-linejoin="round" d="M31.943,10.49
				c0,0-0.764-0.601-0.136-1.232c0.406-0.399,0.85-0.256,1.454-0.536c0.378-0.177,0.657-0.427,0.603-0.872
				c-0.029-0.27-0.242-0.968-0.396-1.042"/>
			<path fill="none" stroke="#492F00" stroke-width="0.4" stroke-linecap="round" stroke-linejoin="round" d="M32.062,9.105
				c0,0-0.849-0.389-0.419-1.14c0.283-0.483,0.725-0.452,1.218-0.863c0.369-0.313,0.534-0.467,0.447-1.016
				c-0.093-0.549-0.683-0.938-0.683-0.938"/>
			<path fill="none" stroke="#492F00" stroke-width="0.4" stroke-linecap="round" stroke-linejoin="round" d="M29.419,4.812
				c0,0-0.79,0.352-1.007-0.511c-0.139-0.553,0.123-0.669,0.194-1.33c0.052-0.5,0.139-0.867-0.325-1.198
				c-0.46-0.329-0.976-0.142-0.976-0.142"/>
			<path fill="none" stroke="#492F00" stroke-width="0.4" stroke-linecap="round" stroke-linejoin="round" d="M28.37,4.091
				c0,0-0.75,0.339-1.158-0.357c-0.284-0.481,0.076-0.847,0.046-1.49c-0.03-0.483,0.033-0.651-0.457-0.912
				c-0.495-0.257-0.798-0.049-0.798-0.049"/>
			<path fill="none" stroke="#492F00" stroke-width="0.4" stroke-linecap="round" stroke-linejoin="round" d="M27.011,3.676
				c0.126-0.073-0.849,0.378-1.168-0.317c-0.236-0.507,0.048-0.851-0.009-1.49c-0.037-0.483-0.071-0.635-0.574-0.881
				c-0.501-0.24-0.976,0.018-0.976,0.018"/>
			<path fill="none" stroke="#492F00" stroke-width="0.4" stroke-linecap="round" stroke-linejoin="round" d="M25.643,3.357
				c0,0-0.752,0.559-1.198-0.183c-0.29-0.474-0.052-0.849-0.179-1.481c-0.094-0.474-0.056-0.646-0.583-0.833
				c-0.526-0.182-0.997,0.112-0.997,0.112"/>
			<path fill="none" stroke="#492F00" stroke-width="0.4" stroke-linecap="round" stroke-linejoin="round" d="M24.366,3.17
				c0,0-0.688,0.63-1.218-0.058c-0.335-0.441-0.133-0.838-0.328-1.455c-0.142-0.46-0.123-0.639-0.665-0.767
				c-0.541-0.128-0.784,0.152-0.784,0.152"/>
			<path fill="none" stroke="#492F00" stroke-width="0.4" stroke-linecap="round" stroke-linejoin="round" d="M23.249,3.252
				c0.09-0.098-0.773,0.534-1.213,0.058c-0.378-0.406-0.217-0.821-0.464-1.418c-0.188-0.445-0.186-0.622-0.738-0.699
				c-0.549-0.073-0.768,0.228-0.768,0.228"/>
			<path fill="none" stroke="#492F00" stroke-width="0.4" stroke-linecap="round" stroke-linejoin="round" d="M31.683,7.738
				c0,0-0.911-0.214-0.634-1.035c0.178-0.53,0.619-0.585,1.019-1.089c0.3-0.38,0.367-0.438,0.259-0.984
				c-0.119-0.625-0.821-0.785-0.821-0.785"/>
			<path fill="none" stroke="#492F00" stroke-width="0.4" stroke-linecap="round" stroke-linejoin="round" d="M31.077,6.551
				c0,0-0.937-0.032-0.823-0.891c0.074-0.553,0.495-0.695,0.791-1.266c0.224-0.429,0.321-0.429,0.079-0.929
				c-0.307-0.634-1.14-0.781-1.14-0.781"/>
			<path fill="none" stroke="#492F00" stroke-width="0.4" stroke-linecap="round" stroke-linejoin="round" d="M30.421,5.299
				c0,0-0.9,0.254-1.057-0.599c-0.101-0.546,0.258-0.811,0.366-1.446c0.078-0.474,0.175-0.626-0.251-0.985
				c-0.426-0.359-0.77-0.217-0.77-0.217"/>
			<path fill="none" stroke="#492F00" stroke-width="0.4" stroke-linecap="round" stroke-linejoin="round" d="M21.957,3.102
				c0,0-0.28,0.888-1.008,0.292c-0.467-0.382-0.379-0.902-0.747-1.528c-0.277-0.471-0.313-0.678-0.889-0.636
				c-0.579,0.045-0.744,0.445-0.744,0.445"/>
			<path fill="none" stroke="#492F00" stroke-width="0.4" stroke-linecap="round" stroke-linejoin="round" d="M20.871,3.231
				c0,0-0.359,0.811-1.129,0.327c-0.492-0.312-0.471-0.819-0.9-1.378c-0.324-0.417-0.38-0.613-0.929-0.502
				c-0.549,0.115-0.657,0.516-0.657,0.516"/>
			<path fill="none" stroke="#492F00" stroke-width="0.4" stroke-linecap="round" stroke-linejoin="round" d="M19.398,3.52
				c0,0-0.429,0.874-1.175,0.392c-0.482-0.31-0.43-0.777-0.833-1.308c-0.3-0.401-0.348-0.582-0.908-0.507
				c-0.563,0.073-0.694,0.436-0.694,0.436"/>
			<path fill="none" stroke="#492F00" stroke-width="0.4" stroke-linecap="round" stroke-linejoin="round" d="M18.029,3.987
				c0,0-0.463,0.812-1.173,0.317c-0.455-0.32-0.385-0.758-0.755-1.287c-0.277-0.394-0.314-0.569-0.87-0.528
				c-0.557,0.045-0.702,0.385-0.702,0.385"/>
			<path fill="none" stroke="#492F00" stroke-width="0.4" stroke-linecap="round" stroke-linejoin="round" d="M16.807,4.308
				c0,0-0.4,0.844-1.146,0.404c-0.482-0.28-0.444-0.725-0.855-1.222c-0.306-0.372-0.359-0.543-0.908-0.459
				c-0.549,0.087-0.666,0.439-0.666,0.439"/>
			<path fill="none" stroke="#492F00" stroke-width="0.4" stroke-linecap="round" stroke-linejoin="round" d="M15.511,4.759
				c0,0-0.366,0.86-1.127,0.449c-0.49-0.265-0.472-0.709-0.901-1.19c-0.321-0.362-0.377-0.531-0.922-0.426
				c-0.545,0.107-0.653,0.462-0.653,0.462"/>
			<path fill="none" stroke="#492F00" stroke-width="0.4" stroke-linecap="round" stroke-linejoin="round" d="M14.301,5.259
				c0,0-0.294,0.888-1.087,0.541c-0.511-0.222-0.53-0.667-0.994-1.109c-0.354-0.333-0.425-0.5-0.958-0.347
				c-0.535,0.152-0.61,0.515-0.61,0.515"/>
			<path fill="none" stroke="#492F00" stroke-width="0.4" stroke-linecap="round" stroke-linejoin="round" d="M13.127,5.876
				c0,0-0.234,0.907-1.048,0.613C11.552,6.3,11.51,5.857,11.015,5.444c-0.374-0.31-0.453-0.467-0.977-0.283
				C9.513,5.346,9.334,5.735,9.334,5.735"/>
			<path fill="none" stroke="#492F00" stroke-width="0.4" stroke-linecap="round" stroke-linejoin="round" d="M11.87,6.367
				c0,0,0.017,1.079-0.905,0.902c-0.594-0.11-0.769-0.607-1.393-0.98C9.106,6.006,8.974,5.842,8.49,6.157
				C8.003,6.474,8.052,6.901,8.052,6.901"/>
			<path fill="none" stroke="#492F00" stroke-width="0.4" stroke-linecap="round" stroke-linejoin="round" d="M10.555,7.263
				c0,0,0.023,1.042-0.87,0.881C9.113,8.037,8.945,7.554,8.34,7.2C7.885,6.931,7.757,6.77,7.291,7.079
				C6.824,7.386,6.756,7.965,6.756,7.965"/>
			<path fill="none" stroke="#492F00" stroke-width="0.4" stroke-linecap="round" stroke-linejoin="round" d="M5.087,34.764
				c0,0-0.725-0.725,0.13-1.237c0.426-0.258,0.59,0.042,1.149,0.078c0.419,0.022,0.553,0.099,0.853-0.329
				c0.303-0.429,0.17-0.728,0.17-0.728"/>
			<path fill="none" stroke="#492F00" stroke-width="0.4" stroke-linecap="round" stroke-linejoin="round" d="M5.046,33.101
				c0,0-0.149-1.136,0.643-1.19c0.508-0.036,0.709,0.34,1.273,0.515c0.425,0.128,0.478,0.138,0.851-0.228
				c0.37-0.371,0.24-0.833,0.24-0.833"/>
			<path fill="none" stroke="#492F00" stroke-width="0.4" stroke-linecap="round" stroke-linejoin="round" d="M5.651,31.622
				c0,0-0.168-0.89,0.62-0.974c0.508-0.059,0.724,0.31,1.293,0.462c0.429,0.111,0.611,0.27,0.967-0.112
				c0.358-0.386,0.205-0.781,0.205-0.781"/>
			<path fill="none" stroke="#492F00" stroke-width="0.4" stroke-linecap="round" stroke-linejoin="round" d="M6.436,30.603
				c0,0-0.343-0.953,0.433-1.109c0.501-0.1,0.854,0.329,1.434,0.431c0.438,0.075,0.706,0.271,1.032-0.143
				c0.324-0.414,0.067-0.849,0.067-0.849"/>
			<path fill="none" stroke="#492F00" stroke-width="0.4" stroke-linecap="round" stroke-linejoin="round" d="M7.26,29.51
				c0,0-0.421-0.91,0.344-1.118c0.496-0.139,0.889,0.25,1.476,0.313c0.44,0.042,0.829,0.183,1.131-0.25
				c0.302-0.437,0.239-1.153,0.239-1.153"/>
			<path fill="none" stroke="#492F00" stroke-width="0.4" stroke-linecap="round" stroke-linejoin="round" d="M8.213,28.431
				c0,0-0.627-0.926,0.161-1.288c0.504-0.234,0.952,0.139,1.618,0.098c0.499-0.028,0.802,0.081,1.005-0.433
				c0.205-0.522,0.063-0.913,0.063-0.913"/>
			<path fill="none" stroke="#492F00" stroke-width="0.4" stroke-linecap="round" stroke-linejoin="round" d="M8.874,27.038
				c0,0-0.557-0.823,0.202-1.179c0.49-0.228,0.865,0.066,1.505,0.021c0.475-0.035,1.221-0.69,0.538-1.009
				c-0.422-0.192-1.135-0.156-1.558,0.022C9.446,24.942,9.3,24.97,9.188,25.03c-0.25,0.128-0.228,0.365-0.045,0.553"/>
			<path fill="none" stroke="#492F00" stroke-width="0.4" stroke-linecap="round" stroke-linejoin="round" d="M9.493,8.3
				c0,0-0.234,0.931-1.093,0.789C7.854,8.997,7.739,8.576,7.186,8.265c-0.416-0.233-0.52-0.371-1.014-0.103
				C5.678,8.433,5.703,8.987,5.703,8.987"/>
			<path fill="none" stroke="#492F00" stroke-width="0.4" stroke-linecap="round" stroke-linejoin="round" d="M8.374,9.115
				c0,0,0.03,0.802-0.836,0.766C6.98,9.858,6.805,9.45,6.211,9.203C5.762,9.019,5.64,8.892,5.194,9.224
				C4.748,9.56,4.71,10.138,4.71,10.138"/>
			<path fill="none" stroke="#492F00" stroke-width="0.4" stroke-linecap="round" stroke-linejoin="round" d="M7.347,10.085
				c0,0,0.038,0.863-0.804,0.889c-0.542,0.02-0.713-0.345-1.285-0.53c-0.437-0.139-0.556-0.245-0.993,0.096
				c-0.44,0.345-0.403,0.976-0.403,0.976"/>
			<path fill="none" stroke="#492F00" stroke-width="0.4" stroke-linecap="round" stroke-linejoin="round" d="M6.533,11.066
				c0,0,0.134,0.856-0.703,0.982c-0.541,0.083-0.75-0.263-1.344-0.378c-0.448-0.087-0.579-0.18-0.978,0.212
				c-0.397,0.394-0.349,1.105-0.349,1.105"/>
			<path fill="none" stroke="#492F00" stroke-width="0.4" stroke-linecap="round" stroke-linejoin="round" d="M5.71,12.12
				c0,0,0.341,0.87-0.49,1.112c-0.534,0.152-0.832-0.177-1.478-0.22c-0.479-0.034-0.654,0.063-0.967,0.52
				c-0.314,0.458-0.064,1.215-0.064,1.215"/>
			<path fill="none" stroke="#492F00" stroke-width="0.4" stroke-linecap="round" stroke-linejoin="round" d="M4.96,13.312
				c0,0,0.607,0.796-0.165,1.228c-0.5,0.282-0.954,0.01-1.599,0.114c-0.482,0.083-0.616,0.108-0.84,0.635
				c-0.212,0.531,0.082,0.961,0.082,0.961"/>
			<path fill="none" stroke="#492F00" stroke-width="0.4" stroke-linecap="round" stroke-linejoin="round" d="M4.489,14.651
				c0,0,0.784,0.443,0.112,1.056c-0.426,0.389-1.005,0.202-1.655,0.468c-0.489,0.199-0.695,0.201-0.729,0.761
				c-0.04,0.559,0.322,0.767,0.322,0.767"/>
			<path fill="none" stroke="#492F00" stroke-width="0.4" stroke-linecap="round" stroke-linejoin="round" d="M4.343,15.898
				c0,0,0.732,0.457,0.142,1.124c-0.38,0.423-0.833,0.306-1.419,0.62c-0.444,0.236-0.571,0.261-0.642,0.823
				c-0.08,0.622,0.783,1.191,0.549,1.1"/>
			<path fill="none" stroke="#492F00" stroke-width="0.4" stroke-linecap="round" stroke-linejoin="round" d="M4.242,17.187
				c0,0,0.871,0.339,0.483,1.115c-0.25,0.5-0.695,0.494-1.165,0.932c-0.351,0.336-0.557,0.511-0.386,1.042
				c0.277,0.84,1.15,0.933,1.15,0.933"/>
			<path fill="none" stroke="#492F00" stroke-width="0.4" stroke-linecap="round" stroke-linejoin="round" d="M4.773,18.495
				c0,0,0.68,0.231,0.486,0.973c-0.125,0.479-0.381,0.46-0.703,0.928c-0.24,0.351-0.295,0.406-0.171,0.885
				c0.142,0.549,1.109,0.616,1.109,0.616"/>
			<path fill="none" stroke="#492F00" stroke-width="0.4" stroke-linecap="round" stroke-linejoin="round" d="M5.318,19.401
				c0.452,0,0.625,0.46,0.613,0.789c-0.012,0.331-0.119,0.461-0.247,0.761c-0.168,0.396-0.273,0.778,0.224,0.961
				c0.255,0.092,0.668,0.169,0.878-0.026"/>
			<path fill="none" stroke="#492F00" stroke-width="0.4" stroke-linecap="round" stroke-linejoin="round" d="M5.893,20.409
				c-0.022-0.333,0.456-0.224,0.613-0.131c0.242,0.14,0.545,0.441,0.578,0.736c0.05,0.38-0.302,0.709-0.086,1.103
				c0.207,0.378,0.902,0.768,1.103,0.193"/>
			<path fill="none" stroke="#492F00" stroke-width="0.4" stroke-linecap="round" stroke-linejoin="round" d="M7.037,20.881
				c0.292-0.072,0.407-0.333,0.773-0.244c0.25,0.061,0.553,0.242,0.59,0.519c0.063,0.454-0.179,0.556-0.3,1.089
				c-0.111,0.481,0.06,1.077,0.692,0.944c0.052-0.112,0.12-0.209,0.179-0.324"/>
			<path fill="none" stroke="#492F00" stroke-width="0.4" stroke-linecap="round" stroke-linejoin="round" d="M8.501,21.071
				c0.448-0.042,1.049,0.254,0.929,0.758c-0.097,0.412-0.485,0.651-0.459,1.121c0.049,0.888,1.483,0.798,1.45-0.086"/>
			<path fill="none" stroke="#492F00" stroke-width="0.4" stroke-linecap="round" stroke-linejoin="round" d="M12.371,24.701
				c-0.086,0.42-0.426,0.44-0.766,0.297c-0.486-0.203-0.407-0.667-0.594-1.089c-0.123-0.284-0.601-0.636-0.904-0.378
				c-0.236,0.197-0.183,0.782-0.012,0.998c0.191,0.232,0.762,0.352,1.035,0.179"/>
			<path fill="none" stroke="#492F00" stroke-width="0.4" stroke-linecap="round" stroke-linejoin="round" d="M8.12,23.03
				c0.235-0.007,0.411,0.024,0.613,0.161c0.497,0.336,0.391,0.823,0.111,1.271c-0.25,0.396-0.929,0.699-1.202,0.136"/>
			<path fill="none" stroke="#492F00" stroke-width="0.4" stroke-linecap="round" stroke-linejoin="round" d="M7.477,22.948"/>
			<path fill="none" stroke="#492F00" stroke-width="0.4" stroke-linecap="round" stroke-linejoin="round" d="M7.148,22.304
				c0.314,0.194,0.737,0.256,0.837,0.683c0.093,0.382-0.056,1.064-0.355,1.349c-0.402,0.381-1.072-0.089-1.221-0.52"/>
			<path fill="none" stroke="#492F00" stroke-width="0.4" stroke-linecap="round" stroke-linejoin="round" d="M5.576,21.948
				c-0.044,0.441,0.022,0.978,0.317,1.318c0.162,0.188,0.318,0.273,0.549,0.303c0.703,0.097,0.773-0.77,0.773-1.232"/>
			<path fill="none" stroke="#492F00" stroke-width="0.4" stroke-linecap="round" stroke-linejoin="round" d="M5.901,19.621
				c0.063-0.602,0.837-0.78,1.335-0.57c0.36,0.149,1.033,1.228,0.543,1.563"/>
			<path fill="none" stroke="#492F00" stroke-width="0.4" stroke-linecap="round" stroke-linejoin="round" d="M7.308,19.024
				c0.513-0.348,1.51-0.124,1.697,0.469c0.13,0.416-0.444,1.503,1.041,2.522"/>
			<path fill="none" stroke="#492F00" stroke-width="0.4" stroke-linecap="round" stroke-linejoin="round" d="M8.971,19.322
				c0.859-0.134,1.474,0.299,1.396,0.998c-0.03,0.271-0.13,0.616-0.16,0.899c-0.038,0.363-0.086,1.338,0.34,1.517"/>
			<path fill="none" stroke="#492F00" stroke-width="0.4" stroke-linecap="round" stroke-linejoin="round" d="M10.581,20.152
				c0.66,0.06,0.792,0.621,0.829,1.21c0.049,0.847-0.758,1.285-1.016,2.01c0.071-0.202,0.343-0.198,0.512-0.219
				c0.291-0.035,0.626-0.107,0.855-0.301c0.172-0.149,0.309-0.437,0.34-0.66c0.04-0.293-0.086-0.514-0.209-0.76
				c-0.109-0.216-0.202-0.512-0.498-0.512"/>
		</g>
		<path fill="none" stroke="#492F00" stroke-width="0.4" stroke-linecap="round" d="M9.446,21.899
			c0.579-0.257,1.087,0.673,0.99,1.195"/>
	</g>
</g>
</svg>
