<?xml version="1.0" encoding="utf-8"?>
<!-- Generator: Adobe Illustrator 14.0.0, SVG Export Plug-In . SVG Version: 6.00 Build 43363)  -->
<!DOCTYPE svg PUBLIC "-//W3C//DTD SVG 1.1//EN" "http://www.w3.org/Graphics/SVG/1.1/DTD/svg11.dtd">
<svg version="1.1" id="Layer_1" xmlns="http://www.w3.org/2000/svg" xmlns:xlink="http://www.w3.org/1999/xlink" x="0px" y="0px"
	 width="36px" height="36px" viewBox="0 0 36 36" enable-background="new 0 0 36 36" xml:space="preserve">
<g>
	<g>
		<polygon fill="#929497" points="5.267,17.81 4.93,16.989 9.498,12.423 9.833,13.244 9.498,16.292 14.41,16.292 14.746,17.114 
			14.41,17.683 9.521,17.683 9.521,21.507 		"/>
		<linearGradient id="SVGID_1_" gradientUnits="userSpaceOnUse" x1="7.4805" y1="13.1074" x2="14.7051" y2="25.5598">
			<stop  offset="0" style="stop-color:#FFFFFF"/>
			<stop  offset="1" style="stop-color:#58595B"/>
		</linearGradient>
		<polygon fill="url(#SVGID_1_)" points="5.267,17.81 9.833,13.244 9.833,17.114 14.746,17.114 14.746,18.505 9.854,18.505 
			9.854,22.329 		"/>
	</g>
	<g>
		<g>
			<path fill="#929497" d="M16.81,5.043l1.914-0.003l0.422,0.42l-0.419,1.495l-1.491,0.423l-0.422-0.42L16.81,5.043L16.81,5.043z"/>
			<linearGradient id="SVGID_2_" gradientUnits="userSpaceOnUse" x1="17.3784" y1="5.5562" x2="19.3908" y2="7.6913">
				<stop  offset="0" style="stop-color:#FFFFFF"/>
				<stop  offset="1" style="stop-color:#231F20"/>
			</linearGradient>
			<path fill="url(#SVGID_2_)" d="M17.229,5.463l1.917-0.003l0.003,1.915l-1.913,0.002L17.229,5.463L17.229,5.463z"/>
		</g>
		<g>
			<path fill="#929497" d="M16.81,8.863l1.914-0.004l0.422,0.421l-0.419,1.496l-1.491,0.422l-0.422-0.42L16.81,8.863L16.81,8.863z"
				/>
			<linearGradient id="SVGID_3_" gradientUnits="userSpaceOnUse" x1="17.3779" y1="9.377" x2="19.3918" y2="11.5136">
				<stop  offset="0" style="stop-color:#FFFFFF"/>
				<stop  offset="1" style="stop-color:#231F20"/>
			</linearGradient>
			<path fill="url(#SVGID_3_)" d="M17.229,9.284l1.917-0.004l0.003,1.916l-1.913,0.001L17.229,9.284L17.229,9.284z"/>
		</g>
		<g>
			<path fill="#929497" d="M16.81,12.684l1.914-0.005l0.422,0.421l-0.419,1.495l-1.491,0.422l-0.422-0.42L16.81,12.684L16.81,12.684
				z"/>
			<linearGradient id="SVGID_4_" gradientUnits="userSpaceOnUse" x1="17.3789" y1="13.1973" x2="19.3921" y2="15.3332">
				<stop  offset="0" style="stop-color:#FFFFFF"/>
				<stop  offset="1" style="stop-color:#231F20"/>
			</linearGradient>
			<path fill="url(#SVGID_4_)" d="M17.229,13.104l1.917-0.004l0.003,1.916l-1.913,0.001L17.229,13.104L17.229,13.104z"/>
		</g>
		<g>
			<path fill="#929497" d="M16.81,16.504l1.914-0.004l0.422,0.421l-0.419,1.494l-1.491,0.422l-0.422-0.42L16.81,16.504L16.81,16.504
				z"/>
			<linearGradient id="SVGID_5_" gradientUnits="userSpaceOnUse" x1="17.3784" y1="17.0171" x2="19.3916" y2="19.153">
				<stop  offset="0" style="stop-color:#FFFFFF"/>
				<stop  offset="1" style="stop-color:#231F20"/>
			</linearGradient>
			<path fill="url(#SVGID_5_)" d="M17.229,16.924l1.917-0.003l0.003,1.915l-1.913,0.002L17.229,16.924L17.229,16.924z"/>
		</g>
		<g>
			<path fill="#929497" d="M16.81,20.324l1.914-0.004l0.422,0.42l-0.419,1.496l-1.491,0.423l-0.422-0.422L16.81,20.324L16.81,20.324
				z"/>
			<linearGradient id="SVGID_6_" gradientUnits="userSpaceOnUse" x1="17.3774" y1="20.8369" x2="19.3913" y2="22.9736">
				<stop  offset="0" style="stop-color:#FFFFFF"/>
				<stop  offset="1" style="stop-color:#231F20"/>
			</linearGradient>
			<path fill="url(#SVGID_6_)" d="M17.229,20.744l1.917-0.004l0.003,1.915l-1.913,0.004L17.229,20.744L17.229,20.744z"/>
		</g>
		<g>
			<path fill="#929497" d="M16.81,24.145l1.914-0.004l0.422,0.421l-0.419,1.494l-1.491,0.424l-0.422-0.421L16.81,24.145
				L16.81,24.145z"/>
			<linearGradient id="SVGID_7_" gradientUnits="userSpaceOnUse" x1="17.3774" y1="24.6582" x2="19.3906" y2="26.7941">
				<stop  offset="0" style="stop-color:#FFFFFF"/>
				<stop  offset="1" style="stop-color:#231F20"/>
			</linearGradient>
			<path fill="url(#SVGID_7_)" d="M17.229,24.563l1.917-0.002l0.003,1.914l-1.913,0.004L17.229,24.563L17.229,24.563z"/>
		</g>
		<g>
			<path fill="#929497" d="M16.81,27.966l1.914-0.005l0.422,0.42l-0.419,1.496l-1.491,0.421l-0.422-0.419L16.81,27.966L16.81,27.966
				z"/>
			<linearGradient id="SVGID_8_" gradientUnits="userSpaceOnUse" x1="17.3784" y1="28.4775" x2="19.3923" y2="30.6142">
				<stop  offset="0" style="stop-color:#FFFFFF"/>
				<stop  offset="1" style="stop-color:#231F20"/>
			</linearGradient>
			<path fill="url(#SVGID_8_)" d="M17.229,28.385l1.917-0.004l0.003,1.916l-1.913,0.001L17.229,28.385L17.229,28.385z"/>
		</g>
	</g>
	<g>
		<g>
			<polygon fill="#929497" points="25.993,22.265 29.891,17.21 25.394,12.6 25.385,16.333 20.684,16.333 20.684,17.724 
				21.307,18.505 25.361,17.724 25.361,21.548 			"/>
		</g>
		<g>
			<linearGradient id="SVGID_9_" gradientUnits="userSpaceOnUse" x1="23.7686" y1="13.7393" x2="28.1118" y2="22.5789">
				<stop  offset="0" style="stop-color:#FFFFFF"/>
				<stop  offset="1" style="stop-color:#58595B"/>
			</linearGradient>
			<polygon fill="url(#SVGID_9_)" points="30.572,17.81 26.009,13.244 26.009,17.114 21.307,17.114 21.307,18.505 25.985,18.505 
				25.985,22.329 			"/>
		</g>
	</g>
	<g>
		<path fill="#929497" d="M0.504,33.51V0.632h33.783l1.171,1.172l-1.171,30.938v0.768L1.676,34.683L0.504,33.51L0.504,33.51z
			 M33.519,32.742V31.97V32.742L33.519,32.742z M2.041,31.97h30.705V2.168H2.041V31.97L2.041,31.97z"/>
		<linearGradient id="SVGID_10_" gradientUnits="userSpaceOnUse" x1="18.5669" y1="1.6895" x2="18.5669" y2="74.3752">
			<stop  offset="0" style="stop-color:#FFFFFF"/>
			<stop  offset="1" style="stop-color:#808184"/>
		</linearGradient>
		<path fill="url(#SVGID_10_)" d="M1.676,34.683V1.804h33.782v32.111v0.768H1.676L1.676,34.683z M3.213,33.144h30.706V3.341H3.213
			V33.144L3.213,33.144z"/>
	</g>
</g>
</svg>
