<?xml version="1.0" encoding="utf-8"?>
<!-- Generator: Adobe Illustrator 14.0.0, SVG Export Plug-In . SVG Version: 6.00 Build 43363)  -->
<!DOCTYPE svg PUBLIC "-//W3C//DTD SVG 1.1//EN" "http://www.w3.org/Graphics/SVG/1.1/DTD/svg11.dtd">
<svg version="1.1" id="Layer_1" xmlns="http://www.w3.org/2000/svg" xmlns:xlink="http://www.w3.org/1999/xlink" x="0px" y="0px"
	 width="36px" height="36px" viewBox="0 0 36 36" enable-background="new 0 0 36 36" xml:space="preserve">
<g>
	<g>
		<g>
			<g enable-background="new    ">
				<g enable-background="new    ">
					<defs>
						<path id="SVGID_1_" enable-background="new    " d="M23.998,31.45l-0.767-1.541c0.802-0.351,2.469-0.521,2.557-0.53
							l0.766,1.541C26.466,30.929,24.799,31.1,23.998,31.45z"/>
					</defs>
					<clipPath id="SVGID_2_">
						<use xlink:href="#SVGID_1_"  overflow="visible"/>
					</clipPath>
					<g clip-path="url(#SVGID_2_)" enable-background="new    ">
						<path fill="#828282" d="M23.998,31.45l-0.767-1.541c0.062-0.027,0.129-0.054,0.2-0.078l0.766,1.541
							C24.127,31.396,24.06,31.423,23.998,31.45"/>
						<path fill="#858585" d="M24.197,31.372l-0.766-1.541c0.421-0.147,0.983-0.258,1.454-0.333l0.766,1.541
							C25.182,31.113,24.618,31.225,24.197,31.372"/>
						<path fill="#878787" d="M25.651,31.039l-0.766-1.541c0.479-0.076,0.861-0.115,0.902-0.119l0.766,1.541
							C26.513,30.924,26.13,30.963,25.651,31.039"/>
					</g>
				</g>
				<g enable-background="new    ">
					<defs>
						<path id="SVGID_3_" enable-background="new    " d="M23.062,31.891l-0.767-1.54c0.243-0.126,0.576-0.279,0.937-0.441
							l0.767,1.541C23.638,31.612,23.305,31.766,23.062,31.891z"/>
					</defs>
					<clipPath id="SVGID_4_">
						<use xlink:href="#SVGID_3_"  overflow="visible"/>
					</clipPath>
					<g clip-path="url(#SVGID_4_)" enable-background="new    ">
						<path fill="#828282" d="M23.062,31.891l-0.767-1.54c0.243-0.126,0.576-0.279,0.937-0.441l0.767,1.541
							C23.638,31.612,23.305,31.766,23.062,31.891"/>
					</g>
				</g>
				<g enable-background="new    ">
					<defs>
						<path id="SVGID_5_" enable-background="new    " d="M20.893,31.217l-0.766-1.541c0.368,0.09,0.936,0.423,1.313,0.656
							l0.767,1.541C21.829,31.64,21.262,31.307,20.893,31.217z"/>
					</defs>
					<clipPath id="SVGID_6_">
						<use xlink:href="#SVGID_5_"  overflow="visible"/>
					</clipPath>
					<g clip-path="url(#SVGID_6_)" enable-background="new    ">
						<path fill="#8C8C8C" d="M20.893,31.217l-0.766-1.541c0.027,0.007,0.057,0.015,0.087,0.024l0.767,1.541
							C20.95,31.231,20.921,31.224,20.893,31.217"/>
						<path fill="#8F8F8F" d="M20.98,31.241L20.214,29.7c0.195,0.062,0.433,0.176,0.663,0.302l0.767,1.541
							C21.412,31.417,21.176,31.303,20.98,31.241"/>
						<path fill="#919191" d="M21.644,31.543l-0.767-1.541c0.203,0.11,0.4,0.229,0.563,0.33l0.767,1.541
							C22.044,31.771,21.846,31.652,21.644,31.543"/>
					</g>
				</g>
				<g enable-background="new    ">
					<defs>
						<path id="SVGID_7_" enable-background="new    " d="M18.805,30.865l-0.766-1.541c0.075,0.01,1.502,0.198,2.088,0.352
							l0.766,1.541C20.308,31.063,18.88,30.875,18.805,30.865z"/>
					</defs>
					<clipPath id="SVGID_8_">
						<use xlink:href="#SVGID_7_"  overflow="visible"/>
					</clipPath>
					<g clip-path="url(#SVGID_8_)" enable-background="new    ">
						<path fill="#8A8A8A" d="M18.805,30.865l-0.766-1.541c0.029,0.004,0.265,0.035,0.575,0.08l0.766,1.541
							C19.069,30.899,18.834,30.869,18.805,30.865"/>
						<path fill="#8C8C8C" d="M19.38,30.945l-0.766-1.541c0.486,0.071,1.156,0.178,1.513,0.271l0.766,1.541
							C20.536,31.123,19.865,31.017,19.38,30.945"/>
					</g>
				</g>
				<g enable-background="new    ">
					<defs>
						<path id="SVGID_9_" enable-background="new    " d="M28.696,28.715l-0.766-1.541c0.011-0.074,0.207-1.493,0.359-2.078
							c0.091-0.369,0.424-0.945,0.667-1.323l0.766,1.541c-0.243,0.378-0.576,0.954-0.666,1.323
							C28.904,27.221,28.707,28.641,28.696,28.715z"/>
					</defs>
					<clipPath id="SVGID_10_">
						<use xlink:href="#SVGID_9_"  overflow="visible"/>
					</clipPath>
					<g clip-path="url(#SVGID_10_)" enable-background="new    ">
						<path fill="#828282" d="M28.696,28.715l-0.766-1.541c0.011-0.074,0.207-1.493,0.359-2.078
							c0.091-0.369,0.424-0.945,0.667-1.323l0.766,1.541c-0.243,0.378-0.576,0.954-0.666,1.323
							C28.904,27.221,28.707,28.641,28.696,28.715"/>
					</g>
				</g>
				<g enable-background="new    ">
					<defs>
						<path id="SVGID_11_" enable-background="new    " d="M30.992,23.288l-0.766-1.541c1.493,1.297,2.442,1.519,2.492,1.53
							l0.766,1.541C33.435,24.807,32.485,24.585,30.992,23.288z"/>
					</defs>
					<clipPath id="SVGID_12_">
						<use xlink:href="#SVGID_11_"  overflow="visible"/>
					</clipPath>
					<g clip-path="url(#SVGID_12_)" enable-background="new    ">
						<path fill="#919191" d="M30.992,23.288l-0.766-1.541c0.665,0.578,1.222,0.942,1.64,1.17l0.766,1.54
							C32.215,24.23,31.657,23.865,30.992,23.288"/>
						<path fill="#8F8F8F" d="M32.632,24.457l-0.766-1.54c0.36,0.195,0.616,0.29,0.75,0.332l0.766,1.541
							C33.249,24.748,32.992,24.653,32.632,24.457"/>
						<path fill="#8C8C8C" d="M33.382,24.79l-0.766-1.541c0.059,0.019,0.094,0.026,0.103,0.028l0.766,1.541
							C33.476,24.816,33.441,24.809,33.382,24.79"/>
					</g>
				</g>
				<g enable-background="new    ">
					<defs>
						<path id="SVGID_13_" enable-background="new    " d="M29.723,24.459l-0.766-1.541c-0.117-0.243-0.27-0.567-0.432-0.937
							l0.766,1.541C29.453,23.892,29.605,24.216,29.723,24.459z"/>
					</defs>
					<clipPath id="SVGID_14_">
						<use xlink:href="#SVGID_13_"  overflow="visible"/>
					</clipPath>
					<g clip-path="url(#SVGID_14_)" enable-background="new    ">
						<path fill="#828282" d="M29.723,24.459l-0.766-1.541c-0.117-0.243-0.27-0.567-0.432-0.937l0.766,1.541
							C29.453,23.892,29.605,24.216,29.723,24.459"/>
					</g>
				</g>
				<g>
					<polygon fill="#808080" points="22.207,31.873 21.44,30.332 21.442,23.772 22.208,25.313 					"/>
				</g>
				<g>
					<polygon fill="#888888" points="23.062,24.459 22.297,22.918 28.957,22.918 29.723,24.459 					"/>
				</g>
				<g enable-background="new    ">
					<defs>
						<path id="SVGID_15_" enable-background="new    " d="M29.291,23.522l-0.766-1.541c-0.36-0.792-0.522-2.458-0.53-2.546
							l0.766,1.541C28.77,21.064,28.932,22.73,29.291,23.522z"/>
					</defs>
					<clipPath id="SVGID_16_">
						<use xlink:href="#SVGID_15_"  overflow="visible"/>
					</clipPath>
					<g clip-path="url(#SVGID_16_)" enable-background="new    ">
						<path fill="#828282" d="M29.291,23.522l-0.766-1.541c-0.36-0.792-0.522-2.458-0.53-2.546l0.766,1.541
							C28.77,21.064,28.932,22.73,29.291,23.522"/>
					</g>
				</g>
				<g enable-background="new    ">
					<defs>
						<path id="SVGID_17_" enable-background="new    " d="M28.761,20.977l-0.766-1.541c0.036,0.051,0.729,1.026,2.231,2.312
							l0.766,1.541C29.49,22.002,28.797,21.027,28.761,20.977z"/>
					</defs>
					<clipPath id="SVGID_18_">
						<use xlink:href="#SVGID_17_"  overflow="visible"/>
					</clipPath>
					<g clip-path="url(#SVGID_18_)" enable-background="new    ">
						<path fill="#919191" d="M28.761,20.977l-0.766-1.541c0.036,0.051,0.729,1.026,2.231,2.312l0.766,1.541
							C29.49,22.002,28.797,21.027,28.761,20.977"/>
					</g>
				</g>
				<g enable-background="new    ">
					<defs>
						<path id="SVGID_19_" enable-background="new    " d="M14.925,23.789c-0.002-0.006-0.005-0.011-0.008-0.017l0.766,1.541
							c0.003,0.006,0.006,0.011,0.008,0.017C15.461,24.868,15.155,24.251,14.925,23.789z"/>
					</defs>
					<clipPath id="SVGID_20_">
						<use xlink:href="#SVGID_19_"  overflow="visible"/>
					</clipPath>
					<g clip-path="url(#SVGID_20_)" enable-background="new    ">
						<path fill="#919191" d="M15.683,25.313l-0.766-1.541c0.003,0.006,0.006,0.011,0.008,0.017l0.766,1.541
							C15.688,25.324,15.686,25.319,15.683,25.313"/>
					</g>
				</g>
				<g>
					<polygon fill="#888888" points="15.603,24.459 14.836,22.918 21.442,22.918 22.208,24.459 					"/>
				</g>
				<g enable-background="new    ">
					<defs>
						<path id="SVGID_21_" enable-background="new    " d="M11.876,24.872l-0.766-1.541c0.095-0.05,1.908-0.999,2.583-1.557
							l0.766,1.541C13.784,23.873,11.972,24.822,11.876,24.872z"/>
					</defs>
					<clipPath id="SVGID_22_">
						<use xlink:href="#SVGID_21_"  overflow="visible"/>
					</clipPath>
					<g clip-path="url(#SVGID_22_)" enable-background="new    ">
						<path fill="#828282" d="M11.876,24.872l-0.766-1.541c0.095-0.05,1.908-0.999,2.583-1.557l0.766,1.541
							C13.784,23.873,11.972,24.822,11.876,24.872"/>
					</g>
				</g>
				<g enable-background="new    ">
					<defs>
						<path id="SVGID_23_" enable-background="new    " d="M14.459,23.315l-0.766-1.541c0.675-0.548,2.129-2.249,2.205-2.339
							l0.766,1.541C16.588,21.065,15.134,22.767,14.459,23.315z"/>
					</defs>
					<clipPath id="SVGID_24_">
						<use xlink:href="#SVGID_23_"  overflow="visible"/>
					</clipPath>
					<g clip-path="url(#SVGID_24_)" enable-background="new    ">
						<path fill="#828282" d="M14.459,23.315l-0.766-1.541c0.675-0.548,2.129-2.249,2.205-2.339l0.766,1.541
							C16.588,21.065,15.134,22.767,14.459,23.315"/>
					</g>
				</g>
				<g>
					<polygon fill="#808080" points="22.208,24.459 21.442,22.918 21.443,16.304 22.21,17.845 					"/>
				</g>
				<g enable-background="new    ">
					<defs>
						<path id="SVGID_25_" enable-background="new    " d="M24.208,16.63l-0.767-1.541c0.558,0.675,2.259,2.128,2.349,2.205
							l0.766,1.541C26.467,18.758,24.766,17.305,24.208,16.63z"/>
					</defs>
					<clipPath id="SVGID_26_">
						<use xlink:href="#SVGID_25_"  overflow="visible"/>
					</clipPath>
					<g clip-path="url(#SVGID_26_)" enable-background="new    ">
						<path fill="#919191" d="M24.208,16.63l-0.767-1.541c0.558,0.675,2.259,2.128,2.349,2.205l0.766,1.541
							C26.467,18.758,24.766,17.305,24.208,16.63"/>
					</g>
				</g>
				<g enable-background="new    ">
					<defs>
						<path id="SVGID_27_" enable-background="new    " d="M18.807,18.771l-0.766-1.541c0.051-0.037,1.026-0.738,2.322-2.231
							l0.767,1.541C19.834,18.034,18.858,18.735,18.807,18.771z"/>
					</defs>
					<clipPath id="SVGID_28_">
						<use xlink:href="#SVGID_27_"  overflow="visible"/>
					</clipPath>
					<g clip-path="url(#SVGID_28_)" enable-background="new    ">
						<path fill="#828282" d="M18.807,18.771l-0.766-1.541c0.051-0.037,1.026-0.738,2.322-2.231l0.767,1.541
							C19.834,18.034,18.858,18.735,18.807,18.771"/>
					</g>
				</g>
				<g enable-background="new    ">
					<defs>
						<path id="SVGID_29_" enable-background="new    " d="M22.66,14.047l-0.766-1.541c0.05,0.095,0.989,1.908,1.547,2.582
							l0.767,1.541C23.649,15.956,22.71,14.143,22.66,14.047z"/>
					</defs>
					<clipPath id="SVGID_30_">
						<use xlink:href="#SVGID_29_"  overflow="visible"/>
					</clipPath>
					<g clip-path="url(#SVGID_30_)" enable-background="new    ">
						<path fill="#919191" d="M22.66,14.047l-0.766-1.541c0.05,0.095,0.989,1.908,1.547,2.582l0.767,1.541
							C23.649,15.956,22.71,14.143,22.66,14.047"/>
					</g>
				</g>
				<g enable-background="new    ">
					<defs>
						<path id="SVGID_31_" enable-background="new    " d="M21.13,16.54L20.363,15c1.288-1.494,1.52-2.443,1.531-2.493l0.766,1.541
							C22.648,14.098,22.417,15.046,21.13,16.54z"/>
					</defs>
					<clipPath id="SVGID_32_">
						<use xlink:href="#SVGID_31_"  overflow="visible"/>
					</clipPath>
					<g clip-path="url(#SVGID_32_)" enable-background="new    ">
						<path fill="#828282" d="M21.13,16.54L20.363,15c1.288-1.494,1.52-2.443,1.531-2.493l0.766,1.541
							C22.648,14.098,22.417,15.046,21.13,16.54"/>
					</g>
				</g>
				<g>
					<path fill="#AEAEAE" d="M28.761,20.977c0.036,0.051,0.729,1.025,2.231,2.312c1.493,1.297,2.442,1.519,2.492,1.53
						c-0.095,0.05-1.907,0.999-2.583,1.558c-0.675,0.558-2.128,2.25-2.205,2.339c0.011-0.074,0.208-1.494,0.36-2.078
						c0.09-0.369,0.423-0.945,0.666-1.323h-6.66l-0.001,6.577c0.243-0.125,0.576-0.278,0.937-0.44
						c0.801-0.351,2.468-0.521,2.556-0.53c-0.052,0.036-1.025,0.737-2.313,2.23c-1.296,1.494-1.519,2.443-1.53,2.493
						c-0.05-0.096-0.999-1.908-1.556-2.583c-0.559-0.675-2.26-2.119-2.35-2.195c0.075,0.01,1.503,0.198,2.088,0.352
						c0.369,0.09,0.937,0.423,1.314,0.656l0.001-6.56h-6.525c0.117,0.234,0.252,0.531,0.396,0.855
						c0.351,0.792,0.521,2.458,0.531,2.546c-0.037-0.051-0.738-1.018-2.231-2.312c-1.494-1.287-2.451-1.519-2.502-1.53
						c0.096-0.05,1.908-0.999,2.583-1.557c0.675-0.549,2.128-2.25,2.205-2.339c-0.01,0.074-0.207,1.493-0.351,2.078
						c-0.099,0.405-0.477,1.035-0.711,1.404h6.605l0.002-6.614c-0.234,0.117-0.522,0.252-0.847,0.396
						c-0.793,0.351-2.468,0.521-2.556,0.53c0.051-0.037,1.027-0.737,2.323-2.231c1.287-1.494,1.519-2.442,1.53-2.493
						c0.05,0.096,0.989,1.908,1.548,2.583c0.558,0.675,2.259,2.128,2.348,2.205c-0.074-0.011-1.493-0.216-2.079-0.36
						c-0.403-0.099-1.043-0.477-1.412-0.72l-0.002,6.704h6.66c-0.117-0.243-0.27-0.567-0.432-0.937
						C28.932,22.73,28.77,21.064,28.761,20.977z"/>
					<g enable-background="new    ">
						<defs>
							<path id="SVGID_33_" enable-background="new    " d="M28.761,20.977c0.036,0.051,0.729,1.025,2.231,2.312
								c1.493,1.297,2.442,1.519,2.492,1.53c-0.095,0.05-1.907,0.999-2.583,1.558c-0.675,0.558-2.128,2.25-2.205,2.339
								c0.011-0.074,0.208-1.494,0.36-2.078c0.09-0.369,0.423-0.945,0.666-1.323h-6.66l-0.001,6.577
								c0.243-0.125,0.576-0.278,0.937-0.44c0.801-0.351,2.468-0.521,2.556-0.53c-0.052,0.036-1.025,0.737-2.313,2.23
								c-1.296,1.494-1.519,2.443-1.53,2.493c-0.05-0.096-0.999-1.908-1.556-2.583c-0.559-0.675-2.26-2.119-2.35-2.195
								c0.075,0.01,1.503,0.198,2.088,0.352c0.369,0.09,0.937,0.423,1.314,0.656l0.001-6.56h-6.525
								c0.117,0.234,0.252,0.531,0.396,0.855c0.351,0.792,0.521,2.458,0.531,2.546c-0.037-0.051-0.738-1.018-2.231-2.312
								c-1.494-1.287-2.451-1.519-2.502-1.53c0.096-0.05,1.908-0.999,2.583-1.557c0.675-0.549,2.128-2.25,2.205-2.339
								c-0.01,0.074-0.207,1.493-0.351,2.078c-0.099,0.405-0.477,1.035-0.711,1.404h6.605l0.002-6.614
								c-0.234,0.117-0.522,0.252-0.847,0.396c-0.793,0.351-2.468,0.521-2.556,0.53c0.051-0.037,1.027-0.737,2.323-2.231
								c1.287-1.494,1.519-2.442,1.53-2.493c0.05,0.096,0.989,1.908,1.548,2.583c0.558,0.675,2.259,2.128,2.348,2.205
								c-0.074-0.011-1.493-0.216-2.079-0.36c-0.403-0.099-1.043-0.477-1.412-0.72l-0.002,6.704h6.66
								c-0.117-0.243-0.27-0.567-0.432-0.937C28.932,22.73,28.77,21.064,28.761,20.977z"/>
						</defs>
						<clipPath id="SVGID_34_">
							<use xlink:href="#SVGID_33_"  overflow="visible"/>
						</clipPath>
						<g clip-path="url(#SVGID_34_)">
							<g>
								<g>
									<defs>
										<polyline id="SVGID_35_" points="33.374,24.877 33.136,25.004 32.804,25.186 32.41,25.406 31.99,25.65 31.576,25.903 
											31.202,26.15 30.901,26.376 30.616,26.633 30.283,26.964 29.928,27.337 29.574,27.721 29.25,28.083 28.979,28.391 
											28.786,28.611 28.696,28.715 28.709,28.628 28.736,28.441 28.775,28.179 28.823,27.867 28.878,27.531 28.938,27.197 
											28.998,26.891 29.057,26.637 29.101,26.489 29.164,26.327 29.242,26.155 29.332,25.979 29.429,25.801 29.528,25.628 
											29.628,25.464 29.723,25.313 23.062,25.313 23.062,31.891 23.156,31.843 23.26,31.792 23.369,31.739 23.485,31.684 
											23.607,31.627 23.733,31.569 23.864,31.51 23.998,31.45 24.334,31.327 24.723,31.221 25.136,31.131 25.543,31.057 
											25.918,30.999 26.229,30.957 26.451,30.931 26.554,30.92 26.492,30.965 26.352,31.073 26.139,31.248 25.86,31.488 
											25.524,31.798 25.138,32.177 24.708,32.627 24.24,33.15 23.804,33.685 23.456,34.163 23.189,34.583 22.994,34.938 
											22.857,35.227 22.771,35.442 22.726,35.583 22.71,35.644 22.651,35.532 22.524,35.294 22.343,34.962 22.122,34.569 
											21.878,34.149 21.625,33.735 21.379,33.361 21.154,33.061 20.896,32.775 20.563,32.443 20.188,32.09 19.804,31.738 
											19.44,31.415 19.131,31.146 18.908,30.953 18.805,30.865 18.892,30.877 19.08,30.902 19.344,30.94 19.657,30.987 
											19.994,31.04 20.33,31.099 20.638,31.158 20.893,31.217 21.039,31.261 21.2,31.324 21.371,31.402 21.546,31.49 
											21.723,31.586 21.894,31.685 22.057,31.781 22.207,31.873 22.208,25.313 15.683,25.313 15.728,25.404 15.774,25.5 
											15.821,25.602 15.871,25.707 15.921,25.817 15.973,25.932 16.025,26.049 16.079,26.169 16.202,26.502 16.308,26.889 
											16.398,27.299 16.472,27.706 16.53,28.079 16.572,28.392 16.598,28.613 16.609,28.715 16.564,28.654 16.455,28.515 
											16.281,28.303 16.04,28.025 15.73,27.689 15.352,27.303 14.901,26.871 14.378,26.402 13.844,25.967 13.364,25.622 
											12.943,25.355 12.586,25.159 12.296,25.022 12.078,24.936 11.937,24.889 11.876,24.872 11.987,24.813 12.225,24.687 
											12.558,24.505 12.95,24.284 13.371,24.04 13.784,23.787 14.158,23.541 14.459,23.315 14.745,23.062 15.078,22.731 
											15.434,22.358 15.787,21.974 16.111,21.611 16.383,21.303 16.576,21.08 16.665,20.977 16.652,21.063 16.625,21.25 
											16.587,21.513 16.539,21.824 16.485,22.16 16.428,22.494 16.37,22.801 16.313,23.055 16.264,23.217 16.193,23.394 
											16.106,23.58 16.008,23.771 15.904,23.959 15.798,24.141 15.696,24.31 15.603,24.459 22.208,24.459 22.21,17.845 
											22.119,17.89 22.024,17.936 21.924,17.984 21.82,18.033 21.711,18.083 21.599,18.135 21.482,18.188 21.363,18.241 
											21.029,18.364 20.642,18.471 20.229,18.561 19.821,18.634 19.445,18.692 19.132,18.734 18.91,18.761 18.807,18.771 
											18.869,18.727 19.01,18.618 19.223,18.443 19.502,18.202 19.839,17.893 20.228,17.514 20.66,17.063 21.13,16.54 
											21.564,16.006 21.91,15.527 22.177,15.108 22.373,14.752 22.511,14.464 22.598,14.248 22.645,14.107 22.66,14.047 
											22.719,14.158 22.845,14.396 23.024,14.729 23.243,15.122 23.486,15.542 23.737,15.955 23.983,16.329 24.208,16.63 
											24.465,16.916 24.798,17.249 25.172,17.604 25.558,17.957 25.921,18.281 26.229,18.553 26.452,18.746 26.556,18.834 
											26.47,18.822 26.282,18.794 26.02,18.754 25.708,18.705 25.372,18.649 25.038,18.59 24.731,18.531 24.477,18.475 
											24.315,18.425 24.138,18.354 23.949,18.268 23.758,18.169 23.566,18.063 23.384,17.956 23.214,17.852 23.064,17.755 
											23.062,24.459 29.723,24.459 29.678,24.364 29.629,24.262 29.578,24.153 29.524,24.038 29.469,23.917 29.411,23.79 
											29.352,23.659 29.291,23.522 29.166,23.189 29.058,22.803 28.968,22.393 28.895,21.985 28.838,21.611 28.797,21.3 
											28.771,21.078 28.761,20.977 28.806,21.038 28.914,21.179 29.087,21.392 29.327,21.669 29.636,22.005 30.016,22.392 
											30.467,22.822 30.992,23.288 31.526,23.726 32.005,24.072 32.424,24.339 32.779,24.535 33.067,24.671 33.284,24.757 
											33.425,24.803 33.484,24.818 33.374,24.877 										"/>
									</defs>
									<clipPath id="SVGID_36_">
										<use xlink:href="#SVGID_35_"  overflow="visible"/>
									</clipPath>
									<g clip-path="url(#SVGID_36_)">
										
											<image overflow="visible" width="22" height="22" xlink:href="5FFC510F.png"  transform="matrix(1 0 0 1 11.876 14.0474)">
										</image>
									</g>
								</g>
							</g>
						</g>
					</g>
				</g>
			</g>
		</g>
	</g>
	<g>
		<g>
			<g enable-background="new    ">
				<g>
					<polygon fill="#4A4859" points="2.02,20.454 0.821,19.249 5.304,14.174 6.502,15.38 					"/>
				</g>
				<g>
					<polygon fill="#535164" points="6.502,15.38 5.304,14.174 12.943,14.21 14.142,15.416 					"/>
				</g>
				<g>
					<polygon fill="#909090" points="2.025,3.728 0.826,2.522 12.943,14.211 14.142,15.416 					"/>
				</g>
				<g>
					<polygon fill="#808080" points="2.02,20.454 0.821,19.249 0.826,2.522 2.025,3.728 					"/>
				</g>
				<g>
					<path fill="#807C9A" d="M1.684,2.917l13.313,12.84l-8.332-0.036l-4.987,5.641L1.684,2.917z M6.502,15.38l7.64,0.036
						L2.025,3.728L2.02,20.454L6.502,15.38"/>
				</g>
				<g>
					<polygon fill="#AEAEAE" points="2.02,20.454 2.025,3.728 14.142,15.416 6.502,15.38 					"/>
					<g enable-background="new    ">
						<defs>
							<polygon id="SVGID_37_" enable-background="new    " points="2.02,20.454 2.025,3.728 14.142,15.416 6.502,15.38 							"/>
						</defs>
						<clipPath id="SVGID_38_">
							<use xlink:href="#SVGID_37_"  overflow="visible"/>
						</clipPath>
						<g clip-path="url(#SVGID_38_)">
							<g>
								<g>
									<defs>
										<polyline id="SVGID_39_" points="6.502,15.38 2.02,20.454 2.025,3.728 14.142,15.416 6.502,15.38 										"/>
									</defs>
									<clipPath id="SVGID_40_">
										<use xlink:href="#SVGID_39_"  overflow="visible"/>
									</clipPath>
									<g clip-path="url(#SVGID_40_)">
										<image overflow="visible" width="13" height="17" xlink:href="5FFC510D.png"  transform="matrix(1 0 0 1 2.02 3.7275)">
										</image>
									</g>
								</g>
							</g>
						</g>
					</g>
				</g>
				<g>
					<polygon fill="#4A4859" points="1.678,21.363 0.479,20.158 0.485,1.712 1.684,2.917 					"/>
				</g>
				<g>
					<polygon fill="#5D5A70" points="1.684,2.917 0.485,1.712 13.798,14.552 14.997,15.758 					"/>
				</g>
			</g>
		</g>
	</g>
</g>
</svg>
