<?xml version="1.0" encoding="utf-8"?>
<!-- Generator: Adobe Illustrator 14.0.0, SVG Export Plug-In . SVG Version: 6.00 Build 43363)  -->
<!DOCTYPE svg PUBLIC "-//W3C//DTD SVG 1.1//EN" "http://www.w3.org/Graphics/SVG/1.1/DTD/svg11.dtd">
<svg version="1.1" id="Layer_1" xmlns="http://www.w3.org/2000/svg" xmlns:xlink="http://www.w3.org/1999/xlink" x="0px" y="0px"
	 width="36px" height="36px" viewBox="0 0 36 36" enable-background="new 0 0 36 36" xml:space="preserve">
<g>
	<path fill="#E2E3E4" stroke="#231F20" stroke-width="0.75" stroke-linecap="round" stroke-linejoin="bevel" d="M6.252,21.699
		c0,0,8.235-8.213,15.837-8.213c7.631,0,9.531,6.161,10.426,6.419c0.974,0.276,2.842,0.951,2.675,2.264
		c-0.165,1.304-1.676,0.809-3.169,1.458c-0.896,0.389-4.611,3.674-10.74,3.863c-6.365,0.198-10.176-4.659-12.115-6.288"/>
	<path fill="none" stroke="#4D4E50" stroke-width="0.5" stroke-linecap="round" stroke-linejoin="bevel" d="M0.81,17.85
		c4.966,1.596,10.819-8.337,21.026-8.67c7.182-0.233,12.142,5.476,12.318,10.975"/>
	<g>
		<g>
			<g>
				<g>
					<ellipse fill="#38729C" cx="22.003" cy="19.025" rx="6.24" ry="5.924"/>
				</g>
			</g>
			<g>
				<g>
					<path fill="#FF0000" d="M25.381,19.025c0-1.77-1.509-3.212-3.379-3.212c-1.866,0-3.379,1.442-3.379,3.212
						c0,1.686,1.605,3.209,3.379,3.209C23.872,22.234,25.381,20.798,25.381,19.025z"/>
				</g>
			</g>
		</g>
		<polygon fill="#FFFFFF" points="22.188,17.918 23.082,17.128 22.993,18.291 24.195,18.462 23.19,19.121 23.8,20.123 
			22.634,19.784 22.188,20.862 21.741,19.784 20.578,20.123 21.185,19.121 20.181,18.462 21.384,18.291 21.296,17.128 		"/>
	</g>
	<path fill="none" stroke="#231F20" stroke-width="0.75" stroke-linecap="round" stroke-linejoin="bevel" d="M6.252,21.699
		c0,0,8.235-8.213,15.837-8.213c7.631,0,9.531,6.161,10.426,6.419c0.974,0.276,2.842,0.951,2.675,2.264
		c-0.165,1.304-1.676,0.809-3.169,1.458c-0.896,0.389-4.611,3.674-10.74,3.863c-6.365,0.198-10.176-4.659-12.115-6.288"/>
</g>
</svg>
