<?xml version="1.0" encoding="utf-8"?>
<!-- Generator: Adobe Illustrator 14.0.0, SVG Export Plug-In . SVG Version: 6.00 Build 43363)  -->
<!DOCTYPE svg PUBLIC "-//W3C//DTD SVG 1.1//EN" "http://www.w3.org/Graphics/SVG/1.1/DTD/svg11.dtd">
<svg version="1.1" id="Layer_1" xmlns="http://www.w3.org/2000/svg" xmlns:xlink="http://www.w3.org/1999/xlink" x="0px" y="0px"
	 width="36px" height="36px" viewBox="0 0 36 36" enable-background="new 0 0 36 36" xml:space="preserve">
<g>
	<g>
		<path fill="#929497" d="M35.104,0.785 M33.548,2.338 M34.794,33.678L2.146,35.236l-1.205-1.205l0,0V0.677l1.554,0.022L3.7,1.904
			L2.495,32.473l0,0h31.094L34.794,33.678z"/>
	</g>
	<g>
		<g>
			<polygon fill="#929497" points="34.771,25.923 30.054,29.56 25.753,25.361 28.988,25.354 28.988,23.627 30.89,23.627 
				31.619,24.209 30.89,25.333 34.102,25.333 			"/>
		</g>
		<g>
			
				<linearGradient id="SVGID_1_" gradientUnits="userSpaceOnUse" x1="351.1016" y1="-139.9736" x2="355.1557" y2="-131.7224" gradientTransform="matrix(0 1 1 0 166.2949 -326.2539)">
				<stop  offset="0" style="stop-color:#FFFFFF"/>
				<stop  offset="1" style="stop-color:#231F20"/>
			</linearGradient>
			<polygon fill="url(#SVGID_1_)" points="30.613,30.196 26.352,25.936 29.553,25.936 29.553,24.21 31.619,24.21 31.619,25.914 
				34.831,25.914 			"/>
		</g>
	</g>
	<g>
		<path fill="#929497" d="M31.267,25.346L31.267,25.346v0.003V25.346L31.267,25.346z M27.818,19.616l1.996-0.726
			c0.039,0.107,0.519,0.2,0.555,0.309c0.204,0.587-0.053,1.198,0.109,1.801l0,0l-1.491,0.86l-0.558-0.308
			C28.252,20.896,28.05,20.249,27.818,19.616L27.818,19.616z M26.115,15.929l1.841-1.051c0.076,0.13,0.485,0.178,0.558,0.309
			c0.281,0.516,0.209,1.123,0.456,1.658l0,0l-1.37,1.2l-0.556-0.308C26.758,17.118,26.447,16.517,26.115,15.929L26.115,15.929z
			 M23.815,12.576l1.645-1.344c0.09,0.109,0.461,0.302,0.549,0.414c0.368,0.467,0.438,0.864,0.777,1.357l0,0l-1.195,1.509
			l-0.556-0.309C24.651,13.645,24.243,13.1,23.815,12.576L23.815,12.576z M20.992,9.654l1.396-1.597
			c0.113,0.099,0.445,0.208,0.558,0.31c0.435,0.393,0.638,0.793,1.044,1.213l0,0l-0.971,1.784l-0.555-0.309
			C21.992,10.569,21.504,10.103,20.992,9.654L20.992,9.654z M17.724,7.244l1.111-1.81c0.629,0.389,1.243,0.8,1.833,1.238l0,0
			l-0.705,2.017c-0.438-0.324-1.224-0.843-1.684-1.136C18.168,7.481,17.836,7.314,17.724,7.244L17.724,7.244z M14.1,5.413
			l0.792-1.97c0.688,0.276,1.359,0.583,2.014,0.914l0,0L15.948,6.25c-0.475-0.239-0.8-0.32-1.293-0.529
			C14.524,5.666,14.232,5.466,14.1,5.413L14.1,5.413z M10.22,4.216l0.451-2.073c0.725,0.156,1.44,0.344,2.141,0.562l0,0h-0.002
			l0.556,0.309l-1.18,1.719c-0.468-0.145-0.835-0.085-1.316-0.202C10.687,4.488,10.401,4.256,10.22,4.216L10.22,4.216z M6.193,3.69
			l0.099-2.122c0.742,0.035,1.475,0.099,2.2,0.196l0,0c0,0,0.516,0.395,0.516,0.395l-0.79,1.708
			C7.708,3.801,7.375,4.017,6.855,3.984C6.695,3.974,6.353,3.697,6.193,3.69L6.193,3.69z"/>
		<path fill="#D0D2D3" d="M31.822,25.653L31.822,25.653l0.001,0.002C31.823,25.655,31.823,25.654,31.822,25.653L31.822,25.653z
			 M28.373,19.925l1.996-0.726c0.25,0.69,0.473,1.396,0.667,2.108l0,0l-2.049,0.553C28.81,21.205,28.604,20.558,28.373,19.925
			L28.373,19.925z M26.67,16.237l1.844-1.051c0.365,0.64,0.701,1.295,1.013,1.966l0,0L27.6,18.044
			C27.312,17.427,27.004,16.825,26.67,16.237L26.67,16.237z M24.372,12.884l1.643-1.343c0.464,0.572,0.908,1.161,1.329,1.77l0,0
			l-1.753,1.201C25.207,13.953,24.798,13.408,24.372,12.884L24.372,12.884z M21.549,9.962l1.397-1.595
			c0.555,0.483,1.089,0.994,1.601,1.522l0,0l-1.527,1.475C22.547,10.877,22.06,10.411,21.549,9.962L21.549,9.962z M18.28,7.552
			l1.112-1.81c0.628,0.389,1.24,0.8,1.832,1.238l0,0l-1.26,1.708C19.419,8.285,18.857,7.907,18.28,7.552L18.28,7.552z M14.655,5.721
			l0.792-1.969c0.688,0.276,1.36,0.582,2.015,0.913l0,0l-0.958,1.894C15.902,6.255,15.285,5.976,14.655,5.721L14.655,5.721z
			 M10.775,4.526l0.451-2.074c0.725,0.156,1.44,0.344,2.141,0.562l0,0h-0.003L12.74,5.041C12.096,4.842,11.441,4.67,10.775,4.526
			L10.775,4.526z M6.749,3.998l0.099-2.122c0.742,0.035,1.476,0.1,2.2,0.196l0,0L8.774,4.176C8.107,4.09,7.431,4.029,6.749,3.998
			L6.749,3.998z"/>
	</g>
	<g>
		<path fill="#929497" d="M14.769,33.67h-1.571l-1.12-1.218l-0.051-9.741l-8.355,0.02l0.022-1.562l9.889-0.012l1.186,1.186v11.304"
			/>
		<linearGradient id="SVGID_2_" gradientUnits="userSpaceOnUse" x1="-1.6904" y1="15.4727" x2="34.0176" y2="39.4473">
			<stop  offset="0" style="stop-color:#FFFFFF"/>
			<stop  offset="1" style="stop-color:#404041"/>
		</linearGradient>
		<path fill="url(#SVGID_2_)" d="M14.803,33.678V22.376H3.7V1.904L2.146,1.882v33.354h32.625l0.022-1.559H14.803z M3.7,23.93h9.479
			v9.748H3.7V23.93z"/>
	</g>
</g>
</svg>
