<?xml version="1.0" encoding="utf-8"?>
<!-- Generator: Adobe Illustrator 14.0.0, SVG Export Plug-In . SVG Version: 6.00 Build 43363)  -->
<!DOCTYPE svg PUBLIC "-//W3C//DTD SVG 1.1//EN" "http://www.w3.org/Graphics/SVG/1.1/DTD/svg11.dtd">
<svg version="1.1" id="Layer_1" xmlns="http://www.w3.org/2000/svg" xmlns:xlink="http://www.w3.org/1999/xlink" x="0px" y="0px"
	 width="36px" height="36px" viewBox="0 0 36 36" enable-background="new 0 0 36 36" xml:space="preserve">
<linearGradient id="SVGID_1_" gradientUnits="userSpaceOnUse" x1="-0.1694" y1="18.2012" x2="34.8889" y2="18.2012">
	<stop  offset="0" style="stop-color:#FFFFFF"/>
	<stop  offset="1" style="stop-color:#5B57A4"/>
</linearGradient>
<polygon fill="url(#SVGID_1_)" stroke="#FFFFFF" stroke-width="1.28" stroke-linecap="round" points="32.086,10.017 28.503,15.318 
	29.014,17.407 34.417,20.737 33.75,23.991 27.107,24.771 25.671,26.618 26.784,32.626 23.221,34.281 19.232,29.821 16.757,29.68 
	12.435,34.22 8.91,32.446 10.064,26.665 8.572,24.558 2.359,24.027 1.464,20.243 6.914,17.381 7.623,14.832 3.92,9.761 6.544,6.701 
	12.014,9.236 14.287,8.157 16.148,2.334 19.938,2.122 21.687,7.941 23.842,9.3 29.732,6.916 "/>
</svg>
