<?xml version="1.0" encoding="utf-8"?>
<!-- Generator: Adobe Illustrator 14.0.0, SVG Export Plug-In . SVG Version: 6.00 Build 43363)  -->
<!DOCTYPE svg PUBLIC "-//W3C//DTD SVG 1.1//EN" "http://www.w3.org/Graphics/SVG/1.1/DTD/svg11.dtd">
<svg version="1.1" id="Layer_1" xmlns="http://www.w3.org/2000/svg" xmlns:xlink="http://www.w3.org/1999/xlink" x="0px" y="0px"
	 width="36px" height="36px" viewBox="0 0 36 36" enable-background="new 0 0 36 36" xml:space="preserve">
<linearGradient id="SVGID_1_" gradientUnits="userSpaceOnUse" x1="0.8516" y1="17.7256" x2="35.0371" y2="17.7256">
	<stop  offset="0" style="stop-color:#FFFFFF"/>
	<stop  offset="1" style="stop-color:#5B57A4"/>
</linearGradient>
<path fill="url(#SVGID_1_)" stroke="#FFFFFF" stroke-width="1.278" stroke-linecap="round" stroke-linejoin="round" d="
	M0.852,13.906c0,0,8.834,2.529,12.736-0.342c3.902-2.869,4.334-12.19,4.334-12.19s0.823,9.375,4.289,12.19
	c3.468,2.818,12.826,0.366,12.826,0.366s-8.987,3.496-10.289,7.803c-1.301,4.309,3.742,12.346,3.742,12.346
	s-6.149-7.243-10.592-7.243c-4.442,0-10.486,7.145-10.486,7.145s5.308-8.034,4.115-12.176C10.333,17.662,0.852,13.906,0.852,13.906z
	"/>
</svg>
