<?xml version="1.0" encoding="utf-8"?>
<!-- Generator: Adobe Illustrator 14.0.0, SVG Export Plug-In . SVG Version: 6.00 Build 43363)  -->
<!DOCTYPE svg PUBLIC "-//W3C//DTD SVG 1.1//EN" "http://www.w3.org/Graphics/SVG/1.1/DTD/svg11.dtd">
<svg version="1.1" id="Layer_1" xmlns="http://www.w3.org/2000/svg" xmlns:xlink="http://www.w3.org/1999/xlink" x="0px" y="0px"
	 width="36px" height="36px" viewBox="0 0 36 36" enable-background="new 0 0 36 36" xml:space="preserve">
<g>
	<polyline fill="none" stroke="#929497" points="7.501,12.354 17.645,2.21 28.427,12.993 	"/>
	<circle fill="#E2E3E4" cx="17.644" cy="2.21" r="1.677"/>
	<g>
		<g>
			<g>
				<linearGradient id="SVGID_1_" gradientUnits="userSpaceOnUse" x1="15.0425" y1="11.7246" x2="17.6505" y2="23.6036">
					<stop  offset="0" style="stop-color:#004676"/>
					<stop  offset="0.087" style="stop-color:#0C4E7C"/>
					<stop  offset="0.2428" style="stop-color:#2A658D"/>
					<stop  offset="0.4492" style="stop-color:#5C89A8"/>
					<stop  offset="0.6985" style="stop-color:#A2BBCD"/>
					<stop  offset="0.9815" style="stop-color:#F9FBFC"/>
					<stop  offset="1" style="stop-color:#FFFFFF"/>
				</linearGradient>
				<polygon fill="url(#SVGID_1_)" points="30.997,27.951 7.03,33.053 3.146,13.646 27.113,8.878 				"/>
				<linearGradient id="SVGID_2_" gradientUnits="userSpaceOnUse" x1="15.2002" y1="13.5176" x2="17.8205" y2="24.4653">
					<stop  offset="0" style="stop-color:#FFFFFF"/>
					<stop  offset="1" style="stop-color:#000025"/>
				</linearGradient>
				<path fill="url(#SVGID_2_)" d="M30.997,27.951C30.989,27.953,7.03,33.053,7.03,33.053c-0.542-2.722-1.4-6.934-1.944-9.657
					c-0.338-1.694-0.682-2.086,0.946-2.631c1.545-0.517,3.229-0.539,3.988-2.354c1.072,0.803,2.078,3.872,3.005,0.633
					c1.517,0.982,3.287,2.195,3.156-0.946c0.929-0.157,2.279,1.217,2.262-0.642c1.056,0.735,5.833,2.789,5.501,0.013
					c0.067,0.571,1.837-1.516,1.92-1.705c0.657,1.031,2.146,0.321,2.879,1.34c0.643,0.894,0.69,3.43,0.912,4.55
					C29.714,21.945,30.997,27.951,30.997,27.951z"/>
				<linearGradient id="SVGID_3_" gradientUnits="userSpaceOnUse" x1="14.749" y1="10.5757" x2="18.774" y2="28.7687">
					<stop  offset="0" style="stop-color:#FFFFFF"/>
					<stop  offset="1" style="stop-color:#003C10"/>
				</linearGradient>
				<path fill="url(#SVGID_3_)" d="M30.997,27.951C30.989,27.953,7.03,33.053,7.03,33.053C6.603,30.903,6.175,28.75,5.746,26.6
					c-0.203-1.021-1.204-3.703,0.549-3.596c1.029,0.063,1.817,0.785,2.805,0.928c2.049,0.3,4.738,0.312,6.458-0.854
					c1.823-1.238,4.012-2.242,6.227-2.689c0.836-0.167,1.946-0.162,2.72-0.509c1.071-0.479,0.929-1.226,2.17-1.258
					c0.703-0.019,2.033,0.016,2.472,0.517c0.603,0.687,0.548,2.71,0.725,3.596C29.917,22.964,30.997,27.951,30.997,27.951z"/>
			</g>
		</g>
		<g>
			<path fill="#929497" d="M30.069,7.56l-1.559-0.45L0.677,12.646l4.304,21.521l0.903,1.307l27.18-7.054L30.069,7.56z M6.399,31.74
				C6.165,30.56,4.521,20.082,3.958,15.155c5.008-1.414,21.892-5.267,23.051-5.499c0.285,1.425,2.448,11.854,3.463,16.96
				C25.266,27.652,8.53,31.315,6.399,31.74z"/>
			
				<linearGradient id="SVGID_4_" gradientUnits="userSpaceOnUse" x1="-81.9116" y1="26.9697" x2="-56.6359" y2="52.2461" gradientTransform="matrix(0.9808 -0.1951 0.1951 0.9808 81.5438 -28.6076)">
				<stop  offset="0" style="stop-color:#FFFFFF"/>
				<stop  offset="1" style="stop-color:#231F20"/>
			</linearGradient>
			<path fill="url(#SVGID_4_)" d="M30.069,7.56L1.442,13.254l4.442,22.22l28.628-6.031L30.069,7.56z M7.942,32.089
				c-0.279-1.404-2.277-11.332-3.304-16.497c5.385-1.072,21.991-4.374,23.374-4.649c0.285,1.425,2.288,11.058,3.306,16.163
				C26.044,28.155,9.356,31.809,7.942,32.089z"/>
		</g>
	</g>
</g>
</svg>
