<?xml version="1.0" encoding="utf-8"?>
<!-- Generator: Adobe Illustrator 14.0.0, SVG Export Plug-In . SVG Version: 6.00 Build 43363)  -->
<!DOCTYPE svg PUBLIC "-//W3C//DTD SVG 1.1//EN" "http://www.w3.org/Graphics/SVG/1.1/DTD/svg11.dtd">
<svg version="1.1" id="Layer_1" xmlns="http://www.w3.org/2000/svg" xmlns:xlink="http://www.w3.org/1999/xlink" x="0px" y="0px"
	 width="36px" height="36px" viewBox="0 0 36 36" enable-background="new 0 0 36 36" xml:space="preserve">
<g>
	<g>
		<linearGradient id="SVGID_1_" gradientUnits="userSpaceOnUse" x1="8.3599" y1="1.7568" x2="24.9647" y2="21.6372">
			<stop  offset="0" style="stop-color:#FFFFFF"/>
			<stop  offset="1" style="stop-color:#5B57A4"/>
		</linearGradient>
		<path fill="url(#SVGID_1_)" stroke="#808284" stroke-width="0.143" d="M34.359,1.84l0.396,7.937h-1.062
			c-0.202-1.396-0.483-2.391-0.83-2.992c-0.579-0.967-1.343-1.671-2.299-2.126c-0.957-0.458-2.212-0.688-3.769-0.688h-5.312v25.83
			c0,2.07,0.25,3.361,0.75,3.87c0.699,0.7,1.777,1.047,3.241,1.047h1.307v0.933H10.737v-0.933h1.354
			c1.611,0,2.755-0.434,3.427-1.291c0.413-0.531,0.619-1.744,0.619-3.626V3.969h-4.543c-1.766,0-3.019,0.114-3.761,0.346
			C6.867,4.633,6.037,5.239,5.348,6.137c-0.682,0.896-1.093,2.11-1.224,3.639H3.065L3.462,1.84H34.359z"/>
	</g>
	<g>
		<polygon fill="#938FB2" stroke="#808284" stroke-width="0.143" points="0.859,0.663 3.419,1.823 3.029,9.798 0.47,8.637 		"/>
		<polyline fill="#938FB2" stroke="#808284" stroke-width="0.143" points="8.065,33.545 8.108,33.562 10.774,34.709 10.722,35.627 
			8.065,34.51 		"/>
		<path fill="#938FB2" stroke="#808284" stroke-width="0.143" d="M29.103,4.241c0,0,1.881,0.188,3.047,1.596
			c1.159,1.4,1.544,3.961,1.544,3.961l-2.612-1.161c0,0,0.145-0.429-0.479-2.172C29.996,4.793,29.103,4.241,29.103,4.241z"/>
		<linearGradient id="SVGID_2_" gradientUnits="userSpaceOnUse" x1="17.7432" y1="27.833" x2="4.539" y2="6.6773">
			<stop  offset="0" style="stop-color:#FFFFFF"/>
			<stop  offset="1" style="stop-color:#5B57A4"/>
		</linearGradient>
		<path fill="url(#SVGID_2_)" stroke="#808284" stroke-width="0.143" d="M13.577,3.999l2.516,0.048l-0.049,27.274
			c0,0,0.191,0.577-0.287,1.547c-0.489,0.969-1.311,1.501-2.081,1.689c0,0-1.015,0.151-1.453,0.151c-0.434,0-1.5,0.048-1.5,0.048
			l-2.608-1.212c0,0,2.318,0.103,3.338-0.292c1.014-0.385,1.544-0.819,1.788-1.495c0.243-0.678,0.195-0.388,0.243-1.887
			C13.529,28.368,13.577,3.999,13.577,3.999z"/>
	</g>
</g>
</svg>
