<?xml version="1.0" encoding="utf-8"?>
<!-- Generator: Adobe Illustrator 14.0.0, SVG Export Plug-In . SVG Version: 6.00 Build 43363)  -->
<!DOCTYPE svg PUBLIC "-//W3C//DTD SVG 1.1//EN" "http://www.w3.org/Graphics/SVG/1.1/DTD/svg11.dtd">
<svg version="1.1" id="Layer_1" xmlns="http://www.w3.org/2000/svg" xmlns:xlink="http://www.w3.org/1999/xlink" x="0px" y="0px"
	 width="36px" height="36px" viewBox="0 0 36 36" enable-background="new 0 0 36 36" xml:space="preserve">
<g>
	<linearGradient id="SVGID_1_" gradientUnits="userSpaceOnUse" x1="7.0903" y1="-0.3208" x2="22.1621" y2="27.9176">
		<stop  offset="0" style="stop-color:#FFFFFF"/>
		<stop  offset="1" style="stop-color:#231F20"/>
	</linearGradient>
	<path fill="url(#SVGID_1_)" d="M25.08,28.742l-1.495-1.455c2.145-1.592,3.536-4.143,3.543-7.021l0,0
		c-0.013-4.827-3.919-8.735-8.746-8.744l0,0c-3.396,0.005-6.326,1.947-7.844,4.326l5.552,5.5l-13.96,1.42l-1.589-1.451V5.873
		l4.968,4.984c3.159-3.665,7.664-6.285,12.874-6.285l0,0c8.668,0,15.695,7.025,15.695,15.694l0,0c0,4.184-1.639,7.982-4.302,10.795
		L25.08,28.742z"/>
	<linearGradient id="SVGID_2_" gradientUnits="userSpaceOnUse" x1="11.8618" y1="8.5483" x2="25.8082" y2="31.6759">
		<stop  offset="0" style="stop-color:#FFFFFF"/>
		<stop  offset="1" style="stop-color:#231F20"/>
	</linearGradient>
	<path fill="url(#SVGID_2_)" d="M25.08,28.742c2.146-1.592,3.534-4.142,3.54-7.021l0,0c-0.008-4.827-3.915-8.735-8.744-8.744l0,0
		c-3.394,0.006-6.323,1.948-7.843,4.326l5.552,5.499L2.037,22.772V7.328l4.968,4.985c3.157-3.666,7.664-6.286,12.872-6.286l0,0
		c8.67,0,15.696,7.025,15.696,15.694l0,0c0,4.184-2.558,9.09-5.223,11.9L25.08,28.742z"/>
</g>
</svg>
