<?xml version="1.0" encoding="UTF-8" standalone="no"?>
<!-- Created with Inkscape (http://www.inkscape.org/) -->

<svg
   xmlns:dc="http://purl.org/dc/elements/1.1/"
   xmlns:cc="http://creativecommons.org/ns#"
   xmlns:rdf="http://www.w3.org/1999/02/22-rdf-syntax-ns#"
   xmlns:svg="http://www.w3.org/2000/svg"
   xmlns="http://www.w3.org/2000/svg"
   xmlns:sodipodi="http://sodipodi.sourceforge.net/DTD/sodipodi-0.dtd"
   xmlns:inkscape="http://www.inkscape.org/namespaces/inkscape"
   version="1.1"
   width="562.14661"
   height="531.11755"
   id="svg2"
   inkscape:version="0.47 r22583"
   sodipodi:docname="online_normal.svg">
  <title
     id="title3226">online</title>
  <metadata
     id="metadata3222">
    <rdf:RDF>
      <cc:Work
         rdf:about="">
        <dc:format>image/svg+xml</dc:format>
        <dc:type
           rdf:resource="http://purl.org/dc/dcmitype/StillImage" />
        <dc:title>online</dc:title>
        <dc:date>2011-03-18</dc:date>
        <dc:creator>
          <cc:Agent>
            <dc:title>tzunghaor</dc:title>
          </cc:Agent>
        </dc:creator>
        <cc:license
           rdf:resource="http://creativecommons.org/licenses/publicdomain/" />
        <dc:publisher>
          <cc:Agent>
            <dc:title>openclipart.org</dc:title>
          </cc:Agent>
        </dc:publisher>
        <dc:subject>
          <rdf:Bag>
            <rdf:li>girl</rdf:li>
            <rdf:li>female</rdf:li>
            <rdf:li>utp</rdf:li>
            <rdf:li>laptop</rdf:li>
            <rdf:li>computer</rdf:li>
            <rdf:li>network</rdf:li>
            <rdf:li></rdf:li>
          </rdf:Bag>
        </dc:subject>
      </cc:Work>
      <cc:License
         rdf:about="http://creativecommons.org/licenses/publicdomain/">
        <cc:permits
           rdf:resource="http://creativecommons.org/ns#Reproduction" />
        <cc:permits
           rdf:resource="http://creativecommons.org/ns#Distribution" />
        <cc:permits
           rdf:resource="http://creativecommons.org/ns#DerivativeWorks" />
      </cc:License>
    </rdf:RDF>
  </metadata>
  <sodipodi:namedview
     pagecolor="#ffffff"
     bordercolor="#666666"
     borderopacity="1"
     objecttolerance="10"
     gridtolerance="10"
     guidetolerance="10"
     inkscape:pageopacity="0"
     inkscape:pageshadow="2"
     inkscape:window-width="1063"
     inkscape:window-height="968"
     id="namedview3220"
     showgrid="false"
     inkscape:zoom="0.88869215"
     inkscape:cx="337.25965"
     inkscape:cy="331.02943"
     inkscape:window-x="0"
     inkscape:window-y="0"
     inkscape:window-maximized="0"
     inkscape:current-layer="layer1" />
  <defs
     id="defs4">
    <inkscape:perspective
       sodipodi:type="inkscape:persp3d"
       inkscape:vp_x="0 : 265.55878 : 1"
       inkscape:vp_y="0 : 1000 : 0"
       inkscape:vp_z="562.14661 : 265.55878 : 1"
       inkscape:persp3d-origin="281.0733 : 177.03918 : 1"
       id="perspective3224" />
  </defs>
  <g
     transform="translate(-93,-60.056418)"
     id="layer3"
     style="display:inline">
    <rect
       width="560"
       height="234"
       x="94"
       y="176.36218"
       id="rect3268"
       style="fill:#784421;fill-opacity:1;stroke:#2b0000;stroke-width:2;stroke-linecap:round;stroke-linejoin:round;stroke-miterlimit:4;stroke-opacity:1;stroke-dasharray:none" />
    <path
       d="m 291.71875,60.125 c -15.71463,0.538482 -31.20635,8.090188 -39.735,21.503007 -12.07992,16.572479 -13.92958,39.920493 -3.8275,57.903243 0.1383,4.48883 0.29307,10.86822 5.53125,12.4375 3.03409,-9.35153 2.87046,-0.38584 3.5,4.15625 5.0344,1.83534 4.87687,-5.51558 7.28125,-1.71875 1.73225,6.58172 0.31192,14.51361 1.4375,21.59375 0.64912,7.33438 2.02536,16.73885 10.15625,19.3125 9.06664,3.69089 20.08702,4.55643 29.09375,4.125 -2.2238,4.6072 -8.47592,-1.01536 -12.15625,1.875 -7.09871,3.22489 -16.83022,5.94133 -19.25,14.21875 -1.08914,6.48153 3.34957,12.42637 5.21875,17.8125 -3.35553,7.34742 -6.60173,15.90455 -14.86425,18.72182 -5.30443,3.78479 -13.68333,6.80679 -14.917,13.99693 -0.87151,1.76357 -5.40117,0.42816 -7.21875,2.5 -1.90286,1.72544 -3.45649,4.17005 -3.3125,6.84375 -4.46552,-0.87769 -8.00659,3.57396 -6.59375,7.78125 -3.39214,1.2371 -3.20075,5.4483 -7.375,5.5 -12.36589,5.19276 -24.45921,12.05739 -36.90625,16.375 -6.03812,-4.09447 -13.3563,-1.83913 -19.5,0.96875 -5.09178,-2.70059 -10.51057,-3.27977 -16.15625,-2.6875 -2.58894,-0.70178 -8.09596,1.0604 -8.90625,-1.4375 -0.67367,-2.34718 -5.25602,3.10988 -7.71875,3.8125 -3.82319,1.93128 -8.43417,4.94537 -12.6875,2.75 -2.33821,1.95318 -1.84481,5.2269 -0.46875,7.5625 -3.90886,0.75127 -6.40381,4.63507 -6.375,8.5 -3.83879,1.88239 -5.14163,7.6334 -12.59136,7.62705 -4.702873,1.90076 2.58106,9.65047 2.72215,13.90931 1.06777,4.67865 8.64804,0.17443 9.99421,4.90114 3.91156,4.15382 10.93464,1.99136 14.09375,7.03125 6.18531,5.37833 15.66657,0.52042 21.78125,5.96875 5.5749,3.13807 12.29203,-1.568 15.6875,-5.9375 2.20333,-8.4317 12.75088,-9.88966 16.40625,-17.5 3.52308,-2.77518 9.30662,-5.31398 13.65625,-2.375 20.64412,8.17958 34.16939,28.76462 37.53125,50.03125 -27.8094,5.67852 -48.43672,28.64346 -60.25092,53.27377 -4.84667,10.18002 -9.7623,24.21212 -1.49908,33.94498 8.83976,9.07659 23.47562,5.0009 33.34375,-0.0625 25.65337,-13.13148 40.97583,-41.33706 40.875,-69.8125 0.86543,-2.86058 -2.24092,-9.15008 2.59375,-7.875 7.18723,0.25117 14.41005,1.7646 21.03125,4.6875 -12.41864,30.3502 -15.33461,65.76162 -4.0625,96.875 4.37239,11.51234 13.84522,24.77589 27.78125,23.625 14.79944,-2.00686 22.12134,-17.40135 25.6875,-30.25 5.86439,-20.67076 5.80512,-44.13604 -4.875,-63.34375 -6.66387,-13.24288 -17.89896,-24.18538 -29.78125,-32 8.57232,-16.16538 20.32934,-30.83504 35.5625,-41.15625 -8.80753,24.9135 -4.98827,52.46126 -0.81459,78.04516 3.6936,22.69409 10.43219,47.45129 28.90834,62.36109 8.74676,7.54885 23.2474,9.04843 31.6875,0.1875 12.85592,-13.02485 14.93149,-32.53347 16.40625,-49.90625 0.55968,-5.03309 0.0528,-10.76553 0.78125,-15.375 4.27939,-1.95065 5.13039,-0.21432 4.46875,3.8125 -0.35992,4.99195 -4.86318,9.33902 -1.57695,14.43061 1.91762,4.65712 2.3019,13.9541 5.10782,15.91344 5.65867,-1.7319 4.36231,9.08801 6.79187,13.01875 7.40089,-2.66044 15.3114,-4.48766 23.14601,-6.20655 -0.43562,-4.25089 -4.6853,-9.88727 -3.09375,-13.375 5.18135,-3.27263 -0.19664,-9.32112 -1.59375,-13.21875 -1.29167,-5.53708 -3.50572,-10.58373 -6.99254,-14.56389 0.0542,-2.2035 -2.57099,-5.54558 -1.63246,-7.06111 8.05042,1.48131 17.53389,1.45358 24.71875,3.84375 1.48572,4.19476 5.91045,6.70207 10.25,6.75 0.1539,4.27781 -0.37376,8.3786 -3.1875,11.65625 -2.30445,3.47547 1.11767,8.98667 -3.46875,10.78125 -7.73631,6.78705 -10.23039,17.61035 -11.0625,27.5 -2.98588,2.52944 -3.8959,7.96824 -4.8125,12.03125 2.43417,8.404 11.58752,12.43516 18.96875,15.71875 3.08431,1.51872 6.4186,1.46707 9.0625,-0.59375 5.18369,-1.49736 6.81575,5.68946 7.46875,9.40625 0.42368,7.50826 9.8668,9.14509 15.71875,10.4375 16.5039,2.36369 34.28217,2.83258 50.15625,-2.8125 4.53459,-1.37487 6.46837,-6.02164 6,-10.53125 3.50812,-5.33819 -4.93198,-6.17725 -3.59375,-10.59375 1.73909,-5.64878 -2.79518,-10.11734 -7.65625,-12.0625 -7.041,-4.69816 -15.65527,-8.23536 -20.875,-14.8125 0.002,-3.00279 1.60019,-5.55306 -0.25,-8.5625 0.16133,-2.82643 -2.76925,-3.00492 -3.375,-4.40625 0.81491,-3.33338 -2.85593,-5.24063 -1.9375,-7.90625 -0.48878,-2.82454 0.4635,-8.17244 -3.34375,-8 -0.34549,-2.82314 2.91244,-4.44894 2.375,-7.65625 1.66851,-3.70484 -5.03808,-7.01754 1.8125,-6.6875 4.5446,-1.63939 1.66694,-11.73711 3.19576,-16.80548 1.54791,-3.14483 7.72409,-0.60034 11.05424,-2.50702 2.21227,-2.06668 7.12952,-4.74765 7.09375,0.40625 2.264,2.17748 5.42505,2.42504 2.375,5.46875 -2.06371,4.0193 3.90694,4.26061 4.59375,7.5625 1.67838,4.09566 4.27749,9.1828 4.0625,13.28125 -1.70131,2.83651 -5.08712,8.72506 0.1875,9.9375 4.38233,2.69203 4.41697,9.32299 5.90625,13.84375 0.94548,3.72701 0.24726,9.25109 5.5,7.65625 2.58729,0.46949 7.44326,-2.58824 6.875,1.9375 1.79904,9.06892 5.25462,17.93238 11.5625,24.78125 1.76129,3.1153 5.81144,7.62157 1.25,10.34375 -3.44197,2.76437 -1.21326,7.19294 -3.78125,10.25 -3.3187,5.4584 -6.74948,11.54492 -8.8125,17.25 -5.51886,2.19998 -8.0258,9.30649 -10.03125,14.625 0.33289,9.19597 10.6544,12.69725 17.875,15.5 4.52249,1.67623 9.1176,2.86572 13.6875,4.25 2.27986,-2.15328 3.76155,-8.77997 7.4375,-5.5625 5.73748,2.73163 9.84245,7.54516 13.6875,12.34375 12.31395,6.24013 26.83169,6.99143 40.40625,8.625 4.6869,0.38849 11.71694,1.44329 13.375,-4.40625 1.09686,-3.61971 2.15052,-9.01879 0.0705,-11.68379 -2.3586,-1.00914 1.34441,-5.01863 1.02321,-7.56621 1.42685,-4.93975 -1.87318,-9.68804 -6.90391,-10.41673 -8.86537,-3.89132 -19.92037,-6.27671 -25.40859,-14.86452 -0.83982,-2.22223 -1.27811,-4.64796 -1.59375,-6.9375 4.40047,3.17889 3.72934,-12.5407 -1.03125,-10.4375 2.08747,-3.08398 4.2077,-4.35063 1.125,-11.09375 -1.44648,-7.25053 -4.30818,-15.33706 -6.375,-22.9375 -1.7325,2.13084 3.81657,-5.87708 -0.53615,-10.51061 -1.08884,-6.36139 -4.46489,-13.85055 -4.15135,-19.52064 4.19035,-2.25535 12.27191,-4.7557 9.375,-10.9375 -2.53529,-6.94371 -6.87788,-12.95186 -9.6875,-19.75 -1.78877,-3.35742 -6.75975,-7.09027 -10.03125,-3.375 -8.06625,-19.01777 -16.21669,-38.53115 -19.4375,-58.9375 -6.30344,-7.7973 -17.07822,-10.03215 -25.94055,-13.90214 -13.20746,-4.97023 -27.62557,-8.48026 -40.5907,-12.94161 -0.52905,-10.9433 0.39933,-22.71807 -4.28125,-32.8125 -4.5931,-7.52572 -11.61496,-13.72563 -19.875,-16.90625 6.64395,-1.20454 10.5266,-7.02354 13.28125,-12.59375 6.00439,-1.32698 15.96493,-1.2479 16.625,-9.3125 -7.8763,-31.2241 -15.93884,-62.52344 -24.28125,-93.65625 -2.50488,-0.6215 -5.42096,-2.42575 -8.44689,-1.01354 -3.90398,-0.18744 -8.26574,1.81518 -11.55311,1.66979 -6.63738,1.02358 -13.53823,1.14921 -20.03125,2.6875 -2.26416,-3.52006 -4.15389,-7.30682 -7.4375,-3.15625 -5.02598,3.24432 -8.46515,-7.65542 -12.42607,-2.02679 -7.58875,6.10676 -18.282,5.1429 -27.54268,5.74554 -13.61052,-0.22581 -27.10045,-2.87843 -40.34375,-5.53125 -2.31671,-0.96702 -6.63101,0.0329 -5,-3.5 -1.28906,-3.82238 4.54754,-1.70712 6.8125,-3.34375 6.29795,-1.7353 12.25216,-4.38858 18.34375,-6.78125 -2.45209,-0.97994 -8.55222,-3.57551 -8.59375,-4.6875 4.4084,0.58774 10.00256,-0.23263 12.3125,1.375 3.27756,2.22552 5.83771,5.45831 10.03125,5.9375 -3.28923,-8.5722 -11.81231,-13.94318 -19.5625,-18.3125 -4.56862,-1.2797 1.04129,-2.25045 3.03125,-2.0625 7.36624,0.23629 14.71219,1.48847 22.09375,0.5 -8.52306,-4.57173 -16.86466,-9.56052 -26.1875,-12.25 3.79339,-0.43381 13.60379,-0.0275 12.65043,-0.99623 -9.99086,-7.21933 -22.12102,-9.86085 -33.46293,-14.19127 4.37346,-4.50098 10.08491,-7.39468 16.40625,-5.96875 3.7876,0.5959 7.37898,1.97485 11.21875,2.375 -6.38815,-7.35829 -15.07096,-14.046474 -24.84375,-15.75 -4.92954,0.109836 -8.90044,3.555716 -13.5625,4.71875 C 346.49251,87.234501 336.80103,76.203129 325.09375,69.4375 315.323,62.905371 303.48156,59.522996 291.71875,60.125 z m 280.40625,450.53125 -0.0625,0.0937 0.0625,-0.0937 z M 350.15625,168.1875 c 2.58205,0.94584 8.03951,3.27786 8.3125,4.28125 -2.44948,-0.18822 -5.9641,-0.12174 -7.6875,-0.15625 1.61906,-0.94921 -2.62592,-3.77605 -0.625,-4.125 z m -78.03125,2.03125 c 5.88959,8.63708 15.94689,12.93161 24.6875,17.96875 1.48519,2.06977 5.15152,2.75156 6.125,4.4375 -0.0804,1.97853 1.04405,3.74791 -1.6875,2.53125 -9.01718,-2.68526 -22.13448,-1.43964 -26.8125,-11.3125 -1.85115,-4.27727 -2.30794,-9.13191 -2.3125,-13.625 z m 38.6875,29.40625 c -5.14774,-0.79236 1.60328,-3.7485 0,0 z M 429.75,254.84375 c -3.9631,-2.41532 -7.05478,-10.4113 -3.15603,-10.75918 1.05201,3.58639 2.10402,7.17279 3.15603,10.75918 z m 1.53125,5.25 c 0.73144,3.16019 4.91393,15.51744 3.6875,13.5625 -1.60796,-2.81257 -3.72881,-6.66499 -4.78125,-8.71875 0.75251,-3.04875 0.0422,-6.20696 -0.1875,-9.21875 0.42708,1.45833 0.85417,2.91667 1.28125,4.375 z M 326.875,292.28125 c 3.95078,5.20121 12.54476,3.38238 17.1875,-0.15625 1.41886,-2.91629 6.3479,-0.15703 3.375,1.9375 -3.64258,4.63813 -4.93134,12.62263 1,16.09375 1.70833,1.57436 6.43586,1.96172 2.59375,3.90625 -2.49208,1.91272 -3.1241,6.21931 -6.9375,4.96875 -6.42934,-0.1599 -11.91882,7.0235 -8.96875,13.1875 1.14759,4.22756 -2.35257,7.78192 -6.4375,7.96875 -23.78964,9.28743 -41.29515,29.97703 -52.8125,52.1875 -9.20175,-4.17063 -19.46245,-5.87624 -29.5625,-5.53125 -3.84294,-23.6994 -18.13404,-46.13452 -40.09375,-56.71875 11.03385,-2.41669 22.58058,-5.35861 33.71875,-5.96875 2.91714,1.724 6.68624,-0.96777 8.875,1.875 2.93464,1.76213 7.65896,2.09835 9.5,-1.09375 4.2646,-1.62532 8.30571,-5.9323 12.4375,-6.375 8.09274,4.2008 18.33157,2.01952 24.24949,-4.8833 5.06799,-4.5328 8.63773,-11.4039 5.90676,-18.21045 -1.78936,-2.85926 3.63295,-1.95939 4.78125,-4.28125 4.19937,-3.96632 5.47279,-9.88088 7.25,-15.15625 4.64583,5.41667 9.29167,10.83333 13.9375,16.25 z m 110.84375,-10.25 c -2.47044,0.14719 0.38178,-3.01674 0,0 z M 454.625,285.5 c -1.1398,3.19981 1.71121,5.44447 4.4375,5.4375 2.32805,4.14875 8.12368,2.15036 11.84375,2 -7.5774,1.80909 -15.17848,5.43544 -21.96875,8.46875 -0.46541,-5.42889 -3.03906,-10.68718 -5.28125,-15.09375 3.60526,0.0856 7.57947,-0.7799 10.96875,-0.8125 z m -116.59375,71.6875 c 1.88323,1.41055 1.66326,3.32793 0.4375,5.8125 -7.68484,19.75363 -2.34454,44.14782 14.5,57.375 9.65333,7.65576 21.45273,14.39107 34.3125,12.6875 -0.58533,18.15291 -0.86029,38.04658 -11.28125,53.5625 -4.20696,6.55277 -13.3946,6.44625 -18.84375,1.625 -17.24998,-13.68465 -22.06121,-36.5719 -25.65625,-57.09375 -3.63515,-23.52719 -7.3964,-48.72104 0.625,-71.6875 1.25639,-2.92982 2.76343,-5.85327 4.90625,-8.28125 0.33333,2 0.66667,4 1,6 z m -101.5,41.96875 c 1.65983,23.07218 -7.23893,47.13871 -26.3831,60.80144 -7.84182,5.39077 -17.822,12.12604 -27.5544,8.82356 -4.83406,-3.81497 -1.55646,-11.90536 0,-16.96875 9.66777,-23.91015 28.24999,-46.28786 53.9375,-52.9375 l 0,0.28125 z m 44.875,8.375 c 23.44686,14.43251 36.91977,43.79083 31.125,70.96875 -2.38064,11.79733 -4.83959,25.78809 -15.6875,32.75 -8.38266,3.2407 -14.79424,-6.30837 -17.84375,-12.71875 -10.33279,-23.99526 -9.38387,-52.12754 -2.59375,-77 1.46598,-4.68902 2.97674,-9.74936 5,-14 z m 335.125,93.6875 c -0.31771,0.49743 -0.58219,-0.48805 0,0 z m 3.90625,10.46875 c -1.78998,0.5504 -1.73552,-0.41496 0,0 z"
       id="path3904"
       style="fill:#2b0000;fill-opacity:1;fill-rule:evenodd;stroke:none;display:inline" />
  </g>
  <g
     transform="translate(-93,-60.056418)"
     id="layer1"
     style="display:inline">
    <path
       d="m 558.38,474.31705 c 0.87028,6.52714 4.35142,18.71113 8.26771,23.06256 3.91628,4.35143 8.2677,11.74885 7.39742,13.92456 -0.87029,2.17571 -5.65685,5.65686 -4.35142,8.70286 0.97856,2.28331 -9.66929,15.17328 -10.49471,23.3065 l -2.12444,-0.24395 c -4.35141,3.046 -7.83255,12.61914 -7.83255,12.61914 -0.46571,9.03577 16.50189,13.89187 28.7194,17.40571 1.74058,-2.61086 5.22172,-6.96229 5.22172,-6.96229 0,0 11.74885,4.78658 16.97056,13.48943 3.32819,5.547 44.81969,10.87856 49.17112,9.13799 4.35142,-1.74057 3.48114,-12.18399 3.48114,-12.18399 l -3.046,-0.87029 c 0,0 6.75219,-12.83551 0.87029,-15.66513 -4.8542,-2.33522 -25.23828,-8.26771 -29.5897,-16.53542 -3.01285,-5.72442 -3.48115,-24.36798 -3.48115,-27.84912 0,-3.48115 -3.04599,-13.48943 -4.35142,-16.97057 -1.30543,-3.48114 -3.046,-9.138 -3.046,-9.138 l 3.91628,-1.30542 -8.26771,-33.07085 -49.17111,7.83257 1.74057,11.31371 z"
       id="path3299"
       style="fill:#784421;fill-rule:evenodd;stroke:none" />
    <path
       d="m 605.8125,455.15625 -28.90625,4.625 -19.6875,7.09375 1.15625,7.4375 c 0.14426,1.08198 0.37841,2.35608 0.65625,3.6875 7.0467,-2.57776 34.14915,-8.01208 42.875,-12.375 3.04597,6.52714 6.09375,20.4375 6.09375,20.4375 -10e-6,10e-6 -18.28832,10.4546 -19.59375,7.84375 -1.30544,-2.61086 -5.65625,-4.34375 -5.65625,-4.34375 -10e-6,10e-6 0.44693,2.58372 2.1875,6.5 1.74056,3.91628 16.51886,-2.60789 20,-5.21875 5.65686,11.3137 11.75,43.09375 11.75,43.09375 2e-5,10e-6 -3.95598,3.12679 -6.53125,2.15625 -7.72738,-2.91221 -21.78174,2.50003 -23.9375,15.6875 -1.2829,7.84787 -21.18235,-3.33864 -25.5625,-6.5625 -0.006,4.18041 20.15787,14.1993 24.28125,15.6875 4.3359,1.56488 34.70501,23.02422 53.9375,19.15625 6.39466,-1.28607 6.12028,2.7638 5.4375,9 2.14508,0.0636 3.79458,-0.008 4.65625,-0.21875 1.03956,-1.25371 2.17307,-2.73018 3.3125,-4.4375 0.89368,-3.54198 0.53125,-7.84375 0.53125,-7.84375 l -3.0625,-0.84375 c 0,2e-5 6.7569,-12.85788 0.875,-15.6875 -0.95917,-0.46143 -2.63413,-1.0799 -4.5625,-1.8125 1.81325,3.14636 3.30339,9.09925 -3.6875,17.0625 -6.68757,7.61772 -44.53318,-7.05761 -54.40625,-16.53125 -2.09575,-14.80503 15.7763,-25.55853 22.625,-18.71875 1.40635,1.40452 5.2494,0.74639 9.125,-0.4375 -1.83627,-7.72064 -2.15625,-21.04585 -2.15625,-23.9375 0,-3.48118 -3.03832,-13.48761 -4.34375,-16.96875 -1.30541,-3.48113 -3.0625,-9.125 -3.0625,-9.125 l 3.9375,-1.3125 -8.28125,-33.09375 z"
       id="path3301"
       style="fill:#2b1100;fill-rule:evenodd;stroke:none" />
    <path
       d="m 352.61322,323.85818 2.28965,17.74479 86.42746,-28.22581 -1.71724,-13.1655 -86.99987,23.64652 z"
       id="path3432"
       style="fill:#ffe6d5;fill-rule:evenodd;stroke:none" />
    <path
       d="m 332.81386,116.23925 c 2.68615,0.53723 6.71538,4.56645 7.25261,6.44675 0.53723,1.88031 1.61169,12.62491 -1.07446,13.69937 -2.68615,1.07446 -2.68615,4.02922 -2.68615,4.02922 l -5.3723,20.68334 13.43075,16.92274 c 1.52215,-1.41378 3.0443,-2.29754 4.56645,-6.44675 -1.61169,-1.66812 -1.07446,-5.15985 -2.68615,-5.90953 3.35073,-0.47421 8.49244,2.03656 13.96797,5.10368 0.32945,-1.49782 -0.005,-3.26108 -3.22337,-6.17814 3.20544,3.68901 13.54291,0.24599 25.2498,-4.56645 -4.70986,-2.01537 -5.58306,-5.4259 -17.45997,-4.83507 3.65442,-1.9673 11.12448,-2.23875 21.22058,-1.34308 -1.58827,-2.86815 -4.0299,-5.62964 -11.28183,-7.78983 l 3.22338,-4.02922 c 4.13755,-3.38367 14.40973,-0.63271 21.75781,-0.80585 -7.03061,-3.29442 -10.09795,-6.25856 -24.98119,-10.20736 1.45998,-2.76201 6.64779,-2.45133 12.6249,-2.68616 -11.76729,-7.30436 -33.86495,-10.11424 -38.83218,-17.88021 l -4.17573,-6.61799 -16.08737,-3.70636 4.56645,16.1169 z"
       id="path3289"
       style="fill:#2b1100;fill-rule:evenodd;stroke:none" />
    <path
       d="m 267.00321,150.62195 c 0.80585,4.02923 -1.13985,32.40984 4.83507,39.48639 5.16483,6.1171 23.36691,7.67074 31.15933,7.52122 -11.74347,-3.0974 -22.17349,-2.67474 -27.93595,-9.1329 -9.0687,-10.16356 -2.95476,-37.33748 -2.95476,-37.33748 l -5.10369,-0.53723 z"
       id="path3291"
       style="fill:#784421;fill-rule:evenodd;stroke:none" />
    <path
       d="m 256.25862,131.28168 c 1.61169,3.76061 4.72936,13.33235 6.44676,17.45997 2.04169,4.90702 9.40152,8.59568 9.40152,8.59568 0,0 -1.28952,7.65669 1.8803,12.08767 5.28843,7.39249 16.11689,13.16213 21.22058,15.31105 3.02191,1.27239 4.29784,4.02922 8.32706,5.3723 2.80313,0.93437 12.08767,-1.34308 12.08767,-1.34308 l 1.37094,11.38204 40.53299,5.80931 7.78983,-11.01321 -11.81906,-17.45997 -5.3723,3.22338 -12.35628,-16.1169 c 0,0 1.7356,-8.58886 1.88031,-12.35628 0.11159,-2.90537 -0.80585,-12.89351 -0.80585,-12.89351 0,0 2.19727,0.1785 3.76061,-2.14892 1.56334,-2.32742 2.68615,-9.67014 1.8803,-14.23659 -0.80585,-4.56645 -6.44676,-6.17814 -8.32706,-5.64091 -1.88031,0.53723 -5.10368,7.2526 -5.10368,7.2526 l -16.1169,-22.83227 c 0,0 -42.44115,4.83507 -42.44115,5.90953 0,1.07446 -14.23659,23.3695 -14.23659,23.63811 z"
       id="path3283"
       style="fill:#ffe6d5;fill-rule:evenodd;stroke:none" />
    <path
       d="m 270.54329,155.07434 c 1.14421,-2.53451 7.5012,-4.27331 10.65793,-2.253 2.25608,1.44389 4.16687,8.83883 4.16687,8.83883 l -1.26268,0.63135 -1.89785,-2.39277 c -4.28995,0.88546 -5.11474,4.42175 -7.86833,2.53478 -0.66722,-0.8089 -1.20344,-1.74863 -1.17578,-2.39124 -2.2017,-1.08246 -3.33226,-3.39061 -2.62016,-4.96795 z m 8.76609,3.33065 c 0,0.7667 -0.62226,1.38896 -1.38896,1.38896 -0.76671,0 -1.38896,-0.62226 -1.38896,-1.38896 0,-0.76671 0.62225,-1.38896 1.38896,-1.38896 0.7667,0 1.38896,0.62225 1.38896,1.38896 z"
       id="path3254"
       style="fill:#2b1100;fill-opacity:1;fill-rule:evenodd;stroke:#000000;stroke-width:0.30000001;stroke-linecap:butt;stroke-linejoin:miter;stroke-miterlimit:4;stroke-opacity:1;stroke-dasharray:none" />
    <path
       d="m 293.23595,154.19122 c -6.65826,-6.16381 -5.61457,-10.0278 -3.95024,-12.37744 3.03572,-4.28571 12.14286,-5.7016 17.67857,-5.16588 l -3.74999,2.5 c 2.5,0.17857 4.82142,1.42856 7.32142,4.10713 -5.01186,1.10685 -17.50531,7.43347 -15.66008,9.80997 l -1.63968,1.12622 z m 3.17096,-11.59816 c 1.07143,0.41842 2.36812,1.99829 2.70023,3.34055 3.27224,-1.46225 7.14286,-3.03571 7.14286,-3.03571 -1.78571,-1.96429 -6.45023,-3.6977 -9.84309,-0.30484 z m 0.83049,4.10423 c 0,0.73185 -0.65054,1.32582 -1.45209,1.32582 -0.80156,0 -1.4521,-0.59397 -1.4521,-1.32582 0,-0.73186 0.65054,-1.32583 1.4521,-1.32583 0.80155,0 1.45209,0.59397 1.45209,1.32583 z"
       id="path3223"
       style="fill:#2b1100;fill-opacity:1;fill-rule:evenodd;stroke:#000000;stroke-width:0.30000001;stroke-linecap:butt;stroke-linejoin:miter;stroke-miterlimit:4;stroke-opacity:1;stroke-dasharray:none" />
    <path
       d="m 288.875,170.23718 c -1.77289,2.55149 -0.088,3.7145 0.875,3.875 2.25,0.375 8,-0.25 8,-0.25 0,0 2,0.375 1.125,1.625 -0.875,1.25 -2.32268,2.04202 -1.75,4.25 1.94019,3.68994 7.33591,1.75069 10.5,0.375 2.875,-1.25 5.5,-4.02917 5.5,-6.75 -0.85305,-3.17027 -2.45423,-5.01526 -1.875,-8.125 l 2.75,0.5 c 0,0 -1,-3.75 -2.25,-3.875 -1.25,-0.125 -2.36385,1.80067 -3.125,2.25 -0.47072,0.27788 -17.97711,3.57351 -19.75,6.125 z m 6.125,1.875 c 4.72046,-2.90731 10.17836,-3.82568 14.875,-6.75 l 0.375,6.875 c 0,0 -6.93337,2.18977 -9.875,4.375 -1.18732,-2.20015 1.16759,-5.11363 -5.375,-4.5 z"
       id="path3262"
       style="fill:#2b1100;fill-rule:evenodd;stroke:none" />
    <path
       d="m 285.25,163.36218 c 0.5,4.375 4.25,4.75 6.75,2.875 2.5,-1.875 5.5,-3 5.5,-3 -3.82216,-0.97788 -6.93563,-2.07098 -12.25,0.125 z"
       id="path3267"
       style="fill:#2b1100;fill-rule:evenodd;stroke:none" />
    <path
       d="m 297.25,153.86218 c -0.125,2 0.5,5.75 0.5,5.75 5.82673,-6.29956 12.26903,-7.9823 18.75,-9.375 l -0.5,-3.375 c -6.25877,-0.13819 -11.89212,0.5953 -18.75,7 z"
       id="path3275"
       style="fill:#2b1100;fill-rule:evenodd;stroke:none" />
    <path
       d="m 282.875,163.23718 c 0.75,0.625 1.86302,1.22003 2.5,3.5 -3.5,0.375 -7.5,3.25 -7.5,3.25 -1.07062,-0.97193 -2.10886,-1.95195 -1.875,-3.25 1.76649,-2.21703 4.10905,-3.2819 6.875,-3.5 z"
       id="path3277"
       style="fill:#2b1100;fill-rule:evenodd;stroke:none" />
    <path
       d="m 281.20789,138.17125 0.17686,3.18349 4.42151,-0.8843 c 5.1986,-5.99542 12.2365,-8.92534 18.74719,-12.73394 l -2.65291,-2.65291 c -7.23185,4.39294 -18.06094,9.11291 -20.69265,13.08766 z"
       id="path3279"
       style="fill:#2b1100;fill-rule:evenodd;stroke:none" />
    <path
       d="m 274.84092,145.77625 c 0,0 -10.42799,-0.89446 -11.1422,0.17686 -1.7686,2.6529 -0.17686,4.06778 -0.17686,4.06778 2.22486,-0.35372 2.99458,-0.70744 7.78185,-1.06116 l 3.53721,-3.18348 z"
       id="path3281"
       style="fill:#2b1100;fill-rule:evenodd;stroke:none" />
    <path
       d="m 253.84108,127.52107 c -5.83282,7.41568 -3.64607,20.79346 -1.07446,21.75781 2.48702,-4.98335 3.02191,-6.04378 4.83507,-6.98399 l 1.34308,11.55044 1.88031,-0.26861 c 0.22915,-11.74268 7.25024,-16.83399 9.1329,-39.75501 l -16.1169,13.69936 z"
       id="path3285"
       style="fill:#784421;fill-rule:evenodd;stroke:none" />
    <path
       d="m 269.68937,113.01587 c 4.95699,15.16584 23.73137,14.65049 34.3827,18.80304 l 0,-2.14892 c -2.86494,-2.77569 -4.77029,-5.55137 -11.01321,-8.32706 5.98905,-3.18368 14.41188,2.41223 25.2498,3.22338 -1.99056,-2.41753 -3.20163,-4.83507 -8.59568,-7.2526 3.93969,1.06249 7.61076,-0.75406 11.81906,4.02922 0,2.21342 14.32138,22.01676 23.10088,20.95197 23.23544,-2.81803 43.50345,8.36374 53.45437,17.45996 -9.97678,-10.27278 -19.84709,-19.51595 -54.52882,-21.75781 -5.25726,-0.33983 -11.2623,-8.59567 -11.81906,-9.93875 -1.96984,-5.28275 -1.25355,-7.95383 3.7606,-10.81905 0,0 7.65693,-1.35369 15.88831,2.30324 -8.88151,-12.30704 -20.99199,-19.42014 -20.99199,-19.42014 l -41.36669,-2.148917 -19.34027,15.042437 z"
       id="path3287"
       style="fill:#784421;fill-rule:evenodd;stroke:none" />
    <path
       d="m 294.625,62.0625 c -7.42606,-0.03745 -15.24722,1.499055 -23.21875,4.96875 -16.66758,7.254744 -38.30513,38.09742 -22.1875,70 18.49027,-34.06971 74.16882,-44.026502 95.09375,-29.78125 1.73454,4.18289 7.161,6.12742 11.1875,8.875 l 10.5,-8 c 3.69812,-1.00235 9.89126,-1.57342 16.25,0.75 0,0 -14.25,-11.750001 -20.75,-10.75 -3.14253,0.483466 -8.51071,3.54691 -14.03125,5.84375 C 342.22945,81.925991 320.93835,62.195187 294.625,62.0625 z"
       id="path3370"
       style="fill:#ffe6d5;fill-rule:evenodd;stroke:none" />
    <path
       d="m 326.34375,72.96875 c 3.26458,3.590097 8.55338,12.346158 5.21875,11.46875 -9.55692,-2.514619 -18.56751,-0.943343 -27.0625,-0.65625 -1.53755,-3.54182 1.89631,-5.614846 4.0625,-6.6875 -4.18766,-2.561707 -8.4907,-0.199934 -10.65625,1.4375 -1.4638,3.019192 0.54628,7.368338 12.15625,6 16.22397,-1.912138 28.53357,6.900344 36.0625,19.375 l -1.625,3.46875 0.0312,0.3125 c 1.92417,3.87702 7.08905,5.79009 10.96875,8.4375 l 10.5,-8 c 9.09395,-3.27498 5.20649,-3.55396 1.5,-3.875 -4.26429,2.12278 -4.75635,5.3922 -12.21875,5.6875 -2.2874,-1.81793 2.24394,-4.51257 3.5625,-6.78125 -2.7565,0.89286 -6.60068,5.92261 -7.8125,2.21875 L 350.125,102.65625 347.375,103 c -1.3559,-8.594896 -6.67177,-22.049438 -21.03125,-30.03125 z"
       id="path3295"
       style="fill:#784421;fill-rule:evenodd;stroke:none" />
    <path
       d="m 337.25,137.86218 c -2.5,3.5 -6.82655,1.36187 -7.75,4 -2.04239,5.83478 -1.7391,12.65624 -0.75,11.25 0.44947,-0.63903 4.5,-5.73935 4.5,-6 0,0 2.71427,7.75928 1.5,12 -3.13447,10.94686 -9.12818,15.07945 -20.5,31 l 0.69088,6.74807 c 7.72592,-5.38306 9.52618,-22.57172 16.30912,-23.74807 6.52175,-1.13105 14.75,8.25 18.5,12.5 1.33354,1.51135 2.5,12.25 2.5,12.25 l 2.10933,0.55821 c -0.46827,-7.44992 2.83229,-10.37037 6.97031,-0.54615 1.07177,-13.0428 -6.57335,-16.55523 -7.82964,-17.01206 -2.75,-1 -5,-0.25 -5,-0.25 l -12,-15.75 c 2.48092,-4.53815 2.25717,-14.48566 0.75,-27 z"
       id="path3339"
       style="fill:#784421;fill-rule:evenodd;stroke:none" />
    <path
       d="m 236.5,286.11218 c -23.42719,8.66725 -38.34263,18.94691 -60.5,25.25 0,0 -15.52316,-6.61254 -17,-6.25 -2.31936,0.56936 -18.72849,0.0268 -17.75,-0.75 0.60787,-0.48259 -11.77491,8.98962 -17.75,6.5 -1.40682,1.75852 1.81602,6.62587 3.75,9 2.46638,3.0277 16.63756,-2.53707 16.5,-3.5 l -3.5,6.25 c 0,0 -28.74174,10.74797 -28.5,11.75 1.05418,4.79374 4.2482,11.01553 5.00254,13.75019 0.86511,3.1362 4.83463,3.69327 10.99746,4.74981 2.37944,2.04654 3.947,4.98292 8.5,5.75 l 12,0.75 c 0,0 5,3.5 7.25,3.75 2.25,0.25 9.44285,-3.60285 10.5,-6.25 1.11394,-2.78935 2.5,-5.5 2.5,-5.5 0,0 10.75,-6.75 13,-10.5 1.18585,-1.97642 4,-6.5 4,-6.5 17.04077,-6.43795 38.56145,-10.63594 62.25,-13.75 l 11.5,-9.75 -22.75,-24.75 z"
       id="path3386"
       style="fill:#ffe6d5;fill-opacity:1;fill-rule:evenodd;stroke:none" />
    <path
       d="m 353.625,174.28125 c -3.90778,0.18463 -8.78125,1.5625 -8.78125,1.5625 L 348.5,180.625 c 8.8622,-1.10773 12.2957,7.74828 11.875,15.84375 -0.13133,2.52687 -1.6356,5.37074 -2.1875,7.3125 -23.93243,-8.99212 -27.09616,-5.3343 -41.1875,-8 l -0.21875,-1.0625 c -0.43045,0.4082 -0.8672,0.82421 -1.34375,1.15625 l 0.28125,-6.59375 -0.0937,-0.53125 c 0,0 -5.50088,1.36643 -9.3125,1.5625 -2.58343,2.53902 -1.1875,4.6875 0.6875,8.0625 2.5,4.5 -16.5,13.5 -19,18.5 -2.5,5 -10.85029,30.1933 -17.90625,34.09375 -10.78015,5.95912 -24.4414,14.11093 -16.59375,17.90625 0,0 -8.24969,-0.70645 -10.4375,1.40625 -3.20046,3.0906 -2.80025,6.37687 -1.21875,7.375 0.54274,0.0673 1.06616,0.13645 1.65625,0.21875 -0.62261,0.17789 -1.18406,0.0793 -1.65625,-0.21875 -6.08607,-0.75498 -9.16843,-0.33909 -7.53125,6.65625 -0.83764,0.55841 -4.7096,1.67026 -3.28125,3.78125 9.14825,0.63394 16.63679,11.37627 19.21875,16.78125 1.6381,3.42913 0.16907,14.34095 -9.6875,16.1875 0.2237,1.37526 3.07212,2.47063 7.3125,1.125 1.6233,3.92425 9.1173,3.61987 6.6875,2 5.42443,-2.53035 12.56271,-6.79868 16.4375,-8.8125 -2.22157,1.33294 8.4129,4.9126 14.5,2.5 5.31588,-2.10693 12.27578,-8.82735 14.1875,-14.5625 0.32265,-4.95847 -0.76281,-8.72637 -2.6875,-11.4375 13.34882,1.53443 11.91929,-18.44462 19.5,-29.5 0,0 25.24913,22.98175 35,29.5 -3.54264,4.38097 -5.53765,8.73147 -5.25,11.5 0.54581,5.25307 7.03086,7.07432 10.75,8.5 -3.04199,2.83183 -6.08302,3.34195 -9.125,10.40625 -0.0142,4.33791 0.99058,6.12731 2.125,7.59375 28.57921,-9.0162 58.73127,-18.75519 84.41465,-23.71724 L 445.15172,305.67843 445,293.375 c -2.24381,-3.38536 -3.07948,-8.53084 -7.40625,-9.3125 L 433.5,282.875 l 2.8125,-4.6875 c -3.00985,-2.57863 -3.8339,-4.74451 -6.84375,-10.5 L 427,267.375 c 2.4532,-3.83333 1.2772,-7.66667 1,-11.5 l -12,-14.6875 1.875,-6.3125 -4.09375,-4.09375 -2.65625,-18.9375 c -0.98691,-0.7916 -1.87605,-1.52798 -2.8125,-2.28125 L 418,207.875 l 28.5,5 12.5,-25.5 -8.5,-11.5 c -5.05322,4.65264 -8.74082,1.11158 -12.5,-2 l -4.5,3.5 c -7.0931,3.49797 -25.37435,5.11562 -40.5,2.78125 -9.30711,-0.5621 -24.21323,-6.53732 -32.59375,-0.21875 -2.80779,2.78232 -0.6531,-4.40317 -3.40625,-5.34375 -0.86903,-0.29689 -2.07241,-0.37404 -3.375,-0.3125 z"
       id="path3341"
       style="fill:#784421;fill-rule:evenodd;stroke:none" />
    <path
       d="m 236.5,286.125 c -1.2624,0.46704 -2.47207,0.96197 -3.6875,1.4375 10.71046,4.74 21.31638,22.0625 19.4375,22.0625 l -53.5,14.75 c -0.45212,-7.6271 -2.73911,-12.55999 -7.75,-18.1875 -4.72938,1.90794 -8.39749,3.16488 -13.75,4.6875 0,0 -2.03773,0.15039 -2.46875,-0.0312 2.93006,2.85925 6.18368,5.90116 7.21875,7.28125 2.25,3 -3.75,2.5 -6.25,3.5 -2.5,1 -8.5,-4.5 -10,-5.25 -1.5,-0.75 2,5.25 1.25,7.5 -0.17283,0.51848 -0.72283,0.83531 -1.46875,0.96875 -2.14385,-1.75511 -5.28125,-2.9688 -5.28125,-2.9688 0,0 -1.82891,-0.13641 -4.34375,-0.375 -2.61979,-2.83858 -7.72608,-10.64495 -9.40625,-11.125 -1.75,-0.5 -12.75,5.75 -17,5.75 -3.54558,0 -3.97746,-2.95198 -5.46875,-5.09375 -0.17551,-0.0512 -0.36522,-0.0871 -0.53125,-0.15625 -1.00789,1.25986 0.36922,4.1088 1.9375,6.5 -1.30411,0.25971 -2.1875,0.5 -2.1875,0.5 l -2.75,4.75 -1.625,8.34375 c -4.08447,1.68917 -7.20384,3.07945 -7.125,3.40625 1.05418,4.79374 4.24566,11.01534 5,13.75 0.86511,3.1362 4.83717,3.69346 11,4.75 2.37944,2.04654 3.947,4.98292 8.5,5.75 l 12,0.75 c 0,0 5,3.5 7.25,3.75 2.25,0.25 9.44285,-3.60285 10.5,-6.25 1.11394,-2.78935 2.5,-5.5 2.5,-5.5 0,0 10.75,-6.75 13,-10.5 1.18585,-1.97642 4,-6.5 4,-6.5 17.04077,-6.43795 38.56145,-10.63594 62.25,-13.75 l 11.5,-9.75 -22.75,-24.75 z m -92.875,30.46875 -1.46875,2.625 c -0.8373,-0.25393 -1.59887,-0.51445 -2.21875,-0.8125 1.81285,-0.7095 3.26009,-1.40241 3.6875,-1.8125 z m 29.34375,19.96875 c 2.97692,-0.0409 5.65687,0.5506 5.78125,2.0625 0.14348,1.74411 -7,6.5 -7,6.5 0,0 -3.5,-4.5 -7,-6 0.0678,-1.42133 4.39128,-2.50988 8.21875,-2.5625 z m -15.09375,4.28125 c 1.79035,0.10958 2.125,3.28125 2.125,3.28125 l -5.75,12 c 0,0 -1.3022,-0.38804 -2.71875,-1.5 -4.73024,2.13649 -10.12121,2.18371 -11.53125,1 2,0 7,-1 7,-1 4.85344,-3.22891 5.02073,-10.58829 10.5,-13.75 0.13265,-0.0217 0.25564,-0.0386 0.375,-0.0312 z M 137.21875,345.5 c 2.13755,0.0414 4.16149,0.7446 6.03125,2.125 l 2,5.75 -5.75,-1 c 0,0 -0.11622,-2.32936 -1.46875,-2.28125 -2.65614,0.0945 -4.33115,-2.16702 -4.78125,-3.96875 1.37182,-0.4216 2.68622,-0.64984 3.96875,-0.625 z m 29.25,3.09375 c 0.79651,0.37079 -2.71875,8.28125 -2.71875,8.28125 0,0 -0.75,0 -2.75,-1.75 0.25,0.5 3.75,-5.75 5.25,-6.5 0.0937,-0.0469 0.16565,-0.056 0.21875,-0.0312 z"
       id="path3388"
       style="fill:#784421;fill-rule:evenodd;stroke:none" />
    <path
       d="m 354.59375,174.25 c -0.30957,-0.003 -0.6431,0.0159 -0.96875,0.0312 -3.90778,0.18463 -8.78125,1.5625 -8.78125,1.5625 L 348.5,180.625 c 8.8622,-1.10773 12.2957,7.74828 11.875,15.84375 -0.0625,1.20211 -0.44442,2.47228 -0.875,3.6875 l 0.84375,0.15625 c 1.6464,-5.07647 1.5895,-10.03 -2.09375,-18.4375 l 2.25,0.5 c 4.68458,4.82286 2.38214,9.01412 1.34375,18.375 5.97463,-6.78109 5.10221,-10.43624 4.65625,-14.875 12.41667,9.5 16.92014,4.17492 37.25,28.5 5.77445,6.90924 3.46696,8.5115 4.25,11.5 -4.76834,-2.77918 -4.46432,-1.33138 -5.5,-1 3.43308,2.65328 9.21692,5.47672 9.5,7.5 l -1.25,5.5 c -4.00108,-2.83477 -6.46722,-4.78963 -8.5,-5 12.72049,14.80383 15.56572,15.73238 22.75,25 0.4881,12.84723 -5.83294,14.75046 -11,23.75 l 0,5 c 5.70234,-9.52661 8.95912,-14.28458 12,-12.5 l 2.5,8.75 c -10.29807,7.6095 -12.33393,8.33383 -18.5,12.5 -1.26526,2.68139 -2.39154,6.15163 7.34375,3.65625 -2.46045,-1.19833 -3.61534,-1.69767 -2.9375,-2.8125 1.83275,-3.01428 7.53235,-4.82596 11.09375,-7.34375 13.27277,0.13254 12.6155,13.88227 13.6875,17.25 l 7.53125,-0.15625 c 1.76307,-7.39225 -4.79823,-21.12459 -9.125,-21.90625 L 433.5,282.875 l 2.8125,-4.6875 c -3.00985,-2.57863 -3.8339,-4.74451 -6.84375,-10.5 L 427,267.375 c 2.4532,-3.83333 1.2772,-7.66667 1,-11.5 l -12,-14.6875 1.875,-6.3125 -4.09375,-4.09375 -0.40625,-7.625 c 11.7476,-0.73075 21.0926,-13.47451 34.125,-7.78125 l 2,-23.5 c 0,0 -22,6.5 -29,8 -7,1.5 -12.5,-9 -12.5,-9 l -14.6875,5.375 c -6.19502,-5.91966 -11.8494,-11.64129 -29.40625,-15.0625 -10e-6,0 -4.1531,-5.65317 -6.90625,-6.59375 -0.65177,-0.22267 -1.47753,-0.3341 -2.40625,-0.34375 z m -38.96875,14.5 c 0,0 -5.50088,1.36643 -9.3125,1.5625 -0.35617,0.35005 -0.62968,0.69181 -0.84375,1.03125 3.96653,0.63468 6.26167,2.49295 10,4.125 l 0.25,-6.1875 -0.0937,-0.53125 z m 1.15625,5.96875 c -0.32284,0.30615 -0.65594,0.59878 -1,0.875 0.0133,0.006 0.0179,0.0256 0.0312,0.0312 0.37006,-0.0598 0.7498,-0.10665 1.125,-0.15625 l -0.15625,-0.75 z m -9.59375,4.875 c -0.0938,0.59665 -0.44803,1.22228 -0.96875,1.90625 24.83329,-2.38498 37.09717,4.17358 53.03125,6.96875 1.51962,0.26657 2.37476,-2.49224 -0.25,-2.59375 -17.36984,-4.87753 -34.40626,-5.61758 -51.8125,-6.28125 z m 47.6875,12.75 c -1.60645,0.0534 -0.78254,0.51715 -2.625,0.53125 -6.47623,13.95074 4.91148,45.07835 -19.4375,41.84375 -1.71051,-3.03272 -8.08176,-0.5688 -9.8125,1.15625 0,0 -2.12336,-3.64245 0.75,-8.25 2.87336,-4.60755 8.75,-7.25 8.75,-7.25 l -3,-1.25 -6.25,2.25 -21.25,42 c -3.13244,3.91218 -5.18828,2.4414 -7,-0.25 -0.0988,-8.64462 3.97622,-8.24596 7.75,-8.5 -0.82914,-1.74209 1.14953,-2.38995 -6,-3.5 -4.72588,3.92069 -7.524,8.16267 -8.25,12.75 3.73009,7.06785 8.06064,14.74211 6.75,17.75 -3.43952,7.89359 -6.61988,9.5994 -11.75,12.25 -1.52459,-1.95278 -8.65362,-0.063 -0.5,-6.25 -6.68134,-8.77132 -18.38852,-9.82131 -25.5,-15.25 -4.28124,-3.26817 -5.70748,-4.6193 -6.53125,-6.03125 C 243.84405,283.42108 241.02923,283.9463 237,283.5 l 0.5,1.625 c 12.01834,4.25 16.69324,11.75 33.25,18.75 0.26757,13.36848 -8,11.41667 -12.75,13 l -7.21875,-3.75 c 1.02339,-3.08553 1.08566,-6.69691 0.34375,-8.25 -2.02742,-4.24413 -7.96273,-11.77718 -14.46875,-15.125 8.21805,5.8242 12.36722,16.55447 10.28125,19.875 -2.38938,3.80351 -3.55195,6.30151 -9.59375,12.46875 0.85021,-0.12803 1.70624,-0.25328 2.5625,-0.375 0.92222,1.07874 4.25842,1.64618 7.96875,0.46875 1.6233,3.92425 9.8673,3.61987 7.4375,2 5.42443,-2.53035 11.81271,-6.79868 15.6875,-8.8125 -2.22157,1.33294 8.4129,4.9126 14.5,2.5 5.31588,-2.10693 12.27578,-8.82735 14.1875,-14.5625 0.32265,-4.95847 -0.76281,-8.72637 -2.6875,-11.4375 13.34882,1.53443 11.91929,-18.44462 19.5,-29.5 0,0 2.49844,2.29239 6.0625,5.46875 L 339,282.875 c 0,0 1.75,-4 5.75,-4 4,0 26.72108,5.40348 33.25,3.5 6.44564,-1.8792 21.73019,-5.73375 27.25,-18 -9.00435,-14.79384 -24.39602,-30.81957 -43.75,-51.5 -3.83195,-0.44595 -5.66113,-0.56331 -6.625,-0.53125 z M 245.75,273.875 l -2.25,3 2.53125,3.71875 4.09375,1.59375 c -0.0411,-0.10709 -0.45783,0.59656 -0.59375,0.6875 8.0334,0.85518 10.15035,-1.95559 17.96875,4.75 1.37957,0.45234 -7.00361,1.6023 -6.09375,1.96875 2.57961,1.03894 3.91954,1.36986 7.34375,2.59375 3.42421,1.2239 6.37858,-1.16835 6.25,-2.8125 l -8,-8.5 -21.25,-7 z m 117.75,23.75 c -5.78436,0.81408 -9.19798,2.17493 -11.28125,6 l 3,0.1875 c 3.29745,5.59107 21.67411,0.26964 21.03125,-0.4375 l -19.15625,0 c 6.96597,-3.72932 16.86511,-0.3333 18.40625,-2.5 0,0 -6.87173,-3.48238 -12,-3.25 z m 6.4375,11.5625 c -4.623,2.00999 -11.71292,1.4354 -17,0.125 l -2.03125,0 c 2.0485,1.13692 4.36575,1.9001 6.09375,2.5625 -1.68765,1.57105 -3.37485,2.46719 -5.0625,4.125 4.27947,-2.1692 9.25238,-3.50493 15.0625,-3.375 l 2.9375,-3.4375 z"
       id="path3412"
       style="fill:#2b1100;fill-rule:evenodd;stroke:none" />
    <path
       d="m 459.2104,282.35323 c -2.65165,2.2981 -2.82843,3.53553 -2.65166,5.3033 0.17678,1.76777 4.24265,0.7071 4.24265,0.7071 0.0634,0.76902 -0.63231,1.03196 0.7071,2.65165 4.47399,1.29201 6.83667,-0.0576 9.19239,-0.35355 3.07434,1.69524 8.56393,0.17012 12.9047,0.17678 l 9.19239,-3.18198 c 6.77347,-4.94876 5.77471,-7.30677 8.66206,-10.96016 l -42.24963,5.65686 z"
       id="path2460"
       style="fill:#784421;fill-rule:evenodd;stroke:none" />
    <path
       d="m 489.875,175.96875 -11.85295,1.44914 c -1.51653,1.27454 -1.95037,1.31845 -3.28645,0.65533 L 456.46875,180.25 c -1.26609,0.45906 -2.2383,1.47271 -3.21875,2.375 l -1.5,1.84375 0.625,3.8125 -7.96875,9.53125 -1.3125,-3.4375 -9.4375,12.40625 0.875,2 -6.5625,8.15625 -1.71875,-2.28125 -2,3.71875 c 0,0 -0.75,2 -0.75,4.75 l 17.25,59 c 0,0 2.25,2.25 3.5,2.25 1.25,0 37.5,-3.75 37.5,-3.75 0,0 0.34973,-0.18012 0.8125,-0.53125 3.64407,-0.37228 4.90405,-0.52043 7.4375,-0.78125 l 0,0.0625 c 1.25,0 8.5,-0.75 8.5,-0.75 0,0 1.75,-0.75 3,-3.25 1.25,-2.5 -23.75,-94.5 -23.75,-94.5 -0.0221,-0.0548 -0.0396,-0.10301 -0.0625,-0.15625 l 7.34375,-0.75 C 511.99699,294.15924 528.91239,307.99337 494,178.75 c -0.79429,-1.96766 -2.10559,-2.95943 -4.125,-2.78125 z m -21.71875,6.1875 -0.15625,0.1875 0.625,3.8125 -5.09375,6.09375 C 462.42803,188.15955 461,182.875 461,182.875 l 7.15625,-0.71875 z"
       id="path2701"
       style="fill:#784421;fill-opacity:1;fill-rule:evenodd;stroke:none" />
    <path
       d="m 455.4375,180.96875 c -1.9768,0.46952 -3.30489,2.22731 -4.59375,3.75 0.77909,3.2226 2.3065,6.3928 2.4375,9.6875 -3.24986,3.64596 -6.50082,7.29094 -9.75,10.9375 -0.78064,-2.82774 -1.74888,-5.59813 -2.59375,-8.40625 -2.72917,3.375 -5.45833,6.75 -8.1875,10.125 0.70408,2.63575 1.95526,5.28675 1.96875,8 -2.3578,2.54785 -4.70296,5.10832 -7.09375,7.625 -0.69309,-2.23732 -1.41665,-4.46511 -2.15625,-6.6875 -1.82405,1.82831 -3.47406,4.25289 -2.90625,6.96875 0.53083,3.21335 1.98514,6.19204 2.65625,9.375 4.79139,16.45617 9.62922,32.91328 14.46875,49.34375 0.60402,0.69411 1.39112,1.18153 2.25,1.46875 0.73893,0.59177 1.65297,1.21875 2.3125,1.21875 1.25,0 37.5,-3.75 37.5,-3.75 0,0 1.75,-0.75 3,-3.25 l -3.15625,-2.15625 c -2.81085,-14.08243 -6.65841,-27.93001 -10.1875,-41.84375 -4.37872,-16.81027 -8.88187,-33.62052 -13.4375,-50.375 -0.54943,-0.93483 -1.25278,-2.18099 -2.53125,-2.03125 z"
       id="path3479"
       style="fill:#2b1100;fill-opacity:1;fill-rule:evenodd;stroke:none" />
    <path
       d="m 493.625,177.625 -16.375,1.75 23.5,93.5 -0.84375,1.1875 c 0.0889,-0.42312 0.13645,-0.88278 0.0937,-1.4375 l -23.5,-93.25 -16.25,1.75 24.25,95.25 -0.53125,0.46875 -2.375,-1.625 c -2.81085,-14.08243 -6.65841,-27.93001 -10.1875,-41.84375 -4.37872,-16.81027 -8.88187,-33.62052 -13.4375,-50.375 -0.54943,-0.93483 -1.25278,-2.18099 -2.53125,-2.03125 -1.9768,0.46952 -3.30489,2.22731 -4.59375,3.75 0.11051,0.45711 0.2405,0.91949 0.375,1.375 l -7.6875,9.25 c -2.14632,3.26129 -1.21752,5.73213 0.40625,7.5625 l 7.9375,-8.15625 0.59375,0.59375 c -2.52819,2.83607 -5.06588,5.66365 -7.59375,8.5 -0.44664,0.50114 -0.89717,0.99881 -1.34375,1.5 -0.78064,-2.82774 -1.74888,-5.59813 -2.59375,-8.40625 -2.63608,3.25988 -5.27017,6.52137 -7.90625,9.78125 0.0211,-0.19766 0.0526,-0.38989 0.0625,-0.59375 l -5.65625,7.78125 c -1.16045,1.76327 -1.41298,3.29546 -1.15625,4.625 -0.27445,-0.8426 -0.53268,-1.69042 -0.8125,-2.53125 -1.82405,1.82831 -3.47406,4.25289 -2.90625,6.96875 0.53083,3.21335 1.98514,6.19204 2.65625,9.375 4.79139,16.45617 9.62922,32.91328 14.46875,49.34375 0.60402,0.69411 1.39112,1.18153 2.25,1.46875 0.73893,0.59177 1.65297,1.21875 2.3125,1.21875 12.58972,-1.34322 25.40927,-2.14239 37.875,-3.96875 L 497.25,277.375 513.875,274 c 1.40174,-1.09826 3.70847,-2.79153 3.5,-5.5 l -23.75,-90.875 z m -41.9375,10.03125 c 0.72033,2.22989 1.50267,4.45919 1.59375,6.75 -0.0294,0.0329 -0.0644,0.0608 -0.0937,0.0937 -1.88341,-3.05438 -1.79,-4.99834 -1.5,-6.84375 z M 432.90625,207.625 c 0.7179,2.45095 1.79997,4.91678 1.8125,7.4375 -0.15066,0.16281 -0.28693,0.33711 -0.4375,0.5 -2.24852,-3.64438 -1.72499,-5.73623 -1.375,-7.9375 z M 433.25,215 l 0.5,1 -1.96875,2.25 c -0.19552,0.21137 -0.39804,0.41381 -0.59375,0.625 -1.17986,1.27318 -2.36711,2.55416 -3.5625,3.8125 -0.30122,-0.97234 -0.62596,-1.93717 -0.9375,-2.90625 0.24819,0.52912 0.56403,1.01729 0.9375,1.46875 L 433.25,215 z"
       id="path3497"
       style="fill:#2b1100;fill-rule:evenodd;stroke:none" />
    <path
       d="m 490,189.625 c -1.104,0 -1.99999,0.896 -2,2 0,1.104 0.89601,2 2,2 1.104,0 2.00001,-0.896 2,-2 0,-1.104 -0.89599,-2 -2,-2 z"
       id="path3536"
       style="fill:#784421;fill-rule:evenodd;stroke:none" />
    <path
       d="m 488.75,193.875 -2.25,2.25 3.75,14.75 2,-2.25 5.75,-2.25 -2.75,-9.75 -6.5,-2.75 z"
       id="path3534"
       style="fill:#784421;fill-rule:evenodd;stroke:none" />
    <path
       d="m 495.25,210.625 c -1.104,0 -1.99999,0.896 -2,2 0,1.104 0.89601,2 2,2 1.104,0 2.00001,-0.896 2,-2 0,-1.104 -0.89599,-2 -2,-2 z"
       id="path3532"
       style="fill:#784421;fill-rule:evenodd;stroke:none" />
    <path
       d="m 497.125,220.375 c -1.863,0 -3.37501,1.512 -3.375,3.375 0,1.863 1.51199,3.375 3.375,3.375 1.863,0 3.37499,-1.512 3.375,-3.375 0,-1.863 -1.51201,-3.375 -3.375,-3.375 z"
       id="path3530"
       style="fill:#784421;fill-rule:evenodd;stroke:none" />
    <path
       d="m 501.43819,231.00558 0.22758,0.92101 2.44559,-0.40124 2.60193,10.53028 -2.44559,0.40127 0.25793,1.04383 4.1575,-0.68216 -3.08744,-12.49515 -4.1575,0.68216 z"
       id="rect3538"
       style="fill:#784421;fill-opacity:1;stroke:none" />
    <path
       d="m 495.37753,232.10913 0.22758,0.92101 2.44559,-0.40124 2.60193,10.53028 -2.44559,0.40127 0.25793,1.04383 4.1575,-0.68216 -3.08744,-12.49515 -4.1575,0.68216 z"
       id="path3543"
       style="fill:#784421;fill-opacity:1;stroke:none" />
    <path
       d="m 505.33464,246.50558 0.22758,0.92101 2.44559,-0.40124 2.60193,10.53028 -7.19559,1.40127 0.25793,1.04383 8.9075,-1.68216 -3.08744,-12.49515 -4.1575,0.68216 z"
       id="path3545"
       style="fill:#784421;fill-opacity:1;stroke:none" />
    <path
       d="m 173.48811,310.37494 -5,-2.28554 10.08148,-3.44975 c 15.93475,-8.3e-4 21.01086,20.1976 13.99569,29.96626 l -9.94239,3.47487 2.77513,-3.84619 c 6.14679,-7.83759 -6.84746,-26.42343 -11.90991,-23.85965 z"
       id="path3424"
       style="fill:#2b1100;fill-rule:evenodd;stroke:none" />
    <path
       d="m 487.125,292.1875 c -18.48537,1.2828 -33.7482,8.92123 -45.21875,15.46875 0,0 -93.87953,20.02653 -99.03125,38.34375 -2.02258,-0.0387 0.58562,9.384 -2.125,16.5625 -8.84112,23.41386 -3.14708,53.05856 31.90625,67 C 388.52402,435.87344 423,422.12501 423,422.125 l 30.9375,4.03125 -1.9375,-3.625 c 1.13309,-0.50388 2.09375,-1.17738 2.09375,-2.0625 -10e-6,-2.25 -5.5,-3.40625 -4.5,-5.15625 0.99999,-1.74999 11.15625,-6.4375 11.15625,-6.4375 7.14918,-4.07394 16.50474,-5.49761 25.8125,-5.84375 8.72738,0.84689 12.11034,1.13631 19.25,2.09375 l 1.90625,12.4375 20.03125,-4.59375 1.71875,5.15625 5.75,2.875 c 0,0 -5.69169,4.95363 -2.875,5.71875 6.1961,1.68313 10.694,18.8888 10.875,19.46875 -2.37183,-0.51146 -0.68213,-2.02888 -2.8125,-0.28125 -2.77138,6.00466 -3.89557,6.34735 -0.4375,7.375 3.30262,0.98145 5.93187,9.86328 7.84375,21.25 17.12783,0.26275 66.75589,-14.81456 70.21875,-21.71875 -1.10199,-7.02644 -7.31437,-14.67036 -7.875,-17.09375 -0.9238,-3.9932 -6.04929,-11.68717 -9.21875,-7.84375 -0.36421,0.44165 -1.11911,1.0011 -2.15625,1.65625 -2.61158,-5.86634 -18.66947,-42.51979 -20.0625,-60.0625 -0.68675,-8.64848 -55.73176,-23.84162 -66.96875,-26.90625 -0.70236,-9.80011 0.60912,-16.10511 -2.875,-31.46875 0,0 -6.29484,-13.75453 -21.75,-18.90625 z m 17.75,72.125 0.0312,0.59375 c -0.80567,-0.0256 -1.62968,-0.0261 -2.46875,-0.0312 l 2.4375,-0.5625 z m -58.46875,13.0625 c -0.16904,0.10013 -0.33658,0.21181 -0.5,0.3125 l 0,-0.1875 0.5,-0.125 z"
       id="path3430"
       style="fill:#784421;fill-rule:evenodd;stroke:none" />
    <path
       d="m 613.25,492.875 -10.1875,2.28125 c 0.0484,2.21827 1.75,5.84375 1.75,5.84375 3.07773,-1.66033 6.28507,-2.10664 10.28125,-1.84375 L 613.25,492.875 z m 3.03125,10.4375 -10.1875,2.28125 c 0.0485,2.21828 1.75,5.84375 1.75,5.84375 3.07769,-1.66035 6.28507,-2.10664 10.28125,-1.84375 l -1.84375,-6.28125 z m 2.78125,10.625 -10.25,1.84375 c -0.0418,2.21838 1.5,5.9375 1.5,5.9375 3.14263,-1.53391 6.36155,-1.86253 10.34375,-1.4375 l -1.59375,-6.34375 z m -8.46875,12.59375 c -0.43514,2.1757 0.4375,6.09375 0.4375,6.09375 3.36509,-0.95131 6.59412,-0.68812 10.4375,0.4375 l -0.4375,-6.53125 -10.4375,0 z"
       id="path3306"
       style="fill:#2b1100;fill-rule:evenodd;stroke:none" />
    <path
       d="m 487.125,292.1875 c -6.44173,1.22774 -4.31571,-0.11394 -10.71875,2 -5.37566,3.0098 -21.20017,18.05063 -44.96875,25.53125 -34.12352,10.7396 -48.21743,22.62646 -53.8125,27.96875 l -9.125,-6.34375 c 23.02208,-13.04604 47.56128,-23.77948 68.875,-32.6875 -11.48867,2.61043 -42.88396,10.12435 -66.40625,19.21875 -0.009,-1.08068 0.12508,-2.16576 0.25,-3.1875 0.65378,-0.74046 0.54353,0.006 0.90625,-0.96875 -0.0832,-0.68482 -0.75249,-0.42145 -1.5625,-0.53125 -1.52107,0.54099 -3.0403,1.27479 -4.25,1.75 -0.55572,2.03014 -1.3249,3.1074 -1,5.21875 -11.96745,5.07109 -20.94215,10.52695 -22.4375,15.84375 -2.02258,-0.0387 0.58562,9.384 -2.125,16.5625 -8.84112,23.41386 -3.14708,53.05856 31.90625,67 C 388.52402,435.87344 423,422.12501 423,422.125 l 29.5625,3.84375 c 0.034,0.008 0.0595,0.0234 0.0937,0.0312 6.29133,1.43321 8.47139,2.30326 8.59375,-0.875 l -0.5,-16.25 c 0,0 -3.42993,1.58003 -6.5,3.25 -0.44228,-0.97809 -0.57125,-0.79195 -1.59375,-1.09375 -0.6765,-0.4961 -1.58566,-1.95636 -1.8125,-5.8125 -0.46209,-7.85569 -0.44493,-6.49534 -0.90625,-12.03125 l -1,0.0937 c 0.46246,5.54966 0.44456,4.15119 0.90625,12 0.23507,3.99613 1.16313,5.75713 2.21875,6.53125 0.79171,0.58059 0.75718,0.741 1.125,0.65625 -2.13872,1.1715 -3.18671,2.13142 -3.59375,2.84375 -1,1.75 3.99999,2.90625 4,5.15625 0,0.81713 -0.32867,1.44585 -1.34375,1.9375 -0.0705,0.052 -0.14143,0.10792 -0.21875,0.15625 L 452,422.53125 c -1.51671,0.67446 -3.36224,1.03552 -3.75,1.0625 C 439.49471,420.44283 439,413.375 439,413.375 c 0,0 1.5,-21.5 1,-29.5 3.28198,-5.76409 10.01127,-8.51737 15.6875,-10.84375 0.36755,6.47203 0.66311,21.21029 1.09375,28.53125 0.23507,3.99612 1.16313,5.78838 2.21875,6.5625 1.05562,0.77412 2.15625,0.34375 2.15625,0.34375 l -0.375,-0.90625 c 0,0 -0.511,0.2461 -1.1875,-0.25 -0.6765,-0.4961 -1.58566,-1.92512 -1.8125,-5.78125 -0.43249,-7.35241 -0.48156,-22.39722 -0.875,-28.84375 12.62962,-4.49909 29.96276,-7.70012 43.75,-7.84375 9.31063,-0.097 16.95349,0.96208 20.34375,3.53125 3.28613,2.49025 0,4 -2,10.5 -1.65221,5.36969 0.37549,26.11118 1.15625,33.75 l -5.21875,-0.90625 c -0.53692,-6.03581 -6.6473,-6.70833 -8.3125,-7.34375 l 0.125,13.5 12,-1 c 0,0 0.99486,0.0295 2.25,-1.8125 l 6.75,-2.09375 1.71875,5.15625 5.75,2.875 c 0,0 -5.69169,4.95363 -2.875,5.71875 4.90863,1.3334 6.98777,13.57935 9.59375,19.5625 6.76881,1.41256 19.67561,-1.71688 31.71875,-5.84375 1.14766,4.42035 2.09539,9.41089 3.0625,14.09375 1.09887,5.32085 2.23017,10.19978 3.90625,13.3125 L 581.5,467.375 c -1.5572,-2.89193 -2.71735,-7.72845 -3.8125,-13.03125 -0.96931,-4.69345 -1.89432,-9.72776 -3.0625,-14.21875 10.31884,-3.59557 19.85555,-7.87702 24.15625,-10.59375 -2.61158,-5.86634 -18.66947,-42.51979 -20.0625,-60.0625 -0.68675,-8.64848 -55.73176,-23.84162 -66.96875,-26.90625 -0.70236,-9.80011 0.60912,-16.10511 -2.875,-31.46875 0,0 -6.29484,-13.75453 -21.75,-18.90625 z m -19.78125,22.875 c 2.15714,7.46803 -18.07858,27.84452 -21.125,42.71875 5.21883,-10.86262 10.37108,-16.76386 17.28125,-25.8125 1.51498,-1.98382 5.02829,-9.0435 6.5625,-11.25 2.41301,6.83689 -4.92182,19.12518 -13.34375,28.59375 -7.75121,8.71449 -13.53125,25.40624 -13.53125,25.40625 l -1.59375,-6.03125 c 1.40638,-3.75663 2.76694,-7.00131 4.125,-9.90625 l -1.625,-8.40625 c -2.25459,-2.46937 -2.19426,-2.68767 1.09375,-5.875 1.62622,-7.15687 8.15947,-13.11295 16.59375,-21.375 1.90693,-1.86797 3.43279,-6.23246 5.5625,-8.0625 z m -21.625,43.71875 0.1875,0.96875 c 0.0639,-0.64204 0.17614,-1.30299 0.3125,-1.96875 -0.15956,0.33212 -0.34026,0.65831 -0.5,1 z m -91.8125,-8.21875 7.0625,3.1875 c -6.01152,7.18812 -32.3209,20.34899 -8.46875,58.6875 -7.89321,-9.01004 -21.89633,-19.49494 -7.4375,-55.5 l 8.84375,-6.375 z m 213.3125,97.03125 -0.9375,0.28125 c 1.3811,4.83379 1.81777,7.36485 2.34375,9.46875 0.52598,2.1039 1.1214,3.78796 2.75,6.8125 l 0.90625,-0.5 c -1.60468,-2.98011 -2.1742,-4.50933 -2.6875,-6.5625 -0.5133,-2.05317 -0.98468,-4.63395 -2.375,-9.5 z"
       id="path3434"
       style="fill:#2b1100;fill-rule:evenodd;stroke:none" />
    <path
       d="m 446.78125,307.1875 c -31.07911,3.60816 -55.53257,9.70177 -73.3125,16.0625 l -2.71875,1.125 c -0.43575,2.61228 -0.0288,7.70304 2,11.5 15.94793,-5.92614 30.57635,-10.34144 45.9375,-13.28125 l 28.09375,-15.40625 z m -80.8125,18.96875 C 347.49673,333.67527 337.93017,341.16154 338,344.875 l 2,12 2.25,0.5 -0.25,-2.5 c 0.22489,-6.82053 11.55078,-10.51034 26.28125,-16.84375 -1.75912,-2.553 -3.13693,-8.66317 -2.3125,-11.875 z"
       id="path3417"
       style="fill:#784421;fill-rule:evenodd;stroke:none" />
    <path
       d="m 491.59375,402.6875 c -1.71309,0.0247 -3.4093,0.14569 -5.03125,0.34375 -9.30776,0.34614 -18.66332,1.76981 -25.8125,5.84375 0,0 -2.67517,1.22311 -5.40625,2.65625 1.78243,2.22805 4.3125,5.375 4.3125,5.375 l 0.28125,2.03125 c 10e-6,-10e-6 -6.12953,3.1485 -7.78125,4.59375 -2.30547,2.0173 -2.3125,3.75 -2.3125,3.75 10e-6,10e-6 0.31259,1.73271 2.90625,3.75 2.59365,2.0173 7.46875,1.75 7.46875,1.75 0.082,14.50291 -2.45694,10.65376 -3.75,15.53125 -0.86456,2.88183 -0.28125,8.09375 -0.28125,8.09375 -12.86212,6.98998 -13.51138,26.84167 -13.8125,29.96875 l -1.4375,0.28125 c 10e-6,0 -3.76387,9.21533 -3.1875,10.65625 3.13791,7.81574 20.07006,15.4439 22.78125,14.125 2.75927,-2.64045 6.90283,-2.00342 8.34375,-0.5625 1.44093,1.44092 4.51773,7.41507 4.3125,10.375 -0.95581,13.78504 67.16546,12.54485 67.4375,1.4375 0.0353,-1.4405 0.875,-8.0625 0.875,-8.0625 l -4.625,-4.0625 c -2e-5,0 2.12599,-7.03608 -0.5625,-9.5 -3.25345,-2.9817 -26.54361,-14.75401 -27.375,-19.875 -0.26125,-1.60915 0.28125,-3.1875 0.28125,-3.1875 -2.59365,-14.21709 -12.88293,-6.20819 -7.78125,-42.65625 l 4.90625,0.3125 1.28125,-17.8125 -0.375,0.0312 -0.5,-13.375 c -4.64264,-1.20218 -10.01699,-1.8865 -15.15625,-1.8125 z"
       id="path2457"
       style="fill:#784421;fill-rule:evenodd;stroke:none" />
    <path
       d="m 491.0625,440.40625 c -2.47706,0.0233 -5.18255,0.45621 -8.34375,1.59375 0.57638,1.44092 0.8155,6.25789 3.15625,4.875 3.50026,-2.06794 13.82658,-0.30645 15,0.875 1.32272,1.33177 1.71875,-5.75 1.71875,-5.75 -3.91786,-0.56997 -7.40281,-1.63266 -11.53125,-1.59375 z m -0.8125,12.3125 c -2.6797,0.074 -5.5263,0.51871 -8.6875,1.65625 0.57636,1.44091 0.8155,6.28914 3.15625,4.90625 3.50027,-2.06791 16.98283,-0.0252 18.15625,1.15625 1.32274,1.33176 -0.28125,-6.34375 -0.28125,-6.34375 -3.91785,-0.56998 -7.87759,-1.49834 -12.34375,-1.375 z m 7.15625,9.65625 c -5.49406,-4e-4 -11.6326,1.97512 -16.4375,5.84375 0.57637,1.44091 1.37567,6.93326 3.1875,4.90625 3.39755,-3.80104 13.32824,-6.21034 20.46875,-4.90625 1.84648,0.33722 -0.3125,-4.625 -0.3125,-4.625 -2.04899,-0.82533 -4.40895,-1.21857 -6.90625,-1.21875 z m 7.34375,8.15625 c -7.54285,-0.1021 -13.84704,3.52622 -19.75,8.34375 0.57638,1.44092 0.21942,6.65201 2.03125,4.625 3.39755,-3.80106 17.87609,-12.55844 22.46875,-6.9375 0.98192,1.20179 -1.4375,-5.75 -1.4375,-5.75 -1.13086,-0.1745 -2.23495,-0.26666 -3.3125,-0.28125 z"
       id="path3290"
       style="fill:#2b1100;fill-rule:evenodd;stroke:none" />
    <path
       d="m 491.59375,402.6875 c -1.71309,0.0247 -3.4093,0.14569 -5.03125,0.34375 -9.30776,0.34614 -18.66332,1.76981 -25.8125,5.84375 0,0 -2.67517,1.22311 -5.40625,2.65625 0.52892,0.66116 0.70631,0.877 1.28125,1.59375 1.17498,-0.45816 2.75765,-1.03269 4.625,-1.65625 l 0.875,1.5625 11.09375,0.28125 c 0.3153,-1.94709 0.61823,-3.87928 0.75,-5.78125 2.89576,-0.83727 5.22097,-1.48081 5.4375,-1.4375 0.49664,0.0993 0.23857,4.29028 0.0312,6.9375 -1.8e-4,-6e-5 -0.0312,0 -0.0312,0 0.0132,0.008 0.01,0.0576 0,0.125 -0.0682,0.47183 -0.75209,2.23081 -2.90625,3.03125 -1.93389,0.71859 -13.11465,0.30729 -14.84375,-0.125 -1.72911,-0.43227 -1.84376,-1.87499 -1.84375,-1.875 l -1.625,0.90625 c 0.45274,0.56355 1.46875,1.8125 1.46875,1.8125 l 0.21875,1.6875 c 0.30939,-0.0186 0.62484,-0.0369 0.9375,-0.0937 1.19201,-0.21672 10.6475,-0.36882 14.96875,0.65625 1.42471,0.33796 1.15167,0.82117 1.4375,1.5 0.005,0.0108 0.0245,0.0212 0.0312,0.0312 L 476.9375,435.5 c -1.11343,1.3376 -6.24888,1.95929 -13.53125,0.71875 1.28984,3.15559 14.46761,3.4068 16.125,0.875 l 11.5625,0 c -4.56978,25.5916 -1.06703,38.91156 4,45.53125 l -4.90625,7.78125 c 0,0 -10.93065,-2.88887 -13.8125,-2.3125 -2.88184,0.57637 -6.34374,8.65626 -6.34375,8.65625 -8.24485,-4.83088 -15.84317,-3.23685 -24.78125,-15 l 0,6.9375 c 3.26933,3.82195 6.44816,6.41852 10.09375,8.34375 6.79921,3.59067 12.87621,5.18257 15.5625,8.65625 11.32799,14.64841 27.32781,16.25194 33.45693,15.93583 0,0 2.00682,-0.28457 0.56592,3.17363 -7.4928,0.86454 -8.08895,0.76894 -11.83535,-0.67196 l -4.125,5.90625 c 18.96272,3.05768 48.59462,0.46376 51.4375,-6.34375 0.0516,-0.12361 0.0913,-0.24861 0.125,-0.375 0.009,-0.0416 0.0235,-0.0833 0.0312,-0.125 0.0369,-0.16871 0.0583,-0.32645 0.0625,-0.5 0.0353,-1.4405 0.875,-8.0625 0.875,-8.0625 l -4.5625,-4 -0.0625,-0.0625 c -2e-5,0 2.12599,-7.03608 -0.5625,-9.5 -3.25345,-2.9817 -26.54361,-14.75401 -27.375,-19.875 C 508.6762,479.57835 509.2187,478 509.2187,478 c -2.59365,-14.21709 -12.88293,-6.20819 -7.78125,-42.65625 l 4.90625,0.3125 1.28125,-17.8125 -0.375,0.0312 -0.5,-13.375 c -4.64264,-1.20218 -10.01699,-1.8865 -15.15625,-1.8125 z m -9.90625,3.71875 16.59375,1.5 0,25.71875 c -6.19285,0.7039 -12.44176,0.63945 -18.65625,0.28125 l 0.25,-13.09375 c 3.28937,-0.32804 8.46876,-1.43751 8.46875,-1.4375 0,-10e-6 0.97739,-1.88546 -0.0312,-2.75 -0.79855,-0.68448 -5.12198,-2.22644 -7.21875,-2.96875 l 0.59375,-7.25 z m -9.46875,1.65625 c -0.0446,1.04421 -0.12525,2.07771 -0.28125,3.09375 -3.55112,0.816 -7.60441,0.78685 -8.96875,0 l -0.0937,-0.21875 c 3.12259,-1.0171 6.3442,-1.98908 9.34375,-2.875 z m -3.78125,13.46875 3.90625,2.0625 c 0.69802,2.93179 0.56394,5.65721 0.15625,8.3125 -3.5511,0.81601 -7.60441,0.78685 -8.96875,0 l -0.71875,-1.71875 4.03125,-1.46875 -8.34375,0 0.5625,1.46875 1.75,0.28125 1.875,3.3125 11.09375,0.28125 c 0.63403,-3.91529 1.27154,-7.83455 0.40625,-11.375 -1.85688,-0.6186 -3.79979,-0.91339 -5.75,-1.15625 z m 29.625,15.5625 1.0625,0 c -3.82561,29.09557 1.97426,28.65643 7.21875,37.75 l -1.65625,1.375 c -4.62328,-8.36351 -11.45575,-12.4825 -6.625,-39.125 z m 6.11113,44.77765 1.01387,3.0661 c 17.06815,6.55217 25.41559,18.46813 21.84375,27 -7.77365,3.72826 -15.24691,2.82832 -20.40625,3.25 -12.11232,0.98994 -34.28125,-15.28124 -34.28125,-15.28125 -0.56549,-0.68824 -1.12158,-5.25837 4.3125,-8.9375 2.05755,-1.39306 14.40626,1.35757 14.40625,2.03125 l 6.34375,-10.65625 6.76738,-0.47235 z m -45.39238,24.65985 -1.25,4.71875 c 1.39482,0.35494 2.47327,0.44374 3,0.1875 1.70602,-1.63256 3.95159,-2.00736 5.75,-1.71875 -2.34273,-1.15981 -5.82348,-2.81494 -7.5,-3.1875 z"
       id="path3238"
       style="fill:#2b1100;fill-rule:evenodd;stroke:none" />
    <path
       d="m 120.25,328.875 -16.4375,5.25 4.4375,12 15.25,1.75 -3,-12.75 14,-5 -14.25,-1.25 z"
       id="path3353"
       style="fill:#ffe6d5;fill-rule:evenodd;stroke:none" />
    <path
       d="m 114.75,332.61218 0.25,-6 3,-0.25 c -1.04135,-13.27313 15.40386,-9.23184 16.25,0 l 5.25,0.25 0.75,13 -3.75,-1.5 -1,-8.75 -4.5,-0.5 c -1.98331,-8.6633 -11.49173,-8.04739 -10,0.5 l -6.25,3.25 z"
       id="path3358"
       style="fill:#ffe6d5;fill-rule:evenodd;stroke:none" />
    <path
       d="m 349.5,325.11218 c 0.75,-3.5 9.25,-4.75 10.25,-1.5 1.15429,7.03806 1.36044,11.92094 -0.75,18.75 l -12.25,-1.75 2.75,-15.5 z"
       id="path3500"
       style="fill:#2b1100;fill-rule:evenodd;stroke:none" />
    <path
       d="m 346.25,324.36218 c 0.75,-3.5 9.25,-4.75 10.25,-1.5 1.15429,7.03806 1.36044,11.92094 -0.75,18.75 l -12.25,-1.75 2.75,-15.5 z"
       id="path3503"
       style="fill:#784421;fill-rule:evenodd;stroke:none" />
    <path
       d="m 169.1875,324.15625 c -1.00229,0.0108 -2.00928,0.0512 -3.03125,0.0937 l 0,6.96875 c 32.17763,-1.45928 52.4039,13.36198 63.3125,33.6875 4.11045,7.65883 6.77368,16.15215 8.15625,24.84375 -20.5674,3.63693 -41.1559,17.48082 -56.8125,45 -8.50632,14.95133 -11.22721,25.64342 -9,33.53125 1.11361,3.94392 3.71115,7.04871 7.0625,8.71875 3.35135,1.67004 7.28337,2.05514 11.40625,1.59375 16.49153,-1.84558 38.06173,-16.89892 48.375,-40 5.73789,-12.85251 8.00022,-27.92768 6.75,-42.90625 8.80043,-0.44906 17.48047,1.10635 25.59375,4.28125 1.00385,0.39283 1.92103,0.995 2.90625,1.4375 -7.6579,17.7725 -12.15873,38.17777 -11.53125,59.90625 0.50012,17.3182 3.68645,31.10305 8.5,41.125 4.81355,10.02195 11.33167,16.53383 18.9375,18.15625 7.60583,1.62242 15.41472,-2.34105 21.0625,-10.53125 5.64778,-8.1902 9.74794,-20.66493 11.5,-37.875 3.19247,-31.35888 -14.20105,-59.76559 -39.09375,-73.96875 10.95682,-22.16952 26.97339,-39.15527 43.0625,-47.21875 -2.29904,4.04303 -4.18823,8.85005 -5.5,14.59375 -4.22099,18.48193 -3.30772,46.01049 5.25,84.375 3.36529,15.08668 9.435,27.89835 16.8125,36.96875 7.3775,9.0704 16.27849,14.67434 25.375,13.84375 9.09651,-0.83059 16.94536,-8.36023 21.8125,-22.09375 4.86714,-13.73352 7.25311,-34.09661 5.84375,-62.90625 -0.59725,-12.20878 -2.15112,-22.73158 -4.4375,-31.875 6.56638,12.16923 12.4379,26.59126 16.625,43.5 l 6.8125,-1.6875 c -6.73448,-27.19583 -17.47339,-49.09828 -29.4375,-64.375 -11.96411,-15.27672 -25.1735,-24.2269 -37.65625,-24.21875 -3.64551,0.002 -7.16489,0.95058 -10.40625,2.625 -4.50703,0.92881 -9.04066,2.44444 -13.46875,4.59375 -18.17584,8.82218 -35.53876,27.02401 -47.1875,50.71875 -1.10189,-0.49508 -2.12609,-1.15394 -3.25,-1.59375 -9.10456,-3.56281 -18.91037,-5.19437 -28.875,-4.53125 -1.50173,-9.51055 -4.43328,-18.83479 -9,-27.34375 -11.19523,-20.85958 -32.28705,-36.62324 -63.125,-37.40625 -1.10135,-0.028 -2.21757,-0.0434 -3.34375,-0.0312 z m 177.09375,21.40625 c 0.69803,-0.019 1.40463,-9.5e-4 2.09375,0.0312 6.77676,0.31662 13.13348,2.74162 18.78125,7.5 11.29554,9.51677 20.13481,29.37551 21.78125,63.03125 1.38227,28.25579 -1.06627,47.91578 -5.4375,60.25 -4.37123,12.33422 -10.13966,16.91667 -15.84375,17.4375 -5.70409,0.52083 -12.79495,-3.26813 -19.3125,-11.28125 -6.51755,-8.01312 -12.24981,-19.94332 -15.40625,-34.09375 -8.42353,-37.76293 -9.08021,-64.51039 -5.25,-81.28125 1.91511,-8.38543 4.91091,-14.22369 8.375,-17.84375 1.21921,-1.27411 2.52194,-2.21396 3.84375,-3 2.16122,-0.40701 4.28091,-0.69315 6.375,-0.75 z M 238.375,396.46875 c 1.10785,13.80344 -0.92567,27.70507 -6.09375,39.28125 -9.24369,20.70529 -30.06081,34.45145 -42.78125,35.875 -3.18011,0.35589 -5.75875,-0.0385 -7.5,-0.90625 -1.74125,-0.8677 -2.8257,-2.06633 -3.46875,-4.34375 -1.28611,-4.55485 0.26647,-13.99028 8.34375,-28.1875 14.77005,-25.96091 33.18781,-38.47385 51.5,-41.71875 z m 42,8.09375 c 22.26262,12.99342 37.92813,38.75784 35.0625,66.90625 -1.67341,16.4375 -5.68007,27.90722 -10.3125,34.625 -4.63243,6.71778 -9.2923,8.62713 -13.84375,7.65625 -4.55145,-0.97088 -9.85061,-5.50941 -14.09375,-14.34375 -4.24314,-8.83434 -7.3342,-21.7185 -7.8125,-38.28125 -0.59154,-20.48389 3.76414,-39.77899 11,-56.5625 z"
       id="path3241"
       style="fill:#ffe6d5;fill-opacity:1;fill-rule:evenodd;stroke:none" />
    <path
       d="m 405.40154,428.43197 c -1.4011,-7.38914 12.42548,-7.76097 14.25542,-5.60428 1.82995,2.15669 4.60762,14.17374 4.60762,14.17374 l 2.43039,0.9517 3.31273,8.54917 c 0,0 3.89275,7.59336 3.77022,9.08834 -0.12253,1.49499 -4.02336,3.18199 -4.02336,3.18199 l -0.58413,-2.05458 -13.55288,3.15347 -5.24877,2.83072 -3.05123,0.50244 -4.73837,-18.69954 c 0,0 0.99255,-2.92871 2.21384,-5.58784 0.60841,-1.3247 0.053,-6.76828 0.60852,-10.48533 z"
       id="path3469"
       style="fill:#784421;fill-rule:evenodd;stroke:none" />
    <path
       d="m 410.67921,461.97517 4.10929,14.13289 4.12958,-1.41741 -4.54635,-14.92123 -3.69252,2.20575 z"
       id="path3476"
       style="fill:#ffe6d5;fill-rule:evenodd;stroke:none" />
    <path
       d="m 418.9385,474.44149 15.08872,-3.52928 -4.54636,-14.92123 -15.33788,3.50885 4.79552,14.94166 z"
       id="path3478"
       style="fill:#784421;fill-rule:evenodd;stroke:none" />
    <path
       d="m 416.452,421.76266 c -0.43008,-0.043 -0.87254,-0.0421 -1.34436,-0.0475 l 1.50937,10.65891 4.02646,8.87255 c 1.16805,2.57385 -2.51672,3.18386 -4.00591,6.17943 6.63343,-7.48315 11.69443,4.21936 11.98854,6.75185 -4.77497,0.11032 -11.06123,3.35768 -11.06123,3.35768 l -6.43333,1.98112 -3.83853,3.60475 0.0235,0.096 3.05124,-0.50244 5.24876,-2.83072 13.55288,-3.15347 0.58413,2.05458 c 0,0 3.90084,-1.687 4.02336,-3.18199 0.12253,-1.49499 -3.77022,-9.08834 -3.77022,-9.08834 l -3.21063,-9.79499 -3.28409,-2.77754 c 0,0 -2.02607,-8.9454 -3.85601,-11.10208 -0.45749,-0.53917 -1.67223,-0.92485 -3.20392,-1.07781 z"
       id="path3471"
       style="fill:#2b1100;fill-rule:evenodd;stroke:none" />
    <path
       d="m 167.125,329 c -2.55567,0.0339 -5.19181,0.18689 -7.90625,0.4375 l 0.25,2.3125 c 25.79657,-2.83247 44.5372,4.22382 57.375,16.40625 C 205.57637,336.3527 189.30801,328.70577 167.125,329 z m 177.0625,14.46875 c -7.06703,0.68759 -13.39147,2.42059 -19.96875,5.40625 -16.35711,7.42508 -32.35569,25.67422 -43.3125,47.84375 0.83096,0.47413 1.65499,0.96339 2.46875,1.46875 9.94011,-19.83462 24.44386,-35.66735 38.59375,-44.71875 3.02563,-1.93543 6.97432,-3.71634 10.46875,-5.0625 -2.71782,3.63697 -5.29023,9.68595 -6.875,16.625 -3.83021,16.77086 -3.17354,43.51831 5.25,81.28125 3.15644,14.15043 8.88869,26.08062 15.40625,34.09375 1.38599,1.70404 2.79975,3.21009 4.21875,4.53125 -0.70412,-0.75688 -1.40025,-1.55361 -2.09375,-2.40625 -6.51755,-8.01312 -12.24981,-19.94332 -15.40625,-34.09375 -8.42353,-37.76293 -9.08021,-64.51039 -5.25,-81.28125 1.91511,-8.38543 4.91091,-14.22369 8.375,-17.84375 1.21921,-1.27411 2.52194,-2.21396 3.84375,-3 2.88163,-0.54268 5.71225,-0.84754 8.46875,-0.71875 6.77676,0.31662 13.13348,2.74162 18.78125,7.5 0.35299,0.2974 0.71446,0.6198 1.0625,0.9375 -1.04445,-1.11999 -2.09258,-2.14 -3.1875,-3.0625 -5.64777,-4.75838 -12.0045,-7.18339 -18.78125,-7.5 -0.68912,-0.0322 -1.36447,-0.019 -2.0625,0 z M 222.03125,343.625 c 4.58052,4.76483 8.4172,10.0997 11.5,15.84375 5.34585,11.38663 8.82678,22.97702 9.84375,35.46875 1.00393,14.52447 -1.2812,29.07148 -6.84375,41.53125 -10.31327,23.10108 -31.88347,38.15441 -48.375,40 -4.12288,0.46139 -8.0549,0.0763 -11.40625,-1.59375 -0.81203,-0.40465 -1.59937,-0.87286 -2.3125,-1.4375 1.21724,1.50927 2.73627,2.71474 4.4375,3.5625 3.35135,1.67004 7.28337,2.05514 11.40625,1.59375 16.49153,-1.84558 38.06173,-16.89892 48.375,-40 5.73789,-12.85251 8.00022,-27.92768 6.75,-42.90625 8.80043,-0.44906 17.48047,1.10635 25.59375,4.28125 0.12548,0.0491 0.25193,0.10133 0.375,0.15625 0.004,-0.009 -0.004,-0.0224 0,-0.0312 l 0.3125,0.15625 c 0.26393,0.12738 0.52178,0.26783 0.78125,0.40625 L 273.125,401 c 0.2606,0.13632 0.51372,0.28609 0.78125,0.40625 l 3.875,2 C 270.78205,419.97235 266.66928,438.89108 267.25,459 c 0.4783,16.56275 3.56935,29.4469 7.8125,38.28125 2.38677,4.96932 5.10975,8.58828 7.84375,10.96875 -2.00259,-2.2414 -3.9521,-5.16554 -5.71875,-8.84375 -4.24314,-8.83434 -7.3342,-21.7185 -7.8125,-38.28125 -0.59154,-20.48389 3.76414,-39.77899 11,-56.5625 6.09059,3.55473 11.67255,8.05875 16.53125,13.3125 -5.30682,-6.23287 -11.64215,-11.49163 -18.65625,-15.4375 -3.05259,-1.71727 -5.9926,-3.21 -9.375,-4.59375 -7.32019,-2.99472 -15.71999,-4.20094 -23.6875,-4.125 l -1.03125,-7 c 0.0416,-0.002 0.0834,0.002 0.125,0 -1.59118,-8.74072 -4.41341,-17.27775 -8.625,-25.125 -3.54902,-6.61274 -8.09162,-12.69517 -13.625,-17.96875 z m 154.84375,8.0625 c 2.19868,2.30458 4.36918,4.81045 6.5,7.53125 11.96411,15.27672 22.70301,37.17916 29.4375,64.375 l -5.34375,1.3125 c 0.21569,0.8259 0.44871,1.66191 0.65625,2.5 l 6.8125,-1.6875 c -6.73448,-27.19583 -17.47339,-49.09828 -29.4375,-64.375 -2.81037,-3.5885 -5.70276,-6.80003 -8.625,-9.65625 z m 12.5,28.34375 c 2.28638,9.14342 3.84024,21.41621 4.4375,33.625 1.40936,28.80964 -0.97662,49.17272 -5.84375,62.90625 -4.86714,13.73352 -12.716,21.26315 -21.8125,22.09375 -7.13776,0.65174 -14.15084,-2.66213 -20.40625,-8.5 6.77042,7.13773 14.5718,11.35177 22.53125,10.625 9.09651,-0.83059 16.94536,-8.36023 21.8125,-22.09375 4.86714,-13.73352 7.25311,-34.09661 5.84375,-62.90625 -0.52,-10.62961 -1.77136,-21.72411 -3.59375,-30 -0.96829,-1.96756 -1.9644,-3.88868 -2.96875,-5.75 z M 238,393.84375 c -18.31219,3.2449 -38.47995,16.25783 -53.25,42.21875 -8.07728,14.19722 -9.62986,23.63264 -8.34375,28.1875 0.57054,2.02061 1.49034,3.18673 2.90625,4.03125 -0.31099,-0.53911 -0.57158,-1.16368 -0.78125,-1.90625 -1.28611,-4.55485 0.26647,-13.99028 8.34375,-28.1875 14.2409,-25.03085 33.62246,-38.0384 51.28125,-41.8125 -0.0442,-0.84218 -0.0887,-1.68925 -0.15625,-2.53125 z m 61.0625,16.25 c 14.73651,15.39611 23.53724,36.88771 21.1875,59.96875 -1.75206,17.21007 -5.85223,29.68479 -11.5,37.875 -5.64778,8.1902 -13.45668,12.15369 -21.0625,10.53125 -3.50524,-0.74771 -6.79843,-2.52907 -9.78125,-5.21875 3.53023,3.88694 7.54406,6.41324 11.90625,7.34375 7.60583,1.62242 15.41472,-2.34105 21.0625,-10.53125 5.64778,-8.1902 9.74794,-20.66493 11.5,-37.875 2.46059,-24.16975 -7.30681,-46.58306 -23.3125,-62.09375 z"
       id="path3247"
       style="fill:#784421;fill-opacity:1;fill-rule:evenodd;stroke:none" />
    <path
       d="m 402.19393,444.2975 4.8164,18.37553 4.12958,-3.18518 -6.31412,-21.63874 -2.63186,6.44839 z"
       id="path3480"
       style="fill:#ffe6d5;fill-rule:evenodd;stroke:none" />
    <path
       d="m 338.5,338.11218 c 3.00143,-4.09045 -0.25,-8.75 0.5,-11.5 0.75,-2.75 4.75,-6.25 8.25,-5.5 3.5,0.75 10.75,8.5 9.25,11.75 -1.5,3.25 -3,3.375 -7.75,7.375 -2.96516,5.07386 0.86595,6.02621 3.5,5.75 l 4.125,1.125 c -1.71415,1.98371 -5.06171,2.65062 -8.38176,2.71193 -5.97935,0.11041 -4.73269,0.34686 -9.66007,-1.51414 -0.67,-0.25305 -3.08032,-5.77246 0.16683,-10.19779 z"
       id="path3482"
       style="fill:#2b1100;fill-rule:evenodd;stroke:none" />
    <path
       d="m 336,338.11218 c 3.00143,-4.09045 -0.25,-8.75 0.5,-11.5 0.75,-2.75 4.75,-6.25 8.25,-5.5 3.5,0.75 10.75,8.5 9.25,11.75 -1.5,3.25 -3,3.375 -7.75,7.375 -2.96516,5.07386 -0.13405,8.77621 2.5,8.5 -10.42853,0.7718 -8.91133,-0.0375 -12.91683,-0.42721 -0.67,-0.25305 -3.08032,-5.77246 0.16683,-10.19779 z"
       id="path3296"
       style="fill:#784421;fill-rule:evenodd;stroke:none" />
    <path
       d="m 347.75,329.48718 a 2.875,4.375 0 1 1 -5.75,0 2.875,4.375 0 1 1 5.75,0 z"
       transform="matrix(1.173913,0,0,1.2285714,-59.728261,-76.061356)"
       id="path3496"
       style="fill:#2b1100;fill-opacity:1;stroke:none" />
    <path
       d="m 347.75,329.48718 a 2.875,4.375 0 1 1 -5.75,0 2.875,4.375 0 1 1 5.75,0 z"
       transform="matrix(1.173913,0,0,1.2285714,-60.978261,-76.311356)"
       id="path3498"
       style="fill:#ffe6d5;fill-opacity:1;stroke:none" />
    <path
       d="m 137.75,318.125 c 3.69347,3.12633 3.80118,5.45582 1.5,7.25 0,0 3.75,0.25 8.25,-1.5 -2.6255,-5.28949 -9.75,-5.75 -9.75,-5.75 z m 28,9.25 -12.5,-0.75 1.25,7.5 -14.5,5.75 1,2.5 c 0.85064,0.0172 4.03006,-1.0696 5.125,2.03125 1.77589,-2.94342 3.1821,-6.02546 10.125,-7.03125 l 2.0625,-1.4375 7.9375,-2.0625 -0.5,-6.5 z"
       id="path3366"
       style="fill:#2b1100;fill-rule:evenodd;stroke:none" />
    <path
       d="m 281.78205,233.17897 c 0,0 -9.89949,-14.49568 -4.59619,-20.50609 5.3033,-6.01041 18.73833,-10.25305 18.73833,-10.25305 0,0 29.34493,3.53553 35.35534,5.3033 6.01041,1.76777 17.88757,0.57682 22.27386,2.12132 3.97783,1.40067 46.66905,53.74011 46.66905,53.74011 -1.14526,10.08193 -28.27043,21.07138 -54.80078,12.37437 -3.16946,-1.03899 -8.13172,3.53554 -8.13172,3.53554 l 8.83883,8.48528 c -4.52728,3.08411 -8.84486,7.29471 -16.61701,4.24264 l -17.32411,-20.15254 4.24263,-10.25305 c 0,0 15.74245,-3.29816 19.09189,-8.48528 13.89276,-21.51504 -28.78408,-47.98905 -40.65865,-42.07285 -9.73177,4.84861 -12.64633,22.97966 -13.08147,21.9203 z"
       id="path3225"
       style="fill:#ffe6d5;fill-rule:evenodd;stroke:none" />
    <path
       d="m 348.90625,212.6875 c -0.96171,0.19234 -2.3249,0.0479 -6.15625,2.4375 1.82319,-1.24729 6.33282,-1.78125 6.125,-1.78125 6.08034,2.84613 5.05805,3.92118 7.875,5.6875 l -14.15625,9.1875 c 0,0 -3.88847,-6.00184 -5.65625,-7.0625 -1.71478,-1.02887 -2.41775,-0.0264 -3.75,1.96875 1.51982,-0.97922 9.99503,16.92707 11.875,16.9375 2.34514,0.013 18.25108,-9.37188 19.09375,-12.71875 0.96512,-3.83321 -13.48225,-15.0098 -15.25,-14.65625 z m 9.25,8.46875 c 3.77843,1.64992 3.13479,3.28758 3.875,4.9375 0,0 -15.5527,11.85172 -15.90625,10.4375 -0.35355,-1.41421 -3.18749,-6.18751 -3.1875,-6.1875 l 15.21875,-9.1875 z"
       id="path3284"
       style="fill:#784421;fill-rule:evenodd;stroke:none" />
    <path
       d="m 369.4375,231.84375 c -0.73511,-0.19507 -5.83437,1.89178 -12.09375,6.5625 10.43199,-5.2628 12.4605,-6.01832 11.8125,-5.53125 5.92501,3.10501 5.62055,5.79617 8.4375,7.5625 L 353.375,256.15625 c 0,0 -5.66973,-6.87684 -7.4375,-7.9375 -1.71518,-1.02911 -2.09321,0.11901 -3.40625,2.125 1.61314,-0.87553 11.62004,18.70834 13.5,18.71875 2.34514,0.013 28.15733,-16.96563 29,-20.3125 0.96512,-3.83321 -13.85128,-16.44387 -15.59375,-16.90625 z M 379,242.5625 c 3.77843,1.64992 3.16604,3.28758 3.90625,4.9375 0,0 -25.45894,19.44547 -25.8125,18.03125 -0.35355,-1.41421 -3.71875,-7.4375 -3.71875,-7.4375 L 379,242.5625 z"
       id="path3280"
       style="fill:#784421;fill-rule:evenodd;stroke:none" />
    <path
       d="m 333.65625,256.9375 c -1.47917,0.69792 -2.95833,1.39583 -4.4375,2.09375 0.55072,-1.65123 -0.11617,-1.64887 -1.40369,-0.8926 -3.72088,1.56376 -7.72229,2.57908 -11.56506,3.5801 -1.07248,2.09397 -2.14838,4.18621 -3.21875,6.28125 5.02487,5.79908 10.01842,11.62724 15.03125,17.4375 -0.28776,2.07508 -0.076,4.33816 0.72294,6.24643 0.99046,1.37236 2.95757,1.38072 4.48757,1.69962 4.36551,0.62644 8.30081,-1.78929 11.61661,-4.30125 0.91952,-0.60122 2.19644,-1.17077 0.6391,-1.96244 -2.61326,-2.55059 -5.39576,-5.09946 -7.90372,-7.65111 2.06523,-1.68191 4.33602,-3.48887 7.125,-3.4375 6.41686,2.00214 13.11631,3.23478 19.86222,3.27105 9.84068,0.0587 19.94948,-1.80526 28.51278,-6.83355 3.20591,-2.08778 6.732,-4.86887 7.3125,-8.9375 -0.64002,-0.67598 -1.38959,-2.20363 -1.4695,-0.46651 -1.76574,4.94416 -6.77685,7.72897 -11.36473,9.73059 -8.48035,3.44362 -17.78815,4.77915 -26.90772,4.2605 -5.45285,-0.37383 -10.47042,-2.73305 -15.75805,-3.86833 -3.00002,-2.97833 -4.86448,-6.89986 -7.20221,-10.40251 -1.2701,-1.99561 -2.50817,-4.00037 -3.92279,-5.90999 l -0.15625,0.0625 z"
       id="path3233"
       style="fill:#784421;fill-rule:evenodd;stroke:none" />
    <path
       d="m 281.41973,228.21507 -0.93045,2.95098 c 0.84521,1.45288 1.29197,1.84467 1.29197,1.84467 0.66748,1.52405 3.60101,-16.43402 13.09375,-21.76072 0.82098,-0.46068 1.84717,-0.64303 2.96875,-0.75 -17.71182,-2.7469 -25.318,4.34199 -16.42402,17.71507 z"
       id="path3292"
       style="fill:#2b1100;fill-rule:evenodd;stroke:none" />
    <path
       d="m 337.875,279.00184 c -13.93756,10.37232 -4.74374,12.96649 4.78125,9.06066 0.32734,-0.0504 0.9367,0.49222 1.625,1.21875 0.61564,-0.43894 1.22954,-0.89408 1.84375,-1.3125 l -8.25,-8.96691 z"
       id="path3227"
       style="fill:#2b1100;fill-rule:evenodd;stroke:none" />
    <path
       d="m 357.0625,174.5625 c -0.13011,0.005 -1.98438,0.0391 -2.0625,0.0625 4.27801,1.45355 6.95388,3.97519 9.25,6.75 14.88626,4.43231 20.62035,8.78836 32.15625,19.75 8.30183,7.35417 15.27679,14.70833 16.96875,22.0625 l 0.40625,7.59375 4.09375,4.09375 -1.875,6.3125 5.625,6.90625 c 3.22842,-6.94915 7.12055,-15.62527 7.125,-17.46875 0.006,-2.30488 -4.5,-9.75 -4.5,-9.75 l 4.5,-4.5 c 0,0 -0.5,-5 -3.5,-8.5 -3,-3.5 -3.5,-3 -3.5,-3 l 0.75,-1.75 c 0,0 -9.75,-5.75 -11.25,-6 -1.5,-0.25 -2.25,4.25 -2.25,4.25 l -3,-3 c 0,0 2.75,-5.25 2.5,-6.25 -0.25,-1 -7,-6.25 -7,-6.25 l 0.25,-1.5 c 0,0 -8.5,-4.5 -9.75,-4.25 -1.25,0.25 -2.5,4.75 -3.5,3.75 -0.96875,-0.96875 -22.15404,-10.46553 -31.4375,-9.3125 z"
       id="path3252"
       style="fill:#ffe6d5;fill-rule:evenodd;stroke:none" />
    <path
       d="m 361.40625,178.625 c 1.08103,0.87584 1.89776,2.19985 2.97305,2.99417 8.14256,2.3409 15.99485,5.811 22.49671,11.25439 5.02137,4.13534 9.71693,8.68476 14.46453,13.1047 4.93333,4.91937 10.082,10.31997 11.84696,17.27174 0.15388,2.55996 0.24603,5.1395 0.4375,7.6875 1.34375,1.34375 2.6875,2.6875 4.03125,4.03125 -0.56828,2.10873 -1.39931,4.26049 -1.8125,6.34375 1.95096,2.38285 3.87783,4.78604 5.84375,7.15625 2.53043,-5.73519 5.46495,-11.34104 7.21875,-17.375 0.39363,-1.39126 -0.70758,-1.2271 -1.77438,-1.14719 -3.62762,-0.0564 -6.26417,-3.09166 -7.19437,-6.41531 -9.03839,-14.38291 -21.4775,-26.707 -36.15625,-35.34375 -7.14377,-4.30716 -14.91923,-7.65534 -22.90625,-10.125 0.17708,0.1875 0.35417,0.375 0.53125,0.5625 z"
       id="path3261"
       style="fill:#784421;fill-rule:evenodd;stroke:none" />
    <path
       d="m 393,186.86218 c 0,0 4.30557,3.04525 6.25,2.5 0.72214,-0.2025 1.5,-2 1.5,-2 l -0.5,2 c 0,0 2.76629,5.26405 5,5.75 0.88552,0.19264 2.75,-1.25 2.75,-1.25 l -2,4.5 c -0.52564,-2.47436 -6.58559,-6.40841 -13,-11.5 z"
       id="path3268"
       style="fill:#784421;fill-rule:evenodd;stroke:none" />
    <path
       d="m 411,201.86218 c 0,0 5.6156,6.22605 7.5,5.5 2.47214,-0.9525 2.75,-1.25 2.75,-1.25 l -1.5,4.5 c 0,0 2.76629,5.51405 5,6 0.88552,0.19264 2.75,0 2.75,0 l -3.25,4.25 c -1.30342,-2.6688 -10.88467,-16.10818 -13.25,-19 z"
       id="path3270"
       style="fill:#784421;fill-rule:evenodd;stroke:none" />
    <path
       d="m 427.75,307.125 c -2.13553,-0.92229 -17.54569,2.22568 -19.25,3.25 l -1,2 1.6875,8.375 c 1.09813,-0.50387 2.18588,-1.00985 3.28125,-1.5 1.34493,-0.9556 4.30489,-1.77975 5.84375,-2.46875 0.52222,-0.60903 0.8108,0.16103 0,-0.78125 l -6.25,0.875 -0.8125,-4.5 c 4.91667,-2.53368 9.83333,-1.74457 14.75,-2.5 l 0.5,3.34375 c 0.91087,-0.38189 1.9074,-0.79657 2.84375,-1.1875 L 428.5,307.875 l -0.75,-0.75 z"
       id="path3431"
       style="fill:#ffe6d5;fill-rule:evenodd;stroke:none" />
    <path
       d="m 456.9123,286.06553 c 2.42832,-1.21974 4.79369,-1.6404 3.71232,2.47489 0.24059,-2.12089 5.99355,-6.2984 8.56782,-4.79281 -0.44139,1.177 -0.55427,4.53561 2.39233,6.38379 -0.26138,-3.58754 4.2283,-5.87754 8.48528,-6.18718 0,0 -2.55272,-4.08896 -5.12653,-4.06587 -2.13087,0.0191 -4.67581,1.39671 -5.48007,2.2981 -0.85681,-1.91081 -6.69394,-0.81681 -6.8943,0.88388 -2.15228,-1.69576 -5.43622,-0.40495 -5.65685,3.0052 z"
       id="path3232"
       style="fill:#ffe6d5;fill-rule:evenodd;stroke:none" />
  </g>
</svg>
