<?xml version="1.0" encoding="UTF-8" standalone="no"?>
<!-- Created with Inkscape (http://www.inkscape.org/) -->

<svg
   xmlns:dc="http://purl.org/dc/elements/1.1/"
   xmlns:cc="http://creativecommons.org/ns#"
   xmlns:rdf="http://www.w3.org/1999/02/22-rdf-syntax-ns#"
   xmlns:svg="http://www.w3.org/2000/svg"
   xmlns="http://www.w3.org/2000/svg"
   xmlns:sodipodi="http://sodipodi.sourceforge.net/DTD/sodipodi-0.dtd"
   xmlns:inkscape="http://www.inkscape.org/namespaces/inkscape"
   width="382.07993"
   height="638.93201"
   id="svg2"
   version="1.1"
   inkscape:version="0.48.1 r9760"
   sodipodi:docname="archer.svg"
   style="display:inline">
  <title
     id="title4582">archer</title>
  <defs
     id="defs4" />
  <sodipodi:namedview
     id="base"
     pagecolor="#ffffff"
     bordercolor="#666666"
     borderopacity="1.0"
     inkscape:pageopacity="0.0"
     inkscape:pageshadow="2"
     inkscape:zoom="1.3754416"
     inkscape:cx="164.00841"
     inkscape:cy="421.78365"
     inkscape:document-units="px"
     inkscape:current-layer="layer2"
     showgrid="false"
     inkscape:window-width="1920"
     inkscape:window-height="1152"
     inkscape:window-x="0"
     inkscape:window-y="0"
     inkscape:window-maximized="1"
     inkscape:object-paths="false"
     inkscape:object-nodes="true"
     showguides="true"
     inkscape:guide-bbox="true"
     inkscape:snap-nodes="false"
     fit-margin-top="0"
     fit-margin-left="0"
     fit-margin-right="0"
     fit-margin-bottom="0" />
  <metadata
     id="metadata7">
    <rdf:RDF>
      <cc:Work
         rdf:about="">
        <dc:format>image/svg+xml</dc:format>
        <dc:type
           rdf:resource="http://purl.org/dc/dcmitype/StillImage" />
        <dc:title>archer</dc:title>
        <dc:date>2012-06-24</dc:date>
        <dc:creator>
          <cc:Agent>
            <dc:title>tzunghaor (Prim András)</dc:title>
          </cc:Agent>
        </dc:creator>
        <cc:license
           rdf:resource="http://creativecommons.org/licenses/publicdomain/" />
        <dc:publisher>
          <cc:Agent>
            <dc:title>openclipart.org</dc:title>
          </cc:Agent>
        </dc:publisher>
        <dc:subject>
          <rdf:Bag>
            <rdf:li>archer</rdf:li>
            <rdf:li>marksman</rdf:li>
            <rdf:li>arrow</rdf:li>
            <rdf:li>bow</rdf:li>
            <rdf:li>shoot</rdf:li>
            <rdf:li>aim</rdf:li>
          </rdf:Bag>
        </dc:subject>
      </cc:Work>
      <cc:License
         rdf:about="http://creativecommons.org/licenses/publicdomain/">
        <cc:permits
           rdf:resource="http://creativecommons.org/ns#Reproduction" />
        <cc:permits
           rdf:resource="http://creativecommons.org/ns#Distribution" />
        <cc:permits
           rdf:resource="http://creativecommons.org/ns#DerivativeWorks" />
      </cc:License>
    </rdf:RDF>
  </metadata>
  <g
     inkscape:groupmode="layer"
     id="layer2"
     inkscape:label="Réteg"
     transform="translate(-140.29507,-146.66177)">
    <path
       style="color:#000000;fill:#000000;fill-opacity:1;fill-rule:nonzero;stroke:none;stroke-width:1;marker:none;visibility:visible;display:inline;overflow:visible;enable-background:accumulate"
       d="m 292.84375,477.375 c -17.45809,2.02128 -33.18071,11.04696 -48.5,19.0625 -3.66768,1.89474 -5.97185,8.06131 -1.5,10.25 -2.30816,3.88903 -0.91312,8.5671 -1.71875,12.875 -0.18843,2.40715 2.00319,4.5791 -0.5625,6.5 -1.6303,2.71117 -2.21206,6.88389 0.71875,8.9375 -3.28423,7.76693 -2.28309,16.69809 -6.53125,24.09375 -0.92647,2.63398 -0.0764,6.65729 2.65625,7.3125 -2.87857,12.75033 -1.77649,26.89793 -2.87087,40.15381 -1.11944,11.19811 0.46985,23.38698 -3.94163,33.81494 -3.80271,1.3846 -5.47575,6.70051 -2.46875,9.6875 -4.32026,3.43448 1.9709,8.23452 -1.34375,12 1.55628,3.38875 -1.53274,4.49056 -4.21875,4.46875 -6.05669,1.56325 -3.02804,9.267 -4.64982,13.51228 -1.26175,12.75504 -4.63265,25.53879 -5.25643,38.20647 0.84394,3.55567 4.77695,7.40642 1.15625,10.625 -2.05681,4.06506 -0.0428,8.82412 1.9375,12.125 -4.02152,5.34682 -1.55017,12.35963 -4.625,18.03125 -1.6291,6.85444 -3.0332,15.28645 0.9375,21.46875 5.57325,5.16104 13.99953,4.70764 21.03125,5.09375 7.74457,-0.52632 16.58235,-8.0069 12.875,-16.3125 -1.24898,-5.40105 -4.95557,-10.70926 -5.5625,-15.875 4.26929,-6.24857 2.66311,-14.25672 1.09375,-20.90625 7.98782,-9.46236 6.41405,-23.3655 10.297,-34.57997 2.14385,-9.71571 4.35924,-19.76451 6.17175,-29.29503 2.90333,-4.79413 5.69069,-9.85723 5.21875,-15.59375 4.68245,-3.61163 0.0215,-9.97656 3.13303,-14.31774 6.73472,-22.23769 13.56994,-45.05844 20.24197,-66.93226 5.91917,20.35524 8.86197,41.83449 18.71875,60.8125 -1.9179,2.72614 -1.38273,6.71774 0.0312,9.0625 -3.4108,3.43967 -1.95294,9.14319 2.09375,11.375 -3.26911,2.09361 -3.57235,6.90097 -4.84375,9.46875 -5.54802,2.57892 -1.50359,9.80604 -2.6384,14.40609 0.80304,18.77837 -5.83389,37.16773 -5.9241,55.68766 0.80191,3.12742 -3.68764,6.75953 -0.71875,9.90625 3.62845,1.70742 -1.27354,4.08209 -1.40625,6.84375 -2.0265,6.48229 -1.46394,14.28428 1.53125,20.125 10.77345,5.89666 22.87662,-1.34919 34.1875,1.25 8.10037,0.43068 17.81349,1.82617 24.53125,-3.625 4.43237,-6.54286 -1.43676,-16.64336 -9.53125,-15.125 -7.47178,0.91993 -11.2315,-6.45594 -17.1875,-9.28125 0.50659,-2.46035 -1.41121,-4.54982 1,-6.3125 2.56328,-4.58478 -0.32687,-9.96192 2.09828,-14.67632 4.49746,-19.65543 9.71418,-39.13528 14.33922,-58.76118 -3.77298,1.87813 -1.27098,-3.18519 -3.25,-4.96875 0.55185,-4.31727 6.0214,-7.34476 4.26909,-12.33665 -2.38938,-25.29151 -5.42856,-50.62828 -10.58159,-75.5071 -0.16686,-2.59577 -3.68108,-8.44257 -2.09375,-9.1875 4.44122,1.72864 7.74003,-3.9158 5.0625,-7.5 -2.62149,-8.97531 -8.19477,-17.42159 -10.53125,-26.09375 3.11112,-3.49969 -0.84066,-7.62283 -1.09375,-11.21875 5.26409,-4.97473 11.77143,-12.66083 7.21875,-20.15625 -1.82155,-3.40592 -6.37339,-3.47557 -9.5625,-2.8125 1.79757,-4.94423 -0.50571,-10.65635 -5.71875,-12.1875 -7.33392,-3.44151 -15.72576,-3.84095 -23.71875,-3.59375 z"
       id="path3701"
       inkscape:connector-curvature="0" />
    <g
       id="g4433"
       inkscape:transform-center-x="-67.614647"
       inkscape:transform-center-y="-150.49712">
      <path
         inkscape:connector-curvature="0"
         id="path4264"
         d="m 278.46875,296.21875 c -5.22227,1.44639 -9.93193,5.54342 -15.53125,4.03125 -6.13587,1.20406 -9.18138,9.26202 -16.21875,7.59375 -5.90026,-0.0792 -10.20911,4.49865 -11.78125,9.84375 -1.71155,4.30788 -9.07645,8.75204 -5.5625,13.6875 0.6359,2.00311 5.80779,0.84798 4.71875,2.71875 -4.86633,1.97712 -6.76231,10.36822 -0.3125,11.125 3.88789,-1.23462 0.94843,4.71387 0.84375,6.8125 -0.9334,2.22586 -1.68413,5.50246 0.71875,7.09375 -5.2983,0.58403 -10.55319,1.55994 -14.75,5.1875 -3.4207,1.78157 -7.32622,0.18823 -10.84375,2.3125 -9.12682,2.53438 -18.17564,7.43029 -27.78125,5.9375 -7.27777,1.43121 -14.01534,5.12198 -20.625,8.34375 -3.20261,1.86576 -3.56183,6.4759 -8.09375,6 -5.28572,1.24068 -9.41251,5.36769 -12.1875,9.78125 -2.47242,6.74748 1.65785,13.77488 3.53125,20.1875 1.69374,4.38283 5.0538,9.01952 10.34375,7.125 1.80546,0.94602 3.31397,0.31898 5.0625,0.40625 4.65387,6.02994 11.71318,-1.89356 17.375,1.40625 11.66167,2.57902 23.69908,0.8723 35.46875,0 5.95512,11.03339 10.2394,24.65739 21.40625,31.625 3.19226,2.07633 7.86412,2.26735 10.59375,4.1875 2.33544,9.05072 7.09287,19.02565 2.25,28.03125 -0.54142,5.78362 -1.73078,11.96355 1.34375,17.34375 3.70069,10.81587 16.19943,13.63516 23.71875,21.125 2.06189,-4.5993 -1.19823,-9.57913 -0.40625,-13.8125 14.23307,-1.07277 29.04873,-1.71803 42.8125,-6.09375 4.60219,-7.53955 4.91756,-16.89653 5.34375,-25.46875 -0.77992,-3.73527 -3.20583,-8.15995 0.0625,-11.40625 -7.08918,-4.17253 -3.1439,-13.38652 -4.78125,-19.96875 -0.81129,-10.62033 -1.54433,-21.54823 1.78125,-31.78125 1.38717,-11.59013 8.39992,-23.85513 3.15625,-35.34375 -1.63667,-7.0576 -11.85493,-8.47872 -15.9375,-3.75 -3.14005,-3.45506 -6.04869,-7.72793 -11.15625,-8.59375 3.42051,-1.43812 3.68679,-5.35075 3.78125,-8.46875 1.50426,-3.41176 2.90519,-7.18842 2.03125,-10.84375 5.50208,-2.67636 1.95326,-9.79188 -1.471,-12.62758 -2.67192,-2.01377 -4.13245,-5.68271 -2.99775,-8.65367 5.11742,0.002 2.67198,-6.51843 3.09375,-9.5 1.40601,-2.20682 -2.59278,-4.23294 0.4375,-5.3125 1.94247,-2.1015 -2.9435,-5.15354 1.25,-4.46875 3.42555,0.31745 4.90448,-4.36023 1.40625,-5.53125 -7.53973,-2.91288 -13.6273,-10.02144 -22.09375,-10.28125 z M 254.0625,365.5 c 1.69467,0.79812 2.43805,4.05972 2.15625,4.75 -0.63301,-1.59873 -1.55149,-3.29249 -2.15625,-4.75 z"
         style="color:#000000;fill:#000000;fill-opacity:1;fill-rule:nonzero;stroke:none;stroke-width:1;marker:none;visibility:visible;display:inline;overflow:visible;enable-background:accumulate" />
      <g
         id="g4554"
         inkscape:transform-center-x="-136.85583"
         inkscape:transform-center-y="-12.852359">
        <path
           inkscape:connector-curvature="0"
           id="path4501"
           d="m 374.15625,146.6875 c -4.53958,1.67454 -4.56562,8.28755 -7.25,11.84375 -2.77618,6.02802 -4.97862,14.27939 1.03125,19.15625 9.02183,9.41654 19.68407,16.99272 28.35968,26.82843 23.04162,22.74359 44.57452,48.28396 56.75151,78.79613 5.16117,11.33207 12.67925,23.59151 8.23256,36.31294 -1.36283,6.04249 -3.8768,12.99183 -3.25,18.71875 -5.16656,1.36166 -10.8496,3.49911 -12.85692,9.09497 -3.89701,7.06845 -13.56623,8.67508 -20.67433,8.09253 -5.38914,-5.66601 -13.31537,0.006 -18.96875,2.21875 -3.87258,1.11735 -9.74667,0.51833 -10.28125,5.75 -26.23886,6.06352 -52.15939,15.5027 -79.09375,18.3125 -14.19363,3.16463 -25.60366,13.35393 -39.09375,18.21875 -5.77591,2.14392 -4.83942,9.0366 -3.33483,13.7513 2.07546,12.62196 4.13591,25.2464 6.17858,37.8737 21.6626,-17.16731 44.4159,-33.99636 71.5,-41.1875 C 367.96114,405.35948 385.42729,403.0701 402.5,401 c 4.7919,1.99054 9.20932,-2.4911 13.9375,-2 6.35886,-0.93851 15.83014,-1.97337 16.5,-10.15625 -1.27916,-4.34619 5.42457,-3.09509 6.875,-6.65625 0.72784,-2.94553 3.62133,1.4185 5.59375,-0.40625 3.07068,-1.0861 4.65506,-5.82972 8.3125,-2.96875 3.46294,1.05899 7.36336,-0.79068 8.96875,-3.4375 2.60209,-0.56874 4.63264,-0.5317 5.27577,2.52541 5.31156,8.30416 7.97337,18.48227 5.07315,28.17046 -3.25614,28.46581 -10.5247,56.6101 -24.3371,81.84298 -9.64452,19.79946 -21.95285,38.34444 -33.26182,57.2424 -2.43656,9.4104 6.65665,16.53431 11.65625,23.34375 2.26469,4.86576 5.43925,2.54968 8.03125,-0.4375 4.19334,-3.38016 6.7391,-10.52636 1.65625,-14.34375 -2.14311,-3.00417 -5.49382,-6.15811 -8.84375,-7 14.05044,-19.2363 27.5776,-39.53411 38.60346,-60.86318 15.54601,-29.34682 20.5201,-62.74883 26.70904,-95.07432 0.11754,-4.47924 3.06293,-10.05233 1.34375,-13.875 -2.41864,-2.88626 -7.75272,-5.22515 -8.0625,-8.71875 1.53902,-1.98825 4.22761,-3.92102 3.3125,-7.0625 -1.17523,-3.48948 0.5166,-7.00412 -0.6875,-10.65625 1.98875,-4.69998 -3.19024,-8.19174 -3.90625,-12.40625 -1.90466,-2.73627 -6.49614,-2.53789 -8.34375,-3.625 2.15762,-6.7761 6.51912,-12.55306 10.25,-18.5 C 469.25335,278.2349 452.30897,238.51429 421.375,209.5 c -13.89592,-13.8857 -29.15634,-26.63346 -43.9375,-39.34375 4.75583,-0.50316 4.96657,-6.41915 7.25,-9.625 2.9639,-5.5544 -2.06833,-10.58378 -6.78125,-12.8125 -1.12412,-0.68092 -2.40797,-1.17771 -3.75,-1.03125 z"
           style="color:#000000;fill:#000000;fill-opacity:1;fill-rule:nonzero;stroke:none;stroke-width:1;marker:none;visibility:visible;display:inline;overflow:visible;enable-background:accumulate" />
        <path
           inkscape:connector-curvature="0"
           style="color:#000000;fill:#d38d5f;fill-opacity:1;fill-rule:nonzero;stroke:none;stroke-width:1;marker:none;visibility:visible;display:inline;overflow:visible;enable-background:accumulate"
           d="m 473.65625,368.40625 -10.90625,-24.6875 -6.65625,2.15625 2.09375,23.9375 c 0,0 3.38303,1.99831 5.75,1.5 1.3783,-0.29017 5.42014,-1.58525 9.71875,-2.90625 z"
           id="path4121"
           inkscape:transform-center-x="-211.52866"
           inkscape:transform-center-y="-14.311346" />
        <path
           style="color:#000000;fill:#6c5d53;fill-opacity:1;fill-rule:nonzero;stroke:none;stroke-width:1;marker:none;visibility:visible;display:inline;overflow:visible;enable-background:accumulate"
           d="m 417.08544,361.70458 c 10.41771,-3.59229 22.64898,0.0696 31.14437,-11.21198 0,0 10.21535,4.73395 12.20859,4.23564 l 3.09471,3.05525 c -4.24128,10.66745 -41.01361,23.8873 -41.01361,23.8873 z"
           id="path4111"
           inkscape:connector-curvature="0"
           sodipodi:nodetypes="cccccc"
           inkscape:transform-center-x="-186.96294"
           inkscape:transform-center-y="-5.7851766" />
        <path
           style="color:#000000;fill:#917c6f;fill-opacity:1;fill-rule:nonzero;stroke:none;stroke-width:1;marker:none;visibility:visible;display:inline;overflow:visible;enable-background:accumulate"
           d="m 374.93123,150.77103 c 0,0 -7.93057,15.5655 -6.97282,20.14685 0.20783,0.99415 2.38243,4.18037 6.74954,7.91038 20.12441,17.18865 48.54576,46.25258 63.88335,68.71912 11.7799,17.25523 26.28255,51.976 27.45512,56.35585 2.68564,10.03155 -4.61509,28.92869 -4.37812,31.82166 0.23046,2.81337 4.17121,13.82935 4.39129,14.44389 -0.0361,0.468 -0.9371,12.36344 -0.41232,15.16076 0.53521,2.85288 12.5597,19.13036 12.61779,29.51503 0.0254,4.53401 -4.78718,41.84309 -11.59357,61.59614 -8.86196,25.7187 -28.6095,61.25184 -43.48187,83.14371 -3.22738,4.75064 -4.46997,8.40855 -4.40797,9.4223 0.28577,4.67165 12.01936,17.60356 12.01936,17.60356 0,0 6.73732,-5.74971 4.51534,-8.46335 -2.222,-2.71363 -6.27966,-6.98511 -6.27966,-6.98511 l -4.03513,0.29078 c -2.80139,-1.86659 -1.17495,-5.44474 -1.17495,-5.44474 0,0 2.59883,-4.04066 7.71193,-11.08941 7.14377,-9.84812 29.62799,-43.4496 39.2157,-67.70901 11.0673,-28.00319 20.39645,-88.01903 20.39645,-88.01903 0,0 -11.82551,-9.82065 -15.13992,-16.52023 -2.0251,-4.09347 -2.40186,-13.49528 -2.40186,-13.49528 0,0 -2.10722,-9.16106 -1.2347,-13.64393 1.42803,-7.33692 10.23569,-19.93445 10.23569,-19.93445 0,0 -24.84555,-55.40228 -42.91334,-79.49001 -15.65229,-20.86741 -46.20473,-47.35168 -55.69505,-54.96435 -6.79264,-5.44872 -10.37273,-8.65604 -10.37273,-8.65604 0,0 -2.50235,-3.01594 -0.29314,-5.55593 l 3.95636,-0.78438 c 0,0 2.77626,-5.19745 4.20299,-8.40143 1.42672,-3.20398 -6.56376,-6.97335 -6.56376,-6.97335 z"
           id="path4125"
           inkscape:connector-curvature="0"
           sodipodi:nodetypes="cssssscssssscscccsscscscsscccsc"
           inkscape:transform-center-x="-138.16809"
           inkscape:transform-center-y="-13.176217" />
        <path
           style="color:#000000;fill:#5d6c53;fill-opacity:1;fill-rule:nonzero;stroke:none;stroke-width:1;marker:none;visibility:visible;display:inline;overflow:visible;enable-background:accumulate"
           d="m 312.51032,386.53701 c 0,0 28.05523,-4.63383 31.03282,-5.20087 2.97759,-0.56703 61.91646,-16.87804 61.91646,-16.87804 l 6.35842,29.32274 c 0,0 -8.83166,3.07763 -20.64114,4.67906 -3.21912,0.43652 -21.12438,2.73198 -31.36885,5.51939 -13.84157,3.76613 -27.60357,8.40445 -40.3188,15.04491 -13.18496,6.88577 -36.69273,25.39602 -36.69273,25.39602 l -6.45076,-39.16187 z"
           id="path4073"
           inkscape:connector-curvature="0"
           sodipodi:nodetypes="csccsaaccc"
           inkscape:transform-center-x="-90.735543"
           inkscape:transform-center-y="32.572288" />
        <path
           inkscape:transform-center-y="36.711253"
           inkscape:transform-center-x="-95.325538"
           inkscape:connector-curvature="0"
           style="color:#000000;fill:#37483e;fill-opacity:1;fill-rule:nonzero;stroke:none;stroke-width:1;marker:none;visibility:visible;display:inline;overflow:visible;enable-background:accumulate"
           d="m 402.78125,378.40625 c 0,0 -1.44069,12.71365 -2.53125,14.53125 -1.09056,1.8176 -2.20855,1.82399 -5.84375,2.1875 -3.63519,0.36352 -43.24938,6.88648 -50.15625,7.25 -6.90688,0.36352 -56.71875,25.09375 -56.71875,25.09375 l 2.6875,11.28125 c 8.01198,-6.02614 20.75854,-15.26781 29.28125,-19.71875 12.71523,-6.64046 26.47093,-11.29637 40.3125,-15.0625 10.24447,-2.78741 28.15588,-5.06348 31.375,-5.5 8.50872,-1.15383 15.39745,-3.07927 18.625,-4.0625 l -7.03125,-16 z"
           id="path3193" />
        <path
           inkscape:transform-center-y="-6.6001766"
           inkscape:transform-center-x="-192.55991"
           style="color:#000000;fill:#5e5148;fill-opacity:1;fill-rule:nonzero;stroke:none;stroke-width:1;marker:none;visibility:visible;display:inline;overflow:visible;enable-background:accumulate"
           d="m 469.16497,345.90839 c 0,0 -2.19888,6.25175 -6.10247,7.84161 -2.11811,3.82271 -6.01844,10.56514 -7.3125,10.75 -1.79933,0.25705 -5.40838,0 -8.75,0 -3.14723,0 -24.53652,5.7478 -27.09375,6.4375 l 4.15625,13.6875 c 0,0 10.95694,-7.22213 16.6875,-8.21875 5.73057,-0.99662 7.61791,-2.5 10.71875,-2.5 4.23563,0 8.71875,-3.21875 8.71875,-3.21875 0,0 3.50169,-7.97889 4,-10.96875 0.49831,-2.98986 7.71875,-5 7.71875,-5 z"
           id="path3232"
           inkscape:connector-curvature="0"
           sodipodi:nodetypes="ccssccsscscc" />
        <path
           style="color:#000000;fill:#5e5148;fill-opacity:1;fill-rule:nonzero;stroke:none;stroke-width:1;marker:none;visibility:visible;display:inline;overflow:visible;enable-background:accumulate"
           d="m 333.34375,203 -7.6875,2.34375 c -0.23588,3.45064 -0.72674,11.1044 -0.3125,13.3125 0.53521,2.85288 12.56691,19.14658 12.625,29.53125 0.005,0.95415 -0.25959,3.58073 -0.65625,6.96875 1.74761,-1.90039 2.8564,-10.84276 2.68658,-12.25797 -0.38557,-3.21309 -9.87408,-20.30054 -9.87408,-21.58578 0,-0.7383 4.32331,-1.19731 8.0625,-1.46875 -1.01934,-1.32221 -1.87668,-2.64696 -2.46875,-3.84375 -1.85977,-3.75928 -2.31072,-11.68025 -2.375,-13 z"
           transform="translate(140.29507,146.66177)"
           id="path3254"
           inkscape:connector-curvature="0"
           sodipodi:nodetypes="ccsccsscsc" />
        <path
           style="color:#000000;fill:#7c916f;fill-opacity:1;fill-rule:nonzero;stroke:none;stroke-width:1;marker:none;visibility:visible;display:inline;overflow:visible;enable-background:accumulate"
           d="m 404.48558,362.27943 c -3.63156,1.1697 -5.95308,-1.60835 -5.06809,4.35257 0.88497,5.96092 3.25214,24.34459 4.11417,29.30915 0.6028,3.47164 2.68203,0.80761 6.15779,0.2291 3.47577,-0.57851 15.21102,-2.61899 16.93169,-3.65551 1.72067,-1.03652 2.96397,-3.98632 1.89302,-7.20153 -1.07095,-3.2152 -4.58873,-19.83979 -6.74093,-26.71378 -1.39002,-4.43963 -11.67971,1.87371 -17.28765,3.68 z"
           id="path4075"
           inkscape:connector-curvature="0"
           sodipodi:nodetypes="ssssssss"
           inkscape:transform-center-x="-160.7244"
           inkscape:transform-center-y="5.5028213" />
        <path
           inkscape:transform-center-y="2.0393784"
           inkscape:transform-center-x="-190.88804"
           inkscape:connector-curvature="0"
           style="color:#000000;fill:#483e37;fill-opacity:1;fill-rule:nonzero;stroke:none;stroke-width:1;marker:none;visibility:visible;display:inline;overflow:visible;enable-background:accumulate"
           d="m 455.46875,365.6875 -1.75,1.75 1,7.46875 2.96875,-0.25 -2.21875,-8.96875 z m -10.96875,6.21875 -2.5,0.5 1.25,5.5 3,-1.5 -1.75,-4.5 z m -11.21875,3.5 -2.5,1.25 1.5,5.46875 3.75,-1.5 -2.75,-5.21875 z"
           id="path4113" />
        <path
           style="color:#000000;fill:#ffccaa;fill-opacity:1;fill-rule:nonzero;stroke:none;stroke-width:1;marker:none;visibility:visible;display:inline;overflow:visible;enable-background:accumulate"
           d="m 476.18646,338.84716 c -3.16771,0.0989 -10.22087,2.86745 -10.22087,2.86745 0,0 -1.13143,1.81956 -1.0033,4.46801 0.089,1.84131 2.9672,2.09594 2.9672,2.09594 l 4.01006,11.28417 c 0,0 -0.99196,4.10267 3.76903,4.30457 l 4.44783,0.13206 c 0.0528,0.26197 1.7672,1.00593 3.01058,1.19666 0.78052,-0.15244 0.33955,-0.0314 1.25053,-0.71782 3.18602,-2.40036 0.67991,-5.15063 -0.37068,-5.84402 0,0 1.47121,-2.1898 1.7211,-3.18623 0.24989,-0.99644 -0.99725,-3.71949 -0.99725,-3.71949 0,0 0.7832,-2.06572 0.90861,-3.18683 0.2508,-2.24221 -2.37232,-3.62675 -2.37232,-3.62675 0,0 -0.70766,-3.91054 -1.12177,-4.37584 -0.33154,-0.37253 -0.71368,-0.37783 -1.89908,-0.94027 -1.18541,-0.56243 -2.39388,-0.80485 -4.09967,-0.75161 z"
           id="path3078"
           inkscape:connector-curvature="0"
           sodipodi:nodetypes="scccccccscscscscs"
           inkscape:transform-center-x="-222.11918"
           inkscape:transform-center-y="-19.848868" />
        <path
           style="color:#000000;fill:#d38d5f;fill-opacity:1;fill-rule:nonzero;stroke:none;stroke-width:1;marker:none;visibility:visible;display:inline;overflow:visible;enable-background:accumulate"
           d="m 479.6514,344.00592 c 0,0 -9.63516,0.89913 -10.03192,0.89884 l -4.65646,0.27781 c -0.0222,0.32237 -0.0179,0.64556 -7.3e-4,1 0.089,1.84131 2.9672,2.09594 2.9672,2.09594 -2.31108,2.9705 -1.30634,4.22252 1.99649,4.75148 0,0 -1.89155,0.30818 -1.59655,3.78007 0.10216,1.20236 3.15422,2.75233 3.15422,2.75233 0,0 -1.4832,4.48802 3.27778,4.68992 l 4.65832,0.027 c 0.0534,0.26137 1.48431,1.33904 1.32069,1.60306 0.7233,-0.2318 1.58134,-0.28945 2.42655,-0.6864 l -1.56114,-1.84491 c 0,0 -5.75524,-0.10749 -7.93713,-0.50586 -2.18189,-0.39838 -1.1859,-2.16662 -1.1856,-2.56338 2.9e-4,-0.39676 3.19169,-2.08051 4.28293,-2.27809 1.09124,-0.19757 6.43722,0.37976 6.43722,0.37976 l -1.47887,-0.86151 c 0,0 -2.19821,-0.21725 -4.08217,-1.11135 -1.26729,-0.60145 -4.84133,-5.16388 -4.24582,-5.65939 0.59552,-0.49552 9.62507,-0.0866 9.62507,-0.0866 l -0.40595,-0.40655 -8.43699,-0.69374 -1.49852,-2.00111 c 0,0 -1.07508,-1.51136 1.40784,-2.15521 2.48291,-0.64384 7.93824,-0.99413 7.93824,-0.99413 z"
           id="path3076"
           inkscape:connector-curvature="0"
           sodipodi:nodetypes="ccccccsccccccsssccssccccscc"
           inkscape:transform-center-x="-220.72923"
           inkscape:transform-center-y="-16.922727" />
        <path
           style="color:#000000;fill:#ffccaa;fill-opacity:1;fill-rule:nonzero;stroke:none;stroke-width:1;marker:none;visibility:visible;display:inline;overflow:visible;enable-background:accumulate"
           d="m 448.35438,351.48923 c 0,0 0.87205,-4.73395 3.11444,-6.22888 2.2424,-1.49493 15.19846,-5.73057 16.69339,-5.73057 1.49493,0 8.1182,10.3724 8.86567,11.61818 0.74746,1.24577 2.49155,4.23563 2.49155,4.23563 0,0 -6.47803,0.74747 -7.97296,-0.24915 -1.49493,-0.99662 -4.63004,-4.64184 -4.63004,-4.64184 0,0 -2.16906,4.35938 -4.73394,5.35684 -4.48479,1.74408 -13.82811,-4.36021 -13.82811,-4.36021 z"
           id="path4119"
           inkscape:connector-curvature="0"
           sodipodi:nodetypes="cssscscsc"
           inkscape:transform-center-x="-210.59057"
           inkscape:transform-center-y="-24.020567" />
      </g>
      <path
         inkscape:transform-center-y="-70.645096"
         inkscape:transform-center-x="22.404143"
         inkscape:connector-curvature="0"
         id="path4143"
         d="m 213.27666,417.26614 c 0,0 11.46113,26.16127 18.93578,33.88508 7.47465,7.7238 32.39015,8.22211 32.39015,8.22211 l -16.19507,-45.84452 z"
         style="color:#000000;fill:#7c916f;fill-opacity:1;fill-rule:nonzero;stroke:none;stroke-width:1;marker:none;visibility:visible;display:inline;overflow:visible;enable-background:accumulate" />
      <path
         sodipodi:nodetypes="csssscccccssscc"
         inkscape:transform-center-y="-102.28055"
         inkscape:transform-center-x="67.903636"
         inkscape:connector-curvature="0"
         id="path4071"
         d="m 165.7846,386.22872 c 0,0 -7.04716,3.52358 -8.4566,3.87594 -1.40943,0.35236 -4.40448,0.52854 -6.16627,1.76179 -1.76179,1.23326 -4.93301,4.93302 -6.34245,5.99009 -1.40943,1.05708 0.17618,7.92807 1.40944,11.62783 1.23325,3.69976 4.18064,9.94258 5.41389,9.7664 l 7.37064,-0.41878 c 0.70472,-0.17618 4.48535,0.38989 4.48535,0.38989 l 8.53315,0.68595 18.62733,2.20945 43.24477,-2.48094 c 4.22502,-0.24239 8.16634,-7.3331 8.69488,-10.32815 0.52853,-2.99505 -12.86108,-15.32759 -14.27052,-15.85613 -1.40943,-0.52853 -28.18867,0.52854 -28.18867,0.52854 z"
         style="color:#000000;fill:#5d6c53;fill-opacity:1;fill-rule:nonzero;stroke:none;stroke-width:1;marker:none;visibility:visible;display:inline;overflow:visible;enable-background:accumulate" />
      <path
         inkscape:transform-center-y="-142.24712"
         inkscape:transform-center-x="-12.106089"
         sodipodi:nodetypes="cccccssscccccssccccc"
         inkscape:connector-curvature="0"
         id="path3051"
         d="m 260.74052,395.24931 -0.77949,-33.32334 -10.91291,-18.90272 3.89747,-22.21556 30.20536,-2.72823 c 2.16883,5.09193 6.96223,11.5363 7.11288,12.95908 0.33746,3.18693 -0.71184,4.77305 0.65005,7.16896 1.50828,2.65345 9.36682,9.80719 6.18724,10.87067 -3.46044,1.15743 -3.34595,1.4948 -3.00146,2.25268 l 0.93856,2.99506 c 0.97437,0.87693 -1.55898,3.11797 -1.55898,3.11797 0,0 1.46155,2.24104 0.58462,2.63079 l -1.75386,2.82566 c 0,0 0.7795,4.87184 -0.58462,5.26158 -1.62872,0.46535 -2.38949,0.40215 -4.18978,0.58462 -3.93108,0.39844 -9.64623,0.0974 -9.64623,0.0974 l 3.9949,19.77964 13.15396,7.01544 -15.58987,15.97962 z"
         style="color:#000000;fill:#ffccaa;fill-opacity:1;fill-rule:nonzero;stroke:none;stroke-width:1;marker:none;visibility:visible;display:inline;overflow:visible;enable-background:accumulate" />
      <path
         inkscape:transform-center-y="-173.48455"
         inkscape:transform-center-x="-2.4810723"
         sodipodi:nodetypes="ccccsccsccscsscsssssssssscscscccsccsscssccscccccsssccscscsssc"
         inkscape:connector-curvature="0"
         id="path3831"
         d="m 261.90976,355.78745 -2.82566,1.55899 c 0,0 2.04617,5.74877 2.1436,6.72313 0.0974,0.97437 -1.26667,3.02054 -1.26667,3.02054 0,0 -2.53336,-4.38465 -2.53336,-4.87183 0,-0.48719 0.19488,-2.04617 0.19488,-2.04617 l -0.58462,2.04617 c 0,0 -4.87184,-1.26668 -5.8462,-1.07181 -0.97437,0.19488 -2.53336,0.19488 -2.53336,0.19488 l 2.72823,-2.24105 c 0,0 -7.40519,-3.41028 -8.67186,-3.41028 -1.26668,0 -4.96927,0 -4.96927,0 0,0 -0.19488,-1.36411 0.77949,-2.72823 0.97437,-1.36411 0.87693,-5.65132 1.0718,-6.918 0.19488,-1.26668 0.19488,-6.33338 0.19488,-6.33338 0,0 -5.16415,1.46155 -5.74877,1.46155 -0.58462,0 -0.87693,-0.7795 0.19488,-1.8513 1.0718,-1.0718 4.96927,-4.18978 4.57952,-5.8462 -0.38975,-1.65642 -2.82566,-4.48209 -3.60516,-4.48209 -0.77949,0 -4.09234,0.87693 -2.24104,-1.65642 1.8513,-2.53335 3.9949,-4.67696 4.57952,-6.23595 0.58462,-1.55898 3.99491,-8.47699 6.04108,-8.67186 2.04617,-0.19487 10.73163,-0.96049 11.51112,-2.12973 0.77949,-1.16924 4.37105,-2.78827 4.37105,-3.37289 0,-0.58462 3.21541,-3.02054 4.87184,-2.82567 1.65642,0.19488 4.28721,0.19488 5.8462,0.0974 1.55898,-0.0974 7.30775,-4.67696 10.13341,-3.9949 2.82566,0.68205 14.90781,8.08724 14.90781,8.08724 0,0 -3.31285,0.29231 -4.18978,0.29231 -0.87693,0 -0.87693,2.43592 -0.0974,3.31285 0.77949,0.87693 2.24104,2.24104 2.24104,2.24104 0,0 -4.18978,1.26668 -3.9949,1.75386 0.19487,0.48718 3.89746,3.70259 4.28721,4.18978 0.38975,0.48718 -0.58462,1.36411 -0.58462,1.36411 l 0.58462,3.11797 c 0,0 -1.55899,-2.53335 -2.9231,-2.53335 -1.36411,0 -5.35902,0.58462 -6.52826,0.77949 -1.16924,0.19488 -3.21541,0.0974 -3.21541,0.0974 0,0 2.04617,2.33848 1.65643,2.53335 -0.38975,0.19488 -1.46155,1.65643 -2.82567,1.36412 -1.36411,-0.29231 -4.96927,0.29231 -6.33338,0.19487 -1.36411,-0.0974 -1.55899,-1.46155 -3.50772,-1.36411 -1.94873,0.0974 -4.18978,0.38974 -4.67696,1.65642 -0.48718,1.26668 0,2.7744 0,2.7744 l 1.26668,0.97436 c 0,0 -2.53336,0.58462 -2.63079,1.65643 -0.0974,1.0718 3.02053,4.28721 3.02053,4.28721 0,0 -2.33848,0.58462 -2.24104,1.16924 0.0974,0.58462 1.46155,2.63079 1.94873,2.9231 0.48719,0.29231 1.94874,9.45136 1.94874,9.74367 0,0.29231 3.02053,5.55389 3.70259,6.13851 0.68206,0.58462 0.68206,1.36411 0.68206,1.36411 l -8.7693,-0.58462 c 0,0 1.55898,-5.26158 1.0718,-5.65133 -0.48718,-0.38974 -3.70259,-0.97436 -3.70259,-0.97436 0,0 1.85129,-0.68206 2.24104,-1.55899 0.38975,-0.87693 -3.11797,-6.04107 -3.11797,-6.04107 0,0 -3.41029,-1.8513 -4.87184,-1.65642 -1.46155,0.19487 -4.48208,0.97436 -2.9231,4.77439 1.55899,3.80003 3.19221,5.85892 5.80349,7.40646 1.57742,0.93484 2.28866,1.8575 3.35553,1.75266 z"
         style="color:#000000;fill:#502d16;fill-opacity:1;fill-rule:nonzero;stroke:none;stroke-width:1;marker:none;visibility:visible;display:inline;overflow:visible;enable-background:accumulate" />
      <path
         inkscape:transform-center-y="-138.23003"
         inkscape:transform-center-x="-12.038027"
         sodipodi:nodetypes="cccc"
         inkscape:connector-curvature="0"
         id="path3858"
         d="m 277.88937,368.84393 c -4.66782,-0.32483 -6.7351,-2.21 -9.73786,-3.53387 2.91202,2.4282 4.18332,5.02047 10.46057,7.11215 z"
         style="color:#000000;fill:#d38d5f;fill-opacity:1;fill-rule:nonzero;stroke:none;stroke-width:1;marker:none;visibility:visible;display:inline;overflow:visible;enable-background:accumulate" />
      <path
         inkscape:transform-center-y="-172.74401"
         inkscape:transform-center-x="-22.644364"
         sodipodi:nodetypes="cscsacc"
         inkscape:connector-curvature="0"
         id="path3821"
         d="m 278.27912,335.81294 c 0.48718,-0.29231 6.52826,-3.70258 7.11288,-3.60516 0.58462,0.0974 3.9949,0.48719 3.9949,0.48719 0,0 0.97437,3.02053 -0.19487,2.72822 -1.16924,-0.29231 -2.7653,-0.95923 -4.18978,-0.87693 -2.05073,0.11849 -5.35902,2.04617 -5.8462,1.94874 -0.48718,-0.0974 -1.16924,-0.19488 -0.87693,-0.68206 z"
         style="color:#000000;fill:#502d16;fill-opacity:1;fill-rule:nonzero;stroke:none;stroke-width:1;marker:none;visibility:visible;display:inline;overflow:visible;enable-background:accumulate" />
      <path
         inkscape:transform-center-y="-166.13008"
         inkscape:transform-center-x="-23.049612"
         sodipodi:nodetypes="cccscccscsscc"
         inkscape:connector-curvature="0"
         id="path3823"
         d="m 281.1535,341.12323 c 0,0 0.14209,-0.301 -1.36046,-0.92053 2.00382,0.68089 9.21745,-2.83048 9.20065,-3.63226 0,0 -0.83284,1.70124 -1.55552,2.26304 -0.51922,0.40363 -1.8513,0.68205 -1.8513,0.68205 l 0,1.65643 2.04617,0.48718 c 0,0 -0.48718,1.26668 -0.48718,1.65642 0,0.38975 0.48718,2.04617 0.48718,2.04617 0,0 -1.55899,-2.82566 -2.33848,-3.02053 -0.7795,-0.19488 -1.03417,0.16365 -2.34956,-0.37229 -0.36094,-0.14705 -1.7915,-0.84571 -1.7915,-0.84571 z"
         style="color:#000000;fill:#d38d5f;fill-opacity:1;fill-rule:nonzero;stroke:none;stroke-width:1;marker:none;visibility:visible;display:inline;overflow:visible;enable-background:accumulate" />
      <path
         inkscape:transform-center-y="-166.75242"
         inkscape:transform-center-x="-22.659757"
         sodipodi:nodetypes="cccc"
         inkscape:connector-curvature="0"
         id="path3825"
         d="m 281.54325,341.12324 c 1.41097,-0.8973 1.79967,-1.59341 4.62824,-1.90002 l 0.29231,2.24105 c -0.88947,-0.54265 -3.22494,-0.25903 -4.92055,-0.34103 z"
         style="color:#000000;fill:#000000;fill-opacity:1;fill-rule:nonzero;stroke:none;stroke-width:1;marker:none;visibility:visible;display:inline;overflow:visible;enable-background:accumulate" />
      <path
         inkscape:transform-center-y="-149.51829"
         inkscape:transform-center-x="-29.725058"
         sodipodi:nodetypes="ccscccc"
         inkscape:connector-curvature="0"
         id="path3827"
         d="m 295.09068,354.76864 c 0,0 -3.7894,1.65356 -4.47838,1.86025 -0.68898,0.2067 -1.94994,0.51487 -2.68703,0.89568 -1.6717,0.86367 -0.74952,1.05281 -0.15308,2.83867 0.2067,0.27559 0.34795,-1.92079 0.76134,-2.12749 0.41339,-0.20669 5.1645,-0.98188 5.1645,-0.98188 1.59848,-1.28211 1.54546,-1.52363 1.39265,-2.48523 z"
         style="color:#000000;fill:#d38d5f;fill-opacity:1;fill-rule:nonzero;stroke:none;stroke-width:1;marker:none;visibility:visible;display:inline;overflow:visible;enable-background:accumulate" />
      <path
         inkscape:transform-center-y="-145.68175"
         inkscape:transform-center-x="-30.133577"
         inkscape:connector-curvature="0"
         id="path3829"
         d="m 294.25873,359.73364 c 0,0 -3.60515,0.0974 -3.89746,0.19487 -0.29231,0.0974 -1.99746,1.12052 -1.60771,1.36412 0.38975,0.24359 3.50772,1.80257 3.50772,1.80257 z"
         style="color:#000000;fill:#ffb380;fill-opacity:1;fill-rule:nonzero;stroke:none;stroke-width:1;marker:none;visibility:visible;display:inline;overflow:visible;enable-background:accumulate" />
      <path
         sodipodi:nodetypes="cssscssssscccsccsccccc"
         inkscape:transform-center-y="-54.44744"
         inkscape:transform-center-x="-6.1293322"
         inkscape:connector-curvature="0"
         id="path3937"
         d="m 218.82045,418.49941 c 0,0 16.53555,7.71659 19.84266,11.29929 3.30711,3.58271 14.882,47.40191 14.882,50.43343 0,3.03152 -2.75593,11.2993 -3.03152,12.67726 -0.27559,1.37796 1.65356,3.5827 1.65356,3.5827 0,0 -1.92915,0.55119 -1.92915,1.92915 0,1.37796 3.30711,11.29928 5.78744,12.67725 0.45286,0.25159 2.55941,0.28269 5.71075,0.15033 14.10856,-0.59258 49.15848,-4.46148 50.51012,-6.48895 1.65356,-2.48034 4.13389,-19.84266 3.8583,-20.66944 -0.27559,-0.82678 -2.20474,-9.09456 -2.20474,-9.09456 l 1.10237,-2.75592 -2.75593,-2.75593 c 0,0 -2.48033,-36.92939 -1.65355,-39.68532 0.82678,-2.75592 2.62869,-10.9521 2.62869,-10.9521 -0.51409,-5.14094 -6.48699,-24.87492 -6.48699,-24.87492 0,0 -17.36232,1.65355 -19.84266,2.20474 -2.48033,0.55118 -3.85829,3.85829 -3.85829,3.85829 l 0.55118,4.68507 -4.13389,-5.78744 -46.29954,-4.13389 z"
         style="color:#000000;fill:#5d6c53;fill-opacity:1;fill-rule:nonzero;stroke:none;stroke-width:1;marker:none;visibility:visible;display:inline;overflow:visible;enable-background:accumulate" />
      <path
         sodipodi:nodetypes="ccsscscsssscccscscccsc"
         inkscape:connector-curvature="0"
         id="path3298"
         d="m 145.09375,397.625 c -0.0888,0.0743 -0.20283,0.15993 -0.28125,0.21875 -1.40943,1.05708 0.17299,7.92524 1.40625,11.625 1.23325,3.69976 4.048,11.11368 5.28125,10.9375 1.23326,-0.17618 3.71875,-1.0625 3.71875,-1.0625 0,0 1.92029,1.58243 2.625,1.40625 0.70472,-0.17618 4.25,-1.40625 4.25,-1.40625 0,0 0.51946,3.53125 2.28125,3.53125 1.76179,0 6.52535,-1.9375 7.40625,-1.9375 0.88089,0 17.44293,2.46875 18.5,2.46875 1.05708,0 38.74045,-2.82382 42.96875,-3 2.03864,-0.0849 4.16619,-1.98274 5.875,-4.25 -6.65876,-1.49749 -14.69508,-1.61742 -22.6875,-1.78125 3.34592,1.1135 8.73051,1.20766 10.03125,3.34375 0,0 -31.10998,3.06954 -33.9375,2.8125 -2.82752,-0.25705 -20.8125,-6.6875 -20.8125,-6.6875 0,0 -4.62806,5.4133 -5.65625,5.15625 -1.02819,-0.25704 0.25,-4.625 0.25,-4.625 l -7.96875,3.84375 -1.8125,-2.5625 c 0,0 -3.58578,3.59773 -6.15625,2.3125 -1.69884,-0.84942 -3.94373,-12.47927 -5.28125,-20.34375 z"
         style="color:#000000;fill:#37483e;fill-opacity:1;fill-rule:nonzero;stroke:none;stroke-width:1;marker:none;visibility:visible;display:inline;overflow:visible;enable-background:accumulate" />
      <path
         sodipodi:nodetypes="cccccccccscssscscccsccccssccs"
         inkscape:connector-curvature="0"
         id="path3259"
         d="m 288.53125,396.03125 -2.4375,1.1875 4.4375,8.53125 L 276,408.46875 275.46875,411.75 292,408.03125 306.625,435.5625 c 2.0683,1.67418 1.09375,-2.39509 1.09375,-3.71875 z m -47.6875,18.0625 c -7.12018,0.0861 -12.15535,4.60598 -18.15625,6.28125 5.088,2.50671 13.67256,6.94997 15.96875,9.4375 3.30711,3.58271 14.875,47.37473 14.875,50.40625 0,3.03152 -2.75566,11.30954 -3.03125,12.6875 -0.27559,1.37796 1.65625,3.59375 1.65625,3.59375 0,0 -1.90625,0.52829 -1.90625,1.90625 0,0.33334 0.73632,6.85231 4.85093,12.68374 l 13.12506,9.05555 -2.85099,-24.33304 c 0,0 -10.19898,-6.1824 -10.5625,-8 -0.36352,-1.81759 2.9375,-11.25 2.9375,-11.25 l -12.375,-41.46875 2.53125,0.75 L 238.5,423.5625 c 0,0 5.78521,-1.4429 9.28125,1 6.03772,4.21892 16.3854,18.4936 17.10491,18.35523 1.6933,-0.32563 2.30134,-8.73023 2.30134,-8.73023 L 248.78125,415.75 c -2.94719,-1.22387 -5.56411,-1.68494 -7.9375,-1.65625 z"
         style="color:#000000;fill:#37483e;fill-opacity:1;fill-rule:nonzero;stroke:none;stroke-width:1;marker:none;visibility:visible;display:inline;overflow:visible;enable-background:accumulate" />
      <path
         inkscape:transform-center-y="-93.821076"
         inkscape:transform-center-x="16.850812"
         sodipodi:nodetypes="csscssscscsc"
         inkscape:connector-curvature="0"
         id="path3852"
         d="m 210.85295,393.30057 c 0,0 9.74366,1.75386 16.36936,5.65133 6.62569,3.89747 20.07195,18.70784 22.80018,22.80018 2.72822,4.09234 15.00524,19.68221 15.00524,19.68221 0,0 10.71804,-19.68221 12.08215,-21.63094 1.36411,-1.94874 1.36411,-13.44626 0,-15.20012 -1.36411,-1.75386 -14.03088,-6.82057 -19.48733,-7.98981 -5.45646,-1.16924 -13.25139,-11.49753 -13.25139,-11.49753 0,0 -6.04107,5.45646 -8.37955,5.8462 -2.33848,0.38975 -6.6257,1.16924 -6.6257,1.16924 0,0 -4.09234,-2.72822 -5.8462,-2.53335 -1.75386,0.19487 -12.66676,3.70259 -12.66676,3.70259 z"
         style="color:#000000;fill:#7c916f;fill-opacity:1;fill-rule:nonzero;stroke:none;stroke-width:1;marker:none;visibility:visible;display:inline;overflow:visible;enable-background:accumulate" />
      <path
         inkscape:transform-center-y="-112.36696"
         inkscape:transform-center-x="0.38990971"
         sodipodi:nodetypes="csccssasc"
         inkscape:connector-curvature="0"
         id="path3854"
         d="m 278.11142,413.577 c 0,0 1.92156,-10.14301 -0.22205,-13.84561 -2.1436,-3.70259 -17.31996,-11.79723 -17.31996,-11.79723 l -0.2777,-11.87165 c 0,0 -12.99745,-0.88516 -15.33593,1.25845 -2.33848,2.14361 -2.9231,7.98981 0.19487,11.10778 3.11798,3.11797 9.67556,7.06772 15.00525,9.74367 5.01432,2.5176 13.83601,3.31284 15.78474,5.8462 1.94873,2.53335 2.17078,9.55839 2.17078,9.55839 z"
         style="color:#000000;fill:#bec8b7;fill-opacity:1;fill-rule:nonzero;stroke:none;stroke-width:1;marker:none;visibility:visible;display:inline;overflow:visible;enable-background:accumulate" />
      <path
         inkscape:transform-center-y="-122.48972"
         inkscape:transform-center-x="4.3212302"
         sodipodi:nodetypes="cscc"
         inkscape:connector-curvature="0"
         id="path4094"
         d="m 260.56941,387.93416 c 0,0 -6.34286,-2.41016 -7.04758,-4.34813 -0.70471,-1.93797 6.89189,-2.3073 6.89189,-2.3073 z"
         style="color:#000000;fill:#5d6c53;fill-opacity:1;fill-rule:nonzero;stroke:none;stroke-width:1;marker:none;visibility:visible;display:inline;overflow:visible;enable-background:accumulate" />
      <path
         inkscape:transform-center-y="-102.68982"
         inkscape:transform-center-x="19.966388"
         sodipodi:nodetypes="cssscscc"
         inkscape:connector-curvature="0"
         id="path3856"
         d="m 229.36591,392.13133 c 0,0 12.08215,5.94364 16.85655,13.93344 4.77439,7.98981 5.55389,9.35392 6.13851,10.42573 0.58462,1.0718 1.46155,1.0718 0.77949,-1.65643 -0.68206,-2.72822 -7.21031,-10.42572 -7.21031,-10.42572 0,0 -10.71804,-9.45136 -12.37446,-11.20522 -1.65642,-1.75386 -1.59026,-1.53946 -1.59026,-1.53946 z"
         style="color:#000000;fill:#5d6c53;fill-opacity:1;fill-rule:nonzero;stroke:none;stroke-width:1;marker:none;visibility:visible;display:inline;overflow:visible;enable-background:accumulate" />
      <path
         inkscape:transform-center-y="-100.29763"
         inkscape:transform-center-x="-38.819122"
         sodipodi:nodetypes="cccsssscscc"
         inkscape:connector-curvature="0"
         id="path3896"
         d="m 285.58471,390.44541 c 0,0 4.8209,12.82751 5.37208,13.79209 0.55119,0.96457 16.60445,30.10848 16.60445,30.10848 0,0 9.92133,-31.41755 10.47252,-37.89397 0.55118,-6.47642 -2.34254,-12.40166 -2.75593,-13.09065 -0.41339,-0.68898 -3.85829,-2.06694 -5.23626,-1.79135 -1.37796,0.2756 -3.30711,3.03152 -3.7205,3.44491 -0.41338,0.41339 -2.48033,0.96457 -2.48033,0.96457 0,0 -1.37796,-2.06694 -2.89372,-3.03151 -1.51576,-0.96458 -18.72454,-3.69688 -18.72454,-3.69688 z"
         style="color:#000000;fill:#7c916f;fill-opacity:1;fill-rule:nonzero;stroke:none;stroke-width:1;marker:none;visibility:visible;display:inline;overflow:visible;enable-background:accumulate" />
      <path
         inkscape:transform-center-y="-117.88234"
         inkscape:transform-center-x="-28.274026"
         sodipodi:nodetypes="ccsssc"
         inkscape:connector-curvature="0"
         id="path3877"
         d="m 279.18442,375.256 2.69985,13.36757 c 0,0 9.41701,13.34029 9.00362,14.71825 -0.41338,1.37796 6.33863,-2.20474 7.30321,-4.82287 0.96457,-2.61813 4.13389,-16.25996 -0.96458,-20.11825 -5.09846,-3.8583 -13.21923,-4.10927 -18.0421,-3.1447 z"
         style="color:#000000;fill:#bec8b7;fill-opacity:1;fill-rule:nonzero;stroke:none;stroke-width:1;marker:none;visibility:visible;display:inline;overflow:visible;enable-background:accumulate" />
      <path
         inkscape:transform-center-y="-115.35201"
         inkscape:transform-center-x="-45.499982"
         sodipodi:nodetypes="cccsscc"
         inkscape:connector-curvature="0"
         id="path3915"
         d="m 306.3125,385 c -0.41338,0.41339 -2.46875,0.96875 -2.46875,0.96875 0,0 -0.0844,-0.0978 -0.125,-0.15625 0.83158,1.80087 1.74386,3.75593 2.25,4.90625 0.75788,1.72246 0.62426,4.97636 0.96875,7.25 0.34449,2.27364 2.61786,-3.58513 3.03125,-4.6875 -0.10345,-3.32276 -1.5885,-6.05647 -3.65625,-8.28125 z"
         style="color:#000000;fill:#5d6c53;fill-opacity:1;fill-rule:nonzero;stroke:none;stroke-width:1;marker:none;visibility:visible;display:inline;overflow:visible;enable-background:accumulate" />
      <path
         inkscape:transform-center-y="-86.341856"
         inkscape:transform-center-x="-25.807347"
         inkscape:connector-curvature="0"
         id="path3978"
         d="m 290.88844,436.70023 -6.22887,-31.89184 -1.24578,0.24916 z"
         style="color:#000000;fill:#37483e;fill-opacity:1;fill-rule:nonzero;stroke:none;stroke-width:1;marker:none;visibility:visible;display:inline;overflow:visible;enable-background:accumulate" />
      <path
         inkscape:transform-center-y="-99.547076"
         inkscape:transform-center-x="-23.315796"
         inkscape:connector-curvature="0"
         id="path3952"
         d="m 272.78252,405.805 c 0,0 -0.49831,3.73733 0,4.85852 0.49831,1.1212 2.49155,1.37036 2.49155,1.37036 0,0 1.37036,-1.74409 2.49155,-1.86867 1.1212,-0.12457 17.69001,-3.98648 18.56205,-3.98648 0.87204,0 0.24915,-3.11443 -0.37373,-3.11443 -0.62289,0 -3.11444,0.74746 -3.11444,0.74746 0,0 -16.31965,2.61613 -16.81796,2.49155 -0.49831,-0.12458 -3.23902,-0.49831 -3.23902,-0.49831 z"
         style="color:#000000;fill:#784421;fill-opacity:1;fill-rule:nonzero;stroke:none;stroke-width:1;marker:none;visibility:visible;display:inline;overflow:visible;enable-background:accumulate" />
      <path
         sodipodi:nodetypes="cccsc"
         inkscape:connector-curvature="0"
         id="path3323"
         d="m 281.77314,417.47519 0.59071,3.04448 8.04288,-1.31776 c 0,0 0.18176,-1.09056 -0.18176,-1.09056 -0.36352,0 -8.45183,-0.63616 -8.45183,-0.63616 z"
         style="color:#000000;fill:#37483e;fill-opacity:1;fill-rule:nonzero;stroke:none;stroke-width:1;marker:none;visibility:visible;display:inline;overflow:visible;enable-background:accumulate" />
      <path
         inkscape:transform-center-y="-89.082561"
         inkscape:transform-center-x="-25.004513"
         inkscape:connector-curvature="0"
         id="path3972"
         d="m 281.79428,417.14156 0.87205,2.98986 8.22211,-1.24577 c 0,0 0.12458,-2.98986 -0.37373,-2.98986 -0.49831,0 -8.72043,1.24577 -8.72043,1.24577 z"
         style="color:#000000;fill:#784421;fill-opacity:1;fill-rule:nonzero;stroke:none;stroke-width:1;marker:none;visibility:visible;display:inline;overflow:visible;enable-background:accumulate" />
      <path
         inkscape:connector-curvature="0"
         id="path3325"
         d="m 283.86337,426.4723 0.86336,3.58976 6.63423,-1.136 -0.13632,-2.68096 z"
         style="color:#000000;fill:#37483e;fill-opacity:1;fill-rule:nonzero;stroke:none;stroke-width:1;marker:none;visibility:visible;display:inline;overflow:visible;enable-background:accumulate" />
      <path
         inkscape:transform-center-y="-79.365516"
         inkscape:transform-center-x="-26.803967"
         inkscape:connector-curvature="0"
         id="path3974"
         d="m 284.16126,426.11114 0.87204,3.61275 7.10091,-1.24578 -0.12457,-2.7407 z"
         style="color:#000000;fill:#784421;fill-opacity:1;fill-rule:nonzero;stroke:none;stroke-width:1;marker:none;visibility:visible;display:inline;overflow:visible;enable-background:accumulate" />
      <path
         sodipodi:nodetypes="sscccs"
         inkscape:connector-curvature="0"
         id="path3327"
         d="m 288.68001,443.46684 c 0.60463,0.83671 1.77216,1.68128 3.04447,1.3632 1.27232,-0.31808 2.272,-1.31776 2.272,-1.31776 l -3.27168,-8.99711 c 0,0 -4.90751,0.72704 -5.67999,1.5904 0,0 1.64824,4.61167 3.6352,7.36127 z"
         style="color:#000000;fill:#37483e;fill-opacity:1;fill-rule:nonzero;stroke:none;stroke-width:1;marker:none;visibility:visible;display:inline;overflow:visible;enable-background:accumulate" />
      <path
         inkscape:transform-center-y="-67.833397"
         inkscape:transform-center-x="-28.736054"
         sodipodi:nodetypes="ccssc"
         inkscape:connector-curvature="0"
         id="path3976"
         d="m 285.0333,435.95276 c 0.78447,-1.29272 10.26134,-2.85946 10.09077,-1.49493 0,0 -0.62288,8.09754 -0.62288,8.845 0,0.74747 -4.11106,2.11782 -5.23226,0.62289 -1.1212,-1.49493 -4.23563,-7.97296 -4.23563,-7.97296 z"
         style="color:#000000;fill:#784421;fill-opacity:1;fill-rule:nonzero;stroke:none;stroke-width:1;marker:none;visibility:visible;display:inline;overflow:visible;enable-background:accumulate" />
      <path
         inkscape:transform-center-y="-99.681901"
         inkscape:transform-center-x="73.228453"
         inkscape:connector-curvature="0"
         id="path4052"
         d="m 178.90995,402.4372 c 0.52854,0 17.61792,-4.14021 17.61792,-4.14021 l 0.79281,9.95412 -4.14021,7.31144 -8.54469,0.96899 z"
         style="color:#000000;fill:#37483e;fill-opacity:1;fill-rule:nonzero;stroke:none;stroke-width:1;marker:none;visibility:visible;display:inline;overflow:visible;enable-background:accumulate" />
      <path
         inkscape:transform-center-y="-114.12742"
         inkscape:transform-center-x="61.167341"
         id="path4171"
         d="M 216.03125,379.75 177.875,393.65625 c 1.52128,4.77723 1.5625,12.53125 1.5625,12.53125 9.21873,-1.74408 23.90158,-10.02915 27.21875,-12.03125 2.52846,-1.52607 14.90625,-7.5625 14.90625,-7.5625 1.07088,-1.09624 0.90625,-2.375 0.90625,-2.375 0,0 -2.58711,1.23871 -4.5625,-0.0625 -1.00985,-0.6652 -1.53979,-2.46671 -1.875,-4.40625 z"
         style="color:#000000;fill:#5e5148;fill-opacity:1;fill-rule:nonzero;stroke:none;stroke-width:1;marker:none;visibility:visible;display:inline;overflow:visible;enable-background:accumulate"
         inkscape:connector-curvature="0" />
      <path
         inkscape:transform-center-y="-124.99444"
         inkscape:transform-center-x="62.927514"
         sodipodi:nodetypes="ccsscccccccscc"
         inkscape:connector-curvature="0"
         id="path4016"
         d="m 216.03125,368.9375 c -0.27111,0.0199 -0.54645,0.0589 -0.84375,0.125 -1.30539,0.29008 -4.24714,1.50064 -6.40625,2.1875 -5.94998,1.89283 -11.91599,3.74854 -17.96875,5.28125 -3.55069,0.89913 -10.75,2.3125 -10.75,2.3125 -1.4481,7.8021 -3.26729,9.15027 -1.90625,16.4375 l 35.91178,-14.14339 0.99081,2.45496 c 0.60388,0.80517 3.28491,1.28218 3.28491,1.28218 l -2.75,-4.28125 0.71875,-0.28125 c -0.5021,-2.90515 -0.73509,-6.76792 -0.3125,-7.71875 0.70472,-1.58561 3.15625,-2.93749 3.15625,-2.9375 0,0 -1.22725,-0.85802 -3.125,-0.71875 z"
         style="color:#000000;fill:#6c5d53;fill-opacity:1;fill-rule:nonzero;stroke:none;stroke-width:1;marker:none;visibility:visible;display:inline;overflow:visible;enable-background:accumulate" />
      <path
         inkscape:transform-center-y="-122.68975"
         inkscape:transform-center-x="64.721328"
         sodipodi:nodetypes="ccccccc"
         inkscape:connector-curvature="0"
         id="path4018"
         d="m 177.52247,391.38632 36.02236,-14.17666 2.12668,0.31026 0.0509,0.63894 -2.31174,-0.26883 -35.88771,13.71314 z"
         style="color:#000000;fill:#483e37;fill-opacity:1;fill-rule:nonzero;stroke:none;stroke-width:1;marker:none;visibility:visible;display:inline;overflow:visible;enable-background:accumulate" />
      <path
         id="path4020"
         d="m 209.5625,376.71875 c -0.70383,3.25813 0.35001,5.01571 1,6.46875 l 1.46875,-0.71875 c -0.70843,-0.9016 -1.21475,-3.2041 -1.21875,-5.75 l -1.25,0 z m -11.375,3.53125 -1.5625,0.6875 c 0.30149,3.5345 0.99578,6.46486 2.46875,8.125 l 1.9375,-1.59375 c -1.19448,-1.89806 -2.75335,-3.11243 -2.84375,-7.21875 z M 187,383.6875 l -1.5625,0.34375 c 0.22102,4.20853 1.40367,6.78072 2.71875,9.15625 L 190,392.21875 c -1.49282,-2.10652 -2.8918,-4.3478 -3,-8.53125 z"
         style="color:#000000;fill:#483e37;fill-opacity:1;fill-rule:nonzero;stroke:none;stroke-width:1;marker:none;visibility:visible;display:inline;overflow:visible;enable-background:accumulate"
         inkscape:connector-curvature="0" />
      <path
         inkscape:transform-center-y="-109.26826"
         inkscape:transform-center-x="81.714415"
         sodipodi:nodetypes="csssssssccssac"
         inkscape:connector-curvature="0"
         id="path4033"
         d="m 186.57375,377.59594 c 0,0 -1.23326,-1.23326 -2.81887,-1.23326 -1.58561,0 -6.87099,1.7618 -8.98514,2.64269 -2.11415,0.8809 -9.86603,4.58066 -11.45164,5.28538 -1.58562,0.70471 -3.52359,6.69481 -2.99505,10.74693 0.52854,4.05212 9.68985,21.49386 11.09929,21.84621 1.40943,0.35236 17.44174,2.99505 19.20353,2.29033 1.76179,-0.70471 7.75188,-7.04716 8.28042,-10.39457 0.52854,-3.3474 -0.88767,-9.87979 -0.88767,-9.87979 l -2.7022,1.27663 c 0,0 1.82808,9.48406 -1.34315,11.95057 -3.17122,2.46651 -5.64568,4.17149 -8.36851,-1.58562 -2.87887,-6.08703 -9.09452,-19.50487 -5.46155,-28.45294 0.98365,-2.42273 6.43054,-4.49256 6.43054,-4.49256 z"
         style="color:#000000;fill:#7c916f;fill-opacity:1;fill-rule:nonzero;stroke:none;stroke-width:1;marker:none;visibility:visible;display:inline;overflow:visible;enable-background:accumulate" />
      <path
         inkscape:transform-center-y="-117.46716"
         inkscape:transform-center-x="-25.310519"
         sodipodi:nodetypes="cscscc"
         inkscape:connector-curvature="0"
         id="path4096"
         d="m 280.10997,379.70186 c 0,0 4.33403,-1.09752 10.05713,1.41765 5.72311,2.51518 1.58562,18.67499 1.58562,18.67499 0,0 -3.63046,-6.66091 -4.33517,-7.36562 -0.70472,-0.70472 -5.53328,-3.80531 -5.53328,-3.80531 z"
         style="color:#000000;fill:#5d6c53;fill-opacity:1;fill-rule:nonzero;stroke:none;stroke-width:1;marker:none;visibility:visible;display:inline;overflow:visible;enable-background:accumulate" />
      <path
         inkscape:transform-center-y="-157.99751"
         inkscape:transform-center-x="2.8622095"
         id="path4182"
         d="m 255.53125,344.125 c -0.5219,0.0356 -0.93636,0.24201 -1.03125,0.90625 -0.18979,1.32847 0.84375,4 0.84375,4 0,0 -0.16766,-1.90739 0.78125,-1.8125 0.94891,0.0949 1.50456,-0.46646 1.125,-0.65625 -0.37957,-0.18978 -2.38413,-1.34147 -1.625,-1.53125 0.75913,-0.18978 4.9375,1.4375 4.9375,1.4375 0,0 -2.17381,-2.09261 -3.3125,-2.1875 -0.56935,-0.0475 -1.19685,-0.19184 -1.71875,-0.15625 z m 4.25,3.1875 c -0.63349,0.16646 -1.35082,2.74522 -2.0625,2.65625 -0.75913,-0.0949 -1.5,0.5 -1.5,0.5 0,0 -0.0103,0.73745 0.84375,1.78125 0.85402,1.0438 4.83805,1.62272 5.3125,1.8125 0.47446,0.18978 -0.67952,-1.4375 -1.34375,-1.4375 -0.66423,0 -1.03467,-2.08576 -0.75,-2.75 0.28467,-0.66424 0.75,-2.28125 0.75,-2.28125 0,0 -0.46076,-0.0915 -1.125,-0.28125 -0.0415,-0.0119 -0.0828,-0.0111 -0.125,0 z"
         style="color:#000000;fill:#d38d5f;fill-opacity:1;fill-rule:nonzero;stroke:none;stroke-width:1;marker:none;visibility:visible;display:inline;overflow:visible;enable-background:accumulate"
         inkscape:connector-curvature="0" />
      <g
         id="g4574"
         inkscape:transform-center-x="-137.68589"
         inkscape:transform-center-y="-12.815629">
        <path
           sodipodi:nodetypes="cccccccc"
           transform="translate(140.29507,97.982218)"
           inkscape:connector-curvature="0"
           id="path4497"
           d="M 231.85655,69.670094 107.95981,274.5367 l 2.05638,0 173.2498,176.07731 0.25705,1.79934 L 108.73096,275.30784 232.49917,71.083853 z"
           style="color:#000000;fill:#f4eed7;fill-opacity:1;fill-rule:nonzero;stroke:none;stroke-width:1;marker:none;visibility:visible;display:inline;overflow:visible;enable-background:accumulate" />
        <path
           style="color:#000000;fill:#782121;fill-opacity:1;fill-rule:nonzero;stroke:none;stroke-width:1;marker:none;visibility:visible;display:inline;overflow:visible;enable-background:accumulate"
           d="m 255.10745,371.25349 c 0,0 -2.29033,-1.93797 -2.46651,-3.17123 -0.17618,-1.23325 1.33431,-2.11701 3.25931,-2.5546 5.7337,-1.30337 19.64398,10e-6 19.64398,10e-6 l 5.99009,2.02606 z"
           id="path4130"
           inkscape:connector-curvature="0"
           sodipodi:nodetypes="cssccc"
           inkscape:transform-center-x="-5.7368676"
           inkscape:transform-center-y="-138.99523" />
        <path
           sodipodi:nodetypes="cssccc"
           inkscape:connector-curvature="0"
           id="path4132"
           d="m 254.95676,372.22128 c 0,0 -1.59458,2.54139 -1.38838,3.76998 0.2062,1.22859 1.9136,1.61254 3.88063,1.4456 5.85892,-0.49723 18.71847,-5.95859 18.71847,-5.95859 l 5.09331,-3.74757 z"
           style="color:#000000;fill:#782121;fill-opacity:1;fill-rule:nonzero;stroke:none;stroke-width:1;marker:none;visibility:visible;display:inline;overflow:visible;enable-background:accumulate"
           inkscape:transform-center-x="-6.0616153"
           inkscape:transform-center-y="-134.4939" />
        <rect
           style="color:#000000;fill:#483e37;fill-opacity:1;fill-rule:nonzero;stroke:none;stroke-width:1;marker:none;visibility:visible;display:inline;overflow:visible;enable-background:accumulate"
           id="rect4128"
           width="249.11736"
           height="2.4127588"
           x="189.64882"
           y="403.76218"
           inkscape:transform-center-x="-114.7405"
           inkscape:transform-center-y="-46.629185"
           transform="matrix(0.9891121,-0.14716403,0.14716403,0.9891121,0,0)" />
        <path
           style="color:#000000;fill:#b3b3b3;fill-opacity:1;fill-rule:nonzero;stroke:none;stroke-width:1;marker:none;visibility:visible;display:inline;overflow:visible;enable-background:accumulate"
           d="m 490.30665,334.43204 0.52853,4.05212 6.69481,-0.88089 3.52359,2.81886 21.31768,-8.4566 -22.9033,-2.64269 -3.17122,4.05212 z"
           id="path4136"
           inkscape:connector-curvature="0"
           inkscape:transform-center-x="-244.99519"
           inkscape:transform-center-y="-172.22368" />
        <path
           inkscape:connector-curvature="0"
           style="color:#000000;fill:#e6e6e6;fill-opacity:1;fill-rule:nonzero;stroke:none;stroke-width:1;marker:none;visibility:visible;display:inline;overflow:visible;enable-background:accumulate"
           d="m 499.78125,329.34375 c 0.16144,1.13232 0.52153,2.49149 1.28125,3.15625 0.91912,0.80423 12.42359,0.25733 20.5625,-0.21875 l 0.75,-0.3125 -22.59375,-2.625 z"
           id="path4138"
           inkscape:transform-center-x="-249.73436"
           inkscape:transform-center-y="-175.96938" />
      </g>
      <path
         inkscape:transform-center-y="-131.96819"
         inkscape:transform-center-x="27.621442"
         sodipodi:nodetypes="ssccsscsssscscs"
         inkscape:connector-curvature="0"
         id="path3997"
         d="m 215.02074,380.64036 c 0.77638,1.94572 0.74747,4.48479 3.98649,4.48479 3.23901,0 6.41574,-2.49155 7.1632,-3.11444 -0.74746,1.99324 1.05892,7.7238 3.79962,6.85176 0,0 6.11348,-0.6858 8.96958,-1.74408 3.22628,-1.19544 6.82207,-4.37593 7.81724,-5.51255 1.47087,-1.67994 -0.46717,-4.64052 -0.46717,-4.64052 0,0 2.86528,-0.80975 5.10768,-1.55722 2.24239,-0.74746 1.49492,-2.98986 0.4983,-4.9831 -0.99661,-1.99324 -2.24239,-5.23225 -3.23901,-6.97634 -0.99662,-1.74408 -4.23563,-2.49155 -5.48141,-1.99324 -1.24577,0.49831 -9.46789,2.2424 -9.46789,2.2424 0,0 -3.23901,-0.24916 -5.48141,0.74746 -2.24239,0.99662 -12.95606,7.72381 -12.95606,7.72381 0,0 -1.36583,5.6727 -0.24916,8.47127 z"
         style="color:#000000;fill:#ffccaa;fill-opacity:1;fill-rule:nonzero;stroke:none;stroke-width:1;marker:none;visibility:visible;display:inline;overflow:visible;enable-background:accumulate" />
      <path
         inkscape:transform-center-y="-126.92429"
         inkscape:transform-center-x="36.062543"
         id="path4026"
         d="m 229.15625,375.21875 c 0,0 0.18623,2.43898 -0.1875,2.875 -0.37374,0.43602 -4.78632,3.78378 -6.28125,4.53125 -1.49493,0.74746 -6.21875,1.3125 -6.21875,1.3125 l 0.0312,0.28125 c 0.68593,0.51409 1.5138,0.90625 2.5,0.90625 3.00351,0 5.86592,-2.09805 6.875,-2.90625 l 0.0312,-0.0312 c 0.0668,-0.0538 0.20234,-0.14778 0.25,-0.1875 -0.0166,0.0444 -0.0171,0.1083 -0.0312,0.15625 0.48443,-0.0695 2.07794,-0.25969 2.34375,0.21875 0.31144,0.5606 0.5625,2.375 0.5625,2.375 0,0 1.25253,-2.62563 2,-2.8125 0.74746,-0.18687 3.0625,1 3.0625,1 0,0 -0.56419,-0.43919 -1.0625,-0.9375 -0.49831,-0.49831 -3.875,-6.78125 -3.875,-6.78125 z"
         style="color:#000000;fill:#d38d5f;fill-opacity:1;fill-rule:nonzero;stroke:none;stroke-width:1;marker:none;visibility:visible;display:inline;overflow:visible;enable-background:accumulate"
         inkscape:connector-curvature="0" />
      <path
         transform="translate(-2.2233442e-6,9.3523295e-7)"
         inkscape:transform-center-y="-167.11423"
         inkscape:transform-center-x="-24.326276"
         d="m 285.97199,339.98193 c 0,0.22235 -0.13519,0.40259 -0.30195,0.40259 -0.16675,0 -0.30194,-0.18024 -0.30194,-0.40259 0,-0.22234 0.13519,-0.40258 0.30194,-0.40258 0.16676,0 0.30195,0.18024 0.30195,0.40258 z"
         sodipodi:ry="0.40258843"
         sodipodi:rx="0.30194134"
         sodipodi:cy="339.98193"
         sodipodi:cx="285.67004"
         id="path4176"
         style="color:#000000;fill:#ffffff;fill-opacity:1;fill-rule:nonzero;stroke:none;stroke-width:1;marker:none;visibility:visible;display:inline;overflow:visible;enable-background:accumulate"
         sodipodi:type="arc" />
      <path
         inkscape:transform-center-y="-157.31122"
         inkscape:transform-center-x="-31.874812"
         inkscape:connector-curvature="0"
         id="path4178"
         d="m 295.70121,349.10727 c 0,0 -2.01294,-0.46968 -2.48263,-0.13419 -0.46969,0.33549 -0.40259,1.14067 -0.73808,1.20776 -0.33549,0.0671 -1.74455,-0.20129 -1.74455,-0.20129 l 1.34196,0.73808 c 0,0 1.20777,-0.80518 1.87875,-1.00647 0.67098,-0.2013 1.74455,-0.60389 1.74455,-0.60389 z"
         style="color:#000000;fill:#c87137;fill-opacity:1;fill-rule:nonzero;stroke:none;stroke-width:1;marker:none;visibility:visible;display:inline;overflow:visible;enable-background:accumulate" />
    </g>
    <path
       style="color:#000000;fill:#483e37;fill-opacity:1;fill-rule:nonzero;stroke:none;stroke-width:1;marker:none;visibility:visible;display:inline;overflow:visible;enable-background:accumulate"
       d="m 245.95749,543.7464 c 0,0 -2.69904,20.65367 -3.83774,26.72669 -1.13869,6.07303 -3.70749,59.9481 -4.08706,62.60505 l -1.51825,8.72997 -0.37957,7.21172 -2.12016,5.0876 -5.53624,24.36117 21.65422,-2.63393 c 0,0 7.97084,-15.94169 8.72997,-18.21907 0.75913,-2.27738 -0.37956,-5.3139 -0.37956,-5.3139 l 2.92139,-3.68052 c 0.93937,-0.93937 -1.02357,-3.91076 -1.02357,-3.91076 l 25.05122,-83.12452 2.27739,0 c 0,0 16.70476,53.6297 18.22302,57.42534 1.51825,3.79564 4.86526,11.2718 4.86526,11.2718 l -0.82425,6.92425 3.01349,2.18924 -1.07357,3.41607 c 0,0 -4.88828,1.89782 -2.6109,4.93434 2.27739,3.03651 5.80464,4.26335 5.80464,4.26335 0,0 -1.22684,6.8361 -4.26336,8.35435 -3.03651,1.51826 -3.01744,9.01744 -3.01744,9.01744 l 23.91254,3.41608 c 0,0 4.93433,-6.45259 4.93433,-9.4891 0,-3.03651 -1.51826,-5.3139 -1.13869,-7.21172 0.37956,-1.89782 4.93433,-5.31389 4.55476,-10.24822 -0.37956,-4.93434 -6.45258,-55.79592 -9.4891,-69.83978 -3.03651,-14.04387 -12.52561,-37.57684 -12.52561,-37.57684 z"
       id="path3092"
       inkscape:connector-curvature="0"
       sodipodi:nodetypes="csccccccscccccsccccscsccsssscc" />
    <path
       style="color:#000000;fill:#241f1c;fill-opacity:1;fill-rule:nonzero;stroke:none;stroke-width:1;marker:none;visibility:visible;display:inline;overflow:visible;enable-background:accumulate"
       d="m 318.0625,538.4375 -72.09375,5.3125 c 0,0 -4.1738,20.11448 -5.3125,26.1875 -1.13869,6.07303 -3.05793,60.34305 -3.4375,63 -0.37956,2.65695 -2.28125,6.84375 -2.28125,6.84375 l 0.78125,1.90625 c 0,0 -5.3125,3.01299 -5.3125,4.53125 0,1.51826 4.9375,2.65625 4.9375,2.65625 l -4.9375,5.3125 2.28125,1.53125 -5.5625,21.15625 6.3125,0.46875 4.5625,-21.25 6.8125,-2.65625 -7.59375,0 c -4.47072,0 -1.26056,-2.01731 0.375,-3.78125 l 7.59375,-1.15625 -8.71875,-1.90625 1.90625,-2.65625 3.40625,-1.875 -2.65625,-1.53125 c 0,0 5.30337,-64.14642 6.0625,-67.5625 0.75913,-3.41607 3.0625,-10.625 3.0625,-10.625 0,0 0.35218,5.3125 2.25,5.3125 1.89782,0 30,-4.1875 30,-4.1875 -2.46933,10.38181 -10.55904,19.51466 -15.9375,29.25 6.21672,-9.53936 13.01885,-16.73712 18.59375,-28.84375 l 1.65625,-0.15625 0.625,-2.125 c 0.76042,0 1.52083,0 2.28125,0 0,0 0.96894,3.60517 1.125,4.1875 5.70654,17.56257 8.5767,36.12287 14.8125,53.5 1.51825,3.79564 6.0625,13.28125 6.0625,13.28125 l -1.90625,5.3125 c 1.61035,2.28133 3.4375,1.53125 3.4375,1.53125 l 0,3.40625 c 0,0 -5.71488,1.90098 -3.4375,4.9375 2.27739,3.03651 6.09375,4.9375 6.09375,4.9375 0,0 -5.04933,3.70119 -6.14527,6.46509 -1.256,3.16758 0.0515,10.22241 0.0515,10.22241 l 6.46875,0.9375 c 0.0186,-3.79525 0.12135,-14.46145 0.75,-15.71875 0.75913,-1.51826 4.5625,-5.34375 4.5625,-5.34375 0,0 -8.69482,1.90642 -9.5,-2.65625 l 3.03125,-4.53125 5.71875,-3.8125 c 0,0 -5.24628,0.065 -7.59375,-1.5 -1.34454,-0.89636 1.125,-7.21875 1.125,-7.21875 l -16.19303,-54.60857 14.77222,16.10295 c -8.168,-8.38901 -14.10972,-18.55904 -18.70419,-29.80688 3.8999,4.39404 8.75312,5.92815 13.3125,8.34375 -2.79757,-2.95906 -10.90202,-6.34268 -10.51848,-8.34741 13.03479,-2.4569 22.37708,-2.35746 30.79973,-1.62134 -3.67476,-10.96802 -7.78125,-21.15625 -7.78125,-21.15625 z"
       id="path3300"
       inkscape:connector-curvature="0"
       sodipodi:nodetypes="ccssccscccccccsccccccscsccccccccccccscaccsccccscccccccc" />
    <path
       style="color:#000000;fill:#5d6c53;fill-opacity:1;fill-rule:nonzero;stroke:none;stroke-width:1;marker:none;visibility:visible;display:inline;overflow:visible;enable-background:accumulate"
       d="m 249.67662,527.29775 -4.00981,22.51884 c 0.99662,-0.74747 2.98986,-1.49493 2.98986,-1.49493 0,0 0.99662,13.95268 3.73732,14.45099 2.74071,0.49831 35.87832,-5.48141 39.61565,-5.73057 3.73732,-0.24915 32.14099,-2.49155 35.13085,-1.99324 2.98986,0.49831 5.48141,2.98986 5.97972,1.99324 0.49831,-0.99662 -9.71705,-24.41719 -10.71367,-25.91212 -0.99662,-1.49493 -3.48817,-12.20859 -3.48817,-12.20859 l -53.31916,1.49493 z"
       id="path4109"
       inkscape:connector-curvature="0"
       sodipodi:nodetypes="cccsssssccc" />
    <path
       style="color:#000000;fill:#502d16;fill-opacity:1;fill-rule:nonzero;stroke:none;stroke-width:1;marker:none;visibility:visible;display:inline;overflow:visible;enable-background:accumulate"
       d="m 254.80593,525.44247 c 6.61422,-0.82678 47.26163,-5.19993 51.67111,-5.19993 l 16.51738,4.08439 c 0,0 -1.65355,-4.68507 -2.20474,-6.88981 -0.55118,-2.20474 -4.40948,-15.43318 -3.5827,-19.56707 0.82678,-4.13388 1.65355,-7.99218 1.65355,-9.64573 0,-1.65356 -4.68507,-4.13389 -4.68507,-4.13389 0,0 -11.29929,-4.13389 -23.97655,-2.48034 -12.67725,1.65356 -40.5121,15.98437 -43.26802,17.91352 z"
       id="path3939"
       inkscape:connector-curvature="0"
       sodipodi:nodetypes="cccssscscc" />
    <path
       style="color:#000000;fill:#37483e;fill-opacity:1;fill-rule:nonzero;stroke:none;stroke-width:1;marker:none;visibility:visible;display:inline;overflow:visible;enable-background:accumulate"
       d="m 306.8125,519.25 -41.21875,1.15625 -17.4375,7 c 0,0 -4.47129,13.44595 -5.21875,15.9375 -0.74747,2.49155 -0.75,7.96875 -0.75,7.96875 0,0 -4.74662,10.9696 -3.75,11.21875 0.99662,0.24916 3,0.25 3,0.25 0,0 3.22213,-12.22129 4.21875,-12.96875 0.37056,-0.27792 0.88257,-0.54175 1.375,-0.78125 0.25551,-1.5866 0.48312,-2.77703 0.625,-2.8125 0.75913,-0.18978 3.79266,-1.52897 2.84375,-1.71875 -0.94891,-0.18978 -3.03125,-0.375 -3.03125,-0.375 0,0 2.67609,-12.51984 3.625,-13.46875 0.94891,-0.94891 31.3125,-5.125 31.3125,-5.125 0,0 3.23016,1.1494 5.50754,0.95962 l 17.73974,-2.11131 c 1.61314,-0.47445 2.26984,-3.30451 2.26984,-3.30451 z"
       id="path4146"
       inkscape:connector-curvature="0"
       sodipodi:nodetypes="cccscscscsscsccccc" />
    <path
       style="color:#000000;fill:#3b2210;fill-opacity:1;fill-rule:nonzero;stroke:none;stroke-width:1;marker:none;visibility:visible;display:inline;overflow:visible;enable-background:accumulate"
       d="m 257.90416,497.2377 -8.71666,3.23105 1.59375,-3.09375 c -1.86329,0.99304 -3.35148,1.81166 -3.84375,2.15625 -2.75593,1.92915 -2.75,3.3125 -2.75,3.3125 0,0 5.7756,3.01105 5.5,6.59375 -0.27559,3.5827 -2.47441,12.96013 -2.75,14.0625 -0.27559,1.10237 -3.7946,5.54846 -3.875,6.875 -0.1342,2.21424 3.3125,2.21875 3.3125,2.21875 1.00647,-1.81165 0.53471,-3.72653 6.34375,-4.6875 6.57632,-1.08789 48.77802,-6.34375 53.1875,-6.34375 4.40948,0 13.96419,2.12386 13.96419,2.12386 l 0.85402,2.56364 2.26996,-1.92307 c -0.28467,-2.0876 -3.77567,-2.01443 -3.77567,-2.01443 l -1.53125,-4.375 -7.21875,-3.21875 -44.78702,1.8757 c 0,0 -2.27371,-15.7493 -3.4124,-17.07778 -1.13869,-1.32847 -4.36517,-2.27897 -4.36517,-2.27897 z"
       id="path3373"
       inkscape:connector-curvature="0"
       sodipodi:nodetypes="cccscssscsscccccccsc" />
    <path
       style="color:#000000;fill:#a05a2c;fill-opacity:1;fill-rule:nonzero;stroke:none;stroke-width:1;marker:none;visibility:visible;display:inline;overflow:visible;enable-background:accumulate"
       d="m 246.10411,508.34257 2.03312,10.05662 c 8.07479,-4.67014 49.27384,-4.19589 58.32164,-2.61562 0,0 9.37015,0.82677 12.12607,0 2.75593,-0.82678 10.74811,-11.0237 10.74811,-12.40167 0,-1.37796 0,-6.61422 -3.03152,-6.61422 -3.03152,0 -12.12607,3.03152 -13.77962,3.03152 -1.65356,0 -7.7166,-1.10237 -7.7166,-1.10237 -1.87334,-2.91901 -9.51743,-2.78335 -14.6064,-0.82678 0,0 -11.43709,1.10238 -21.9096,3.03152 -10.47252,1.92915 -22.1852,7.441 -22.1852,7.441 z"
       id="path3941"
       inkscape:connector-curvature="0"
       sodipodi:nodetypes="cccssssccsc" />
    <path
       style="color:#000000;fill:#784421;fill-opacity:1;fill-rule:nonzero;stroke:none;stroke-width:1;marker:none;visibility:visible;display:inline;overflow:visible;enable-background:accumulate"
       d="m 260.28125,502.90625 c -7.65808,2.35907 -14.1875,5.4375 -14.1875,5.4375 L 245,520.875 l 2.28585,1.17004 c 0,0 0.32995,-1.53491 1.13513,-2.13879 3.24862,-3.24862 38.99085,-5.3356 43.42277,-4.53125 6.54696,1.72714 14.625,0.40625 14.625,0.40625 0,0 9.36908,0.82677 12.125,0 2.45147,-0.73544 9.01035,-8.86347 10.4375,-11.625 -0.39803,-0.0666 -0.76828,-0.125 -1.0625,-0.125 -1.87874,0 -3.70593,8.85218 -12.875,10.75 -2.10257,0.43519 -12.87679,-1.61215 -14.21875,-1.34375 -1.34196,0.26839 -9.125,0.25 -9.125,0.25 0,0 -8.32715,-0.26839 -9.9375,0 -1.61036,0.26839 -23.09375,2.15625 -23.09375,2.15625 z"
       id="path3368"
       inkscape:connector-curvature="0"
       sodipodi:nodetypes="cccccccscssscscc" />
    <path
       style="color:#000000;fill:#c8ab37;fill-opacity:1;fill-rule:nonzero;stroke:none;stroke-width:1;marker:none;visibility:visible;display:inline;overflow:visible;enable-background:accumulate"
       d="m 298.28125,492.875 c -3.65197,0.005 -8.08558,0.33868 -11.125,1.82617 -1.49815,0.73319 -3.41905,2.28721 -3.28125,3.56538 0.13779,1.27816 1.50565,14.94919 1.78125,15.97173 0.27559,1.02253 1.23128,4.48633 4.125,4.86978 1.8554,0.24587 17.10358,0.51789 18.34375,-0.37683 1.24016,-0.89471 3.83244,-4.59291 3.28125,-6.63798 -0.55118,-2.04506 -2.5994,-13.30081 -2.875,-15.21807 -0.27559,-1.91725 -3.31103,-3.75941 -4.96875,-3.82626 -1.18849,-0.0479 -3.09007,-0.1769 -5.28125,-0.17392 z m -0.15625,3.42044 c 1.62317,-0.002 3.02584,0.0804 3.90625,0.11595 1.22798,0.0495 3.48335,1.42046 3.6875,2.84071 0.20415,1.42024 1.71671,9.76094 2.125,11.27587 0.40831,1.51493 -1.51883,4.26498 -2.4375,4.92775 -0.91869,0.66279 -12.18806,0.472 -13.5625,0.28987 -2.14358,-0.28405 -2.85835,-2.83689 -3.0625,-3.59436 -0.20416,-0.75747 -1.24169,-10.90878 -1.34375,-11.85561 -0.10209,-0.94683 1.35896,-2.09467 2.46875,-2.6378 2.25151,-1.10189 5.51347,-1.3587 8.21875,-1.36238 z"
       id="path3943"
       inkscape:connector-curvature="0" />
    <path
       style="color:#000000;fill:#a0892c;fill-opacity:1;fill-rule:nonzero;stroke:none;stroke-width:1;marker:none;visibility:visible;display:inline;overflow:visible;enable-background:accumulate"
       d="m 285.37604,500.35039 c -1.67819,0.19368 -0.61871,2.36367 0.1378,2.20474 2.69592,-0.56638 4.43393,-0.30277 5.64965,0.41338 1.14219,0.67283 1.0663,-2.07151 0.13779,-2.48033 -1.49208,-0.65696 -3.71194,-0.39323 -5.92524,-0.13779 z"
       id="path3948"
       inkscape:connector-curvature="0"
       sodipodi:nodetypes="sssss"
       inkscape:transform-center-x="-26.901455"
       inkscape:transform-center-y="-5.5213048" />
    <path
       style="color:#000000;fill:#a0892c;fill-opacity:1;fill-rule:nonzero;stroke:none;stroke-width:1;marker:none;visibility:visible;display:inline;overflow:visible;enable-background:accumulate"
       d="m 286.61621,508.82485 c -1.07386,0.25843 -0.98131,2.49998 0.0689,2.41144 1.82223,-0.15363 3.63572,-0.28976 5.09846,0.27559 1.09938,0.42491 1.71759,-2.22095 0.1378,-2.54923 -1.50217,-0.31215 -2.91582,-0.71282 -5.30516,-0.1378 z"
       id="path3950"
       inkscape:connector-curvature="0"
       sodipodi:nodetypes="sssss"
       inkscape:transform-center-x="-28.021021"
       inkscape:transform-center-y="2.9495005" />
    <path
       style="color:#000000;fill:#784421;fill-opacity:1;fill-rule:nonzero;stroke:none;stroke-width:1;marker:none;visibility:visible;display:inline;overflow:visible;enable-background:accumulate"
       d="m 223.18364,670.14121 29.98556,2.65695 c 0,0 -10.24823,46.30681 -10.24823,48.20463 0,1.89782 -3.03651,7.97085 -4.93433,9.86867 -1.89782,1.89782 0.37957,5.69346 0.37957,5.69346 0,0 1.13869,8.3504 0.75912,9.86866 -0.37956,1.51826 -3.66586,7.2154 -3.66586,7.2154 0,0 2.25559,4.64383 3.03733,7.21137 0.78175,2.56755 6.1593,12.48918 3.56521,15.57958 -2.59408,3.0904 -7.87189,6.21236 -13.41365,5.15021 -5.54175,-1.06216 -14.15239,-1.01847 -14.72328,-5.78556 -0.6548,-5.46788 -0.28979,-15.51074 3.33991,-21.83424 0.43198,-4.22671 -2.21619,-5.88473 4.02083,-13.60978 0,0 -2.46717,-1.70804 -3.98542,-5.12412 -1.51826,-3.41607 2.0876,-7.78106 2.46717,-9.29932 0.37956,-1.51825 -4.55477,-7.97084 -3.03651,-12.52561 1.51825,-4.55477 6.45258,-43.2703 6.45258,-43.2703 z"
       id="path3094"
       inkscape:connector-curvature="0"
       sodipodi:nodetypes="ccsscscssssccsssc" />
    <path
       style="color:#000000;fill:#784421;fill-opacity:1;fill-rule:nonzero;stroke:none;stroke-width:1;marker:none;visibility:visible;display:inline;overflow:visible;enable-background:accumulate"
       d="m 303.841,666.53535 c 7.78106,0.75913 33.7812,0.94891 33.7812,0.94891 0,0 -13.09496,53.51853 -14.23365,57.88352 -1.1387,4.36498 1.32847,7.02193 -0.37957,8.91975 -1.70804,1.89782 -3.60586,3.2263 -3.60586,3.2263 l 0.37957,2.27738 c 0,0 1.51825,0 1.70804,0.94891 0.18978,0.94891 -0.56935,3.79564 -0.56935,3.79564 l 0.56935,2.84673 c 0,0 1.32847,-1.70804 2.65694,-0.94891 1.32848,0.75913 10.6278,8.91976 13.09496,9.10954 2.46717,0.18978 9.29932,0.18978 11.00736,2.0876 1.70804,1.89782 1.32847,6.26281 0.75913,7.02193 -0.56935,0.75913 -2.65695,1.89782 -11.00736,2.46717 -8.35041,0.56935 -15.94169,-1.13869 -18.21907,-1.13869 -2.27739,0 -10.81758,2.0876 -14.61322,1.89782 -3.79564,-0.18978 -7.97084,-0.75913 -8.91975,-1.13869 -0.94891,-0.37957 -2.27738,-12.33583 -0.75913,-15.94169 1.51826,-3.60586 3.41608,-5.12412 4.17521,-6.07303 0.75912,-0.94891 -0.75913,-3.41607 -2.46717,-3.98542 -1.70804,-0.56935 -0.37956,-3.98542 0.75913,-5.12411 1.13869,-1.1387 -0.56935,-4.36499 -0.37957,-5.50368 0.18979,-1.13869 4.36499,-31.12425 5.50368,-36.24837 1.13869,-5.12411 0.75913,-27.32861 0.75913,-27.32861 z"
       id="path3096"
       inkscape:connector-curvature="0" />
    <path
       style="color:#000000;fill:#502d16;fill-opacity:1;fill-rule:nonzero;stroke:none;stroke-width:1;marker:none;visibility:visible;display:inline;overflow:visible;enable-background:accumulate"
       d="m 236.31941,724.78939 c 0,0 2.95232,-2.41553 0.40259,-2.81812 -2.54972,-0.40259 -8.99114,0.80518 -9.93051,1.34196 -0.93937,0.53678 -5.50204,5.63624 -3.6233,6.44142 1.87875,0.80517 5.50204,1.34196 5.50204,1.34196 0,0 -2.01294,-1.34196 -2.28133,-2.28134 -0.26839,-0.93937 6.9782,-4.42847 8.05177,-4.56267 1.07357,-0.13419 1.87874,0.53679 1.87874,0.53679 z"
       id="path3149"
       inkscape:connector-curvature="0" />
    <path
       style="color:#000000;fill:#502d16;fill-opacity:1;fill-rule:nonzero;stroke:none;stroke-width:1;marker:none;visibility:visible;display:inline;overflow:visible;enable-background:accumulate"
       d="m 223.1875,670.15625 c 0,0 -4.9505,38.69523 -6.46875,43.25 -1.51826,4.55477 3.44206,11.013 3.0625,12.53125 -0.11248,0.44993 -0.53817,1.18011 -1,2.03125 0.11503,-0.0804 0.25511,-0.15215 0.375,-0.21875 2.41553,-1.34196 3.47982,-6.18563 2.40625,-7.125 -1.07357,-0.93938 -3.36581,-4.30143 -3.5,-5.375 -0.12961,-1.03683 7.49164,-41.94665 8.03125,-44.84375 z m -6.125,64.40625 c 0.0578,0.23007 0.15087,0.46447 0.25,0.6875 1.51825,3.41608 3.96875,5.125 3.96875,5.125 -0.46824,0.57995 -0.86031,1.09066 -1.21875,1.59375 1.91515,-1.10212 4.4365,-2.54134 5.25,-2.8125 1.20777,-0.40259 1.47429,-1.74446 0.9375,-2.28125 -0.49205,-0.49205 -7.0604,-1.43517 -9.1875,-2.3125 z m 13.21875,8.78125 c -1.50971,0 -3.20768,0.0846 -4.28125,0.21875 -2.14714,0.26839 -7.27205,3.90813 -7.40625,2.96875 -0.0516,-0.361 -0.16408,-0.98636 -0.28125,-1.5625 -1.5328,3.59232 -0.72195,5.82231 -1.04593,8.99235 -3.6297,6.32351 -4.00894,16.36522 -3.35413,21.8331 0.57089,4.76709 9.20413,4.71778 14.74588,5.77994 3.21559,0.61631 6.3358,-0.15909 8.90093,-1.53668 -1.99135,-0.50804 -4.48365,-1.16779 -5.07408,-1.52258 -0.89838,-0.53984 -14.33102,-0.37529 -15.72995,-1.51659 -1.39892,-1.1413 -1.15946,-4.03916 -1.15186,-6.62046 0.008,-2.5813 5.41316,-18.47524 6.08414,-18.87783 0.67099,-0.40259 -1.61027,-1.08822 -2.28125,-1.625 -0.67098,-0.53679 2.16357,-2.14152 2.96875,-2.8125 0.80517,-0.67098 8.84554,-1.8842 10.1875,-1.75 1.34196,0.13419 1.34928,-1.05696 0.8125,-1.59375 -0.26839,-0.26839 -1.58404,-0.375 -3.09375,-0.375 z"
       id="path3151"
       inkscape:connector-curvature="0"
       sodipodi:nodetypes="cssccscccccccsscsssccsscsssssssss" />
    <path
       style="color:#000000;fill:#502d16;fill-opacity:1;fill-rule:nonzero;stroke:none;stroke-width:1;marker:none;visibility:visible;display:inline;overflow:visible;enable-background:accumulate"
       d="m 303.84375,666.53125 c 0,0 0.38869,22.21964 -0.75,27.34375 -1.13869,5.12412 -5.31021,35.11131 -5.5,36.25 -0.18978,1.13869 1.51369,4.3613 0.375,5.5 -1.13869,1.13869 -2.48929,4.55565 -0.78125,5.125 1.68751,0.56251 3.19621,2.96442 2.5,3.9375 2.38123,-2.05335 6.36014,-4.9539 6.9375,-5.53125 0.80517,-0.80518 7.00179,-2.8125 8.34375,-2.8125 1.34196,0 0.93937,-1.87679 0,-3.21875 -0.93938,-1.34196 -4.57893,-0.29598 -7.53125,0.375 -2.95231,0.67098 -7.23527,7.3842 -7.90625,7.25 -0.67098,-0.1342 -2.00919,-1.85474 -1.875,-3.0625 0.1342,-1.20777 5.36393,-6.32902 6.4375,-7 1.07357,-0.67098 1.05705,-2.27206 -0.6875,-2.40625 -1.74455,-0.1342 -2.28125,-1.6084 -2.28125,-3.21875 0,-1.57152 11.13896,-55.40516 11.6875,-58.0625 -3.69173,-0.12683 -6.95328,-0.27212 -8.96875,-0.46875 z m 16.0625,70.59375 c -1.09547,0.45444 -2.20031,0.93379 -2.65625,1.21875 -1.07357,0.67098 -6.19116,3.08634 -6.59375,4.5625 -0.40259,1.47616 1.08268,2.1434 2.15625,1.875 1.07357,-0.26839 4.41723,-3.34188 5.625,-4.28125 0.38025,-0.29576 0.73349,-0.53728 1.3125,-0.96875 L 319.40625,737.5 c 0,0 0.3446,-0.25919 0.5,-0.375 z m 1.40625,5.65625 c -0.75382,0.49136 -1.62577,1.05527 -2.34375,1.59375 -1.61035,1.20776 -5.89152,3.23152 -6.5625,5.78125 -0.67098,2.54973 0.65804,2.95223 2,2.28125 1.04411,-0.52206 4.98913,-3.69288 7.03125,-5.34375 l -0.53125,-2.5625 c 0,0 0.2321,-0.83158 0.40625,-1.75 z M 297.90625,746.75 c -0.76691,0.95275 -1.63665,2.2347 -2.40625,4.0625 -1.51825,3.60586 -0.19891,15.55793 0.75,15.9375 0.94891,0.37956 5.11061,0.93522 8.90625,1.125 3.79564,0.18978 12.34761,-1.90625 14.625,-1.90625 2.27738,0 9.86834,1.7256 18.21875,1.15625 8.35041,-0.56935 10.43065,-1.70962 11,-2.46875 0.13938,-0.18584 0.28621,-0.59605 0.375,-1.125 -4.02928,1.52911 -18.09999,2.43684 -20.46875,2.1875 -2.54973,-0.26839 -8.30509,-3.35661 -9.78125,-3.625 -1.47616,-0.2684 -6.45947,3.22241 -8.875,3.625 -2.41553,0.40259 -10.98706,0.28133 -13,-2 -2.01295,-2.28133 -0.26661,-12.2242 1.34375,-13.96875 1.61035,-1.74455 5.22054,-0.54044 6.5625,-0.40625 1.34196,0.1342 0.6875,1.34375 0.6875,1.34375 0,0 3.07723,-2.00733 2.40625,-2.8125 -0.67098,-0.80518 -3.35839,-0.2592 -4.96875,-0.125 -1.5097,0.12581 -5.24379,0.009 -5.375,-1 z"
       id="path3156"
       inkscape:connector-curvature="0" />
  </g>
</svg>
