<?xml version="1.0" encoding="UTF-8" standalone="no"?>
<!-- Created with Inkscape (http://www.inkscape.org/) -->

<svg
   xmlns:dc="http://purl.org/dc/elements/1.1/"
   xmlns:cc="http://creativecommons.org/ns#"
   xmlns:rdf="http://www.w3.org/1999/02/22-rdf-syntax-ns#"
   xmlns:svg="http://www.w3.org/2000/svg"
   xmlns="http://www.w3.org/2000/svg"
   xmlns:xlink="http://www.w3.org/1999/xlink"
   xmlns:sodipodi="http://sodipodi.sourceforge.net/DTD/sodipodi-0.dtd"
   xmlns:inkscape="http://www.inkscape.org/namespaces/inkscape"
   width="395.88873"
   height="569.98029"
   id="svg2"
   version="1.1"
   inkscape:version="0.47 r22583"
   sodipodi:docname="centaur.svg">
  <title
     id="title4457">centaur</title>
  <defs
     id="defs4">
    <inkscape:perspective
       sodipodi:type="inkscape:persp3d"
       inkscape:vp_x="0 : 526.18109 : 1"
       inkscape:vp_y="0 : 1000 : 0"
       inkscape:vp_z="744.09448 : 526.18109 : 1"
       inkscape:persp3d-origin="372.04724 : 350.78739 : 1"
       id="perspective10" />
    <inkscape:perspective
       id="perspective2920"
       inkscape:persp3d-origin="0.5 : 0.33333333 : 1"
       inkscape:vp_z="1 : 0.5 : 1"
       inkscape:vp_y="0 : 1000 : 0"
       inkscape:vp_x="0 : 0.5 : 1"
       sodipodi:type="inkscape:persp3d" />
  </defs>
  <sodipodi:namedview
     id="base"
     pagecolor="#ffffff"
     bordercolor="#666666"
     borderopacity="1.0"
     inkscape:pageopacity="0.0"
     inkscape:pageshadow="2"
     inkscape:zoom="1.4"
     inkscape:cx="147.26116"
     inkscape:cy="274.97279"
     inkscape:document-units="px"
     inkscape:current-layer="layer2"
     showgrid="false"
     inkscape:window-width="1920"
     inkscape:window-height="1152"
     inkscape:window-x="0"
     inkscape:window-y="0"
     inkscape:window-maximized="1" />
  <metadata
     id="metadata7">
    <rdf:RDF>
      <cc:Work
         rdf:about="">
        <dc:format>image/svg+xml</dc:format>
        <dc:type
           rdf:resource="http://purl.org/dc/dcmitype/StillImage" />
        <dc:title>centaur</dc:title>
        <dc:date>2011-03-27</dc:date>
        <dc:creator>
          <cc:Agent>
            <dc:title>tzunghaor (Prim András)</dc:title>
          </cc:Agent>
        </dc:creator>
        <cc:license
           rdf:resource="http://creativecommons.org/licenses/publicdomain/" />
        <dc:publisher>
          <cc:Agent>
            <dc:title>openclipart.org</dc:title>
          </cc:Agent>
        </dc:publisher>
        <dc:subject>
          <rdf:Bag>
            <rdf:li>centaur</rdf:li>
            <rdf:li>mythology</rdf:li>
            <rdf:li>male</rdf:li>
            <rdf:li>man</rdf:li>
            <rdf:li>horse</rdf:li>
            <rdf:li></rdf:li>
          </rdf:Bag>
        </dc:subject>
      </cc:Work>
      <cc:License
         rdf:about="http://creativecommons.org/licenses/publicdomain/">
        <cc:permits
           rdf:resource="http://creativecommons.org/ns#Reproduction" />
        <cc:permits
           rdf:resource="http://creativecommons.org/ns#Distribution" />
        <cc:permits
           rdf:resource="http://creativecommons.org/ns#DerivativeWorks" />
      </cc:License>
    </rdf:RDF>
  </metadata>
  <g
     inkscape:label="1. réteg"
     inkscape:groupmode="layer"
     id="layer1"
     style="opacity:0.46794876;display:none"
     sodipodi:insensitive="true"
     transform="translate(-116.42653,-32.625)">
    <image
       y="35.219334"
       x="-42.857155"
       id="image2922"
       height="600"
       width="800"
       xlink:href="file:///media/data/images/tmp/centair.png" />
  </g>
  <g
     inkscape:groupmode="layer"
     id="layer2"
     inkscape:label="Réteg"
     transform="translate(-116.42653,-32.625)">
    <path
       sodipodi:type="inkscape:offset"
       inkscape:radius="1.6071401"
       inkscape:original="M 306.625 46.59375 C 279.65995 46.221797 254.19553 69.472794 259.59375 87.65625 L 269.21875 120 C 261.80316 133.20957 257.7012 136.65332 235.90625 143.40625 C 204.46657 134.06132 189.57956 147.14163 188.5625 165.5625 C 188.34236 169.5496 187.43883 170.5915 186.4375 172.375 C 172.68655 188.86405 169.09942 200.51517 167.84375 210.9375 C 153.3057 223.36605 150.79738 229.84231 141.40625 242.25 C 140.86748 242.3139 140.34004 242.39504 139.8125 242.53125 C 137.49186 243.13045 135.79814 245.25046 132.3125 246.4375 C 127.54356 248.06157 123.8798 249.09533 120.4375 253.5 C 119.46915 255.93125 120.07484 258.93157 119.78125 260.96875 C 119.59844 262.23726 118.43795 264.25551 118.03125 266.75 C 118.15836 268.3511 119.3117 270.95649 118.90625 272.5 C 118.1329 275.4441 118.24301 276.5734 118.6875 279.9375 C 118.9562 281.97115 118.83129 285.1015 119.34375 286.3125 C 119.34375 286.3125 119.67191 286.87518 121.21875 287.84375 C 129.5866 293.08341 134.79568 291.97137 144.4375 289.84375 C 146.54965 289.37767 147.82219 286.98539 148.96875 283.46875 C 148.97475 283.35317 149.0252 283.25398 149.0625 283.15625 C 149.0967 283.0489 149.12225 282.95308 149.15625 282.84375 C 149.56586 282.84975 150.06045 282.75515 150.46875 282.59375 C 150.60526 282.54105 150.73452 282.4821 150.84375 282.40625 C 150.99581 282.31415 151.12862 282.20968 151.21875 282.09375 C 151.45392 281.79124 151.68993 281.46443 151.90625 281.125 C 151.91125 281.118 151.90125 281.10115 151.90625 281.09375 C 152.0769 280.82491 152.2502 280.56483 152.40625 280.28125 C 152.45325 280.19825 152.48605 280.11468 152.53125 280.03125 C 152.62905 279.8461 152.72195 279.65671 152.8125 279.46875 C 152.9063 279.27611 153.01001 279.10132 153.09375 278.90625 C 153.13035 278.82275 153.1526 278.73968 153.1875 278.65625 C 153.30044 278.377 153.40906 278.09736 153.5 277.8125 C 154.02898 276.32004 154.25993 274.95172 154 274.21875 C 154.18042 274.17145 154.45818 274.12615 154.78125 274.09375 C 154.82225 274.08775 154.86525 274.09975 154.90625 274.09375 C 155.87618 273.99915 157.28328 273.8878 158.5625 273.375 C 160.80279 272.47695 157.91608 272.99771 159.375 266.3125 C 161.88172 264.65409 164.41798 262.90473 166.96875 261.03125 C 168.66926 259.78232 170.36458 258.48567 172.09375 257.09375 C 174.68746 255.00559 177.32151 252.7359 180 250.21875 C 185.85083 244.72035 183.91518 238.89583 185.34375 230.5625 C 186.90194 228.92684 188.03227 227.74043 189 226.6875 C 189.10475 226.57372 189.18169 226.48439 189.28125 226.375 C 189.65259 225.9675 189.97301 225.60992 190.28125 225.25 C 190.40341 225.10763 190.51089 224.9812 190.625 224.84375 C 190.88413 224.53191 191.11875 224.26649 191.34375 223.96875 C 191.46646 223.80745 191.57234 223.66059 191.6875 223.5 C 191.86019 223.25798 192.02687 222.99822 192.1875 222.75 C 192.32147 222.54376 192.4644 222.30952 192.59375 222.09375 C 192.72213 221.87809 192.87249 221.63698 193 221.40625 C 193.15053 221.13505 193.31466 220.83019 193.46875 220.53125 C 193.56815 220.33694 193.67814 220.08412 193.78125 219.875 C 193.97119 219.49039 194.19717 219.03809 194.40625 218.59375 C 194.48855 218.4184 194.60115 218.18615 194.6875 218 L 194.6875 217.96875 C 194.9546 217.39268 195.21428 216.82011 195.53125 216.125 C 193.45033 228.80357 194.52372 241.47768 195.1875 254.15625 C 196.20308 259.72209 197.44575 263.46225 198.9375 265.21875 C 198.852 274.38389 198.15682 283.159 200.1875 286.65625 L 199.28125 289.1875 C 198.09299 289.08701 195.81333 289.79739 193.9375 290.46875 C 195.92131 290.77874 196.4977 291.3233 196.46875 291.96875 C 194.82474 291.73463 193.50209 292.46461 192.1875 293.21875 C 193.6512 293.33301 195.32354 293.03 196.15625 294.40625 C 196.09375 294.51037 196.03081 294.61449 195.96875 294.71875 C 194.7986 295.14583 193.77111 295.57292 192.9375 296 L 194.96875 296.40625 C 183.36398 316.84542 180.30457 339.90631 183.75 361.875 C 181.08002 361.74568 178.27985 361.60166 175.25 361.40625 C 162.03383 361.58951 157.6374 370.77258 153.53125 381.125 C 151.90889 386.57755 154.29045 391.83754 157.40625 397.125 C 156.57043 397.9561 155.6501 398.85583 154.84375 399.65625 C 147.40366 407.04163 141.02443 413.2393 137.5 416.28125 C 120.53993 430.91956 124.48196 444.76722 129.28125 450.9375 C 134.63839 456.65179 160.12802 480.12257 167.84375 493.5625 C 173.52119 503.45196 177.59622 507.97807 181.34375 514.9375 C 188.23729 527.7393 195.65572 531.46653 202.96875 536 L 226.09375 507.53125 C 219.78029 501.97542 210.6285 496.29804 206.84375 496.8125 C 194.6617 498.4684 198.57788 489.35822 193.9375 485.84375 C 183.79509 478.72426 163.03165 449.79276 158.5625 437 C 160.80536 433.63571 164.54615 431.07609 169.03125 428.8125 C 170.0048 428.32097 171.02516 427.84585 172.0625 427.375 C 176.15662 439.25263 179.24561 451.62091 183.34375 463.4375 C 185.1857 468.49215 186.49505 472.58451 194.96875 476.0625 C 209.74972 482.12929 222.822 491.72644 239.90625 493.25 C 246.72409 476.8793 239.70963 443.61787 217.4375 451.5625 C 215.35663 455.69755 212.38056 454.35226 209.09375 452.84375 C 205.95328 451.4024 203.53301 448.49099 202.53125 442.75 C 201.0336 434.1671 198.26236 425.87023 195.6875 417.53125 C 196.41799 417.17087 197.16325 416.81817 197.875 416.4375 C 197.9291 416.4085 197.97722 416.37285 198.03125 416.34375 C 198.52908 416.07578 199.01304 415.81045 199.5 415.53125 C 199.545 415.50545 199.5801 415.4634 199.625 415.4375 C 200.12298 415.15024 200.60865 414.86267 201.09375 414.5625 C 201.12565 414.5428 201.1557 414.5198 201.1875 414.5 C 201.30355 414.4278 201.41599 414.35419 201.53125 414.28125 C 201.92573 414.03168 202.33404 413.79031 202.71875 413.53125 C 203.2064 413.20258 203.68567 412.87629 204.15625 412.53125 C 204.16805 412.52225 204.1758 412.5086 204.1875 412.5 C 204.29422 412.4216 204.39421 412.3293 204.5 412.25 C 205.35213 411.61173 206.18315 410.94873 206.96875 410.25 C 235.01513 431.75051 263.72656 437.22463 298 443.25 C 302.52106 443.82515 306.63802 443.9936 310.53125 443.9375 C 312.86719 443.9038 315.13072 443.7819 317.34375 443.625 C 323.24517 443.20659 328.83939 442.4966 334.875 442.21875 C 342.89892 455.70153 350.65946 464.76222 364.6875 472.28125 C 364.96294 472.42889 365.21723 472.59417 365.46875 472.75 C 365.58882 472.8243 365.72896 472.89273 365.84375 472.96875 C 365.96236 473.04775 366.07448 473.13794 366.1875 473.21875 C 366.40653 473.37491 366.61377 473.52516 366.8125 473.6875 C 367.03092 473.86635 367.24278 474.06431 367.4375 474.25 C 367.5149 474.3237 367.61368 474.39409 367.6875 474.46875 C 367.7857 474.56865 367.87687 474.67966 367.96875 474.78125 C 368.1179 474.94544 368.27321 475.11316 368.40625 475.28125 C 368.56131 475.47916 368.70992 475.70369 368.84375 475.90625 C 368.88605 475.97035 368.92855 476.02919 368.96875 476.09375 C 369.04765 476.22013 369.11635 476.34094 369.1875 476.46875 C 369.2212 476.52915 369.24935 476.59553 369.28125 476.65625 C 369.65813 477.37374 369.92858 478.10446 370.09375 478.84375 C 370.10075 478.87515 370.1184 478.9061 370.125 478.9375 C 370.28903 479.70994 370.32999 480.49318 370.3125 481.25 C 370.2695 482.74614 369.9235 484.18698 369.4375 485.40625 L 349 527.09375 C 322.63672 544.56872 321.54798 561.97652 319.96875 568.875 L 361.5 575.21875 C 364.33878 568.86492 361.83244 554.10716 364.65625 548.8125 C 379.6152 542.10455 374.08831 539.69674 376.78125 527.09375 C 379.21626 519.68212 382.92389 510.0151 386.46875 501.15625 C 386.73493 500.49105 386.99533 499.8956 387.25 499.28125 C 387.48898 498.68765 387.73296 498.08256 387.96875 497.5 C 388.24323 496.82186 388.46988 496.21079 388.71875 495.59375 C 389.02571 494.83938 389.20233 494.41461 389.5 493.6875 C 389.615 493.39718 389.73674 493.10517 389.84375 492.84375 C 391.77104 488.13549 392.90807 485.40313 394 482.8125 C 395.36088 479.57623 396.21875 477.59375 396.21875 477.59375 C 411.90821 487.36926 424.29004 488.57133 431.09375 491.96875 C 438.24068 495.53756 439.96277 501.1665 439.90625 506.875 C 439.73789 523.87923 444.12112 540.90202 439.40625 557.90625 C 425.79631 571.27947 427.30917 582.1637 424.53125 590.75 L 463.90625 594.78125 C 463.90625 594.78125 468.95861 572.97103 467.1875 560.40625 C 466.74412 557.26076 464.46617 555.51464 464.65625 552.34375 C 466.21916 526.27115 465.50623 489.89428 465.4375 486.15625 C 465.30603 479.00673 457.87846 477.00183 452.28125 471.28125 C 448.80134 467.72464 448.16823 463.97354 450.03125 459.90625 C 476.73075 401.61672 472.09671 389.16098 455.0625 352.40625 C 460.026 355.83692 466.65476 363.3146 477.3125 380.625 C 491.11897 403.04959 465.41834 432.60283 466.6875 458.90625 C 466.97091 464.77994 470.71875 476.0625 470.71875 476.0625 C 474.30305 468.65937 477.83605 460.84561 482.34375 459.90625 C 482.95315 468.35311 478.80607 473.92742 474.78125 479.59375 C 479.55676 476.18114 486.10774 476.33534 487.40625 465.96875 C 492.88511 469.62695 491.33035 476.81219 491.4375 483.15625 C 509.14602 454.64302 517.27801 407.91987 504.15625 379.6875 C 484.4123 337.20706 450.92191 327.72359 430.21875 328.1875 C 411.36203 319.39349 389.7379 322.24292 378.3125 323.53125 C 353.21024 326.36179 341.19582 318.6251 323.75 313.9375 C 315.33589 311.67668 303.3601 301.26294 292.40625 293.8125 C 292.46285 293.69639 292.5812 293.60186 292.75 293.53125 C 292.88961 293.47895 293.03002 293.43395 293.21875 293.40625 C 293.24085 293.40225 293.25855 293.41025 293.28125 293.40625 C 294.13133 293.29366 295.39965 293.36245 296.6875 293.46875 C 296.85096 293.48345 297.03353 293.4852 297.1875 293.5 C 297.67499 293.5398 298.17033 293.60161 298.625 293.625 C 295.41078 291.40368 291.72428 289.81208 287.5 288.9375 L 288.15625 287.6875 C 287.83722 287.5472 287.52254 287.41469 287.21875 287.3125 C 287.15315 287.2903 287.09618 287.2705 287.03125 287.25 C 286.96875 287.2302 286.9057 287.23705 286.84375 287.21875 C 286.18287 287.02328 285.57403 286.90016 284.96875 286.84375 C 284.70508 286.81895 284.44331 286.78645 284.1875 286.78125 C 284.08627 286.77925 283.97521 286.78076 283.875 286.78125 C 283.29114 286.78525 282.7484 286.84515 282.1875 286.90625 C 281.98881 286.92745 281.79137 286.94455 281.59375 286.96875 C 282.01112 276.41483 282.89017 264.02205 286.4375 258.625 C 293.58548 247.7498 303.34761 241.6936 309.65625 230.5625 C 317.22379 246.26074 324.91557 252.24177 336.25 260.40625 C 336.41589 261.27065 336.63061 262.07793 336.90625 262.8125 C 337.04407 263.17978 337.21221 263.50529 337.375 263.84375 C 339.49128 268.2437 343.64006 270.32443 348.03125 272.71875 C 348.58125 273.01864 349.15831 273.30309 349.75 273.59375 C 349.7626 273.59975 349.76865 273.6189 349.78125 273.625 C 350.36132 273.90951 350.96075 274.18723 351.5625 274.46875 C 351.6549 274.9647 351.96271 275.43407 351.84375 275.9375 C 351.79545 276.14185 351.7737 276.32982 351.75 276.53125 C 351.7375 276.63489 351.72495 276.74089 351.71875 276.84375 C 351.68885 277.34353 351.73735 277.83312 351.84375 278.3125 C 351.86475 278.4085 351.88025 278.49866 351.90625 278.59375 C 351.93285 278.69015 351.9685 278.77954 352 278.875 C 352.0616 279.06342 352.10752 279.25272 352.1875 279.4375 C 352.292 279.6766 352.42938 279.92361 352.5625 280.15625 C 352.622 280.26147 352.68505 280.36488 352.75 280.46875 C 352.7703 280.50075 352.7917 280.5306 352.8125 280.5625 C 353.43339 281.52694 354.27064 282.41861 355.25 283.25 C 355.3418 283.3276 355.43725 283.39244 355.53125 283.46875 C 357.36935 284.96818 359.59937 286.2349 361.65625 287.15625 C 365.96421 289.08597 370.67074 289.88165 375.5 289.3125 C 381.49829 288.60556 386.60104 266.53743 386.34375 253.84375 C 386.19386 246.4493 369.81076 245.6583 366.96875 243.375 C 366.77334 243.21801 366.57038 243.03994 366.375 242.875 C 364.53912 240.60124 362.70921 238.49157 361.0625 237 C 357.73294 233.98413 349.65625 229.875 349.65625 229.875 C 347.29083 222.6131 345.20254 216.41815 338.75 209.15625 C 339.72407 193.01718 336.18859 175.25977 310 174.3125 C 309.929 174.2456 309.88267 174.16074 309.8125 174.09375 C 307.23496 171.51227 305.27593 169.13515 303.71875 166.71875 C 303.68675 166.66745 303.6567 166.6139 303.625 166.5625 C 303.46624 166.31332 303.30692 166.06306 303.15625 165.8125 C 303.0488 165.62851 302.94774 165.43551 302.84375 165.25 C 302.81365 165.1977 302.7798 165.14617 302.75 165.09375 C 300.54535 161.11419 299.12171 156.78146 298 151.8125 C 301.19389 155.51516 304.70921 162.32091 309.90625 162.9375 C 314.62749 163.49764 320.61111 165.67399 323.6875 164.0625 C 328.28815 161.65256 326.63402 157.91687 332.28125 155.6875 C 334.92029 153.15006 334.43288 150.52199 336.71875 146.21875 C 339.95879 140.11922 344.87774 137.45388 348 129.09375 C 349.36413 125.44116 348.68937 122.0095 349 118.46875 C 351.32899 116.28477 352.61494 114.31717 353.3125 112.5 C 353.355 112.505 353.395 112.52625 353.4375 112.53125 C 354.91899 110.00587 354.12794 107.49413 354.0625 104.96875 C 353.92509 104.96675 353.79301 104.97175 353.65625 104.96875 C 353.46637 103.78128 353.28106 102.60568 353.28125 101.4375 C 353.1716 73.779365 342.37779 55.245811 318.1875 48.28125 C 314.35945 47.179126 310.47715 46.646886 306.625 46.59375 z "
       style="fill:#000000;fill-opacity:1;stroke:none"
       id="path4129"
       d="m 306.65625,45 c -13.9513,-0.192443 -27.39562,5.670145 -36.75,13.96875 -9.35438,8.298605 -14.79227,19.224414 -11.84375,29.15625 l 9.40625,31.625 c -3.4941,6.16147 -6.16466,9.99615 -10.4375,13.0625 -4.35664,3.12649 -10.64737,5.64626 -21.21875,8.9375 -15.68626,-4.55305 -27.59547,-3.69748 -35.78125,0.9375 -8.28927,4.69358 -12.53133,13.16075 -13.0625,22.78125 -0.20764,3.76079 -0.86493,4.21462 -1.9375,6.125 -13.47125,16.23287 -17.31436,28.11694 -18.65625,38.5625 -13.97136,12.0502 -17.03274,18.84646 -25.875,30.625 -0.35992,0.0565 -0.71423,0.0895 -1.09375,0.1875 -3.02584,0.78129 -4.54173,2.88749 -7.625,3.9375 -4.72817,1.61019 -8.91713,2.84927 -12.625,7.59375 a 1.6073008,1.6073008 0 0 0 -0.21875,0.40625 c -1.22178,3.06754 -0.5327,6.33596 -0.75,7.84375 -0.0401,0.27815 -0.31384,1.09242 -0.6875,2.09375 -0.37366,1.00133 -0.83116,2.23734 -1.0625,3.65625 a 1.6073008,1.6073008 0 0 0 0,0.375 c 0.0885,1.11427 0.41752,2.17285 0.65625,3.15625 0.23873,0.9834 0.30114,1.86783 0.25,2.0625 -0.80853,3.07803 -0.69609,4.68627 -0.25,8.0625 0.11609,0.8786 0.15052,2.15432 0.21875,3.375 0.0682,1.22068 0.0943,2.29989 0.5625,3.40625 a 1.6073008,1.6073008 0 0 0 0.0937,0.1875 c 0,0 0.25671,0.39997 0.625,0.75 0.36829,0.35003 0.93251,0.8123 1.78125,1.34375 4.35441,2.72658 8.10526,3.8803 11.9375,4 3.83224,0.1197 7.6459,-0.74826 12.46875,-1.8125 1.55475,-0.34308 2.75952,-1.41134 3.625,-2.71875 0.8208,-1.2399 1.43223,-2.76296 2,-4.46875 0.21432,-0.0553 0.44534,-0.0416 0.65625,-0.125 0.17686,-0.0683 0.37871,-0.18328 0.625,-0.34375 l 0,0.0312 c 0.0214,-0.0129 0.0409,-0.049 0.0625,-0.0625 0.2399,-0.1498 0.50003,-0.30347 0.75,-0.625 0.24608,-0.31654 0.4806,-0.66241 0.71875,-1.03125 0.0131,-0.0203 0.0182,-0.042 0.0312,-0.0625 a 1.6073008,1.6073008 0 0 0 0,-0.0312 c 0.0167,-0.0263 0.045,-0.0665 0.0625,-0.0937 0.0283,-0.0441 0.0637,-0.10948 0.0937,-0.15625 0.12725,-0.19812 0.2628,-0.39556 0.40625,-0.65625 0.11695,-0.20652 0.1388,-0.30673 0.125,-0.28125 0.10837,-0.20516 0.22179,-0.40574 0.3125,-0.59375 0.004,-0.008 -0.004,-0.0235 0,-0.0312 0.0572,-0.11411 0.18812,-0.30963 0.3125,-0.59375 0.005,-0.012 -0.005,-0.0189 0,-0.0312 0.0751,-0.17757 0.10979,-0.28834 0.0937,-0.25 a 1.6073008,1.6073008 0 0 0 0.0312,-0.0312 c 0.11372,-0.28117 0.20495,-0.57482 0.3125,-0.90625 0.005,-0.0139 0.0268,-0.0173 0.0312,-0.0312 l -0.0312,0 c 0.34238,-0.96632 0.58023,-1.85525 0.65625,-2.75 0.95068,-0.0901 2.1476,-0.14536 3.5,-0.6875 0.31046,-0.12445 0.58097,-0.22606 0.875,-0.40625 0.29403,-0.18019 0.70253,-0.54231 0.90625,-1.09375 0.20372,-0.55144 0.0986,-1.0227 0.0312,-1.28125 -0.0674,-0.25855 -0.13453,-0.39544 -0.1875,-0.5625 -0.19425,-0.61263 -0.3872,-1.74287 0.0937,-4.3125 2.32312,-1.548 4.66599,-3.16902 7.03125,-4.90625 1.71751,-1.26141 3.43841,-2.56079 5.1875,-3.96875 2.62281,-2.11159 5.28967,-4.42168 8,-6.96875 3.19624,-3.00371 4.39144,-6.33706 4.84375,-9.71875 0.43534,-3.25481 0.36798,-6.60678 0.96875,-10.40625 1.31255,-1.37814 2.40413,-2.5144 3.28125,-3.46875 0.12305,-0.13365 0.19742,-0.22039 0.28125,-0.3125 0.37659,-0.41326 0.70717,-0.80908 1.03125,-1.1875 0.12499,-0.14567 0.25347,-0.25986 0.375,-0.40625 0.24086,-0.28986 0.47799,-0.57755 0.75,-0.9375 0.1376,-0.18087 0.25839,-0.33738 0.375,-0.5 0.009,-0.0128 0.0222,-0.0185 0.0312,-0.0312 -0.68448,10.0299 0.0467,19.99225 0.5625,29.84375 a 1.6073008,1.6073008 0 0 0 0,0.1875 c 0.95842,5.25256 2.06184,8.8901 3.75,11.21875 -0.0506,4.38768 -0.25589,8.7132 -0.1875,12.4375 0.063,3.43274 0.38476,6.23324 1.375,8.46875 l -0.4375,1.1875 c -0.53724,0.0737 -1.05565,0.07 -1.625,0.21875 -1.02831,0.26865 -2.09944,0.65532 -3.0625,1 a 1.6073008,1.6073008 0 0 0 -0.875,2.28125 c -0.38135,0.19425 -0.82738,0.37384 -1.15625,0.5625 a 1.6073008,1.6073008 0 0 0 0.5,2.96875 1.6073008,1.6073008 0 0 0 0.71875,2.78125 c -10.60251,19.70097 -13.58456,41.60492 -10.65625,62.625 -2.12307,-0.10693 -4.24453,-0.22349 -6.59375,-0.375 a 1.6073008,1.6073008 0 0 0 -0.125,0 c -6.97774,0.0968 -11.92273,2.67268 -15.4375,6.5625 -3.51477,3.88982 -5.68449,8.9487 -7.75,14.15625 a 1.6073008,1.6073008 0 0 0 -0.0312,0.125 c -1.70356,5.72545 0.55598,11.11939 3.4375,16.1875 -0.58004,0.5721 -1.17513,1.14788 -1.71875,1.6875 -7.43316,7.3785 -13.84805,13.56804 -17.28125,16.53125 -8.71642,7.52318 -12.23746,15.07196 -12.8125,21.59375 -0.57504,6.52179 1.74856,11.90453 4.375,15.28125 a 1.6073008,1.6073008 0 0 0 0.0937,0.0937 c 2.79753,2.98403 10.46082,10.20631 18.4375,18.4375 7.97668,8.23119 16.22773,17.49868 19.90625,23.90625 5.73735,9.99381 9.84514,14.52517 13.5,21.3125 7.06,13.11092 14.95287,17.20263 22.1875,21.6875 A 1.6073008,1.6073008 0 0 0 204.21875,537 l 23.125,-28.46875 a 1.6073008,1.6073008 0 0 0 -0.1875,-2.21875 c -3.24203,-2.85298 -7.18055,-5.69776 -10.84375,-7.8125 -3.6632,-2.11474 -6.84198,-3.66804 -9.6875,-3.28125 -2.86201,0.38903 -4.57154,0.11225 -5.59375,-0.375 -1.02221,-0.48725 -1.52764,-1.16375 -2,-2.21875 -0.47236,-1.055 -0.79221,-2.46003 -1.3125,-3.90625 -0.52029,-1.44622 -1.29928,-3.01018 -2.8125,-4.15625 a 1.6073008,1.6073008 0 0 0 -0.0312,-0.0312 c -4.65542,-3.26789 -12.47198,-12.28733 -19.4375,-21.9375 -6.70717,-9.29224 -12.6811,-19.23549 -15,-25.34375 2.04942,-2.68895 5.2738,-4.9617 9.3125,-7 0.41696,-0.21051 0.87528,-0.4173 1.3125,-0.625 3.7849,11.27555 6.81732,23.00425 10.75,34.34375 a 1.6073008,1.6073008 0 0 0 0.0312,0.0312 c 1.83029,5.02266 3.67042,9.93844 12.5,13.5625 14.53811,5.96711 27.79948,15.71109 45.40625,17.28125 a 1.6073008,1.6073008 0 0 0 1.625,-0.96875 c 3.63264,-8.72254 3.54808,-21.37356 -0.3125,-31.1875 -1.93029,-4.90697 -4.81952,-9.12083 -8.90625,-11.625 -4.08673,-2.50417 -9.32259,-3.11435 -15.25,-1 A 1.6073008,1.6073008 0 0 0 216,450.84375 c -0.87068,1.73019 -1.39977,1.87999 -2.28125,1.875 -0.88148,-0.005 -2.32787,-0.59065 -3.96875,-1.34375 -2.6793,-1.22969 -4.68277,-3.50644 -5.625,-8.90625 -1.44701,-8.2927 -4.04531,-16.23063 -6.5,-24.125 0.33747,-0.16723 0.65883,-0.31753 1,-0.5 0.18773,-0.10063 0.23394,-0.13559 0.15625,-0.0937 0.50492,-0.27179 1.02684,-0.52329 1.53125,-0.8125 0.38585,-0.22122 0.41825,-0.26291 0.125,-0.0937 0.50834,-0.29324 0.99731,-0.59519 1.5,-0.90625 0.1238,-0.0765 0.15036,-0.0978 0.0937,-0.0625 0.12882,-0.0802 0.24652,-0.1882 0.34375,-0.25 0.007,-0.004 0.0245,0.004 0.0312,0 0.36191,-0.22832 0.78872,-0.46042 1.21875,-0.75 0.49174,-0.33143 0.96817,-0.69546 1.46875,-1.0625 a 1.6073008,1.6073008 0 0 0 0.0312,0 c 0.36504,-0.27842 0.3693,-0.3027 0,-0.0312 0.20574,-0.15115 0.32797,-0.23817 0.34375,-0.25 0.5363,-0.4017 1.04095,-0.85203 1.5625,-1.28125 28.03663,21.09407 56.81645,26.63912 90.6875,32.59375 a 1.6073008,1.6073008 0 0 0 0.0937,0 c 4.60326,0.58561 8.79411,0.7445 12.75,0.6875 2.37686,-0.0343 4.67468,-0.15429 6.90625,-0.3125 5.65967,-0.40127 10.97039,-1.04382 16.59375,-1.34375 7.91463,13.11364 15.91128,22.32795 29.875,29.8125 0.19827,0.10627 0.41574,0.26913 0.6875,0.4375 0.20498,0.12684 0.30948,0.18786 0.3125,0.1875 2.3e-4,-3e-5 0.0324,7.9e-4 0.0312,0 0.0428,0.03 0.1281,0.10925 0.28125,0.21875 0.21244,0.15146 0.38021,0.28286 0.53125,0.40625 0.1628,0.13331 0.37628,0.29116 0.5625,0.46875 0.20184,0.19219 0.26257,0.26342 0.1875,0.1875 0.0296,0.0301 0.1222,0.1087 0.25,0.25 a 1.6073008,1.6073008 0 0 0 0,0.0312 c 0.15625,0.17201 0.29684,0.3075 0.375,0.40625 0.0986,0.12581 0.21046,0.29825 0.34375,0.5 0.0658,0.0998 0.0906,0.1512 0.0937,0.15625 0.0572,0.0916 0.12085,0.19278 0.1875,0.3125 -0.0249,-0.0446 -0.0126,0.0132 0.0625,0.15625 0.31517,0.60001 0.55459,1.18637 0.6875,1.78125 0.083,0.37248 0.0996,0.41875 0.0312,0.0937 0.12947,0.60968 0.17181,1.26422 0.15625,1.9375 -0.0367,1.27829 -0.35935,2.5353 -0.78125,3.59375 l -20.21875,41.25 c -13.08087,8.76721 -20.12207,17.59711 -23.96875,25.15625 -3.89152,7.64726 -4.60183,14.07159 -5.34375,17.3125 a 1.6073008,1.6073008 0 0 0 1.3125,1.9375 L 361.25,576.8125 a 1.6073008,1.6073008 0 0 0 1.71875,-0.9375 c 1.68028,-3.76086 1.63751,-9.07329 1.71875,-14.21875 0.0781,-4.94477 0.34965,-9.64141 1.28125,-11.71875 3.39055,-1.55875 5.86565,-2.91961 7.5625,-4.34375 1.82158,-1.52882 2.85574,-3.21553 3.34375,-5 0.96576,-3.53139 0.19889,-7.05487 1.4375,-13 0.006,-0.0185 0.0252,-0.044 0.0312,-0.0625 2.41374,-7.3388 6.09527,-16.96022 9.625,-25.78125 0.25477,-0.63667 0.51885,-1.21075 0.78125,-1.84375 a 1.6073008,1.6073008 0 0 0 0,-0.0312 c 0.23876,-0.59306 0.48351,-1.20005 0.71875,-1.78125 0.28501,-0.70417 0.5122,-1.31665 0.75,-1.90625 0.30523,-0.75011 0.48228,-1.17596 0.78125,-1.90625 0.10787,-0.27232 0.2338,-0.57516 0.34375,-0.84375 1.92592,-4.70491 3.03507,-7.41411 4.125,-10 0.93563,-2.22499 1.1885,-2.7956 1.53125,-3.59375 15.16263,9.00497 27.35788,10.55786 33.375,13.5625 6.63496,3.31316 7.99072,8.06263 7.9375,13.4375 -0.17012,17.18222 4.02711,33.92097 -0.40625,50.3125 C 424.3887,570.69748 425.57648,582.28633 423,590.25 a 1.6073008,1.6073008 0 0 0 1.375,2.09375 l 39.375,4.03125 a 1.6073008,1.6073008 0 0 0 1.71875,-1.21875 c 0,0 1.2921,-5.53476 2.34375,-12.625 1.05165,-7.09024 1.90173,-15.72495 0.96875,-22.34375 -0.26905,-1.90872 -1.08014,-3.325 -1.65625,-4.5 -0.57611,-1.175 -0.94604,-2.06493 -0.875,-3.25 1.57,-26.19087 0.84975,-62.5871 0.78125,-66.3125 -0.0759,-4.12826 -2.37852,-6.96086 -5.09375,-9.1875 -2.71523,-2.22664 -5.88428,-4.10788 -8.5,-6.78125 -3.15301,-3.2225 -3.58731,-5.99193 -1.9375,-9.59375 13.38246,-29.21618 19.01156,-47.0843 19.0625,-62.46875 0.0437,-13.19584 -4.20833,-24.55691 -10.75,-39.0625 4.06996,4.40528 9.17155,11.14364 16.125,22.4375 6.50456,10.56477 3.75871,22.95941 -0.75,36.34375 -4.50871,13.38434 -10.75489,27.45399 -10.09375,41.15625 0.15575,3.228 1.17163,7.55666 2.15625,11.15625 0.98462,3.59959 1.9375,6.4375 1.9375,6.4375 a 1.6073008,1.6073008 0 0 0 2.96875,0.1875 c 1.79854,-3.71476 3.56576,-7.48273 5.375,-10.34375 1.02549,-1.62165 2.05594,-2.77144 3.03125,-3.625 -0.41111,6.30872 -3.56605,10.90853 -7.09375,15.875 a 1.6073008,1.6073008 0 0 0 2.25,2.25 c 2.0956,-1.49753 4.9091,-2.30158 7.59375,-4.1875 2.14856,-1.50933 4.0021,-3.90473 5.03125,-7.59375 0.88455,1.26317 1.3138,2.76124 1.5,4.59375 0.28473,2.80225 -0.056,6.15524 0,9.46875 A 1.6073008,1.6073008 0 0 0 492.8125,484 c 18.00733,-28.99436 26.32687,-75.9229 12.8125,-105 -19.86936,-42.75028 -53.73951,-52.71423 -75,-52.375 -19.33658,-8.89502 -41.16576,-5.96555 -52.5,-4.6875 -24.7215,2.78761 -36.27353,-4.80789 -53.96875,-9.5625 -3.79439,-1.01953 -8.81846,-4.09002 -14.1875,-7.875 -4.19954,-2.96053 -8.6518,-6.27105 -13.03125,-9.40625 0.0179,8.5e-4 0.0852,-8.2e-4 0.0937,0 a 1.6073008,1.6073008 0 0 0 0.0312,0 c 0.44099,0.036 0.92881,0.0972 1.46875,0.125 a 1.6073008,1.6073008 0 0 0 1,-2.90625 c -2.86648,-1.981 -6.18066,-3.37205 -9.78125,-4.34375 a 1.6073008,1.6073008 0 0 0 -0.9375,-1.75 c -0.33417,-0.14696 -0.70991,-0.30838 -1.09375,-0.4375 -0.0507,-0.0172 -0.11336,-0.0386 -0.1875,-0.0625 -0.0645,-0.0204 0.0184,0.0145 -0.0312,0 -0.30491,-0.0894 -0.46844,-0.11424 -0.1875,-0.0312 -0.74231,-0.21955 -1.46624,-0.37028 -2.1875,-0.4375 -0.23207,-0.0218 -0.53668,-0.055 -0.90625,-0.0625 -0.14041,-0.003 -0.25388,-4.4e-4 -0.34375,0 -0.19453,0.001 -0.34913,0.0213 -0.53125,0.0312 0.21072,-4.73419 0.47206,-9.69963 1.09375,-14.125 0.70152,-4.99362 1.84673,-9.31612 3.34375,-11.59375 6.44222,-9.80143 15.27401,-15.91502 21.75,-25.96875 7.1931,13.86759 14.83922,20.28346 25.3125,27.84375 0.15693,0.68755 0.3252,1.3676 0.5625,2 0.17914,0.4774 0.38136,0.84462 0.53125,1.15625 2.38612,4.96097 6.95127,7.21576 11.3125,9.59375 0.58981,0.3216 1.18828,0.61496 1.78125,0.90625 0.0134,0.007 0.0171,-0.008 0.0312,0 l 0,0.0312 c 0.0148,0.008 0.0157,-0.008 0.0312,0 0.39708,0.19445 0.78986,0.40761 1.1875,0.59375 -0.0565,0.26638 -0.10427,0.51132 -0.125,0.6875 -0.0128,0.10601 -0.0212,0.23957 -0.0312,0.40625 -0.0398,0.66566 0.0221,1.30176 0.15625,1.90625 0.0114,0.0521 0.0112,0.18736 0.0625,0.375 0.0568,0.20576 0.11302,0.30743 0.125,0.34375 0.0361,0.11045 0.10015,0.34131 0.25,0.6875 a 1.6073008,1.6073008 0 0 0 0,0.0312 c 0.14458,0.33081 0.30025,0.60374 0.4375,0.84375 0.005,0.008 -0.005,0.0229 0,0.0312 0.0719,0.12605 0.15189,0.23683 0.21875,0.34375 a 1.6073008,1.6073008 0 0 0 0.0312,0.0312 c 0.0518,0.0817 0.0666,0.10008 0.0625,0.0937 0.73279,1.13826 1.68295,2.12542 2.75,3.03125 0.16355,0.13826 0.24736,0.22408 0.28125,0.25 0.002,0.002 0.0296,-0.001 0.0312,0 1.98358,1.61423 4.31304,2.94063 6.46875,3.90625 4.5561,2.04087 9.56478,2.88499 14.6875,2.28125 2.43855,-0.2874 4.04971,-2.32669 5.46875,-4.875 1.41904,-2.54831 2.63748,-5.85539 3.65625,-9.53125 2.03755,-7.35172 3.25839,-16.10657 3.125,-22.6875 -0.0495,-2.44113 -1.49825,-4.39383 -3.34375,-5.71875 -1.8455,-1.32492 -4.12515,-2.20937 -6.4375,-2.9375 -2.31235,-0.72813 -4.65819,-1.27932 -6.5625,-1.78125 -1.90431,-0.50193 -3.46691,-1.12299 -3.625,-1.25 -0.13248,-0.10643 -0.29404,-0.25762 -0.46875,-0.40625 -0.0316,-0.0268 -0.0613,-0.0351 -0.0937,-0.0625 -1.78813,-2.20346 -3.55036,-4.30424 -5.25,-5.84375 -1.87483,-1.6982 -4.77545,-3.47939 -7.25,-4.90625 -2.14565,-1.23721 -3.48908,-1.89433 -3.9375,-2.125 -2.24036,-6.85362 -4.53247,-13.11589 -10.625,-20.15625 0.42872,-8.04291 -0.19608,-16.57808 -4.40625,-23.4375 -4.22907,-6.89021 -12.16363,-11.71842 -25.125,-12.375 -2.42336,-2.44411 -4.26964,-4.69465 -5.71875,-6.9375 -0.001,-0.002 -0.0274,-0.0246 -0.0312,-0.0312 -0.0127,-0.0217 -0.0202,-0.0564 -0.0625,-0.125 a 1.6073008,1.6073008 0 0 0 -0.0312,-0.0312 c -0.15352,-0.24096 -0.3045,-0.46715 -0.4375,-0.6875 -0.004,-0.006 0.004,-0.0246 0,-0.0312 -0.0795,-0.13772 -0.16742,-0.29694 -0.28125,-0.5 a 1.6073008,1.6073008 0 0 0 0,-0.0312 c -0.0623,-0.10823 -0.0987,-0.13376 -0.0937,-0.125 -0.79183,-1.42931 -1.38983,-2.97971 -2,-4.53125 1.9984,2.28628 4.41036,4.37602 7.5625,4.75 2.19768,0.26074 4.86822,0.94585 7.4375,1.375 2.56928,0.42915 5.10023,0.73622 7.28125,-0.40625 2.67282,-1.40009 3.73313,-3.45887 4.5625,-4.90625 0.82937,-1.44738 1.38641,-2.42383 3.875,-3.40625 a 1.6073008,1.6073008 0 0 0 0.53125,-0.34375 c 1.55498,-1.49511 2.23314,-3.13591 2.75,-4.71875 0.51686,-1.58284 0.9116,-3.16613 1.96875,-5.15625 1.50745,-2.83784 3.46581,-4.91433 5.53125,-7.4375 2.06544,-2.52317 4.20542,-5.48824 5.84375,-9.875 1.46655,-3.92684 0.90777,-7.43047 1.09375,-10.5625 1.85191,-1.84483 3.0818,-3.62363 3.84375,-5.3125 a 1.6073008,1.6073008 0 0 0 0.375,-0.4375 c 1.84316,-3.1419 0.90122,-6.18856 0.84375,-8.40625 a 1.6073008,1.6073008 0 0 0 -0.5,-1.15625 c -0.11742,-0.80964 -0.28137,-1.6304 -0.28125,-2.34375 -0.0557,-14.036706 -2.80072,-25.924232 -8.75,-35.21875 C 340.17572,56.924232 331.0233,50.319561 318.625,46.75 314.65153,45.606007 310.6415,45.054972 306.65625,45 z" />
    <path
       style="fill:#28170b;fill-opacity:1;stroke:none"
       d="m 426.28437,328.40405 c 20.14404,-1.78876 56.82949,5.98956 77.87892,51.27883 13.12176,28.23237 4.98444,74.94511 -12.72408,103.45834 -0.10715,-6.34406 1.43825,-13.51439 -4.04061,-17.17259 -1.29851,10.36659 -7.85139,10.22445 -12.6269,13.63706 4.02482,-5.66633 8.18554,-11.25112 7.57614,-19.69798 -4.5077,0.93936 -8.03245,8.75932 -11.61675,16.16245 0,0 -3.7572,-11.29891 -4.04061,-17.1726 -1.26916,-26.30342 24.41307,-55.86223 10.6066,-78.28682 C 451.7185,339.06577 449.408,354.23678 437.39605,345.76048 l -11.11168,-17.35643 z"
       id="path3774"
       sodipodi:nodetypes="cscccccsscc" />
    <path
       style="fill:#483e37;fill-opacity:1;stroke:none"
       d="M 276.78125,286.15625 199.5,289.1875 c -1.11095,-0.22022 -3.57101,0.5685 -5.5625,1.28125 1.98381,0.30999 2.5602,0.85455 2.53125,1.5 -1.64401,-0.23412 -2.96666,0.49586 -4.28125,1.25 1.4637,0.11426 3.13604,-0.18875 3.96875,1.1875 -0.0625,0.10412 -0.12544,0.20824 -0.1875,0.3125 -1.17015,0.42708 -2.19764,0.85417 -3.03125,1.28125 l 2.03125,0.40625 c -12.92331,22.76149 -15.27123,48.77035 -9.8125,72.90625 -17.39936,17.34161 -39.66854,40.07452 -47.65625,46.96875 -16.96007,14.63831 -13.01804,28.48597 -8.21875,34.65625 5.35714,5.71429 30.84677,29.18507 38.5625,42.625 5.67744,9.88946 9.75247,14.41557 13.5,21.375 6.89354,12.8018 14.32085,16.53744 21.63388,21.07091 l 23.11691,-28.48351 c -6.31346,-5.55583 -15.46604,-11.22686 -19.25079,-10.7124 -12.18205,1.6559 -8.26587,-7.45428 -12.90625,-10.96875 -10.14241,-7.11949 -30.90585,-36.05099 -35.375,-48.84375 7.92245,-11.88368 34.09609,-14.02228 48.40625,-26.75 28.04638,21.50051 56.75781,26.97463 91.03125,33 14.46739,1.84048 24.80378,-0.47556 36.875,-1.03125 8.02392,13.48278 15.78446,22.54347 29.8125,30.0625 6.51609,3.49263 6.26199,9.33171 4.75,13.125 L 349,527.09375 c -26.36328,17.47497 -27.45535,34.87642 -29.03458,41.7749 l 41.54933,6.33614 c 2.83878,-6.35383 0.31769,-21.09763 3.1415,-26.39229 14.95895,-6.70795 9.43206,-9.11576 12.125,-21.71875 5.90573,-17.97573 19.4375,-49.5 19.4375,-49.5 15.68946,9.77551 28.07129,10.97758 34.875,14.375 7.14693,3.56881 8.86902,9.19775 8.8125,14.90625 -0.16836,17.00423 4.21487,34.02702 -0.5,51.03125 -13.60994,13.37322 -12.10549,24.24222 -14.88341,32.82852 l 39.38341,4.03458 c 0,0 5.05236,-21.79832 3.28125,-34.3631 -0.44338,-3.14549 -2.72133,-4.89161 -2.53125,-8.0625 1.56291,-26.0726 0.84998,-62.44947 0.78125,-66.1875 -0.13147,-7.14952 -7.55904,-9.15442 -13.15625,-14.875 -3.47991,-3.55661 -4.11302,-7.30771 -2.25,-11.375 26.971,-58.88227 21.99194,-70.958 4.53125,-108.59375 -19.3463,-35.13483 -59.18426,-29.70559 -76.25,-27.78125 -25.10226,2.83054 -37.11668,-4.90615 -54.5625,-9.59375 -8.42847,-2.26468 -20.43723,-12.70324 -31.40625,-20.15625 0.5835,-0.80721 3.83121,-0.28231 6.28125,-0.15625 -3.21422,-2.22132 -6.90072,-3.81292 -11.125,-4.6875 l 0.64102,-1.25635 c -3.05126,-1.34184 -5.36161,-0.83143 -7.76602,-0.55615 -1.25322,-0.45816 -2.4499,-0.79277 -3.59375,-0.96875 z"
       id="path3769"
       sodipodi:nodetypes="ccccccccccscssccscccccscccccccsscccssssscsscccccc" />
    <path
       style="opacity:0.5;fill:#000000;fill-opacity:1;stroke:none"
       d="m 107.5,322.46875 c -11.118804,4.38793 -39.65625,10 -39.65625,10 l 55.01786,-4.62054 c 0,0 -10.31495,-7.37107 -15.36161,-5.37946 z m 69.25,16.6875 -20.96875,28.625 c -7.64845,-5.46836 -14.01301,-12.36331 -21.6875,-20.3125 l -61.125,6.5625 -5.5625,26.28125 10.75,5.125 c 0.0303,-0.0144 0.06345,-0.0181 0.09375,-0.0312 4.51973,-2.15643 8.75321,-4.64335 12.28125,-7.78125 28.04638,21.50051 56.75781,26.97463 91.03125,33 14.46739,1.84048 24.80378,-0.47556 36.875,-1.03125 8.02392,13.48278 15.78446,22.54347 29.8125,30.0625 4.40709,2.3622 5.69785,5.81699 5.625,8.96875 1.23669,0.51136 1.68446,1.40289 0.90625,2.90625 4.86102,4.89216 10.83074,10.91691 15.25,17 0.51789,-1.29423 1.00086,-2.42227 1.5,-3.65625 0.44711,-1.10466 0.81922,-2.03917 1.25,-3.09375 0.20324,-0.4984 0.42734,-1.07962 0.625,-1.5625 1.92729,-4.70826 3.06432,-7.44062 4.15625,-10.03125 1.13933,-2.70941 1.62054,-3.85355 1.84375,-4.375 -25.57738,-20.56204 -37.81697,-36.25569 -41.5,-55.28125 -0.73028,-3.77242 -8.46104,-9.627 -11.65625,-9.46875 -19.95676,0.98842 -33.90614,1.49765 -42.53125,-4.28125 -5.81899,-3.89878 2.53669,-20.44802 5.40625,-31.5625 l -12.375,-6.0625 z"
       transform="translate(116.42653,32.625)"
       id="path3831"
       sodipodi:nodetypes="cccsccccccscccscccsssscssscc" />
    <path
       style="fill:#deaa87;fill-opacity:1;stroke:none"
       d="m 306.625,46.59375 c -26.96505,-0.371953 -52.42947,22.879044 -47.03125,41.0625 L 269.21875,120 c -7.41559,13.20957 -11.51755,16.65332 -33.3125,23.40625 -31.43968,-9.34493 -46.32669,3.73538 -47.34375,22.15625 -0.22014,3.9871 -1.12367,5.029 -2.125,6.8125 -13.75095,16.48905 -17.33808,28.14017 -18.59375,38.5625 -14.53805,12.42855 -17.04637,18.90481 -26.4375,31.3125 -0.53877,0.0639 -1.06621,0.14504 -1.59375,0.28125 -2.32064,0.5992 -4.01436,2.71921 -7.5,3.90625 -4.76894,1.62407 -8.4327,2.65783 -11.875,7.0625 -0.96835,2.43125 -0.36266,5.43157 -0.65625,7.46875 -0.18281,1.26851 -1.3433,3.28676 -1.75,5.78125 0.12711,1.6011 1.28045,4.20649 0.875,5.75 -0.77335,2.9441 -0.66324,4.0734 -0.21875,7.4375 0.2687,2.03365 0.14379,5.164 0.65625,6.375 0,0 0.32816,0.56268 1.875,1.53125 8.36785,5.23966 13.58708,4.12635 23.2289,1.99873 2.23868,-0.494 3.51875,-3.13759 4.72256,-7.00634 0.72819,0.01 1.68801,-0.27868 2.04854,-0.74239 1.92214,-2.47258 3.2968,-6.42123 2.78125,-7.875 0.72167,-0.18914 2.78984,-0.13315 4.5625,-0.84375 2.24029,-0.89805 -0.64642,-0.37729 0.8125,-7.0625 6.6846,-4.42244 13.48235,-9.38136 20.625,-16.09375 5.85083,-5.4984 3.91518,-11.32292 5.34375,-19.65625 6.72448,-7.05884 6.79464,-6.99702 10.1875,-14.4375 -2.08092,12.67857 -1.00753,25.35268 -0.34375,38.03125 1.01558,5.56584 2.25825,9.306 3.75,11.0625 -0.0855,9.16514 -0.78068,17.94025 1.25,21.4375 l -3.40625,9.625 -1.34375,3.125 c -0.8405,-0.0599 -1.4195,0.92615 -2.03125,1.78125 l 1.78125,-0.25 c -1.06198,1.10646 -2.08053,2.79904 -1.96875,4.375 0.73707,-0.64368 1.46494,-1.24134 1.96875,-0.71875 -0.0962,1.74083 -0.29141,3.53112 0.53125,4.8125 -1.08979,-0.0407 -1.63133,1.18117 -2.25,1.96875 1.19792,-0.87282 2.39583,-0.70471 3.59375,-0.15625 0.0291,0.14519 -0.215,1.10452 -0.1875,1.25 0.94656,-0.0808 1.62298,0.8218 2.09375,2.40625 -1.06989,0.0343 -1.43944,0.76889 -1.8125,1.5 1.56453,-0.67911 1.68248,0.0884 2.125,0.53125 -1.41366,0.52878 -1.48618,1.50461 -1.5,2.5 0.80208,-0.84976 1.60417,-0.69603 2.40625,-0.625 -1.13711,0.58624 -0.88254,1.63638 -0.625,2.6875 0.51314,-0.83831 1.22965,-1.26986 2.21875,-1.15625 l 0.25,1.9375 c 1.06754,-0.0805 2.08428,-0.0814 2.21875,1.9375 -1.07018,0.79167 -1.05832,1.58333 -1.21875,2.375 L 205,326.1875 c -1.21106,1.22917 -1.37978,2.45833 -1.15625,3.6875 0.70833,-1.2205 1.41667,-1.68672 2.125,-1.71875 l -0.25,2.0625 c 0.29097,-0.73464 0.64578,-1.34538 1.40625,-0.90625 l 1.8125,3.21875 c 0.59218,-0.41868 1.2146,-0.83169 1.8125,-1.25 0.80717,0.59375 0.61404,1.1875 0.5,1.78125 l 1.0625,-2.3125 c 2.2396,-1.47399 2.88924,0.62942 4.28125,1.0625 0.10718,-1.38393 0.35082,-2.77232 -0.6875,-4.15625 0.93311,-1.181 1.96186,-1.27986 3.46875,-2.28125 2.02114,0.92698 0.85621,0.0782 2.5,1.875 l 0.25,-3.6875 c 0.28271,-0.18472 0.55969,-0.37787 0.84375,-0.5625 1.81739,1.5304 2.40109,1.13226 3.03125,3.375 l 0.6875,-4.5 c 1.10088,-0.65892 4.50977,-0.80342 6.8125,0.84375 l 0.25,-3.03125 c 2.8446,-2.01015 3.91325,-1.83404 6.53125,-1.125 -0.47243,-1.38585 -0.40054,-2.07716 -1.34375,-2.625 2.46804,-2.12786 5.19395,-3.22419 8.375,-2.5 l -0.9375,-2.375 c 3.16124,-1.23259 4.08768,-0.65562 6.3125,0.21875 -0.84283,-1.99593 0.45127,-2.72917 -0.1875,-4.09375 2.0536,-0.82746 4.07177,-1.39239 5.65625,-0.8125 L 256,304.65625 c 0.85574,-0.45594 1.66688,-0.88889 2.5,-1.34375 2.60268,0.0926 2.6954,0.54109 3.75,1.5625 -0.0124,-1.35417 0.0987,-1.70833 -0.25,-3.0625 1.69047,0.29813 3.12711,0.93469 4.3125,1.90625 -0.74502,-1.14311 -1.80039,-2.13106 -3.21875,-2.9375 1.46351,-0.81553 2.93275,-1.6268 4.40625,-2.4375 1.33372,0.10783 1.98189,0.64413 1.96875,1.59375 0.91729,-0.69768 1.66194,-1.46011 1.25,-2.65625 1.76308,-0.22674 3.46234,-0.26203 4.5625,1.5 -0.22431,-1.45683 -0.74779,-2.73913 -2.96875,-3.03125 2.85366,-1.49573 6.47692,-4.01581 8.375,-6.625 0.37713,-11.25 1.70415,-24.34449 5.75,-30.5 7.14798,-10.8752 16.91011,-16.9314 23.21875,-28.0625 7.56754,15.69824 15.25932,21.67927 26.59375,29.84375 1.32712,6.91519 6.37671,9.36564 11.78125,12.3125 1.1,0.59978 2.30227,1.17504 3.53125,1.75 0.0924,0.49595 0.40021,0.96532 0.28125,1.46875 -1.15814,4.90101 4.87514,9.00712 9.8125,11.21875 4.30796,1.92972 9.01449,2.7254 13.84375,2.15625 5.99829,-0.70694 11.10104,-22.77507 10.84375,-35.46875 -0.14989,-7.39445 -16.53299,-8.18545 -19.375,-10.46875 -0.19541,-0.15699 -0.39837,-0.33506 -0.59375,-0.5 -1.83588,-2.27376 -3.66579,-4.38343 -5.3125,-5.875 -3.32956,-3.01587 -11.40625,-7.125 -11.40625,-7.125 -2.36542,-7.2619 -4.45371,-13.45685 -10.90625,-20.71875 0.97407,-16.13907 -2.56141,-33.89648 -28.75,-34.84375 -6.90304,-6.50506 -9.95883,-13.45802 -12,-22.5 3.19389,3.70266 6.70921,10.50841 11.90625,11.125 4.72124,0.56014 10.70486,2.73649 13.78125,1.125 4.60065,-2.40994 2.94652,-6.14563 8.59375,-8.375 2.63904,-2.53744 2.15163,-5.16551 4.4375,-9.46875 3.24004,-6.09953 8.15899,-8.76487 11.28125,-17.125 1.36413,-3.65259 0.68937,-7.08425 1,-10.625 7.70893,-7.22896 4.28046,-12.06939 4.28125,-17.03125 -0.10965,-27.658135 -10.90346,-46.191689 -35.09375,-53.15625 -3.82805,-1.102124 -7.71035,-1.634364 -11.5625,-1.6875 z"
       id="path2931"
       sodipodi:nodetypes="ccccscccsscscsscsscscscscccccccccccccccccccccccccccccccccccccccccccccccccccccccccccccccsccscssssscsccccsscssccsc" />
    <path
       style="opacity:0.50000000000000000;fill:#552200;fill-opacity:1;stroke:none"
       d="m 271.70778,90.46875 c -0.23984,0.0073 -0.47706,0.03281 -0.71875,0.09375 -1.70439,0.429705 -0.40625,5.1875 -0.40625,5.1875 0,0 1.89538,-1.589916 2.78125,-1.125 4.34963,2.282732 0.6709,9.08872 3.28125,13.25 1.1008,1.75483 1.92211,3.35558 3.6875,3.78125 0,0 -0.69455,-3.62836 -0.65625,-4.53125 0.13158,-3.09882 1.32763,-4.85165 0.375,-7.34375 -1.43683,-3.758792 -4.74618,-9.421852 -8.34375,-9.3125 z"
       id="path4451" />
    <path
       style="opacity:0.50000000000000000;fill:#552200;fill-opacity:1;stroke:none"
       d="m 338.20778,110.03125 c -0.9582,0.73644 -2.87486,1.849 -2.5,5.28125 0.71266,6.52518 -1.21747,24.36774 -3.5625,23.75 -1.43693,-0.37852 -7.88661,-2.08028 -10.8125,-5.09375 -0.68416,-0.70465 -0.34375,-2.40625 -0.34375,-2.40625 -3.89432,0.0447 -1.93915,3.94595 -1.71875,6.15625 2.15442,2.64304 8.57316,3.42033 13.6875,2.84375 0.94957,-0.10705 1.34467,-1.25475 1.5,-2.03125 1.60617,-8.02946 2.42054,-13.93083 2.90625,-21.28125 1.75198,3.12339 2.15919,6.25161 3.25,9.375 l -1.1875,-7.40625 c 2.3006,-0.49022 1.80107,-0.97853 2.4375,-1.46875 2.01968,0.346 4.42862,0.57148 6.625,0.15625 -2.79519,-0.47862 -3.71682,-3.19241 -6.96875,-7.5 l -3.3125,-0.375 z"
       id="path4449" />
    <path
       style="opacity:0.50000000000000000;fill:#552200;fill-opacity:1;stroke:none"
       d="m 313.52028,114.1875 c 0.45597,1.17851 -0.17759,2.72774 2.40625,3.90625 l -5.4375,4.15625 c 2.53429,-1.14562 4.41128,-2.68078 6.96875,-3.8125 2.07662,-0.55355 4.78371,-1.35304 6.4375,-3.625 -3.09881,0.66877 -6.9657,2.74269 -10.375,-0.625 z"
       id="path4447" />
    <path
       style="opacity:0.50000000000000000;fill:#552200;fill-opacity:1;stroke:none"
       d="m 337.39528,116.75 c 0.51578,0.10828 2.13566,0.59839 4.1875,0.96875 -1.68504,-0.0332 -3.31453,-0.10241 -4.21875,-0.65625 0.007,-0.10867 0.0243,-0.20317 0.0312,-0.3125 z"
       id="path4445" />
    <path
       style="opacity:0.50000000000000000;fill:#552200;fill-opacity:1;stroke:none"
       d="m 280.80153,124.78125 c -2.55309,7.1623 -6.49557,16.43997 -1.75,22.21875 2.0663,2.51618 4.51794,4.03065 6.40625,5.78125 1.11227,1.03116 1.58463,2.47069 1.15625,4.6875 1.7494,-0.97696 2.69034,-2.30668 4,-2.71875 1.74655,-0.54954 1.44432,2.45367 0.1875,3.46875 l -9.5625,7.71875 c -3.48349,3.12847 -1.5242,4.47322 1.0625,4.8125 8.5864,1.12622 19.19196,3.22768 27.5,3.34375 -7.19175,-7.20273 -9.5443,-12.76668 -11.9375,-22.28125 -7.64677,-9.61262 -16.47507,-8.75239 -17.0625,-27.03125 z"
       id="path4443" />
    <path
       style="opacity:0.50000000000000000;fill:#552200;fill-opacity:1;stroke:none"
       d="m 272.67653,125.9375 c -9.82143,11.66667 -17.00023,31.34177 -15.53125,46.25 0.30255,3.07054 3.75112,3.16381 6.0625,2.5 4.12958,-1.18599 4.08582,-3.19593 6.0625,-4.8125 -3.55941,-0.34787 -8.8416,-1.25152 -8.75,-7.5 0.19657,-13.40949 4.46775,-23.78497 12.15625,-36.4375 z"
       id="path4441" />
    <path
       style="opacity:0.50000000000000000;fill:#552200;fill-opacity:1;stroke:none"
       d="m 261.77028,135.5625 c -5.50079,6.38935 -9.31805,16.61848 -17.84375,16.09375 1.51266,1.47991 5.04543,6.21488 6.25,4.46875 5.46755,-7.92566 8.02232,-14.01488 11.59375,-20.5625 z"
       id="path4439" />
    <path
       style="opacity:0.50000000000000000;fill:#552200;fill-opacity:1;stroke:none"
       d="m 312.45778,142.71875 c -1.82106,0.8446 -2.11621,2.12421 -2.84375,3.28125 0.93388,-0.40373 1.53051,-1.50889 2.84375,-1.0625 5.00646,1.70176 11.298,3.22978 14.09375,3.6875 1.10398,0.18074 0.76428,1.58549 -0.0625,2.28125 -0.63624,0.53542 1.78125,0.65625 1.78125,0.65625 1.26408,-2.46259 0.71796,-2.47422 1.40625,-3.65625 -4.57575,-0.32229 -11.03254,-2.93267 -17.21875,-5.1875 z"
       id="path4437" />
    <path
       style="opacity:0.50000000000000000;fill:#552200;fill-opacity:1;stroke:none"
       d="m 226.98903,145.90625 c -0.92208,0.003 -1.36677,1.49662 2.0625,4.65625 13.69078,6.43973 14.60955,12.51889 21.21875,19.3125 1.93488,1.98886 5.33707,-4.17964 -0.25,-8.09375 L 227.67653,146.125 c -0.22179,-0.15538 -0.47471,-0.21947 -0.6875,-0.21875 z"
       id="path4435" />
    <path
       style="opacity:0.50000000000000000;fill:#552200;fill-opacity:1;stroke:none"
       d="m 314.98903,149.03125 c -1.17142,0.23584 -0.85509,0.96153 0.375,1.78125 2.51551,1.6763 4.64527,1.935 7,2.3125 1.01051,0.162 1.17256,-0.75607 0.6875,-1.5 -3.33632,-0.5389 -5.51076,-1.33633 -8.0625,-2.59375 z"
       id="path4433" />
    <path
       style="opacity:0.50000000000000000;fill:#552200;fill-opacity:1;stroke:none"
       d="m 273.11403,173.78125 c -3.0843,0.26974 -4.83234,3.81218 -2.9375,3.75 19.15707,-0.62874 23.46901,-0.019 35.1875,0.1875 1.795,0.0316 3.87024,-1.8045 -1.96875,-2.15625 l -29.65625,-1.78125 c -0.2169,-0.0131 -0.41938,-0.018 -0.625,0 z"
       id="path4431" />
    <path
       style="opacity:0.50000000000000000;fill:#552200;fill-opacity:1;stroke:none"
       d="m 197.48903,175.15625 c 0,0 0.0688,1.84386 0.25,4.46875 -4.87925,18.69379 -6.87197,36.48832 -24.5,47.3125 -3.42431,6.2328 -2.71981,6.51868 -4.1875,10.46875 1.47314,-0.69305 2.96436,-2.61027 4.4375,-1.5 3.5092,2.42881 9.56865,-0.7006 6.21875,6.53125 -3.4539,7.45635 -10.61089,12.02192 -18.28125,16.1875 l -3.21875,-12.9375 c 0,0 -8.02596,-3.63744 -10.65625,-3.78125 -0.95577,-0.0522 -2.15291,0.0884 -3.25,0.28125 4.93709,0.36513 9.62972,2.75721 11.21875,3.28125 0.74107,0.3479 1.4321,1.39163 2.0625,2.8125 -0.40283,1.08931 -1.04934,2.05844 -2.5,2.5625 -4.47401,1.55459 -7.80072,-1.25606 -13.40625,-0.71875 -1.86581,0.17885 -5.19936,0.68247 -6.59375,2.15625 4.73264,-0.84547 9.79278,0.11031 15,1.875 -1.51831,-0.85302 -2.7575,-1.38837 -2.9375,-2.6875 2.5641,-0.26901 4.78482,0.67278 6.875,2.0625 l 0.71875,4.4375 c 0.14446,2.23776 0.0917,4.43417 -0.625,4.59375 -8.34431,1.85796 -16.12473,2.95217 -25.9375,0.6875 l -0.4375,2.90625 c 0.6955,-1.31743 2.85253,-2.12774 4.03125,-1.875 5.68836,1.21965 15.70633,1.521 23.40625,0.4375 1.49248,0.87451 0.18162,5.09031 -0.75,7 -8.34431,1.85795 -16.12473,2.95218 -25.9375,0.6875 l -0.4375,2.90625 c 0.6955,-1.31744 2.19627,-2.06523 3.375,-1.8125 4.81842,1.03312 13.29741,1.86469 20.5625,1.125 -0.63183,2.41589 -1.82776,6.39181 -2.875,6.625 -8.34432,1.85796 -11.18723,2.54592 -21,0.28125 l -0.46875,2.875 c 0.6955,-1.31743 3.29002,-2.15899 4.46875,-1.90625 4.66201,0.99959 10.64622,1.52918 16.875,0.96875 0.0113,-0.23116 0.12542,-0.39562 0.15625,-0.625 1.29531,-0.14322 1.56046,-0.2673 2.0625,-0.75 0.23517,-0.30252 0.47118,-0.62932 0.6875,-0.96875 0.005,-0.007 -0.005,-0.024 0,-0.0312 1.36488,-2.12833 2.18119,-4.36878 2.09375,-6.875 1.53926,-0.23384 3.05668,-0.40988 4.5625,-0.84375 2.24029,-0.89805 -0.64808,-0.37411 0.8125,-7.0625 6.68421,-4.42471 13.48221,-9.38122 20.625,-16.09375 5.85083,-5.4984 3.91518,-11.32292 5.34375,-19.65625 6.08745,-6.39014 6.76115,-6.99485 9.34375,-12.5625 l 5.1875,-23.375 -0.0625,-0.4375 c 1.00701,3.98774 2.44663,7.39478 4.5,8.75 6.31345,4.16688 10.81617,6.87137 18.1875,7.21875 7.32322,0.34511 18.86213,1.73995 21.71875,-4.5625 2.71281,-5.98516 4.78125,-10.84375 4.78125,-10.84375 1.51523,-4.29315 0,-12.875 0,-12.875 0,4.29198 -7.11774,18.83782 -8.0625,21.1875 -2.10598,5.23772 -24.50288,2.09736 -34.53125,-4.375 -5.93059,-3.82763 -7.1293,-14.92907 -8.90625,-23.53125 z"
       id="path4429" />
    <path
       style="opacity:0.50000000000000000;fill:#000000;fill-opacity:1;stroke:none"
       d="m 164.38839,254.38839 c -0.0342,0.69941 -0.0684,1.39881 -0.10268,2.09822 -1.90527,2.73556 -4.68347,4.52965 -7.47321,6.23214 1.9409,-0.12969 3.14375,1.31655 3.40625,3.21875 l -3.8125,2.375 c -1.08086,1.45981 -2.31828,2.37402 -3.1875,4.46875 0.0997,-1.09196 -0.80137,-0.96855 -1.625,-0.90625 l -1.96875,3.03125 -1.40625,0 -2.5,3.21875 -2.6875,-0.34375 -0.875,2.3125 0,3.5 c 0.67665,0.21031 1.25479,0.5388 1.75,0.96875 0.60738,-1.44639 -0.28975,-3.13609 -1.0625,-4.8125 1.97143,-0.19642 4.01583,-0.59985 5.53125,0.34375 0.18756,-0.95238 -0.60424,-1.89137 -1.59375,-2.84375 1.71382,-0.54242 3.45029,-1.15562 4.46875,0.15625 l 0.15625,-3.75 c 0.74728,0.72231 2.27951,0.50804 1.96875,2.5 2.38476,-1.54686 1.58963,-3.73327 1.78125,-5.71875 1.72412,0.37078 2.72325,1.07139 2.78125,2.15625 1.10798,-1.02425 0.88342,-2.54554 0.0937,-4.28125 1.71757,0.19581 3.37589,0.46102 4.625,1.59375 0.58976,-1.0119 -0.0571,-2.01935 -0.875,-3.03125 1.93389,-0.43013 3.89838,-0.93468 4.90625,0.71875 -1.15188,-2.01742 -0.39932,-2.14443 -2.15625,-2.90625 1.99852,-0.33896 4.00149,-0.54934 6,0.75 l -1.25,-2.84375 c 2.33606,-0.84663 3.88045,0.15396 5.53125,0.90625 l -1.4375,-2.34375 c 1.02083,-0.69612 1.57292,-0.93891 2.59375,0.0312 0.45298,-0.92884 4.9502,-0.26564 6.21875,-0.1875 -3.21422,-2.22132 -6.90072,-3.81292 -11.125,-4.6875 l 0.65625,-1.25 c -2.54068,-1.21705 -5.36523,-0.92073 -7.33036,-0.67411 l 5e-5,5e-5 z"
       id="path4455"
       transform="translate(116.42653,32.625)"
       sodipodi:nodetypes="ccccccccccccccccccccccccccccccccccccc" />
    <path
       style="opacity:0.50000000000000000;fill:#552200;fill-opacity:1;stroke:none"
       d="m 197.84375,159.75 -5.53125,12.125 c -7.88716,17.30088 -50.72701,21.60901 -54.65625,2.875 0.29075,6.91347 1.3995,9.19216 4.0625,10.78125 11.36904,5.72172 41.61347,5.55459 47.75,2.0625 -6.28989,11.95422 -15.9447,26.09569 -25,37.84375 -6.18465,7.61345 -9.86738,-0.0686 -14.84375,-1.40625 4.05058,12.96875 8.78509,26.11607 6.35268,39.08482 3.14021,-1.61924 5.99536,-3.7997 8.26339,-6.54018 -0.0394,-0.73285 0.1638,-2.12761 0.16518,-2.23214 C 164.82367,243.78988 166.45267,231.39705 170,226 c 7.14798,-10.8752 16.91011,-16.9314 23.21875,-28.0625 7.56754,15.69824 15.25932,21.67927 26.59375,29.84375 1.32712,6.91519 6.37671,9.36564 11.78125,12.3125 1.15507,0.62674 2.34547,1.18466 3.53125,1.75 0.0924,0.49595 0.40021,0.96532 0.28125,1.46875 -0.77264,3.26967 1.67301,6.17463 4.84375,8.40625 -1.17686,-2.71716 -0.75369,-5.65685 1.625,-7.875 l -1.25,-1.3125 c 0.0177,-0.0412 0.0457,-0.0804 0.0625,-0.125 -1.58736,-1.8104 -2.54249,-5.33485 -0.25,-8.65625 -0.917,-2.67148 -1.29526,-6.09398 1,-8.28125 0.91256,0.48399 1.8319,0.86656 2.78125,1.03125 l 18.8125,3.25 c 1.26328,0.30728 2.39013,0.29026 2.6875,1.9375 l 0.53125,-2.84375 c -4.8683,0.0913 -9.62841,-1.07176 -14.375,-2 l -6.34375,-1.40625 c -1.1145,-0.24705 -2.84606,-1.10977 -4.25,-2.09375 -0.74621,-3.25127 1.80886,-9.06379 4.59375,-8.53125 4.53503,1.78758 7.02875,1.73352 9.90625,1.96875 -5.16808,-2.98333 -8.38517,-5.50919 -12.21875,-7.3125 -1.48568,9.61821 -4.53586,8.91023 -5.5625,18.5625 -1.07823,0.99007 -3.37047,1.69772 -4.53125,-0.6875 -2.80837,-5.7707 -3.26017,-11.59775 -2.71875,-18.125 0.60085,-3.58839 6.43726,-4.97527 10.0625,-4.65625 1.55115,0.1365 2.97224,0.83398 4.3125,1.75 -0.0969,-0.44066 0.0438,-0.69552 -1.5625,-1.5 -3.242,-1.62371 -7.9651,-1.83401 -11.5,1.125 -5.36614,4.49192 -1.33559,23.00062 1.4375,24.03125 l -1.1875,2.25 c -1.34879,-1.98398 -6.09421,-7.34345 -6.4375,-10.875 -0.45493,2.34269 -1.58953,4.38946 -4.8125,3.5625 -11.38809,-2.92191 -16.8482,-18.65475 -24.4375,-30.53125 -1.90133,-2.9754 -1.03855,-5.6794 -1.21875,-8.03125 3.81025,-5.37642 6.02154,-17.91955 2.4375,-26.59375 z"
       id="path4427"
       transform="translate(116.42653,32.625)"
       sodipodi:nodetypes="ccccccccccsccccscccccccccccccccccscscsscccsscc" />
    <path
       style="opacity:0.50000000000000000;fill:#552200;fill-opacity:1;stroke:none"
       d="m 239.14528,223.53125 c -15.10318,2.15185 -27.3092,12.02102 -37.625,23.75 -4.13431,4.70067 -2.86385,6.56293 -1.125,5.03125 7.20744,-8.4132 9.82689,-13.58851 28.65625,-23.09375 5.44618,-2.74929 9.40275,-2.94944 10.09375,-5.6875 z"
       id="path4425" />
    <path
       style="opacity:0.50000000000000000;fill:#552200;fill-opacity:1;stroke:none"
       d="m 242.17653,238.0625 c -4.67195,6.22928 -7.90125,13.37129 -14,18.6875 -4.55779,3.97297 -16.40486,0.17824 -21.96875,-2.40625 4.16688,3.45136 9.5293,4.71126 14.125,5.3125 3.07231,0.40194 6.40299,-0.21506 9.21875,-0.78125 1.64941,-0.33166 8.41603,-13.8677 12.625,-20.8125 z"
       id="path4423" />
    <path
       style="opacity:0.50000000000000000;fill:#552200;fill-opacity:1;stroke:none"
       d="m 260.11403,251.5625 c 0.0472,4.71065 2.81777,9.445 0.125,14.15625 -1.70359,2.98058 -18.35179,-2.17249 -21.71875,-5.6875 0.44249,1.09945 1.00162,3.79713 3.65625,4.90625 9.8632,4.12089 17.21641,4.69345 19.1875,3.8125 2.54081,-1.13558 0.78557,-11.62996 -1.25,-17.1875 z"
       id="path4421" />
    <path
       style="opacity:0.50000000000000000;fill:#552200;fill-opacity:1;stroke:none"
       d="m 224.89528,266.71875 c 0.0848,0.0848 -7.55069,16.65052 -9.21875,17.03125 -1.74505,0.3983 -12.63341,-0.24746 -14.90625,-0.5 1.6415,1.38896 12.80996,3.69529 15.15625,2.78125 3.89221,-1.51629 9.68115,-19.3125 8.96875,-19.3125 z"
       id="path4419" />
    <path
       style="opacity:0.50000000000000000;fill:#552200;fill-opacity:1;stroke:none"
       d="m 364.98903,267.875 13.21875,3.1875 c 1.26328,0.30728 2.39013,0.32151 2.6875,1.96875 l 0.53125,-2.84375 c -5.47619,0.18397 -10.96131,-1.53418 -16.4375,-2.3125 z"
       id="path4417" />
    <path
       style="opacity:0.50000000000000000;fill:#552200;fill-opacity:1;stroke:none"
       d="m 262.52028,271.125 c -0.36594,9.43312 -8.51555,17.0568 -14.65625,19.96875 -6.11986,2.90206 -11.3001,-0.0613 -18.1875,-4.1875 0.62942,2.1821 1.32085,3.80034 2.90625,4.8125 3.64475,2.3269 7.69963,3.09807 12.875,2.65625 4.68657,-0.4001 16.06647,-8.69685 17.9375,-18.0625 0.44299,-2.21742 -0.37299,-3.60007 -0.875,-5.1875 z"
       id="path4415" />
    <path
       style="opacity:0.50000000000000000;fill:#552200;fill-opacity:1;stroke:none"
       d="m 361.08278,276.9375 13.21875,3.21875 c 1.26328,0.30728 2.35888,0.32151 2.65625,1.96875 l 0.53125,-2.84375 c -5.47619,0.18397 -10.93006,-1.56543 -16.40625,-2.34375 z"
       id="path4413" />
    <path
       style="opacity:0.50000000000000000;fill:#552200;fill-opacity:1;stroke:none"
       d="m 216.14528,286.21875 c -1.282,0.11688 -2.54454,0.7212 -3.125,2.96875 -0.82778,3.20516 0.39958,4.6449 1.375,6.1875 -0.0221,-0.004 -1.40576,-3.92979 0.90625,-5.1875 1.42092,-0.77296 3.18954,-1.55025 3.40625,-0.25 0.78049,-0.88057 1.4816,-1.78677 -0.375,-3.65625 -0.62391,-0.027 -1.4183,-0.13263 -2.1875,-0.0625 z"
       id="path4411" />
    <path
       style="opacity:0.50000000000000000;fill:#552200;fill-opacity:1;stroke:none"
       d="m 212.27028,297.78125 c -1.05214,5.21906 0.077,11.5918 -4.1875,15.28125 -3.05675,2.64456 -7.65279,-2.31946 -9.34375,-6.1875 0.45671,3.11534 1.24857,5.59019 3.9375,7.1875 3.3741,2.00432 7.91765,1.36042 8.5625,-1.375 1.25089,-5.30625 1.41006,-9.60295 1.03125,-14.90625 z"
       id="path4409" />
    <path
       style="opacity:0.50000000000000000;fill:#552200;fill-opacity:1;stroke:none"
       d="m 244.83278,304.09375 c -3.99676,5.22664 -13.94063,12.81888 -27.53125,11.875 1.87173,1.62172 8.78696,1.82994 13.28125,0.25 7.22123,-2.53857 13.04629,-7.21637 14.25,-12.125 z"
       id="path3743" />
    <path
       style="fill:#000000;fill-opacity:1;stroke:none"
       d="m 313.34375,98.78125 c -1.60878,-0.02846 -3.43012,0.120473 -5.75,0.375 -0.40817,2.41868 -0.59453,4.68728 0,6.4375 5.30741,-1.56042 9.82015,2.32438 15.03125,3.40625 2.0203,0.41944 4.0422,0.86007 6.0625,0.625 0,0 0.81331,-4.28027 0.375,-4.53125 -8.05068,-4.60983 -10.89242,-6.227123 -15.71875,-6.3125 z m 30.09375,5.8125 c -2.09873,0.0206 -4.22779,0.18217 -6.4375,0.625 -0.005,1.95952 -0.79295,4.32993 0.40625,5.6875 5.61713,-0.26805 10.71377,0.99412 16.03125,1.625 1.48149,-2.52538 0.69044,-5.03712 0.625,-7.5625 -3.68284,-0.0546 -7.12712,-0.40925 -10.625,-0.375 z"
       id="path3705" />
    <path
       style="fill:#000000;fill-opacity:1;stroke:none"
       d="m 311.25326,111.53135 3.91433,0 c 0,0 3.66544,-3.22082 5.30331,-2.77792 3.31945,0.89762 3.78807,5.68211 3.78807,5.68211 0,0 -2.96968,-0.33467 -5.80837,-0.88388 -2.40671,-0.46563 -7.19734,-2.02031 -7.19734,-2.02031 z"
       id="path3710"
       sodipodi:nodetypes="ccscsc" />
    <path
       sodipodi:type="arc"
       style="fill:#ffffff;fill-opacity:1;stroke:none"
       id="path3712"
       sodipodi:cx="320.15521"
       sodipodi:cy="112.03643"
       sodipodi:rx="0.56821078"
       sodipodi:ry="0.75761443"
       d="m 320.72342,112.03643 c 0,0.41842 -0.25439,0.75761 -0.56821,0.75761 -0.31381,0 -0.56821,-0.33919 -0.56821,-0.75761 0,-0.41842 0.2544,-0.75761 0.56821,-0.75761 0.31382,0 0.56821,0.33919 0.56821,0.75761 z"
       transform="matrix(1.9035254,0,0,1.5892556,-287.95271,-66.541666)" />
    <path
       style="fill:#000000;fill-opacity:1;stroke:none"
       d="m 337.26468,116.32958 c 2.5149,0.48932 5.15017,1.07896 6.69226,0.75761 l -1.51523,-0.88388 c 0.45937,-2.72465 -0.6142,-3.70407 -1.51523,-3.85121 -1.11927,-0.18277 -3.31883,0.58251 -3.6618,3.97748 z"
       id="path3714"
       sodipodi:nodetypes="cccsc" />
    <path
       style="fill:#000000;fill-opacity:1;stroke:none"
       d="m 314.15625,32.625 c 1.43429,2.271917 5.17502,3.875423 4.28125,6.8125 -18.33235,-4.92492 -18.24848,-2.413597 -23.46875,-2.03125 L 279.3125,33.375 c 1.33476,2.587002 3.69246,5.287494 2.53125,7.5625 -8.0779,-4.710721 -10.20105,-3.44322 -14.65625,-4.53125 2.9841,2.768465 7.27666,5.213222 7.8125,8.59375 -11.06239,-4.490216 -19.61483,-1.912963 -28.78125,-1.03125 8.26569,1.875038 18.21261,2.262301 23.75,6.5625 -14.40822,4.072452 -17.49182,7.140052 -17.1875,9.875 3.61971,-1.008297 7.25529,-3.097512 10.875,-2.28125 0,0 -14.87872,4.179961 -18.8125,10.34375 -1.13242,1.774343 -1.15625,4.8125 -1.15625,4.8125 2.95566,-5.711695 9.38899,-6.828775 14.15625,-10.125 -1.67277,5.753159 -5.07129,11.374941 -3.03125,17.4375 -3.88451,3.134805 -9.43415,7.497952 -28.53125,4.28125 l 4.28125,5.0625 c 0.59449,0.699395 17.08805,5.180332 21.53125,5.75 -4.65225,0.124815 -22.49873,1.078868 -23.8125,0.3125 4.0139,1.605131 7.14335,3.39019 15.65625,4.03125 -6.56432,0.82368 -11.63606,4.25535 -16.90625,7.34375 6.75585,-0.92002 13.42489,-1.64754 19.1875,-0.25 6.03178,0.32396 -8.11736,3.96258 -31.3125,4.78125 -5.22877,0.18455 13.70625,3.77212 19.875,3.40625 -5.27682,0.90414 -8.04612,5.31638 -7.75,5.4375 7.26252,-1.95776 14.39445,-5.19131 21.96875,-4.03125 -4.12479,5.80838 -0.90947,12.33195 -12.375,17.40625 -5.80211,2.56784 -12.40362,1.58692 -16.28125,-9.84375 0,0 -4.51105,6.99915 -1.40625,9.09375 15.13627,10.21141 22.06324,1.54494 34.22716,4.02824 10.50221,-4.34815 16.61432,-13.0864 21.08534,-23.46574 -3.15014,-7.40187 -5.43215,-13.98025 -6.5625,-21.71875 -0.3089,-2.114739 0.12901,-6.094345 3.03125,-5.0625 4.3808,1.557522 8.27682,5.104201 12.125,9.96875 l 1.25,11.25 -0.61612,2.783 -0.38388,5.31075 -2.53125,0 c 3.54167,2.6683 7.08333,6.23852 10.625,11.59375 l -1.53125,-6.3125 2.03125,0 -4.03125,-14.875 1.62199,-7.966689 -0.23303,-1.884675 6.68877,-4.165926 c 4.2717,-2.291232 4.56733,-7.201848 11.35977,-8.23271 3.674,-0.557588 4.38074,3.99549 -3.03125,8.09375 5.68211,2.65165 23.25911,-1.801708 24.75,-1.53125 3.32449,0.603086 -18.15586,10.13555 -18.1875,10.125 8.25944,-2.224597 17.74038,-6.802043 24.5,-8.34375 3.4011,-0.775709 -3.31476,3.708333 -5.3125,5.5625 4.48328,-1.286376 9.82984,-1.462827 12.125,-5.5625 1.48518,3.787225 -2.72228,5.504399 -4.53125,8.09375 5.25135,-2.281118 11.17686,-2.764477 15.53125,-7.4375 l 0.25,3 c 0,0 8.63852,9.55216 9.21875,9.96875 0.42262,0.30343 0.95234,-9.73201 -4.96875,-15.09375 1.1824,-1.435681 3.89222,1.710931 5.97557,2.97811 0.40494,-1.435035 -3.67921,-6.705177 -4.56932,-7.79061 2.07391,-0.278601 5.86638,4.02563 8.84375,6.15625 0,0 -6.65535,-11.696479 -10.4375,-15.40625 -0.83366,-4.727558 -1.83916,-9.518775 -3.8125,-14.53125 l -0.78125,5.8125 C 348.24785,58.843212 342.86681,51.815669 332.34375,45.25 327.49735,37.397472 318.2153,33.874453 314.15625,32.625 z"
       id="path3749"
       sodipodi:nodetypes="cccccccccccsccccccccccscccscsccssccccccccccccscscscccccsccccccccc" />
    <path
       style="opacity:0.5;fill:#000000;fill-opacity:1;stroke:none"
       d="m 164.3125,390.21875 c -3.25318,3.25987 -6.47589,6.46665 -9.46875,9.4375 l 14.1875,29.15625 c 3.08663,-1.55838 6.52275,-3.00003 10.125,-4.40625 l -14.84375,-34.1875 z"
       id="path3848" />
    <path
       style="fill:#483e37;fill-opacity:1;stroke:none"
       d="m 240.92138,355.862 c -17.08841,1.59941 -11.83206,9.02743 -65.65991,5.55584 -13.21617,0.18326 -17.61213,9.34556 -21.71828,19.69798 -2.30308,7.74037 3.37274,15.12429 7.92887,22.69151 10.88919,18.0857 14.94055,39.65371 21.87063,59.63592 1.84195,5.05465 3.14305,9.14892 11.61675,12.62691 14.78097,6.06679 27.86754,15.64903 44.95179,17.17259 6.81784,-16.3707 -0.20377,-49.61342 -22.4759,-41.66879 -2.08087,4.13505 -5.04694,2.7712 -8.33375,1.26269 -3.14047,-1.44135 -5.56423,-4.36054 -6.56599,-10.10153 -2.80871,-16.0965 -10.15874,-31.13207 -12.12184,-47.47717 16.92006,-1.01015 59.46327,16.89739 68.43785,18.43528 14.80296,2.53664 41.30984,-29.66078 47.22463,-38.3858 L 240.92138,355.862 z"
       id="path3767"
       sodipodi:nodetypes="cccscsccsscscc" />
    <path
       transform="matrix(1.5106883,0,0,1.4124789,-142.36243,-43.566594)"
       d="m 320.72342,112.03643 c 0,0.41842 -0.25439,0.75761 -0.56821,0.75761 -0.31381,0 -0.56821,-0.33919 -0.56821,-0.75761 0,-0.41842 0.2544,-0.75761 0.56821,-0.75761 0.31382,0 0.56821,0.33919 0.56821,0.75761 z"
       sodipodi:ry="0.75761443"
       sodipodi:rx="0.56821078"
       sodipodi:cy="112.03643"
       sodipodi:cx="320.15521"
       id="path3942"
       style="fill:#ffffff;fill-opacity:1;stroke:none"
       sodipodi:type="arc" />
    <path
       style="fill:#000000;fill-opacity:1;stroke:none"
       d="m 229.5625,448.46875 c -4.35032,0.1126 -8.57281,0.87087 -12.125,3.09375 -0.18649,0.37059 -0.39344,0.68264 -0.59375,0.96875 l 4.21875,10.53125 c 0.47016,2.8672 2.16779,3.72581 3.59375,5 -1.24982,-0.30924 -1.55297,0.94352 -4.3125,-1.78125 1.67703,2.63871 2.84128,5.49146 6.09375,7.5 -3.14969,0.33499 -6.55327,0.32932 -10.375,-0.34375 2.70813,1.02553 4.27036,1.64401 6.28125,3.375 -1.99639,-0.32059 -3.48985,-1.52565 -4.5,-0.53125 -1.2017,0.78596 0.38418,4.46959 1.375,5.5625 -1.26549,0.0149 -3.875,0.15676 -3.875,-1.28125 l -2.125,3.21875 0.59375,1.25 c 8.11484,5.33917 21.09929,10.57359 30.73661,11.43304 5.45008,-12.66935 3.81114,-32.54057 -2.11161,-47.15179 -4.04782,-0.40043 -8.52468,-0.95635 -12.875,-0.84375 z"
       id="path3956"
       sodipodi:nodetypes="ccccccccccccccccc" />
    <path
       style="fill:#000000;fill-opacity:1;stroke:none"
       d="m 207.75,496.8125 -3.9375,2.875 c 2.10153,0.029 2.2499,0.68714 2.375,1.375 -2.35062,-0.72852 -3.34936,-0.64772 -4.03125,-0.375 -0.75687,1.40594 -0.84455,2.93627 -3.15625,4.03125 2.47962,0.28841 3.1799,1.64088 4.03125,2.90625 -2.10448,-0.45883 -4.20802,-1.63146 -6.3125,-0.875 1.29168,0.5559 2.12459,1.42701 2.40625,2.65625 -1.89404,-0.7322 -3.79346,-1.34258 -5.6875,-0.75 -0.46581,2.46267 -0.67408,4.52208 -0.125,6.3125 -1.17851,-0.6934 -2.35274,-0.9917 -3.53125,-3.28125 -1.46706,2.20667 -2.16024,3.99761 -2.28125,5.53125 l 2.15625,2.65625 c -1.55096,0.0651 -2.94191,-0.30525 -4.15625,-1.25 l -1.0625,1.625 c 5.78979,9.24546 13.22779,20.25041 19.44196,24.10268 8.92442,-1.48173 19.99474,-22.2363 25.60268,-34.76786 -5.87965,-5.17408 -17.19536,-12.41226 -21.73214,-12.77232 z"
       id="path3964"
       sodipodi:nodetypes="cccccccccccccccccc" />
    <path
       style="fill:#000000;fill-opacity:1;stroke:none"
       d="m 433.8125,564.25 c -8.29122,10.90239 -9.22992,20.79022 -11.5625,28 1.64949,12.6269 38.42153,12.5618 44.33482,5.91964 0,0 0.0401,-13.13582 0.79018,-25.57589 l -1.4375,1.96875 c -0.19558,-2.92031 -1.48868,-3.13467 -2.28125,-4.5625 0.13841,2.08951 0.32976,4.20707 -1.5,5.3125 -0.65194,-3.57853 -2.74342,-4.31826 -4.3125,-6.0625 0.80206,2.5398 -0.46878,4.72407 -1.625,6.9375 -0.52404,-2.39437 -0.73141,-4.86208 -2.53125,-6.9375 0,0 -2.6461,2.26602 -3.65625,3.78125 -0.37073,1.38734 -2.89934,-3.41031 -3.03125,-4.63393 -2.02716,0.5265 -6.08434,3.23257 -8.09375,5.41518 -0.15997,-1.84576 0.49453,-4.1264 2.28125,-6.16518 l -1.78125,-1.92857 c 0.12962,-0.44107 -5.45826,2.13875 -6.8125,3.03125 -1.0388,0.68461 3.28538,-4.02987 4.03125,-3.78125 L 433.8125,564.25 z"
       id="path3969"
       sodipodi:nodetypes="cccccccccccccccscc" />
    <path
       style="fill:#000000;fill-opacity:1;stroke:none"
       d="m 329.71875,543.90625 c -9.36016,11.20288 -11.46556,20.93854 -12.53125,25.59375 15.32065,15.51969 34.56245,10.47127 45.96875,7.09375 2.42241,-5.42191 -0.2301,-17.92867 0.6875,-24.78125 l -2.96875,-0.0937 c -0.12638,0.98908 0.25176,2.07352 -1.125,2.75 -10e-4,-2.50088 -1.05624,-2.40193 -1.65625,-3.40625 -0.3856,1.78451 -1.01708,3.16936 -2.40625,3.28125 0.71176,-1.11041 0.34346,-1.97563 -0.625,-2.75 l -2.90625,-0.78125 c 0.81603,1.67715 -0.0566,2.9502 -0.5,4.3125 -0.45845,-2.66072 -1.27439,-4.62359 -2.40625,-5.9375 -0.13354,1.51341 -0.4128,2.97501 -1.875,4.15625 0.53325,-1.74815 0.52072,-3.3689 -0.625,-4.78125 l -8.09375,-1.78125 c -1.9868,0.6481 -2.30885,2.12595 -3.03125,3.40625 -0.21308,-1.30478 -0.54388,-2.60147 0.875,-3.90625 -1.10387,0.58353 -2.50291,0.98365 -2,2.53125 -1.6691,-1.17851 -1.62005,-2.38399 -1.65625,-3.5625 -1.2206,0.46493 -2.43565,1.50187 -3.65625,3.3125 0.006,-1.39622 -0.24674,-2.86447 1.375,-3.9375 l -0.84375,-0.71875 z"
       id="path3974"
       sodipodi:nodetypes="cccccccccccccccccccccc" />
    <path
       style="fill:#999999;fill-opacity:1;stroke:none"
       d="m 328.43482,548.30875 c -3.25424,4.34248 -7.84946,11.17873 -9.68837,20.71076 0.8693,1.46353 1.93855,1.92723 3.04315,2.2142 0.62211,-8.0982 2.34463,-11.80955 6.35679,-20.39958 l 0.28843,-2.52538 z"
       id="path3979"
       sodipodi:nodetypes="ccccc" />
    <path
       sodipodi:nodetypes="ccccc"
       id="path3981"
       d="m 431.8529,571.00655 c -3.25424,4.34248 -6.24231,11.89301 -8.08122,21.42504 0.8693,1.46353 1.22426,2.46295 2.32886,2.74992 0.62211,-8.0982 2.34463,-13.4167 6.35679,-22.00673 l -0.60443,-2.16823 z"
       style="fill:#999999;fill-opacity:1;stroke:none" />
  </g>
</svg>
