<?xml version="1.0" encoding="UTF-8" standalone="no"?>
<!-- Created with Inkscape (http://www.inkscape.org/) -->
<svg xmlns:dc="http://purl.org/dc/elements/1.1/" xmlns:cc="http://web.resource.org/cc/" xmlns:rdf="http://www.w3.org/1999/02/22-rdf-syntax-ns#" xmlns:svg="http://www.w3.org/2000/svg" xmlns="http://www.w3.org/2000/svg" xmlns:xlink="http://www.w3.org/1999/xlink" xmlns:sodipodi="http://sodipodi.sourceforge.net/DTD/sodipodi-0.dtd" xmlns:inkscape="http://www.inkscape.org/namespaces/inkscape" width="471.44763" height="631.09326" id="svg2" sodipodi:version="0.32" inkscape:version="0.44.1" sodipodi:docbase="/home/nicosmos/Desktop" sodipodi:docname="penguin1.svg" version="1.0">
  <defs id="defs4">
    <linearGradient inkscape:collect="always" id="linearGradient7305">
      <stop style="stop-color:black;stop-opacity:1;" offset="0" id="stop7307"/>
      <stop style="stop-color:black;stop-opacity:0;" offset="1" id="stop7309"/>
    </linearGradient>
    <linearGradient inkscape:collect="always" id="linearGradient7297">
      <stop style="stop-color:black;stop-opacity:1;" offset="0" id="stop7299"/>
      <stop style="stop-color:black;stop-opacity:0;" offset="1" id="stop7301"/>
    </linearGradient>
    <linearGradient inkscape:collect="always" id="linearGradient6400">
      <stop style="stop-color:white;stop-opacity:1;" offset="0" id="stop6402"/>
      <stop style="stop-color:white;stop-opacity:0;" offset="1" id="stop6404"/>
    </linearGradient>
    <linearGradient id="linearGradient6394">
      <stop id="stop6396" offset="0" style="stop-color:white;stop-opacity:1;"/>
      <stop id="stop6398" offset="1" style="stop-color:white;stop-opacity:0;"/>
    </linearGradient>
    <linearGradient id="linearGradient6386">
      <stop style="stop-color:black;stop-opacity:1;" offset="0" id="stop6388"/>
      <stop style="stop-color:black;stop-opacity:0;" offset="1" id="stop6390"/>
    </linearGradient>
    <linearGradient inkscape:collect="always" id="linearGradient5475">
      <stop style="stop-color:black;stop-opacity:1;" offset="0" id="stop5477"/>
      <stop style="stop-color:black;stop-opacity:0;" offset="1" id="stop5479"/>
    </linearGradient>
    <linearGradient id="linearGradient5467">
      <stop id="stop5469" offset="0" style="stop-color:#ecba00;stop-opacity:1;"/>
      <stop id="stop5471" offset="1" style="stop-color:#fdf200;stop-opacity:1;"/>
    </linearGradient>
    <linearGradient id="linearGradient3659">
      <stop style="stop-color:#fc0;stop-opacity:1;" offset="0" id="stop3661"/>
      <stop style="stop-color:#fc0;stop-opacity:0;" offset="1" id="stop3663"/>
    </linearGradient>
    <linearGradient id="linearGradient2760">
      <stop style="stop-color:black;stop-opacity:1;" offset="0" id="stop2762"/>
      <stop style="stop-color:#575757;stop-opacity:1;" offset="1" id="stop2764"/>
    </linearGradient>
    <linearGradient inkscape:collect="always" xlink:href="#linearGradient2760" id="linearGradient2766" x1="58.507713" y1="346.39517" x2="377.6951" y2="288.81647" gradientUnits="userSpaceOnUse" spreadMethod="pad" gradientTransform="matrix(0.999999,0,0,1,171.4175,140.6009)"/>
    <linearGradient inkscape:collect="always" xlink:href="#linearGradient3659" id="linearGradient3665" x1="204.56097" y1="244.22488" x2="192.23732" y2="127.16854" gradientUnits="userSpaceOnUse" gradientTransform="translate(171.4176,140.6008)"/>
    <linearGradient inkscape:collect="always" xlink:href="#linearGradient5475" id="linearGradient5481" x1="66.499634" y1="589.07507" x2="322.23547" y2="500.67249" gradientUnits="userSpaceOnUse" gradientTransform="translate(171.4176,140.6008)"/>
    <radialGradient inkscape:collect="always" xlink:href="#linearGradient5467" id="radialGradient5491" cx="230.27817" cy="505.85587" fx="230.27817" fy="505.85587" r="96.159515" gradientTransform="matrix(1.407378,-0.367261,0.219311,0.840427,-76.70797,336.0262)" gradientUnits="userSpaceOnUse"/>
    <radialGradient inkscape:collect="always" xlink:href="#linearGradient5467" id="radialGradient5495" gradientUnits="userSpaceOnUse" gradientTransform="matrix(1.56917,0.537394,-0.398085,1.162381,221.0384,-125.564)" cx="289.63315" cy="544.8905" fx="289.63315" fy="544.8905" r="96.159515"/>
    <linearGradient inkscape:collect="always" xlink:href="#linearGradient5475" id="linearGradient5497" gradientUnits="userSpaceOnUse" gradientTransform="translate(171.4174,140.6008)" x1="333.65887" y1="552.70959" x2="438.0827" y2="574.5282"/>
    <radialGradient inkscape:collect="always" xlink:href="#linearGradient6394" id="radialGradient6392" cx="259.94839" cy="422.45215" fx="259.94839" fy="422.45215" r="73.236061" gradientTransform="matrix(0.940861,-6.506112e-2,8.992195e-2,1.232198,107.7302,36.01113)" gradientUnits="userSpaceOnUse"/>
    <radialGradient inkscape:collect="always" xlink:href="#linearGradient6400" id="radialGradient6408" cx="259.94839" cy="422.45215" fx="259.94839" fy="422.45215" r="73.236061" gradientTransform="matrix(0.940861,-6.506112e-2,8.992195e-2,1.232198,107.7302,36.01113)" gradientUnits="userSpaceOnUse"/>
    <linearGradient inkscape:collect="always" xlink:href="#linearGradient7297" id="linearGradient7303" x1="232.50699" y1="557.89252" x2="467.5264" y2="555.6048" gradientUnits="userSpaceOnUse" gradientTransform="matrix(0.906591,0,0,0.649808,181.1304,373.5843)"/>
    <radialGradient inkscape:collect="always" xlink:href="#linearGradient7305" id="radialGradient7313" cx="250.52965" cy="134.45648" fx="250.52965" fy="134.45648" r="210.78871" gradientTransform="matrix(1.010806,-7.052444e-3,2.388624e-3,0.175885,138.3611,714.2253)" gradientUnits="userSpaceOnUse"/>
  </defs>
  <sodipodi:namedview id="base" pagecolor="#ffffff" bordercolor="#666666" borderopacity="1.0" inkscape:pageopacity="0.0" inkscape:pageshadow="2" inkscape:zoom="0.98994949" inkscape:cx="248.90148" inkscape:cy="266.61394" inkscape:document-units="px" inkscape:current-layer="layer1" inkscape:window-width="1590" inkscape:window-height="1067" inkscape:window-x="0" inkscape:window-y="30"/>
  <g inkscape:label="Calque 1" inkscape:groupmode="layer" id="layer1" transform="translate(-171.4176,-140.6008)">
    <path sodipodi:type="arc" style="opacity:0.50453174;fill:url(#radialGradient7313);fill-opacity:1;stroke:url(#linearGradient7303);stroke-width:0;stroke-linecap:butt;stroke-linejoin:miter;stroke-miterlimit:4;stroke-dasharray:none" id="path6410" sodipodi:cx="397.49503" sodipodi:cy="712.44586" sodipodi:rx="210.61681" sodipodi:ry="71.215752" d="M 355.42615,642.6652 A 210.61681,71.215752 0 1 1 266.48742,656.68376" sodipodi:start="4.5112951" sodipodi:end="10.324256" sodipodi:open="true" transform="matrix(1.103033,0,0,1.538916,-28.37532,-434.3138)"/>
    <path style="opacity:1;fill:url(#radialGradient5495);fill-opacity:1;fill-rule:evenodd;stroke:url(#linearGradient5497);stroke-width:0;stroke-linecap:butt;stroke-linejoin:miter;stroke-miterlimit:4;stroke-dasharray:none;stroke-opacity:1" d="M 568.69789,649.49634 C 432.82908,635.35421 456.91929,632.32375 430.90185,636.36436 C 404.88443,640.40497 415.48412,665.65878 415.48412,665.65878 C 415.48412,665.65878 440.53794,691.92275 479.08229,705.05473 C 517.62663,718.18672 573.51593,733.339 572.55232,718.18672 C 571.58872,703.03443 550.38932,691.92275 550.38932,691.92275 C 550.38932,691.92275 576.40676,708.08519 580.26119,694.95321 C 584.11563,681.82122 562.91623,668.68924 562.91623,668.68924 C 562.91623,668.68924 599.53336,675.76031 596.64253,665.65878 C 593.75171,655.55726 569.66149,649.49634 568.69789,649.49634 z " id="path5493" sodipodi:nodetypes="cscsscscsc"/>
    <path style="opacity:1;fill:url(#radialGradient5491);fill-opacity:1;fill-rule:evenodd;stroke:url(#linearGradient5481);stroke-width:0;stroke-linecap:butt;stroke-linejoin:miter;stroke-miterlimit:4;stroke-dasharray:none;stroke-opacity:1" d="M 243.44676,662.4433 C 385.87827,648.30117 360.62446,645.27071 387.89858,649.31132 C 415.17269,653.35193 404.06102,678.60574 404.06102,678.60574 C 404.06102,678.60574 377.79705,704.86971 337.39095,718.00169 C 296.98485,731.13368 238.396,746.28596 239.40615,731.13368 C 240.4163,715.98139 262.63966,704.86971 262.63966,704.86971 C 262.63966,704.86971 235.36554,721.03215 231.32493,707.90017 C 227.28432,694.76818 249.50768,681.6362 249.50768,681.6362 C 249.50768,681.6362 211.12188,688.70727 214.15234,678.60574 C 217.1828,668.50422 242.43661,662.4433 243.44676,662.4433 z " id="path4560" sodipodi:nodetypes="cscsscscsc"/>
    <path style="opacity:1;fill:url(#linearGradient2766);fill-opacity:1;fill-rule:evenodd;stroke:black;stroke-width:0;stroke-linecap:butt;stroke-linejoin:miter;stroke-miterlimit:4;stroke-dasharray:none;stroke-opacity:1" d="M 277.34185,395.22081 C 277.34185,395.22081 223.8686,212.13137 285.95136,167.90135 C 348.03415,123.6713 455.86115,129.78819 473.20985,211.39386 C 482.70204,256.0437 476.4164,357.65287 476.4164,357.65287 C 476.4164,357.65287 517.55933,415.64408 548.60072,450.04523 C 579.64209,484.44636 672.76627,533.59086 633.25903,533.59086 C 593.75183,533.59086 558.4937,506.56139 493.589,457.41691 C 493.589,457.41691 511.88303,559.00896 478.01967,645.01181 C 469.55384,666.51253 430.52038,686.05231 361.39085,652.20759 C 292.26132,618.36286 308.19312,440.21991 288.4395,462.33493 C 273.71321,478.82167 218.78495,547.82053 192.98384,565.38959 C 167.18274,582.95866 171.51893,556.16899 277.34185,395.22081 z " id="path1872" sodipodi:nodetypes="csscsscssssc"/>
    <path style="fill:url(#linearGradient3665);fill-opacity:1;fill-rule:evenodd;stroke:black;stroke-width:0;stroke-linecap:butt;stroke-linejoin:miter;stroke-miterlimit:4;stroke-dasharray:none;stroke-opacity:1" d="M 300.01531,264.81696 C 377.44351,384.67155 362.59426,385.73222 378.50417,384.67155 C 394.41407,383.61089 427.29454,242.54309 427.29454,242.54309 C 427.29454,242.54309 382.74681,231.93649 348.80568,237.23979 C 314.86456,242.54309 300.01531,266.93828 300.01531,264.81696 z " id="path2770"/>
    <path sodipodi:type="arc" style="opacity:1;fill:white;fill-opacity:1;stroke-width:0;stroke-linecap:butt;stroke-linejoin:miter;stroke-miterlimit:4;stroke-dasharray:none" id="path3667" sodipodi:cx="328.29959" sodipodi:cy="233.63354" sodipodi:rx="31.31473" sodipodi:ry="29.7995" d="M 359.61432 233.63354 A 31.31473 29.7995 0 1 1  296.98486,233.63354 A 31.31473 29.7995 0 1 1  359.61432 233.63354 z"/>
    <path sodipodi:type="arc" style="opacity:1;fill:white;fill-opacity:1;stroke-width:0;stroke-linecap:butt;stroke-linejoin:miter;stroke-miterlimit:4;stroke-dasharray:none" id="path4554" sodipodi:cx="404.061" sodipodi:cy="229.59294" sodipodi:rx="26.263966" sodipodi:ry="31.819805" d="M 430.32497 229.59294 A 26.263966 31.819805 0 1 1  377.79704,229.59294 A 26.263966 31.819805 0 1 1  430.32497 229.59294 z" transform="matrix(1.153846,0,0,1.079365,-58.12262,-26.80796)"/>
    <path sodipodi:type="arc" style="opacity:1;fill:black;fill-opacity:1;stroke-width:0;stroke-linecap:butt;stroke-linejoin:miter;stroke-miterlimit:4;stroke-dasharray:none" id="path4556" sodipodi:cx="333.85541" sodipodi:cy="236.664" sodipodi:rx="11.616755" sodipodi:ry="12.626906" d="M 345.47216 236.664 A 11.616755 12.626906 0 1 1  322.23865,236.664 A 11.616755 12.626906 0 1 1  345.47216 236.664 z" transform="translate(9.091373,-3.030458)"/>
    <path sodipodi:type="arc" style="opacity:1;fill:black;fill-opacity:1;stroke-width:0;stroke-linecap:butt;stroke-linejoin:miter;stroke-miterlimit:4;stroke-dasharray:none" id="path4558" sodipodi:cx="400.52548" sodipodi:cy="231.61324" sodipodi:rx="14.647212" sodipodi:ry="16.667517" d="M 415.17269 231.61324 A 14.647212 16.667517 0 1 1  385.87827,231.61324 A 14.647212 16.667517 0 1 1  415.17269 231.61324 z" transform="matrix(0.965517,0,0,0.939394,8.255387,9.996562)"/>
    <path sodipodi:type="arc" style="opacity:1;fill:url(#radialGradient6408);fill-opacity:1;stroke:url(#radialGradient6392);stroke-width:0;stroke-linecap:butt;stroke-linejoin:miter;stroke-miterlimit:4;stroke-dasharray:none" id="path5499" sodipodi:cx="397.49503" sodipodi:cy="535.16406" sodipodi:rx="73.236061" sodipodi:ry="103.03556" d="M 382.86676,434.20481 A 73.236061,103.03556 0 1 1 351.94082,454.48698" sodipodi:start="4.5112951" sodipodi:end="10.324256" sodipodi:open="true" transform="matrix(1.165442,0,0,1.197246,-48.58554,-125.8837)"/>
  </g>
  <metadata>
    <rdf:RDF>
      <cc:Work>
        <dc:format>image/svg+xml</dc:format>
        <dc:type rdf:resource="http://purl.org/dc/dcmitype/StillImage"/>
        <cc:license rdf:resource="http://creativecommons.org/licenses/publicdomain/"/>
        <dc:publisher>
          <cc:Agent rdf:about="http://openclipart.org/">
            <dc:title>Open Clip Art Library</dc:title>
          </cc:Agent>
        </dc:publisher>
        <dc:title>Penguin</dc:title>
        <dc:date>2007-03-02T00:53:49</dc:date>
        <dc:description>A funny penguin ...</dc:description>
        <dc:source>http://openclipart.org/detail/3378/penguin-by-nicosmos</dc:source>
        <dc:creator>
          <cc:Agent>
            <dc:title>Nicosmos</dc:title>
          </cc:Agent>
        </dc:creator>
        <dc:subject>
          <rdf:Bag>
            <rdf:li>animal</rdf:li>
            <rdf:li>animal</rdf:li>
            <rdf:li>clip art</rdf:li>
            <rdf:li>clipart</rdf:li>
            <rdf:li>image</rdf:li>
            <rdf:li>media</rdf:li>
            <rdf:li>penguin</rdf:li>
            <rdf:li>penguin</rdf:li>
            <rdf:li>public domain</rdf:li>
            <rdf:li>svg</rdf:li>
          </rdf:Bag>
        </dc:subject>
      </cc:Work>
      <cc:License rdf:about="http://creativecommons.org/licenses/publicdomain/">
        <cc:permits rdf:resource="http://creativecommons.org/ns#Reproduction"/>
        <cc:permits rdf:resource="http://creativecommons.org/ns#Distribution"/>
        <cc:permits rdf:resource="http://creativecommons.org/ns#DerivativeWorks"/>
      </cc:License>
    </rdf:RDF>
  </metadata>
</svg>
