<?xml version="1.0" encoding="UTF-8" standalone="no"?>
<!-- Created with Inkscape (http://www.inkscape.org/) -->
<svg
   xmlns:dc="http://purl.org/dc/elements/1.1/"
   xmlns:cc="http://creativecommons.org/ns#"
   xmlns:rdf="http://www.w3.org/1999/02/22-rdf-syntax-ns#"
   xmlns:svg="http://www.w3.org/2000/svg"
   xmlns="http://www.w3.org/2000/svg"
   xmlns:xlink="http://www.w3.org/1999/xlink"
   xmlns:sodipodi="http://sodipodi.sourceforge.net/DTD/sodipodi-0.dtd"
   xmlns:inkscape="http://www.inkscape.org/namespaces/inkscape"
   width="53.425869"
   height="139.80589"
   id="svg2963"
   sodipodi:version="0.32"
   inkscape:version="0.46"
   version="1.0"
   sodipodi:docname="berenjena.svg"
   inkscape:output_extension="org.inkscape.output.svg.inkscape">
  <defs
     id="defs2965">
    <linearGradient
       inkscape:collect="always"
       id="linearGradient3977">
      <stop
         style="stop-color:#3a2d49;stop-opacity:1;"
         offset="0"
         id="stop3979" />
      <stop
         style="stop-color:#3a2d49;stop-opacity:0;"
         offset="1"
         id="stop3981" />
    </linearGradient>
    <linearGradient
       inkscape:collect="always"
       xlink:href="#linearGradient3977"
       id="linearGradient4464"
       gradientUnits="userSpaceOnUse"
       gradientTransform="matrix(-0.6769034,0.622784,-0.6459267,-0.7020571,1207.2499,-108.61788)"
       x1="375.01926"
       y1="812.81995"
       x2="394.8259"
       y2="741.47198" />
    <linearGradient
       inkscape:collect="always"
       xlink:href="#linearGradient11522"
       id="linearGradient22271"
       gradientUnits="userSpaceOnUse"
       gradientTransform="translate(-61.09802,-4.7485508)"
       x1="293.14386"
       y1="455.16614"
       x2="187.72606"
       y2="601.42151" />
    <linearGradient
       inkscape:collect="always"
       xlink:href="#linearGradient11522"
       id="linearGradient22269"
       gradientUnits="userSpaceOnUse"
       gradientTransform="translate(10.747738,1.3671305)"
       x1="203.46295"
       y1="438.74857"
       x2="95.920723"
       y2="676.80927" />
    <linearGradient
       inkscape:collect="always"
       id="linearGradient11522">
      <stop
         style="stop-color:#b3d200;stop-opacity:1;"
         offset="0"
         id="stop11524" />
      <stop
         style="stop-color:#b3d200;stop-opacity:0;"
         offset="1"
         id="stop11526" />
    </linearGradient>
    <linearGradient
       inkscape:collect="always"
       xlink:href="#linearGradient11522"
       id="linearGradient22267"
       gradientUnits="userSpaceOnUse"
       x1="203.46295"
       y1="438.74857"
       x2="137.51428"
       y2="609.37982" />
    <linearGradient
       inkscape:collect="always"
       id="linearGradient11512">
      <stop
         style="stop-color:#42c43e;stop-opacity:1"
         offset="0"
         id="stop11514" />
      <stop
         style="stop-color:#2d852a;stop-opacity:0;"
         offset="1"
         id="stop11516" />
    </linearGradient>
    <linearGradient
       inkscape:collect="always"
       xlink:href="#linearGradient11512"
       id="linearGradient22265"
       gradientUnits="userSpaceOnUse"
       x1="218.4155"
       y1="431.28537"
       x2="143.11111"
       y2="574.375" />
    <inkscape:perspective
       sodipodi:type="inkscape:persp3d"
       inkscape:vp_x="0 : 526.18109 : 1"
       inkscape:vp_y="0 : 1000 : 0"
       inkscape:vp_z="744.09448 : 526.18109 : 1"
       inkscape:persp3d-origin="372.04724 : 350.78739 : 1"
       id="perspective2971" />
  </defs>
  <sodipodi:namedview
     id="base"
     pagecolor="#ffffff"
     bordercolor="#666666"
     borderopacity="1.0"
     inkscape:pageopacity="0.0"
     inkscape:pageshadow="2"
     inkscape:zoom="0.35"
     inkscape:cx="350"
     inkscape:cy="520"
     inkscape:document-units="px"
     inkscape:current-layer="layer1"
     showgrid="false"
     inkscape:window-width="640"
     inkscape:window-height="635"
     inkscape:window-x="378"
     inkscape:window-y="57"
     inkscape:object-paths="false" />
  <metadata
     id="metadata2968">
    <rdf:RDF>
      <cc:Work
         rdf:about="">
        <dc:format>image/svg+xml</dc:format>
        <dc:type
           rdf:resource="http://purl.org/dc/dcmitype/StillImage" />
      </cc:Work>
    </rdf:RDF>
  </metadata>
  <g
     inkscape:label="Capa 1"
     inkscape:groupmode="layer"
     id="layer1"
     transform="translate(-158.7329,-523.42349)">
    <g
       id="g23037"
       transform="matrix(0.7584135,-0.4117714,0.4117714,0.7584135,-97.719223,374.00953)"
       inkscape:transform-center-x="26.712935"
       inkscape:transform-center-y="-32.142857">
      <g
         id="g22987">
        <g
           id="g22938"
           transform="translate(-28.216701,203.16025)">
          <g
             id="g22890">
            <g
               id="g7960"
               transform="matrix(0.3892869,0.1258553,0.1375769,-0.4255432,264.97725,-94.75861)">
              <g
                 inkscape:transform-center-x="29.919035"
                 transform="matrix(-0.931901,0.3627126,-0.3627126,-0.931901,931.8659,36.432816)"
                 id="g6760">
                <g
                   id="g6764" />
              </g>
              <g
                 id="g4451"
                 transform="matrix(2.1954467,0,0,2.1954467,-976.16539,200.6029)">
                <path
                   style="fill:#829a6b;fill-opacity:1;fill-rule:evenodd;stroke:none;stroke-width:3.0999999;stroke-linecap:butt;stroke-linejoin:miter;stroke-miterlimit:4;stroke-dasharray:none;stroke-opacity:1"
                   d="M 488.89865,-320.13685 C 489.83721,-321.59279 486.5434,-332.21939 486.23236,-333.50133 C 485.92132,-334.78328 486.18701,-333.74139 486.14207,-333.83301 C 486.09713,-333.92464 486.42584,-333.45684 485.93938,-334.10171 C 485.45292,-334.74658 484.10945,-337.9638 482.89899,-338.13213 C 481.68852,-338.30046 480.59204,-337.4259 480.42864,-336.26133 C 480.26524,-335.09676 482.4772,-334.2186 483.27454,-332.46945 C 484.07188,-330.72029 483.56102,-325.4822 484.97011,-324.57512 C 486.3792,-323.66805 487.96009,-318.68092 488.89865,-320.13685 z"
                   id="path3995"
                   sodipodi:nodetypes="czzzzzzzz" />
                <path
                   style="fill:#829a6b;fill-opacity:1;fill-rule:evenodd;stroke:none;stroke-width:3.0999999;stroke-linecap:butt;stroke-linejoin:miter;stroke-miterlimit:4;stroke-dasharray:none;stroke-opacity:1"
                   d="M 478.71311,-318.17417 C 480.23436,-319.88765 477.50691,-333.34874 475.63703,-334.82741 C 473.76715,-336.30609 474.03761,-336.34518 472.55894,-334.4753 C 471.08026,-332.60543 474.59991,-321.58998 475.63755,-323.16851 C 476.67519,-324.74705 477.19186,-316.46069 478.71311,-318.17417 z"
                   id="path3997"
                   sodipodi:nodetypes="czzzz" />
                <path
                   style="fill:#829a6b;fill-opacity:1;fill-rule:evenodd;stroke:none;stroke-width:3.0999999;stroke-linecap:butt;stroke-linejoin:miter;stroke-miterlimit:4;stroke-dasharray:none;stroke-opacity:1"
                   d="M 478.56845,-297.40853 L 478.9864,-310.1545 C 478.9864,-310.1545 474.60164,-306.97569 473.6251,-305.45514 C 472.64856,-303.93459 473.99158,-297.71502 475.51213,-296.73848 C 477.03268,-295.76194 478.56845,-297.40853 478.56845,-297.40853 z"
                   id="path3999"
                   sodipodi:nodetypes="cczzc" />
                <path
                   style="fill:#552f53;fill-opacity:1;fill-rule:evenodd;stroke:#000039;stroke-width:3.20813346;stroke-linecap:butt;stroke-linejoin:miter;stroke-miterlimit:4;stroke-dasharray:none;stroke-opacity:1"
                   d="M 479.26482,-300.46663 C 479.61302,-302.93182 474.5481,-306.3361 474.29534,-308.63819 C 474.04258,-310.94029 474.50134,-312.89211 476.18628,-314.20108 C 477.87122,-315.51004 482.52131,-313.5708 484.5098,-314.85006 C 486.49829,-316.12931 487.49077,-319.37117 488.09855,-321.33781 C 488.70632,-323.30446 487.61477,-325.44763 488.69194,-327.61845 C 489.76911,-329.78927 495.46264,-331.96733 495.93862,-334.28575 C 496.41461,-336.60417 494.29086,-334.83314 493.50906,-339.69668 C 492.72726,-344.56022 496.46205,-356.00787 496.28286,-366.46182 C 496.10367,-376.91577 493.06152,-398.44089 490.41524,-408.85236 C 487.76896,-419.26382 484.9055,-428.97609 480.25512,-435.82422 C 475.60473,-442.67234 467.6449,-450.90242 460.75025,-453.56126 C 453.85559,-456.2201 444.11786,-456.42208 437.85016,-453.51925 C 431.58247,-450.61641 425.30635,-442.93684 422.84618,-435.89172 C 420.38601,-428.84661 422.28958,-416.4037 423.73031,-409.30612 C 425.17104,-402.20853 428.53303,-395.597 431.51604,-389.07032 C 434.49904,-382.54364 440.63419,-374.74197 443.8294,-365.99112 C 447.02461,-357.24028 448.92516,-336.60198 451.32565,-330.83369 C 453.72615,-325.06539 453.87917,-327.46754 454.44538,-326.05775 C 455.01158,-324.64795 453.94827,-323.78703 455.25991,-321.70965 C 456.57154,-319.63226 463.58452,-317.12164 464.92257,-314.67009 C 466.26063,-312.21855 466.2893,-309.63211 465.30924,-308.0168 C 464.32918,-306.40149 460.4734,-307.81775 459.89832,-305.58723 C 459.32324,-303.35671 463.29204,-299.59271 465.55797,-298.05065 C 467.82389,-296.50858 471.77343,-295.14338 474.08862,-295.70427 C 476.40382,-296.26516 478.91663,-298.00144 479.26482,-300.46663 z"
                   id="path6687"
                   sodipodi:nodetypes="czzzzzzzzzzzzzzzzzzzzzzzzz" />
                <path
                   style="fill:url(#linearGradient4464);fill-opacity:1;fill-rule:evenodd;stroke:none;stroke-width:2.5999999;stroke-linecap:butt;stroke-linejoin:miter;stroke-miterlimit:4;stroke-dasharray:none;stroke-opacity:1"
                   d="M 479.12323,-308.7517 C 479.40697,-311.05892 474.61085,-314.33951 474.33519,-316.50392 C 474.05953,-318.66834 474.45544,-320.49197 476.00938,-321.69151 C 477.56333,-322.89105 481.94643,-320.99222 483.78485,-322.15871 C 485.62326,-323.3252 486.49649,-326.35021 487.03158,-328.18521 C 487.56665,-330.02021 486.50901,-332.04979 487.47971,-334.06838 C 488.45041,-336.08697 493.73953,-338.03374 494.14532,-340.20106 C 494.55111,-342.36839 492.59454,-340.74275 491.78035,-345.31965 C 490.96616,-349.89655 494.26502,-360.57457 493.91936,-370.38682 C 493.57368,-380.19907 490.36121,-400.44844 487.70834,-410.26285 C 485.05547,-420.07727 482.21134,-429.2393 477.74435,-435.74426 C 473.27737,-442.24924 465.69091,-450.10728 459.1958,-452.71957 C 452.70067,-455.33184 443.58774,-455.68721 437.77385,-453.07016 C 431.95996,-450.4531 426.21955,-443.35405 424.03809,-436.78534 C 421.85662,-430.21664 423.84929,-418.50872 425.31795,-411.82435 C 426.78661,-405.13996 430.04431,-398.87893 432.94601,-392.70398 C 435.84772,-386.52903 441.71993,-379.10404 444.85803,-370.83848 C 447.99612,-362.57293 450.12555,-343.17513 452.46941,-337.72171 C 454.81327,-332.26829 454.91551,-334.51968 455.4692,-333.18719 C 456.02289,-331.8547 455.04284,-331.06499 456.30523,-329.09339 C 457.56762,-327.12179 464.1709,-324.64657 465.46439,-322.32343 C 466.75787,-320.00029 466.82875,-317.57289 465.93942,-316.07389 C 465.0501,-314.57489 461.41896,-315.96948 460.91897,-313.88631 C 460.41898,-311.80316 464.19583,-308.20371 466.34183,-306.71817 C 468.48783,-305.23262 472.2058,-303.88435 474.36208,-304.37122 C 476.51836,-304.85808 478.83948,-306.44448 479.12323,-308.7517 z"
                   id="path6689"
                   sodipodi:nodetypes="czzzzzzzzzzzzzzzzzzzzzzzzz" />
                <path
                   style="fill:#774666;fill-opacity:1;fill-rule:nonzero;stroke:none;stroke-width:2.5999999;stroke-linecap:round;stroke-linejoin:round;stroke-miterlimit:4;stroke-dasharray:none;stroke-dashoffset:758.4001215;stroke-opacity:1"
                   d="M 484.93143,-412.05453 C 476.28957,-446.18474 458.25496,-448.31174 443.1427,-451.56498 C 464.07997,-430.15118 475.64176,-426.89911 488.53639,-350.35761 C 491.03229,-386.99341 489.77103,-391.60302 484.93143,-412.05453 z"
                   id="path6691"
                   sodipodi:nodetypes="cccc" />
                <path
                   style="fill:#93b279;fill-opacity:1;fill-rule:evenodd;stroke:none;stroke-width:1px;stroke-linecap:butt;stroke-linejoin:miter;stroke-opacity:1"
                   d="M 494.24081,-333.36087 C 494.71679,-335.67929 495.15424,-338.03695 491.81124,-338.7718 C 488.46824,-339.50664 483.14051,-327.36827 479.07086,-327.68722 C 475.00122,-328.00618 474.69438,-333.44626 472.43115,-335.59647 C 470.16792,-337.74669 466.66461,-341.5965 464.06603,-341.91828 C 461.46746,-342.24005 458.35728,-341.0711 457.64746,-339.19881 C 456.93764,-337.32652 462.14775,-334.99044 460.39452,-333.4428 C 458.64128,-331.89515 454.5558,-338.81996 452.63679,-338.41188 C 450.71778,-338.00379 450.71904,-337.39863 450.51113,-335.18179 C 450.30322,-332.96496 453.69591,-326.67383 454.73528,-325.0501 C 455.77466,-323.42637 455.77165,-324.30757 456.00525,-323.66977 C 456.23885,-323.03197 456.13468,-323.05969 457.22002,-320.96431 C 458.30537,-318.86894 465.56335,-316.62745 466.88269,-313.92476 C 468.20203,-311.22207 467.52789,-308.5159 466.26172,-306.98156 C 464.99556,-305.44722 460.97953,-307.7622 460.21581,-305.24215 C 459.45209,-302.72211 465.00584,-297.78631 467.4905,-296.64274 C 469.97516,-295.49917 472.80055,-296.12467 474.4613,-296.68433 C 476.12205,-297.24399 477.81473,-297.20217 478.22959,-299.51416 C 478.64444,-301.82615 472.62655,-306.05945 472.30763,-308.72097 C 471.9887,-311.38249 472.47987,-313.8391 474.57124,-315.26391 C 476.66261,-316.68872 481.89953,-312.81917 484.5098,-314.85006 C 487.12007,-316.88095 485.36716,-323.8314 486.99412,-326.69357 C 488.62109,-329.55574 493.76482,-331.04245 494.24081,-333.36087 z"
                   id="path6693"
                   sodipodi:nodetypes="czzzzzzzzzzzzzzzzzzzzzz" />
                <path
                   style="fill:#829a6b;fill-opacity:1;fill-rule:evenodd;stroke:none;stroke-width:3.0999999;stroke-linecap:butt;stroke-linejoin:miter;stroke-miterlimit:4;stroke-dasharray:none;stroke-opacity:1"
                   d="M 483.14239,-316.46466 C 484.85576,-317.69538 483.2387,-323.06679 484.13014,-325.31426 C 485.02158,-327.56173 488.68758,-329.55427 488.46186,-331.08315 C 488.23615,-332.61203 490.55831,-333.35574 488.96789,-333.119 C 487.37748,-332.88226 482.143,-327.75333 481.40532,-326.79893 C 480.66764,-325.84453 481.19542,-326.59349 481.14867,-326.47787 C 481.10191,-326.36225 481.41416,-327.4416 481.10912,-326.05931 C 480.80408,-324.67702 480.69582,-318.93392 481.73089,-317.07645 C 482.76595,-315.21899 481.42901,-315.23394 483.14239,-316.46466 z"
                   id="path6695"
                   sodipodi:nodetypes="czzzzzzzz" />
                <path
                   style="fill:#829a6b;fill-opacity:1;fill-rule:evenodd;stroke:none;stroke-width:3.0999999;stroke-linecap:butt;stroke-linejoin:miter;stroke-miterlimit:4;stroke-dasharray:none;stroke-opacity:1"
                   d="M 475.14921,-325.24451 C 475.31283,-326.96899 467.4999,-334.88935 466.63402,-335.88453 C 465.76814,-336.8797 466.48333,-336.07682 466.40128,-336.1375 C 466.31922,-336.19817 466.82628,-335.93402 466.0977,-336.28283 C 465.36912,-336.63165 462.69629,-338.87027 461.54407,-338.46291 C 460.39185,-338.05555 459.82057,-336.77462 460.21119,-335.66542 C 460.60181,-334.55621 462.96981,-334.794 464.4824,-333.60768 C 465.995,-332.42136 467.95095,-327.53538 469.61937,-327.37816 C 471.28778,-327.22095 474.98559,-323.52002 475.14921,-325.24451 z"
                   id="path6697"
                   sodipodi:nodetypes="czzzzzzzz" />
                <path
                   style="fill:#829a6b;fill-opacity:1;fill-rule:evenodd;stroke:none;stroke-width:3.0999999;stroke-linecap:butt;stroke-linejoin:miter;stroke-miterlimit:4;stroke-dasharray:none;stroke-opacity:1"
                   d="M 467.00816,-318.81639 C 467.57069,-321.0376 458.95675,-331.73527 456.61626,-332.18805 C 454.27577,-332.64083 454.49793,-332.79995 454.04514,-330.45946 C 453.59236,-328.11897 461.78469,-319.95724 461.97989,-321.83617 C 462.17509,-323.7151 466.44562,-316.59519 467.00816,-318.81639 z"
                   id="path6699"
                   sodipodi:nodetypes="czzzz" />
                <path
                   style="fill:#829a6b;fill-opacity:1;fill-rule:evenodd;stroke:none;stroke-width:3.0999999;stroke-linecap:butt;stroke-linejoin:miter;stroke-miterlimit:4;stroke-dasharray:none;stroke-opacity:1"
                   d="M 476.43204,-300.31172 L 470.93992,-311.82132 C 470.93992,-311.82132 468.50889,-306.98178 468.34127,-305.18245 C 468.17365,-303.38312 472.22718,-298.47846 474.02652,-298.31084 C 475.82585,-298.14322 476.43204,-300.31172 476.43204,-300.31172 z"
                   id="path6701"
                   sodipodi:nodetypes="cczzc" />
              </g>
            </g>
          </g>
        </g>
      </g>
    </g>
  </g>
</svg>
